<svg xmlns="http://www.w3.org/2000/svg" width="348.757" height="82" viewBox="0 0 348.757 82">
  <g id="College-of-Computing_and_mathemathics" data-name="College-of-Computing and mathemathics" transform="translate(-0.803)">
    <g id="Group_1" data-name="Group 1" transform="translate(1 13)">
      <path id="Path_573" data-name="Path 573" d="M21.812,20h-3V4.768H18.76L13.44,20H10.416L5.1,4.768H5.04V20h-3V.68h4.48L11.9,16.108h.056L17.36.68h4.452Zm13.944-7.476h-7.9a5.918,5.918,0,0,0,1.414,3.906,4.483,4.483,0,0,0,3.6,1.694,7.594,7.594,0,0,0,2.548-.5v2.156a11.954,11.954,0,0,1-3.724.532,6.078,6.078,0,0,1-5.054-2.086,8.7,8.7,0,0,1-1.666-5.586A6.9,6.9,0,0,1,26.39,8.03a5.325,5.325,0,0,1,4.3-1.666,4.781,4.781,0,0,1,3.78,1.456,5.746,5.746,0,0,1,1.288,3.948Zm-2.94-1.876a2.215,2.215,0,0,0-.644-1.68,2.368,2.368,0,0,0-1.708-.616A2.431,2.431,0,0,0,28.756,9a2.547,2.547,0,0,0-.812,1.652ZM49,20H45.892V18.152h-.056a3.387,3.387,0,0,1-1.372,1.512,3.642,3.642,0,0,1-1.96.644q-4.564,0-4.564-6.972a12.745,12.745,0,0,1,.21-2.352,10.751,10.751,0,0,1,.672-2.212,3.952,3.952,0,0,1,1.414-1.75A3.889,3.889,0,0,1,42.5,6.364a3.591,3.591,0,0,1,3.332,1.9h.056V.68H49Zm-3.108-6.664q0-4.564-2.352-4.564a1.866,1.866,0,0,0-1.288.448,2.385,2.385,0,0,0-.7,1.274,10.662,10.662,0,0,0-.252,1.414q-.056.588-.056,1.428,0,4.564,2.3,4.564a1.667,1.667,0,0,0,1.2-.49,2.812,2.812,0,0,0,.728-1.26,10.6,10.6,0,0,0,.322-1.456A9.593,9.593,0,0,0,45.892,13.336ZM56,3.76H52.892V.68H56ZM56,20H52.892V6.672H56Zm13.748,0H66.78V18.46h-.056a3.482,3.482,0,0,1-3.472,1.848,4.212,4.212,0,0,1-2.8-.938,3.165,3.165,0,0,1-1.12-2.562,3.791,3.791,0,0,1,.5-1.988,3.908,3.908,0,0,1,1.218-1.3,6.108,6.108,0,0,1,1.82-.742,13.574,13.574,0,0,1,1.946-.364q.84-.084,1.96-.112V10.984q0-2.436-1.876-2.436a1.807,1.807,0,0,0-2.044,2.044H59.836A3.7,3.7,0,0,1,61.25,7.4,6.029,6.029,0,0,1,64.9,6.364q4.844,0,4.844,4.144ZM66.78,14.12a9.3,9.3,0,0,0-1.344.1,8.8,8.8,0,0,0-1.414.336,2.664,2.664,0,0,0-1.2.756,1.771,1.771,0,0,0-.462,1.218,1.436,1.436,0,0,0,1.652,1.6,2.239,2.239,0,0,0,2.086-1.232A5.6,5.6,0,0,0,66.78,14.12ZM95.2,5.972H91.56Q91.616,2.7,88.7,2.7a3.239,3.239,0,0,0-2.1.7,3.858,3.858,0,0,0-1.246,1.876A12.856,12.856,0,0,0,84.84,7.5a17.084,17.084,0,0,0-.14,2.254q0,7.98,5.264,7.98A8.924,8.924,0,0,0,94.472,16.3v2.884a13.216,13.216,0,0,1-5.264,1.12,8.518,8.518,0,0,1-3.822-.8,6.157,6.157,0,0,1-2.52-2.226,10.646,10.646,0,0,1-1.344-3.164,15.942,15.942,0,0,1-.434-3.864,16.99,16.99,0,0,1,.378-3.724,10.98,10.98,0,0,1,1.2-3.108,5.774,5.774,0,0,1,2.366-2.24A7.765,7.765,0,0,1,88.7.372a7.314,7.314,0,0,1,4.662,1.442A4.975,4.975,0,0,1,95.2,5.972Zm12.1,6.552H99.4a5.918,5.918,0,0,0,1.414,3.906,4.483,4.483,0,0,0,3.6,1.694,7.594,7.594,0,0,0,2.548-.5v2.156a11.954,11.954,0,0,1-3.724.532,6.078,6.078,0,0,1-5.054-2.086,8.7,8.7,0,0,1-1.666-5.586A6.9,6.9,0,0,1,97.93,8.03a5.325,5.325,0,0,1,4.3-1.666,4.781,4.781,0,0,1,3.78,1.456,5.746,5.746,0,0,1,1.288,3.948Zm-2.94-1.876a2.215,2.215,0,0,0-.644-1.68A2.368,2.368,0,0,0,102,8.352,2.431,2.431,0,0,0,100.3,9a2.547,2.547,0,0,0-.812,1.652ZM121.016,20h-3.108V12.384q0-2.408-.476-2.856a1.254,1.254,0,0,0-.9-.252,2.279,2.279,0,0,0-1.792.9,5.127,5.127,0,0,0-1.05,1.974,7.916,7.916,0,0,0-.294,2.086V20h-3.108V6.672H113.4V9.164h.056a4.018,4.018,0,0,1,3.948-2.8,3.118,3.118,0,0,1,2.7,1.26,5.216,5.216,0,0,1,.91,3.136Zm12.1-11.172h-3.948v6.3q0,.56.028.924a3.979,3.979,0,0,0,.154.8,1.756,1.756,0,0,0,.35.686,1.708,1.708,0,0,0,.616.42,2.413,2.413,0,0,0,.952.168,6.885,6.885,0,0,0,1.428-.224v2.184a15.524,15.524,0,0,1-2.548.224,4.789,4.789,0,0,1-3.094-.826,3.518,3.518,0,0,1-.994-2.842V8.828h-2.6V6.672h2.6V3.508l3.108-1.876v5.04h3.948Zm12.04,3.7h-7.9a5.918,5.918,0,0,0,1.414,3.906,4.483,4.483,0,0,0,3.6,1.694,7.594,7.594,0,0,0,2.548-.5v2.156a11.954,11.954,0,0,1-3.724.532,6.078,6.078,0,0,1-5.054-2.086,8.7,8.7,0,0,1-1.666-5.586,6.9,6.9,0,0,1,1.414-4.606,5.325,5.325,0,0,1,4.3-1.666,4.781,4.781,0,0,1,3.78,1.456,5.746,5.746,0,0,1,1.288,3.948Zm-2.94-1.876a2.215,2.215,0,0,0-.644-1.68,2.368,2.368,0,0,0-1.708-.616A2.431,2.431,0,0,0,138.152,9a2.547,2.547,0,0,0-.812,1.652Zm13.356-1.036a4.44,4.44,0,0,0-3.36,1.078,4.954,4.954,0,0,0-1.008,3.458V20h-3.108V6.672H151.2V9.136h.056a5.955,5.955,0,0,1,1.764-2.128,4.48,4.48,0,0,1,2.548-.644Z" transform="translate(96 25.46)" fill="#fff"/>
      <path id="Path_574" data-name="Path 574" d="M6.325,0H4.763L2.112-3.7H2.09V0H.8V-7.59H2.09v3.311h.022L4.554-7.59H6.116L3.432-3.982ZM8.492,0H7.2V-7.59H8.492Zm7.414,0H14.465L11.4-5.863h-.022V0H10.2V-7.59h1.584L14.707-2h.022V-7.59h1.177Zm7.04-.572A3.124,3.124,0,0,1,21.84-.06a4.951,4.951,0,0,1-1.281.181,3.355,3.355,0,0,1-1.5-.313,2.521,2.521,0,0,1-1.007-.863,4.071,4.071,0,0,1-.55-1.237,5.918,5.918,0,0,1-.181-1.512q0-3.905,3-3.9a3,3,0,0,1,1.837.517,1.873,1.873,0,0,1,.693,1.606h-1.43a1.29,1.29,0,0,0-.292-.869,1.007,1.007,0,0,0-.809-.341,1.257,1.257,0,0,0-.737.214,1.472,1.472,0,0,0-.467.511,2.784,2.784,0,0,0-.253.748,5.214,5.214,0,0,0-.11.775q-.016.325-.017.743,0,3.014,1.815,3.014a1.531,1.531,0,0,0,1.1-.3v-2.42h-1.43v-.913h2.717Zm9.185-6.039h-3v2.189h2.838v.979H29.128V0H27.841V-7.59h4.29ZM39.16,0H37.818l-.66-2.057H34.43L33.77,0H32.428l2.6-7.59h1.551ZM36.85-3.036,35.805-6.369h-.022L34.738-3.036ZM45.375,0H44.088V-3.465H41.36V0H40.073V-7.59H41.36v3.146h2.728V-7.59h1.287Zm6.963-3.817q0,3.047-1.859,3.641A4.92,4.92,0,0,1,49.005,0H47.124V-7.59h1.881a4.854,4.854,0,0,1,1.633.237,2.145,2.145,0,0,1,1.023.732,3.08,3.08,0,0,1,.522,1.166A7.45,7.45,0,0,1,52.338-3.817Zm-1.419,0q0-.429-.016-.72a6.327,6.327,0,0,0-.077-.66,1.964,1.964,0,0,0-.187-.605,2.086,2.086,0,0,0-.33-.451,1.23,1.23,0,0,0-.533-.319,2.557,2.557,0,0,0-.77-.1h-.594V-.913h.594a2.14,2.14,0,0,0,1.078-.231,1.448,1.448,0,0,0,.572-.759,3.529,3.529,0,0,0,.231-.935Q50.919-3.245,50.919-3.817Zm11.374,1.5A2.31,2.31,0,0,1,61.6-.484a2.848,2.848,0,0,1-1.936.6A2.828,2.828,0,0,1,57.734-.5a2.291,2.291,0,0,1-.709-1.82V-7.59h1.287v5.269q0,1.529,1.353,1.529t1.342-1.529V-7.59h1.287ZM69.652,0H68.211L65.142-5.863H65.12V0H63.943V-7.59h1.584L68.453-2h.022V-7.59h1.177Zm2.992,0H71.357V-7.59h1.287Zm7.4-7.59L77.44,0H75.889L73.348-7.59H74.69l1.98,6.105h.022L78.705-7.59ZM85.294,0H80.773V-7.59h4.433v.979H82.06v2.189h2.981v.979H82.06V-.979h3.234Zm6.325,0H90.31l-.352-1.639q-.088-.418-.137-.6a2.778,2.778,0,0,0-.16-.429.768.768,0,0,0-.264-.341,1.526,1.526,0,0,0-.407-.171,2.342,2.342,0,0,0-.627-.072h-.506V0H86.57V-7.59h2.3q2.442,0,2.442,1.991a1.684,1.684,0,0,1-.374,1.171,2.136,2.136,0,0,1-1.133.589v.022a1.45,1.45,0,0,1,.929.523,3.539,3.539,0,0,1,.424,1.16ZM90-5.456a1.309,1.309,0,0,0-.286-.9,1.069,1.069,0,0,0-.847-.325H87.857v2.508h.506a2.245,2.245,0,0,0,1.2-.275A1.1,1.1,0,0,0,90-5.456Zm7.414,3.421a2.072,2.072,0,0,1-.237,1.007,1.733,1.733,0,0,1-.644.677,3.183,3.183,0,0,1-.885.358,4.375,4.375,0,0,1-1.029.115,8.812,8.812,0,0,1-2.1-.319V-1.529a4.173,4.173,0,0,0,2.145.737,1.653,1.653,0,0,0,.951-.259.9.9,0,0,0,.379-.8,1.146,1.146,0,0,0-.374-.825,3.755,3.755,0,0,0-.9-.655q-.528-.281-1.062-.583a3.084,3.084,0,0,1-.908-.775,1.676,1.676,0,0,1-.374-1.067,1.677,1.677,0,0,1,.4-1.149,2.1,2.1,0,0,1,.963-.632,4.139,4.139,0,0,1,1.243-.176,9.848,9.848,0,0,1,1.859.209v1.188q-.44-.176-.649-.247t-.567-.154a3.056,3.056,0,0,0-.687-.082,1.379,1.379,0,0,0-.819.231.806.806,0,0,0-.325.7.9.9,0,0,0,.374.682,4.807,4.807,0,0,0,.9.594q.528.275,1.062.594a3.124,3.124,0,0,1,.908.819A1.853,1.853,0,0,1,97.416-2.035ZM99.891,0H98.6V-7.59h1.287Zm5.984-6.611h-1.9V0h-1.287V-6.611h-1.9V-7.59h5.093Zm6.215-.979-2.508,4.07V0h-1.287V-3.52l-2.5-4.07h1.463l1.683,2.728,1.683-2.728Zm6.842-.121Q122-7.711,122-3.8T118.932.121a3.353,3.353,0,0,1-1.5-.308,2.213,2.213,0,0,1-.951-.869,4.1,4.1,0,0,1-.473-1.227,7.236,7.236,0,0,1-.143-1.513,7.236,7.236,0,0,1,.143-1.512,4.1,4.1,0,0,1,.473-1.227,2.213,2.213,0,0,1,.951-.869A3.353,3.353,0,0,1,118.932-7.711Zm0,6.919q1.65,0,1.65-3t-1.65-3q-1.65,0-1.65,3T118.932-.792Zm8.778-5.819h-3v2.189h2.838v.979h-2.838V0H123.42V-7.59h4.29ZM136.8-5.4a1.866,1.866,0,0,1-.748,1.644,3.268,3.268,0,0,1-1.914.523h-.671V0h-1.287V-7.59h1.958a3.463,3.463,0,0,1,1.98.473A1.946,1.946,0,0,1,136.8-5.4Zm-1.309,0a1.262,1.262,0,0,0-.33-.979,1.5,1.5,0,0,0-1.023-.3h-.671v2.53h.671a1.452,1.452,0,0,0,.984-.319A1.169,1.169,0,0,0,135.487-5.4ZM142.318,0H137.8V-7.59h4.433v.979h-3.146v2.189h2.981v.979h-2.981V-.979h3.234ZM147.9-6.611h-1.9V0h-1.287V-6.611h-1.9V-7.59H147.9ZM153.846,0h-1.309l-.352-1.639q-.088-.418-.137-.6a2.778,2.778,0,0,0-.16-.429.768.768,0,0,0-.264-.341,1.526,1.526,0,0,0-.407-.171,2.342,2.342,0,0,0-.627-.072h-.506V0H148.8V-7.59h2.3q2.442,0,2.442,1.991a1.684,1.684,0,0,1-.374,1.171,2.136,2.136,0,0,1-1.133.589v.022a1.45,1.45,0,0,1,.93.523,3.539,3.539,0,0,1,.423,1.16Zm-1.617-5.456a1.309,1.309,0,0,0-.286-.9,1.069,1.069,0,0,0-.847-.325h-1.012v2.508h.506a2.245,2.245,0,0,0,1.2-.275A1.1,1.1,0,0,0,152.229-5.456Zm5.566-2.255q3.069,0,3.069,3.916T157.795.121a3.353,3.353,0,0,1-1.5-.308,2.213,2.213,0,0,1-.951-.869,4.1,4.1,0,0,1-.473-1.227,7.236,7.236,0,0,1-.143-1.513,7.236,7.236,0,0,1,.143-1.512,4.1,4.1,0,0,1,.473-1.227,2.213,2.213,0,0,1,.951-.869A3.353,3.353,0,0,1,157.795-7.711Zm0,6.919q1.65,0,1.65-3t-1.65-3q-1.65,0-1.65,3T157.795-.792ZM166.562,0h-4.268V-7.59h1.287V-.979h2.981Zm5.445,0h-4.521V-7.59h4.433v.979h-3.146v2.189h2.981v.979h-2.981V-.979h3.234Zm6.479-2.321a2.31,2.31,0,0,1-.693,1.837,2.848,2.848,0,0,1-1.936.6,2.828,2.828,0,0,1-1.93-.621,2.291,2.291,0,0,1-.71-1.82V-7.59H174.5v5.269q0,1.529,1.353,1.529T177.2-2.321V-7.59h1.287ZM187.891,0h-1.177V-5.984h-.022L184.6,0h-1.188l-2.09-5.984H181.3V0h-1.177V-7.59h1.76L184-1.529h.022l2.123-6.061h1.749ZM199.76.033a3.969,3.969,0,0,1-.88.088,2.3,2.3,0,0,1-1.287-.3,1.234,1.234,0,0,1-.44-1.1V-3.421h-1.5a1.993,1.993,0,0,0-1.243.3,1.483,1.483,0,0,0-.363,1.177,1.277,1.277,0,0,0,.33.952,1.309,1.309,0,0,0,.957.324,2.386,2.386,0,0,0,1.078-.264v.88a5.071,5.071,0,0,1-1.287.176,2.987,2.987,0,0,1-1.777-.484,1.776,1.776,0,0,1-.676-1.551,1.93,1.93,0,0,1,.391-1.293,1.973,1.973,0,0,1,1.2-.6v-.022a2.411,2.411,0,0,1-1.094-.556,1.457,1.457,0,0,1-.357-1.072,1.632,1.632,0,0,1,.621-1.425,2.743,2.743,0,0,1,1.634-.445,3.9,3.9,0,0,1,1.243.2v.88a2.2,2.2,0,0,0-1.1-.286.926.926,0,0,0-.764.319,1.287,1.287,0,0,0-.258.836,1.055,1.055,0,0,0,.357.935,1.951,1.951,0,0,0,1.083.242h1.518v-2.31l1.221-.726V-4.2h1.386v.781h-1.386v1.716q0,1.034.792,1.034a1.64,1.64,0,0,0,.594-.143ZM211.75,0h-1.177V-5.984h-.022L208.461,0h-1.188l-2.09-5.984h-.022V0h-1.177V-7.59h1.76l2.112,6.061h.022L210-7.59h1.749Zm2.981,0h-1.287V-7.59h1.287Zm7.414,0H220.7l-3.069-5.863h-.022V0h-1.177V-7.59h1.584L220.946-2h.022V-7.59h1.177ZM228.4,0h-4.521V-7.59h4.433v.979H225.17v2.189h2.981v.979H225.17V-.979H228.4Zm6.325,0H233.42l-.352-1.639q-.088-.418-.137-.6a2.778,2.778,0,0,0-.16-.429.768.768,0,0,0-.264-.341,1.526,1.526,0,0,0-.407-.171,2.342,2.342,0,0,0-.627-.072h-.506V0H229.68V-7.59h2.3q2.442,0,2.442,1.991a1.684,1.684,0,0,1-.374,1.171,2.136,2.136,0,0,1-1.133.589v.022a1.45,1.45,0,0,1,.93.523,3.539,3.539,0,0,1,.423,1.16Zm-1.617-5.456a1.309,1.309,0,0,0-.286-.9,1.069,1.069,0,0,0-.847-.325h-1.012v2.508h.506a2.245,2.245,0,0,0,1.2-.275A1.1,1.1,0,0,0,233.112-5.456ZM241.846,0H240.5l-.66-2.057h-2.728L236.456,0h-1.342l2.6-7.59h1.551Zm-2.31-3.036-1.045-3.333h-.022l-1.045,3.333ZM247.038,0H242.77V-7.59h1.287V-.979h2.981Zm5.522-2.035a2.072,2.072,0,0,1-.236,1.007,1.733,1.733,0,0,1-.644.677,3.183,3.183,0,0,1-.885.358,4.375,4.375,0,0,1-1.029.115,8.812,8.812,0,0,1-2.1-.319V-1.529a4.173,4.173,0,0,0,2.145.737,1.653,1.653,0,0,0,.951-.259.9.9,0,0,0,.38-.8,1.146,1.146,0,0,0-.374-.825,3.756,3.756,0,0,0-.9-.655q-.528-.281-1.061-.583a3.084,3.084,0,0,1-.908-.775,1.676,1.676,0,0,1-.374-1.067,1.677,1.677,0,0,1,.4-1.149,2.1,2.1,0,0,1,.963-.632,4.139,4.139,0,0,1,1.243-.176,9.848,9.848,0,0,1,1.859.209v1.188q-.44-.176-.649-.247t-.566-.154a3.056,3.056,0,0,0-.687-.082,1.379,1.379,0,0,0-.82.231.806.806,0,0,0-.324.7.9.9,0,0,0,.374.682,4.806,4.806,0,0,0,.9.594q.528.275,1.061.594a3.124,3.124,0,0,1,.908.819A1.853,1.853,0,0,1,252.56-2.035Z" transform="translate(96 17.711)" fill="#fff"/>
    </g>
    <g id="Group_2" data-name="Group 2" transform="translate(0.803)">
      <path id="Path_1" data-name="Path 1" d="M72.6,56.88l-6.95-3.46-.23.51,6.89,3.61Z" transform="translate(0.143)" fill="#fff"/>
      <path id="Path_2" data-name="Path 2" d="M58,0H24L0,24V58L24,82H58L82,58V24ZM79.36,56.79,56.54,79.57H25.12L2.67,57.1V25.21L25.17,2.59H57L79.3,24.86Z" fill="#fff"/>
      <path id="Path_3" data-name="Path 3" d="M38.14,20.69a16.76,16.76,0,0,1,2.6-.23v-.59c0-.71-.34-1.06-1.19-1,0,0-.58.16-.76-.12a.71.71,0,0,1-.2.47,1.93,1.93,0,0,1-.48.39,9.284,9.284,0,0,1,1-.15c.36,0,1.1-.28,1.07.47h0a20.44,20.44,0,0,0-2.07.24Z" fill="#fff"/>
      <path id="Path_4" data-name="Path 4" d="M41.88,18.73h-.15v2.55h0c0,.87-.85.48-.9.44a.79.79,0,0,0,1.44-.48l.13-2.86a.64.64,0,0,1-.52.35Z" fill="#fff"/>
      <path id="Path_5" data-name="Path 5" d="M42.08,17.47a.37.37,0,0,0,.38-.35.36.36,0,0,0-.33-.39.371.371,0,1,0-.05.74Z" fill="#fff"/>
      <path id="Path_6" data-name="Path 6" d="M49,20.15h-.15L48,22.5h0c-.33.79-1,.11-1,.08a.78.78,0,0,0,1.51.08L49.6,20a.67.67,0,0,1-.6.15Z" fill="#fff"/>
      <path id="Path_7" data-name="Path 7" d="M45.67,22.11a.36.36,0,0,0,.39-.36.34.34,0,0,0-.34-.35.33.33,0,0,0-.39.32.35.35,0,0,0,.34.39Z" fill="#fff"/>
      <path id="Path_8" data-name="Path 8" d="M48.52,19s-.25.43-1,.23a.57.57,0,0,1,.09.47c0,.08-.2.55-.37,1.06a25,25,0,0,0-3-.67,2.79,2.79,0,0,0,.45-.63,2.07,2.07,0,0,0,.15-1.17c0,.31-.13,1.45-2,2.24a16.47,16.47,0,0,1,4.72,1Z" fill="#fff"/>
      <path id="Path_9" data-name="Path 9" d="M57.45,25.83,56.38,24.7c-.31-.28-.45-.12-.8.23l-.6.71.92.87-.53.51h0c-.6.54-.91-.28-.91-.32a.78.78,0,0,0,1.33.67Zm-1.7-.26.19-.16a.24.24,0,0,1,.4,0l.33.35-.38.39Z" fill="#fff"/>
      <path id="Path_10" data-name="Path 10" d="M55.07,21.79a.36.36,0,0,0,.36-.35.4.4,0,0,0-.35-.39.38.38,0,0,0-.38.39A.36.36,0,0,0,55.07,21.79Z" fill="#fff"/>
      <path id="Path_11" data-name="Path 11" d="M56.18,22.58a.37.37,0,0,0,.37-.35.36.36,0,0,0-.36-.36.37.37,0,0,0-.37.36.36.36,0,0,0,.36.35Z" fill="#fff"/>
      <path id="Path_12" data-name="Path 12" d="M54.78,22.15c-.35-.24-.54-.2-.82.23l-.49.75,1,.74-.27.36c-.4-.28-1.62-1.1-2.22-1.45l1.49-2.72a1.59,1.59,0,0,1-1.08.16.19.19,0,0,1,.08.28s-1.39,2.71-1.4,2.75a.72.72,0,0,1-1,.35.83.83,0,0,1-.45-.94,1.42,1.42,0,0,1,.93-1.1.24.24,0,0,0,.36,0,1,1,0,0,0,.29-.55c-.33.19-1.49.74-1.75,1.45a1.18,1.18,0,0,0,2.1,1.06l.17-.28a15.84,15.84,0,0,1,2.61,1.77l1.63-2Zm-.53.86.14-.23c.12-.16.18-.16.34,0l.39.27-.32.43Z" fill="#fff"/>
      <path id="Path_13" data-name="Path 13" d="M36.56,17.94a.36.36,0,0,0,.34-.39.34.34,0,0,0-.39-.31.351.351,0,1,0,.05.7Z" fill="#fff"/>
      <path id="Path_14" data-name="Path 14" d="M33,23.48a.36.36,0,0,0,.34-.39.4.4,0,0,0-.4-.35.38.38,0,0,0-.33.39.36.36,0,0,0,.39.35Z" fill="#fff"/>
      <path id="Path_15" data-name="Path 15" d="M34.09,22.93a.35.35,0,0,0,.33-.39.33.33,0,0,0-.39-.31.34.34,0,0,0-.33.39.33.33,0,0,0,.39.31Z" fill="#fff"/>
      <path id="Path_16" data-name="Path 16" d="M36.77,20.38c-.58.12-1.15.27-1.15.27l-1.29-1.37a.66.66,0,0,0-.56-.24,2.67,2.67,0,0,0-.86.43c-.21.16-.37.44-.17.67l1,1.14a18.82,18.82,0,0,0-2.22,1,2.42,2.42,0,0,0,0-.75,2,2,0,0,0-.59-1c.17.24.76,1.22-.22,3a15,15,0,0,1,4.05-2L33.3,19.91a.75.75,0,0,1,.53-.28l1.54,1.65c.54-.12,1.39-.31,2-.43L37,18.53a1,1,0,0,1-.33.55,3.4,3.4,0,0,0-.52.2s.32-.16.44.39Z" fill="#fff"/>
      <path id="Path_17" data-name="Path 17" d="M30,23.83h-.47c-.42,0-.5-.27-.5-.27a.56.56,0,0,1-.72.35.72.72,0,0,1-.52-.74c0-.47.41-.79.74-.63,0,.16.05.31.15.31s.31,0,.3-.19a.26.26,0,0,0-.2-.24,1,1,0,0,0-1.31.87.93.93,0,0,0,.8,1,7.169,7.169,0,0,0-.71.59l-2.14-2.44a1.35,1.35,0,0,1-.22.9.173.173,0,0,1,.24,0c.13.11,1.13,1.22,1.7,1.85-.21.19-.36.35-.48.47a1.05,1.05,0,0,0-.36-.08.94.94,0,0,0-1,.87.85.85,0,0,0,.13.5,3.85,3.85,0,0,1-.37.47l-2.56-2a1.43,1.43,0,0,1-.06.94.16.16,0,0,1,.25,0c.17.16,2.48,1.85,2.48,1.85l.12-.16h.06c.01,0,.3-.39.51-.66a.73.73,0,0,0,.3.07.92.92,0,0,0,1-.86.86.86,0,0,0-.09-.47A16.26,16.26,0,0,1,30,23.83ZM26.24,26.9a.37.37,0,0,1-.31-.35.34.34,0,0,1,.36-.32.31.31,0,0,1,.29.36.33.33,0,0,1-.34.31Z" fill="#fff"/>
      <path id="Path_18" data-name="Path 18" d="M23,25.17a3,3,0,0,0,1.13-1.37h.15a1.18,1.18,0,0,1-.37.86,1.48,1.48,0,0,1-.91.51Z" fill="#fff"/>
      <path id="Path_19" data-name="Path 19" d="M23.38,25.52a3.19,3.19,0,0,0,1.13-1.41h.15a1.15,1.15,0,0,1-.36.86,1.73,1.73,0,0,1-.92.55Z" fill="#fff"/>
      <path id="Path_20" data-name="Path 20" d="M37.31,6.87c0-.31.23-.31.23-.31a1.92,1.92,0,0,1-1.23-.67l.77,5.57a.35.35,0,0,1-.28.4.32.32,0,0,1-.39-.28L35.48,6a2.14,2.14,0,0,1-1,1s.25-.12.31.19c0,.12.28,1.49.51,2.71a13,13,0,0,0-1.3.32l-.37-1.77a2.19,2.19,0,0,1-.9,1.1s.23-.12.3.2l.17.66c-.35.12-.71.2-1,.28L31.71,9a2.09,2.09,0,0,1-.84,1.1s.23-.12.32.2l.24.66a6.05,6.05,0,0,0-.91.28L30,9.7a2.18,2.18,0,0,1-.81,1.14.24.24,0,0,1,.34.16c0,.07,1,2.78,1,2.78a.62.62,0,0,1-.6.83.57.57,0,0,1-.24-.08.87.87,0,0,0,.5.16,1,1,0,0,0,1.06-1.26l-.43-1.3a26.43,26.43,0,0,1,4.66-1.29c.11.51.19.86.19.86a1.13,1.13,0,0,0,.93.9c.26,0,.35.36.35.36a.79.79,0,0,1,.18-.47,1,1,0,0,0,.69-1.06h0S37.34,7.07,37.31,6.87Z" fill="#fff"/>
      <path id="Path_21" data-name="Path 21" d="M48.31,6.75a.49.49,0,0,0,.48-.51.46.46,0,0,0-.48-.47.48.48,0,0,0-.5.47.51.51,0,0,0,.5.51Z" fill="#fff"/>
      <path id="Path_22" data-name="Path 22" d="M64.83,21.28l-.49-.63,3.49-3.06A2.18,2.18,0,0,0,68,19a.22.22,0,0,0-.37,0Z" fill="#fff"/>
      <path id="Path_23" data-name="Path 23" d="M18.46,20.42l-.51.63L14.41,18a2.22,2.22,0,0,0,1.38-.32.256.256,0,0,0,0,.39Z" fill="#fff"/>
      <path id="Path_24" data-name="Path 24" d="M30.65,8a.51.51,0,0,0,.48-.51.48.48,0,1,0-.96-.01.5.5,0,0,0,.48.52Z" fill="#fff"/>
      <path id="Path_25" data-name="Path 25" d="M31.05,9.23a.47.47,0,0,0,.48-.48.51.51,0,0,0-.48-.51.5.5,0,0,0-.48.51.47.47,0,0,0,.48.48Z" fill="#fff"/>
      <path id="Path_26" data-name="Path 26" d="M34.25,13.51a.47.47,0,0,0,.47-.48.5.5,0,0,0-.47-.51.51.51,0,0,0-.48.51.47.47,0,0,0,.48.48Z" fill="#fff"/>
      <path id="Path_27" data-name="Path 27" d="M11,35.65A23.24,23.24,0,0,1,11.87,32L11,31.73a1.72,1.72,0,0,0-2.1,1.18s-.13,1-.51,1.06a1.22,1.22,0,0,1,.55.51,2.82,2.82,0,0,1,.32.86s.23-1.14.3-1.41c.16-.51.16-1.73,1.21-1.29h0a19.87,19.87,0,0,0-.66,2.86Z" fill="#fff"/>
      <path id="Path_28" data-name="Path 28" d="M27.56,10.29a1.11,1.11,0,0,1-.51.78A1.39,1.39,0,0,0,26.18,13l.5,1L28,13.31l.44.95h0c.45,1-.78,1.06-.85,1a1.06,1.06,0,0,0,1.48-1.41ZM27,12.84a.75.75,0,0,1-.11-.63c.06-.16.46-.39.46-.39l.32.7Z" fill="#fff"/>
      <path id="Path_29" data-name="Path 29" d="M19,15.82a1.11,1.11,0,0,1-.24.91,1.4,1.4,0,0,0-.25,2.12l.78.78,1-1.1.7.79h0c.75.86-.41,1.29-.49,1.29a1.08,1.08,0,0,0,1-1.84Zm.2,2.64a.77.77,0,0,1-.31-.55,1.54,1.54,0,0,1,.33-.55l.52.55Z" fill="#fff"/>
      <path id="Path_30" data-name="Path 30" d="M23.8,11.5c-.15-.27.09-.35.09-.35A2,2,0,0,1,22.51,11l1.94,3.26c-.51.32-1.3.9-2.08,1.49a3.59,3.59,0,0,0-.32-1,1.71,1.71,0,0,0-.85-.63c.32.32,1.16,1.34.35,3.34a22.12,22.12,0,0,1,4-2.9Z" fill="#fff"/>
      <path id="Path_31" data-name="Path 31" d="M51.58,7.14a.92.92,0,0,1-.87.24c-1.15-.27-1.74.23-1.92.94l-.23,1.06L50,9.73l-.57,2s-.1.74-.49.67-.16-.79-.16-.79l.27-1.21L47.26,10A2.16,2.16,0,0,0,47,8.36a1.388,1.388,0,0,0-1-.66l.24-1.81a1.41,1.41,0,0,1-1.35.82h0a.44.44,0,0,1,.38.55v.35A1.75,1.75,0,0,0,44,8.09a2.28,2.28,0,0,0-.55,1.41h-.59V8.79a1.45,1.45,0,0,0-1.53-1.21S40.22,7.7,40,7.3a.93.93,0,0,1-.23.59,2,2,0,0,1-.66.43,12.81,12.81,0,0,1,1.37,0c.92.08,1.68-.19,1.67,1.1l-3,.12v.87a33.851,33.851,0,0,1,4.26,0v1.11a1.075,1.075,0,0,0,.93,1.09,1,1,0,0,0,1.14-.9l.15-1.06c.54.12,1.68.32,2.54.51l-.12.75a1.1,1.1,0,0,0,.6,1.25.4.4,0,0,1,0,.36.74.74,0,0,1,.28-.28c.62.08.87-.27,1-.82C50,12.33,51.49,7.42,51.58,7.14Zm-6.83,4.44a.34.34,0,0,1-.36.28c-.24,0-.36-.36-.36-.36V10.41l.8.07Zm.23-2-.82-.08c.05-.59.36-1.14,1-1.14Zm1.58.27-.83-.16.14-1.25a1.25,1.25,0,0,1,.68.59,1.66,1.66,0,0,1,.01.86Zm2.92-1.21a.77.77,0,0,1,.32-.55,1,1,0,0,1,.66,0l-.22.74Z" fill="#fff"/>
      <path id="Path_32" data-name="Path 32" d="M7.57,37.35a2.18,2.18,0,0,1,.78.55,1,1,0,0,1,1.62.55.91.91,0,0,1-1,1c-.26,0-.68,0-1.58-.91S6,37.9,5.8,38.09h0a.43.43,0,0,0-.1.28.46.46,0,0,0,.45.43.49.49,0,0,0,.43-.47.51.51,0,0,0-.06-.2c.21,0,.31.12.72.59.88.94,1.49,1.14,1.93,1.1a1.54,1.54,0,0,0,1.44-1.57A1.61,1.61,0,0,0,9,36.72a1.81,1.81,0,0,0-1.43.63Z" fill="#fff"/>
      <path id="Path_33" data-name="Path 33" d="M65.42,16.14s.22.15,0,.39-1.9,2-1.9,2-.41-.4-.75-.67a1.4,1.4,0,0,0,.07-.4,2.31,2.31,0,0,0-.2-.74.49.49,0,0,1,0-.47.47.47,0,0,1-.51.07,2.65,2.65,0,0,0-.54-.15,1.26,1.26,0,0,0-.63.19l-1-.74,2.27-3.18a2,2,0,0,1-1.39,0,.22.22,0,0,1,.07.35l-2.37,3.53a.33.33,0,0,1-.47.12.35.35,0,0,1-.1-.47L59.1,14.1a1.14,1.14,0,0,0-.48-1.62,45.67,45.67,0,0,0-5.12-2.43l4.23.9c.53.16.63.35.65.44a1.343,1.343,0,0,1,1.38-.63L52.9,9.27l-.42,1.21a44.24,44.24,0,0,1,4.92,2.2c.61.35,1.34.59.67,1.61a35.78,35.78,0,0,0-5.51-2.79S52,11.35,52,11c0,0-.14.79-1.26.67a27.32,27.32,0,0,1,7,3.26l-.34.55a1.18,1.18,0,0,0,.09,1.33c.18.16,0,.48,0,.48a.55.55,0,0,1,.42-.2.94.94,0,0,0,1.19-.32h0l.45-.62.44.39.48.35a1.18,1.18,0,0,0-.1.48,1.24,1.24,0,0,0,1.24,1.25,1.18,1.18,0,0,0,.63-.15,5,5,0,0,0,.46.39l.75.78,3.38-3.26a1.9,1.9,0,0,1-1.41-.24Zm-3.84,1.8a.653.653,0,1,1,.48-.54.52.52,0,0,1-.48.54Z" fill="#fff"/>
      <path id="Path_34" data-name="Path 34" d="M70.31,38.09a.49.49,0,0,0,.47-.51.46.46,0,0,0-.47-.47.47.47,0,0,0-.48.47.5.5,0,0,0,.48.51Z" transform="translate(0.15)" fill="#fff"/>
      <path id="Path_35" data-name="Path 35" d="M73.91,36.32a3.94,3.94,0,0,1-.61-.62s.18,1.06.2,1.33c0,.59.44,1.69-.69,1.69h0c-.17-2-.71-4.63-.71-4.63l3.64-.95a2.26,2.26,0,0,1-1-.94.36.36,0,0,1-.26.36l-3.36.86c.06.24.13.47.2.79h0A33.94,33.94,0,0,1,72,39.66h.86a1.62,1.62,0,0,0,1.57-1.76,1.53,1.53,0,0,1,.14-1.26,1,1,0,0,1-.66-.32Z" transform="translate(0.155)" fill="#fff"/>
      <path id="Path_36" data-name="Path 36" d="M69.17,20.5a.5.5,0,1,0-.5-.5A.5.5,0,0,0,69.17,20.5Z" fill="#fff"/>
      <path id="Path_37" data-name="Path 37" d="M70.31,22.11a.5.5,0,1,0-.47-.51.49.49,0,0,0,.47.51Z" transform="translate(0.15)" fill="#fff"/>
      <path id="Path_38" data-name="Path 38" d="M73,30.94a1.59,1.59,0,0,0-2.14-1.13c-.11-.32-.87-2-1-2.36a3.06,3.06,0,0,1,1.18.67,1.43,1.43,0,0,0,.4-1.18.68.68,0,0,0,.13-.43c-.09-.51.17-.63.17-.63s-.3.12-.62-.28a.83.83,0,0,0-.38-.16,1.26,1.26,0,0,0-1.4-.31,2.45,2.45,0,0,1-.08,1.18C68.39,24.86,67.88,24,67.88,24l.92-.63,1.53-1a2.16,2.16,0,0,1-1.33-.5.29.29,0,0,1-.14.4s-.13.07-.25.15c-.74-.94-1.59-1.37-3-.23a41.82,41.82,0,0,1,3,4.79l.45.19-.11.47a36.36,36.36,0,0,1,1.86,4.68l2.8-.82a.91.91,0,0,1-.61-.56Zm-3-5.18a1,1,0,0,1,.73.59,1.17,1.17,0,0,1,0,.9,2.25,2.25,0,0,0-.86-.43A2.62,2.62,0,0,0,70,25.76ZM66.83,22.5c.5-.31.87,0,1.13.39l-.56.44Zm4.55,8.88-.27-.79a.68.68,0,0,1,.77,0,.92.92,0,0,1,.4.54Z" transform="translate(0.144)" fill="#fff"/>
      <path id="Path_39" data-name="Path 39" d="M17.33,21.75l-3.54-3a2.17,2.17,0,0,1-.1,1.42.23.23,0,0,1,.37,0l2.13,1.73-.67.87h-.3a1.34,1.34,0,0,0-.87.35A.57.57,0,0,1,14,23a.52.52,0,0,1,.11.39,1.4,1.4,0,0,0-.1.51,1.14,1.14,0,0,0,.26.75c-.19.35-.91,1.53-.92,1.49a8.58,8.58,0,0,1,0-1.06,1.28,1.28,0,0,0-1.44.28.67.67,0,0,0-.56.35.51.51,0,0,1-.41,0,.6.6,0,0,1,.18.39.77.77,0,0,0,0,.59,1.33,1.33,0,0,0,.58,1.38,4,4,0,0,1,.9-.59s-.54,1.18-.79,1.92L8.33,28.12a2.13,2.13,0,0,1,.38,1.33s0-.23.32-.15l3.38,1.18s.85-2.17,1.16-2.87l-.15-.51.54-.16c.34-.67.66-1.26.95-1.73L15,25.1a.83.83,0,0,0,.27,0,1.24,1.24,0,0,0,1.24-1.21,1.18,1.18,0,0,0-.22-.71ZM12.38,26.9a1.21,1.21,0,0,0-.45.35,1.1,1.1,0,0,1,0-1,1.23,1.23,0,0,1,.76-.59,3.53,3.53,0,0,0,0,.59,2.669,2.669,0,0,0,.06.47S12.54,26.82,12.38,26.9Zm2.85-2.48a.51.51,0,0,1-.51-.51.53.53,0,0,1,.52-.51.52.52,0,0,1,.51.51.53.53,0,0,1-.52.51Z" fill="#fff"/>
      <path id="Path_40" data-name="Path 40" d="M69.16,62.49l-2.79-2.08.23-.27-.49-.36-.2.28-1.08-.82-.36.42,1.07.87-.4.51c-.16.2-.47-.08-.47-.08l-1.75-1.45a.36.36,0,0,1-.18-.43l.7-.91L63,57.82l-.84,1.06a.52.52,0,0,0,.1.78l2.17,1.89c.32.27.48.2.62.08a.41.41,0,0,0,.15.59l2.08,1.85a.57.57,0,0,0,.8-.16Zm-.94.4-.27.35a.38.38,0,0,1-.52.08l-1.6-1.38c-.28-.23-.32-.31-.24-.43l.43-.59,2,1.57c.1.12.34.2.2.4Z" fill="#fff"/>
      <path id="Path_41" data-name="Path 41" d="M70.92,41.86l-1.76-.08c-.32,0-.57.16-.58,1s.13.94.53,1l2.42.19s.24.08.65-.47l.61-.86c.19-.2.41-.16,1-.12l1.52.07c.17,0,.38.08.37.32l-.07.55c0,.23-.15.31-.42.23l-1.64-.15v.63l2.13.23a.63.63,0,0,0,.67-.67l.08-1.06c0-.47-.27-.67-.75-.71l-2.37-.07c-.39,0-.66,0-.77.2l-.71.94c-.33.47-.52.31-.52.31l-1.6-.08c-.39,0-.5-.11-.45-.51s.08-.47.52-.43l1.16.08Z" transform="translate(0.151)" fill="#fff"/>
      <path id="Path_42" data-name="Path 42" d="M74.58,52.07l-.66-.19-.24.7-2.62-.94.18-.55-.58-.19-.19.5-2.89-1.02.18-.54-.53-.2-.38,1.06,7.24,2.75Z" transform="translate(0.147)" fill="#fff"/>
      <path id="Path_43" data-name="Path 43" d="M76.16,44.79l-.57-.04-.11.83-7.06-.95-.09.51,7.63,1.14Z" transform="translate(0.15)" fill="#fff"/>
      <path id="Path_44" data-name="Path 44" d="M71.99,58.18l-6.81-3.73-.25.47,3.1,2.55L64.3,55.98l-.32.46,6.45,4.29.4-.55-4.08-2.63,4.51,1.85L67.4,56.33l4.25,2.4Z" transform="translate(0.141)" fill="#fff"/>
      <path id="Path_45" data-name="Path 45" d="M72.23,49.16l3,.78.19-.66-3.18-.79s-.43,0-.54.24a.437.437,0,0,0-.47-.47l-2.7-.63s-.62-.24-.74.27l-.43,1.42,7.4,2.35.19-.67L71.6,50l.18-.72C71.86,49.08,72,49.12,72.23,49.16ZM71,49.83,68.11,49l.15-.59s0-.32.34-.2,2.29.59,2.29.59.39.08.32.35Z" transform="translate(0.148)" fill="#fff"/>
      <path id="Path_46" data-name="Path 46" d="M65.91,52.88l7.01,3.38.28-.63-5.23-2.36,5.59,1.41.28-.62-7.19-2.91-.23.51,4,1.69-4.31-.98Z" transform="translate(0.145)" fill="#fff"/>
      <path id="Path_47" data-name="Path 47" d="M75.74,47.2l.1-.59L68.11,46l-.13.59,7.41,2.36.15-.67-1.76-.47.16-.75Zm-2.44.47-3.87-1.1,4,.43Z" transform="translate(0.149)" fill="#fff"/>
      <path id="Path_48" data-name="Path 48" d="M13.85,44.18l.06.55-7.63.98-.07-.7Z" fill="#fff"/>
      <path id="Path_49" data-name="Path 49" d="M14.04,45.12,6.38,46.26l.1.63,5.37-.9-5.21,2,.1.63,7.63-1.69-.1-.47-4.79.94,4.64-1.76Z" fill="#fff"/>
      <path id="Path_50" data-name="Path 50" d="M6.18,44.73l3.67-1.77,3.98.98-.06-.55-3.06-.74,3.04-.12-.02-.51L6,42.25l.01.68,3.01-.2L6.13,44.06Z" fill="#fff"/>
      <path id="Path_51" data-name="Path 51" d="M10.54,50.78l-.3-1.06-.56.15.13.47-1.43.47a.45.45,0,0,1-.53-.31L7.74,50c-.07-.27.18-.35.41-.39l5.41-1.42c.37-.07.5-.07.62.43s-.11.52-.41.56l-1.6.47.16.55,2-.63c.42-.12.64-.27.38-1.14s-.38-.94-.9-.82L7.69,49.09c-.5.16-.75.35-.61.94,0,0,.17.95.72.9l-.4.13.21.66Z" fill="#fff"/>
      <path id="Path_52" data-name="Path 52" d="M58.35,62.56l4,5.15c.22.31.27.47.1.63l-.36.31c-.24.15-.43,0-.62-.27l-3.9-5.26-.44.31,4.13,5.81a.55.55,0,0,0,.83.2l1-.79c.29-.24.5-.43.19-.86L58.7,62.25Z" fill="#fff"/>
      <path id="Path_53" data-name="Path 53" d="M40.84,69.2c0-.4-.06-.67-1-.71s-1.05.16-1.07.59l-.62,6.44c0,.47.37.67.85.67h.94c.48,0,.72-.15.75-.62Zm-1.18,6.44h-.49c-.25,0-.31-.28-.3-.51l.41-5.54c0-.35.09-.51.59-.47s.45.16.44.51l-.2,5.66A.43.43,0,0,1,39.66,75.64Z" fill="#fff"/>
      <path id="Path_54" data-name="Path 54" d="M54.69,65.78c-.2-.35-.41-.55-1.19-.16s-.82.67-.64,1.06l2.63,5.9c.22.42.64.39,1.07.19l.85-.43c.43-.24.51-.47.31-.9ZM56.82,72l-.45.19c-.21.08-.36-.08-.47-.31l-2.4-5c-.15-.35-.17-.47.28-.7s.47-.08.64.27l2.53,5a.43.43,0,0,1-.13.55Z" fill="#fff"/>
      <path id="Path_55" data-name="Path 55" d="M42.55,72.81l-.02-.66-.54.03-.07-3.02h.68l-.03-.63-1.16.04-.01,7.74h.65L42,72.85Z" fill="#fff"/>
      <path id="Path_56" data-name="Path 56" d="M47.29,71.48l-.58-3a.49.49,0,0,0-.6-.43l-1.46.28.9,7.61.72-.12-.49-3.41,1.15-.24S47.44,72.22,47.29,71.48Zm-.9.2-.72.15-.38-3,.47-.08c.24-.08.4,0,.42.15l.44,2.36S46.67,71.63,46.39,71.68Z" fill="#fff"/>
      <path id="Path_57" data-name="Path 57" d="M50.07,75.13l-.13-.55-.8.19-.65-2.78.54-.16-.15-.59-.53.12-.69-2.98.61-.16-.13-.59-1.15.31,1.59,7.58Z" fill="#fff"/>
      <path id="Path_58" data-name="Path 58" d="M61.34,69.98l-.32-.47-.73.47-1.62-2.39.48-.4-.31-.47-.5.36-1.7-2.6.62-.43-.3-.47-1.06.71,4.14,6.6Z" fill="#fff"/>
      <path id="Path_59" data-name="Path 59" d="M59.82,71l-.32-.55-.71.44L55.2,64.72l-.45.27,3.76,6.76Z" fill="#fff"/>
      <path id="Path_60" data-name="Path 60" d="M51.86,74.62l-2.15-6.79.51-.16-.17-.55-1.61.47.17.58.56-.19,2.03,6.83Z" fill="#fff"/>
      <path id="Path_61" data-name="Path 61" d="M66.34,65.7l-5.49-5.46-.42.39,2.25,3.38L59.59,61.5l-.46.44,5.03,5.84.51-.47-3.19-3.65,3.79,3.14-2.83-4.12,3.42,3.49Z" fill="#fff"/>
      <path id="Path_62" data-name="Path 62" d="M53.41,70.81l1.14,2.83.65-.24-1.34-3.18a.62.62,0,0,0-.44-.12.45.45,0,0,0,.07-.66l-1.07-2.52s-.19-.67-.67-.43l-1.4.51,2.54,7.34.65-.23-1.2-3.3.68-.24C53.25,70.45,53.33,70.61,53.41,70.81Zm-1.29-.59-1-2.79.53-.23s.26-.2.38.15l.88,2.2s.15.31-.12.4Z" fill="#fff"/>
      <path id="Path_63" data-name="Path 63" d="M30.36,68.8,31,67.2c.11-.32.06-.59-.74-.91s-.91-.19-1.11.2l-1,2.16s-.14.23.23.79l.59.86c.19.31.05.43-.06.67l-.76,1.72c-.07.16-.21.31-.44.2l-.48-.24c-.22-.07-.18-.23-.06-.5l.68-1.46-.57-.27-.93,2a.61.61,0,0,0,.38.83l1,.43a.66.66,0,0,0,1-.39L29.55,71a.85.85,0,0,0,0-.91L29,69.24c-.35-.51-.16-.63-.16-.63l.66-1.45c.16-.35.32-.4.62-.28s.43.24.25.67l-.47,1.06Z" fill="#fff"/>
      <path id="Path_64" data-name="Path 64" d="M21.11,59.77,16.2,64.33c-.24.24-.4.31-.56.15L15.27,64c-.17-.15-.13-.31.12-.54l5.09-4.36-.33-.4-5.46,4.56a.54.54,0,0,0-.09.82l.7.79c.34.39.6.47,1,.15l5.18-4.9Z" fill="#fff"/>
      <path id="Path_65" data-name="Path 65" d="M22.78,71.16l.3-.51-.75-.47,1.63-2.4.44.28.35-.51-.44-.32L26,64.72l.61.39.32-.51-1.04-.66-4.44,6.32Z" fill="#fff"/>
      <path id="Path_66" data-name="Path 66" d="M31.72,75.05l1.95-6.91.68.15.14-.55-1.8-.51-.19.6.65.19-2.06,6.83Z" fill="#fff"/>
      <path id="Path_67" data-name="Path 67" d="M26.19,69.75l-1.31,2.51.62.32,1.43-2.83c.23-.48,0-.63-.1-.71.14,0,.42.08.59-.24.35-.62,1.29-2.51,1.29-2.51s.31-.55-.15-.78l-1.28-.71-4,6.64.58.35,1.74-3,.42.27C26.44,69.27,26.29,69.55,26.19,69.75ZM26,68.21l1.48-2.59.55.24c.28.15.07.39,0,.55l-1.05,2a.26.26,0,0,1-.35.16Z" fill="#fff"/>
      <path id="Path_68" data-name="Path 68" d="M31.85,66.92l.46.16-2.46,7.34-.68-.19Z" fill="#fff"/>
      <path id="Path_69" data-name="Path 69" d="M23.54,62.13l.38.35-4.89,5.97-.48-.39Z" fill="#fff"/>
      <path id="Path_70" data-name="Path 70" d="M21.8,60.52l-5.49,5.46.45.43,3.7-3.81-2.97,4.48.48.43,5.09-5.73-.38-.4-2.91,3.18,2.35-3.69Z" fill="#fff"/>
      <path id="Path_71" data-name="Path 71" d="M36.74,68.17l-.58-.07-.93,2.94.17-3.1-.6-.11-.12,4.35-.76,3.38.67.12.65-3.38Z" fill="#fff"/>
      <path id="Path_72" data-name="Path 72" d="M24.12,62.64l-4.09,6.6.45.35,5.18-5.81-.46-.36-3.63,4.25,3.01-4.68Z" fill="#fff"/>
      <path id="Path_73" data-name="Path 73" d="M9.53,56.43l.28.55,6.61-4-.26-.55-7.35,2.4.26.62,1.71-.66.31.7Zm1.72-1.8L15,53.25l-3.51,2Z" fill="#fff"/>
      <path id="Path_74" data-name="Path 74" d="M10.84,58.87l.3.55,6.63-4.01-.3-.43-3.2,1.89-.45-.83,3.25-1.77-.19-.43-6.89,3.5.3.63,3.02-1.7.48.87Z" fill="#fff"/>
      <path id="Path_75" data-name="Path 75" d="M18.58,57.81s.6-.24.18-.87-.69-1.06-.69-1.06l-6.53,4.17,1,1.45a.58.58,0,0,0,.89.12C14,61.19,18.58,57.81,18.58,57.81Zm-5.89,2.86-.3-.43L18,56.51l.38.55c.14.24-.24.4-.31.47s-4.22,2.95-4.75,3.34c-.32.13-.41.13-.63-.2Z" fill="#fff"/>
      <path id="Path_76" data-name="Path 76" d="M11.75,52.9l.25.55.55-.23-.22-.59,2.78-1.07.34.75.56-.24-.47-1.21L8.3,53.57l.22.59Z" fill="#fff"/>
      <path id="Path_77" data-name="Path 77" d="M39.47,27.72l-.88.47.3,2.09.78-.24Z" fill="#fff"/>
      <path id="Path_78" data-name="Path 78" d="M39.71,30.43l-.77.24.17,1.81.67-.08Z" fill="#fff"/>
      <path id="Path_79" data-name="Path 79" d="M39.8,27.17l-.41-3.06,1.82-.28L41.2,27.1Z" fill="#fff"/>
      <path id="Path_80" data-name="Path 80" d="M37.88,25.01l.64,2.79.94-.51-.41-3.02Z" fill="#fff"/>
      <path id="Path_81" data-name="Path 81" d="M39.84,27.53l.19,2.39H41.2V27.45Z" fill="#fff"/>
      <path id="Path_82" data-name="Path 82" d="M40.09,30.32l.06,2.04h1.06V30.32Z" fill="#fff"/>
      <path id="Path_83" data-name="Path 83" d="M43.28,27.72l.88.47-.3,2.09-.78-.24Z" fill="#fff"/>
      <path id="Path_84" data-name="Path 84" d="M43.05,30.43l.77.24-.18,1.81-.67-.08Z" fill="#fff"/>
      <path id="Path_85" data-name="Path 85" d="M42.94,27.17l.42-3.06-1.81-.28V27.1Z" fill="#fff"/>
      <path id="Path_86" data-name="Path 86" d="M44.87,25.01l-.64,2.79-.94-.51.41-3.02Z" fill="#fff"/>
      <path id="Path_87" data-name="Path 87" d="M42.91,27.53l-.19,2.39H41.55V27.45Z" fill="#fff"/>
      <path id="Path_88" data-name="Path 88" d="M42.68,30.32l-.06,2.04H41.55V30.32Z" fill="#fff"/>
      <path id="Path_89" data-name="Path 89" d="M39.51,52l-.61.6h5l-.62-.6h0v-.15a1.8,1.8,0,0,1,.4-1.37V32.83h-.66V52h-.7v-.31a1.88,1.88,0,0,1,.35-1.29V32.75h-1V50.39A1.86,1.86,0,0,1,42,51.76V52H40.81v-.27a1.86,1.86,0,0,1,.41-1.37V32.72h-1V50.43a1.88,1.88,0,0,1,.35,1.29V52H39.8V32.79h-.66V50.51a1.75,1.75,0,0,1,.41,1.37V52Z" fill="#fff"/>
      <path id="Path_90" data-name="Path 90" d="M46.21,49.36a1.94,1.94,0,0,0-.32.48,3.12,3.12,0,0,1,1,2.55,3.49,3.49,0,0,0-.68-3.03Z" fill="#fff"/>
      <path id="Path_91" data-name="Path 91" d="M49.78,49.4c0,.12,0,.32-.42.32a.43.43,0,0,1-.42-.4c-.12.28-.26.4-.5.36s-.39-.28-.47-.32l-.09.12a2.86,2.86,0,0,0-.21.31,3.33,3.33,0,0,1,.95,2.6,4.2,4.2,0,0,0-.13-2.28c.48,0,.46-.35.46-.35s0,.31.46.31S49.8,49.56,49.78,49.4Z" fill="#fff"/>
      <path id="Path_92" data-name="Path 92" d="M49.78,49.33Z" fill="#fff"/>
      <path id="Path_93" data-name="Path 93" d="M54.46,49.4c0,.12-.05.32-.41.32a.4.4,0,0,1-.43-.36.48.48,0,0,1-.49.36c-.25,0-.4-.28-.48-.36l-.09.17a1.48,1.48,0,0,0-.22.31,3.14,3.14,0,0,1,1,2.55,4.05,4.05,0,0,0-.13-2.24c.47,0,.45-.39.45-.39s0,.31.46.31S54.48,49.6,54.46,49.4Z" fill="#fff"/>
      <path id="Path_94" data-name="Path 94" d="M54.45,49.36Z" fill="#fff"/>
      <path id="Path_95" data-name="Path 95" d="M51.07,49.4a4.53,4.53,0,0,1-1,2.48l.24.55a3.76,3.76,0,0,0,.79-2.2,3.76,3.76,0,0,0,1,2.2l.14-.55a5.14,5.14,0,0,1-1.17-2.48Z" fill="#fff"/>
      <path id="Path_96" data-name="Path 96" d="M30.23,50.74a.74.74,0,0,1-.1-.4.55.55,0,0,1,.16-.47.34.34,0,0,1,.27-.08.35.35,0,0,1,.33.16.59.59,0,0,1,.12.39.62.62,0,0,1-.19.47.43.43,0,0,1-.24,0,.51.51,0,0,1-.35-.07Zm-.44.35a.87.87,0,0,0,.65.28.72.72,0,0,0,.42-.12.51.51,0,0,0,.17-.16,1.85,1.85,0,0,1-.08.56.44.44,0,0,1-.41.31.5.5,0,0,1-.26-.08.3.3,0,0,1-.11-.23h-.59a.68.68,0,0,0,.31.58.93.93,0,0,0,.62.24,1,1,0,0,0,1-.71,2.82,2.82,0,0,0,.14-.94,2.22,2.22,0,0,0-.15-.9.93.93,0,0,0-.95-.63,1.028,1.028,0,0,0-1.02,1.1.84.84,0,0,0,.26.7Z" fill="#fff"/>
      <path id="Path_97" data-name="Path 97" d="M34.74,51.44h.59a.76.76,0,0,0,.06.32.44.44,0,0,0,.4.2.41.41,0,0,0,.3-.12.44.44,0,0,0,.14-.36.41.41,0,0,0-.24-.39,1.37,1.37,0,0,0-.45,0v-.43a.88.88,0,0,0,.41-.08c.13,0,.2-.15.2-.35a.43.43,0,0,0-.09-.28.38.38,0,0,0-.3-.12.39.39,0,0,0-.31.12.73.73,0,0,0-.09.39H34.8a1.43,1.43,0,0,1,.07-.43,1.61,1.61,0,0,1,.23-.35.75.75,0,0,1,.29-.16,1.14,1.14,0,0,1,.39,0,1,1,0,0,1,.71.2.79.79,0,0,1,.27.63.65.65,0,0,1-.17.43c-.06.08-.13.15-.2.15s.12.08.24.16a.88.88,0,0,1,.22.59,1.09,1.09,0,0,1-1.96.55,1.25,1.25,0,0,1-.15-.67Z" fill="#fff"/>
      <path id="Path_98" data-name="Path 98" d="M32.91,51a.34.34,0,0,1,.26-.12.49.49,0,0,1,.32.16.51.51,0,0,1,.13.39.65.65,0,0,1-.11.39.34.34,0,0,1-.32.16.37.37,0,0,1-.33-.16.53.53,0,0,1-.13-.39A.46.46,0,0,1,32.91,51Zm1-1.46a1,1,0,0,0-.68-.23,1.1,1.1,0,0,0-.51.11,1.41,1.41,0,0,0-.55,1,4.68,4.68,0,0,0,0,.59,1.69,1.69,0,0,0,.21.93,1,1,0,0,0,1.64.16,1.14,1.14,0,0,0,0-1.45.85.85,0,0,0-.66-.27,1,1,0,0,0-.35.07.43.43,0,0,0-.25.2,3.7,3.7,0,0,1,.08-.55.42.42,0,0,1,.43-.32.39.39,0,0,1,.29.12.4.4,0,0,1,.06.16h.6a.8.8,0,0,0-.33-.54Z" fill="#fff"/>
      <path id="Path_99" data-name="Path 99" d="M29.18,51.92h-.37V49.4h-.49a.27.27,0,0,1,0,.12,1.34,1.34,0,0,1-.12.24.89.89,0,0,1-.29.15h-.13v.43h.45v1.57h-.44v.52h1.43v-.51Z" fill="#fff"/>
      <path id="Path_100" data-name="Path 100" d="M51.91,60.63l-3.39-.82,2.86-.23-2.3-4.72c-2.54.75-4.69-.78-5.51-.9a2.61,2.61,0,0,0-2.3.87A2.55,2.55,0,0,0,38.68,54c-1.74.35-2.8,1.41-5.3.83l-2.22,4.59,2.92.47-3.41.51L29.85,62,40,60.64a1.63,1.63,0,0,0,1.28.75,1.6,1.6,0,0,0,1.08-.71l10.38,1.37Zm-10.68,0a.73.73,0,0,1-.58-.51,16.381,16.381,0,0,1,.58-2.36,14.91,14.91,0,0,1,.55,2.36.69.69,0,0,1-.55.48Z" fill="#fff"/>
    </g>
  </g>
</svg>
