<?xml version="1.0" standalone="no"?>
<!DOCTYPE svg PUBLIC "-//W3C//DTD SVG 1.1//EN" "http://www.w3.org/Graphics/SVG/1.1/DTD/svg11.dtd" >
<svg xmlns="http://www.w3.org/2000/svg" xmlns:xlink="http://www.w3.org/1999/xlink" version="1.1">
<metadata>
Created by FontForge 20161013 at Sat Jun 14 17:38:12 2008
 By ,,,
KACST holds the copyright of the included Arabic font which is donated under GPL by KACST. 
URW Design and Development holds the copyright of the included Latin font which is donated under GPL by URW. 
</metadata>
<defs>
<font id="KacstOffice" horiz-adv-x="1269" >
  <font-face 
    font-family="KacstOffice"
    font-weight="500"
    font-stretch="normal"
    units-per-em="2048"
    panose-1="2 0 0 0 0 0 0 0 0 0"
    ascent="1638"
    descent="-410"
    x-height="993"
    cap-height="1395"
    bbox="-337 -1025 2616 2164"
    underline-thickness="100"
    underline-position="-1000"
    unicode-range="U+0020-FEFF"
  />
<missing-glyph horiz-adv-x="1024" 
d="M128 0v1450h768v-1450h-768zM256 128h512v1194h-512v-1194z" />
    <glyph glyph-name="shaddawithfathatanisolated" unicode="&#x651;&#x64b;" horiz-adv-x="414" 
d="M408 1954q-15 -66 -62 -86l-280 -115q18 64 65 84zM408 1845q-10 -61 -49 -76l-295 -116q27 69 86 92zM414 1673q0 -35 -8 -64.5t-22 -51.5t-33.5 -34t-42.5 -12q-18 0 -62 23l-4 2q-38 -86 -104 -86q-78 0 -78 98q0 -5 6 61l29 19q10 -78 53 -78q55 0 88 133l22 6
q25 -73 58 -73q57 0 65 122l27 9q6 -33 6 -74z" />
    <glyph glyph-name="shaddawithdammatanisolated" unicode="&#x651;&#x64c;" horiz-adv-x="482" arabic-form="isolated" 
d="M482 1788q0 -9 -7 -19q-24 6 -94 31q-133 -70 -207 -70q-42 0 -82 13q64 34 64 75q0 54 -50 54q7 0 -2 -1.5t-34 -5.5q24 76 71 76q25 0 43.5 -22t18.5 -54q0 -24 -17 -73q72 8 133 45q-53 36 -53 78q0 36 43 73q43 39 84 39q22 0 45 -24q23 -26 23 -50q0 -28 -25 -79
q46 -28 46 -86zM455 1677q0 -37 -8 -68t-22 -53t-33.5 -34.5t-41.5 -12.5q-20 0 -68 23l-4 2q-45 -84 -104 -84q-80 0 -80 104q0 29 23 96l20 2q4 -100 49 -100q47 0 86 135l19 2q16 -73 65 -73q51 0 74 110h20q2 -11 3.5 -23t1.5 -26zM395 1941q0 41 -31 41q-30 0 -30 -24
t47 -56q14 26 14 39z" />
    <glyph glyph-name="shaddawithkasratanisolated" unicode="&#x651;&#x64d;" horiz-adv-x="420" arabic-form="isolated" 
d="M420 1940q0 -168 -104 -168q-36 0 -64 21q-8 -35 -39 -60q-32 -26 -65 -26q-82 0 -82 108q0 25 22 101l23 4q0 -111 39 -111q64 0 90 162l18 6q23 -98 58 -98q58 0 67 147l23 10q14 -61 14 -96zM412 1773q-15 -66 -59 -86l-283 -127q28 73 86 99zM412 1656
q-15 -62 -66 -84l-276 -122q20 70 72 92z" />
    <glyph glyph-name="shaddawithfathaisolated" unicode="&#x651;&#x64e;" horiz-adv-x="414" arabic-form="isolated" 
d="M408 1845q-10 -61 -49 -76l-295 -116q27 69 86 92zM414 1673q0 -35 -8 -64.5t-22 -51.5t-33.5 -34t-42.5 -12q-18 0 -62 23l-4 2q-38 -86 -104 -86q-78 0 -78 98q0 -5 6 61l29 19q10 -78 53 -78q55 0 88 133l22 6q25 -73 58 -73q57 0 65 122l27 9q6 -33 6 -74z" />
    <glyph glyph-name="shaddawithdammaisolated" unicode="&#x651;&#x64f;" horiz-adv-x="424" arabic-form="isolated" 
d="M424 1763q-43 6 -110 29q-122 -98 -185 -98q-22 0 -65 20q66 22 118.5 46t90.5 52q-49 37 -49 84q0 42 38 83q39 40 82 40q22 0 48 -24q26 -23 26 -43q0 -45 -36 -88q8 -4 17 -9.5t18 -12.5q7 -7 7 -42v-37zM418 1720q0 -215 -108 -215q-42 0 -70 25q-32 -80 -104 -80
q-78 0 -78 98q0 44 22 84l21 2q6 -82 47 -82q46 0 88 119l24 6q12 -67 54 -67q56 0 80 104zM353 1927q0 49 -43 49q-25 0 -25 -30q0 -24 59 -62q9 24 9 43z" />
    <glyph glyph-name="shaddawithkasraisolated" unicode="&#x651;&#x650;" horiz-adv-x="420" arabic-form="isolated" 
d="M420 1830q0 -168 -104 -168q-36 0 -64 21q-8 -35 -39 -60q-32 -26 -65 -26q-82 0 -82 108q0 25 22 101l23 4q0 -111 39 -111q64 0 90 162l18 6q23 -98 58 -98q58 0 67 147l23 10q14 -61 14 -96zM412 1663q-15 -66 -59 -86l-283 -127q28 73 86 99z" />
    <glyph glyph-name="shaddawithfathamedial" unicode="&#x640;&#x651;&#x64e;" horiz-adv-x="1284" arabic-form="medial" 
d="M807 1552q0 -66 -35 -86l-303 -172q3 38 14 59q12 20 52 42zM819 1263q0 -168 -104 -168q-36 0 -64 21q-8 -35 -39 -60q-32 -26 -65 -26q-82 0 -82 108q0 25 22 101l23 4q0 -111 39 -111q64 0 90 162l18 6q23 -98 58 -98q58 0 67 147l23 10q14 -61 14 -96zM1354 129
h-1354v121h1354v-121z" />
    <glyph glyph-name="shaddawithdammamedial" unicode="&#x640;&#x651;&#x64f;" horiz-adv-x="1284" arabic-form="medial" 
d="M813 1503l-8 -99l-80 52q-120 -144 -197 -144q-19 0 -59 12q102 57 213 156q-61 45 -61 90q0 60 45 125q30 43 71 43q68 0 68 -88q0 -51 -31 -117q13 -11 39 -30zM819 1263q0 -168 -104 -168q-36 0 -64 21q-8 -35 -39 -60q-32 -26 -65 -26q-82 0 -82 108q0 25 22 101
l23 4q0 -111 39 -111q64 0 90 162l18 6q23 -98 58 -98q58 0 67 147l23 10q14 -61 14 -96zM743 1591q0 23 -16 42t-37 19q-18 0 -18 -20q0 -31 65 -75q6 19 6 34zM1354 129h-1354v121h1354v-121z" />
    <glyph glyph-name="shaddawithkasramedial" unicode="&#x640;&#x651;&#x650;" horiz-adv-x="1284" arabic-form="medial" 
d="M819 1491q0 -168 -104 -168q-36 0 -64 21q-8 -35 -39 -60q-32 -26 -65 -26q-82 0 -82 108q0 25 22 101l23 4q0 -111 39 -111q64 0 90 162l18 6q23 -98 58 -98q58 0 67 147l23 10q14 -61 14 -96zM807 1288q0 -66 -35 -86l-303 -172q3 38 14 59q12 20 52 42zM1354 129
h-1354v121h1354v-121z" />
    <glyph glyph-name="allahisolated" unicode="&#xfedf;&#xfee0;&#xfeea;" horiz-adv-x="1557" arabic-form="isolated" 
d="M1133 1263l1 -3q-1 -1 -1 3zM1136 1166l1 26l2 -22zM1046 1395q1 2 1 4q0 3 2 5l1 -21l-1 -6q-4 -7 -4 -22l-8 1q5 13 8 35zM1137 1192l-1 11l-15 42q3 3 6 6.5t6 7.5q4 -13 5 -21l1 -30zM1051 1441l-2 -37q-2 11 -4 21.5t-5 21.5l-15 59q8 11 16 24q1 -6 5 -13l-1 1
q1 -2 1.5 -6t2.5 -7l4 -24zM1051 1134l-18 -5l-11 -18q-2 -5 -14 -15h1q-22 -14 -49 -14q-20 0 -32 15l1 -1q-10 19 -10 49v21q0 3 2 11l8 35l4 11v-1l-7 -49q0 -32 9 -41v1q13 -19 49 -19q13 2 21 4t13.5 5.5t10 9t9.5 13.5l2 11l-11 72q2 2 2.5 6t1.5 7l1 1q0 -11 1 -20.5
t2 -14.5l10 -19q30 -36 77 -36l12 13q-1 -13 -11 -24q-11 -17 -24 -19l-29 3zM516 263l-22 280l-33 10l-13 -8q-12 -9 -26.5 -29.5t-32.5 -50.5q-2 -5 -5.5 -10.5t-5.5 -10.5q-2 -2 -3 -4t-2 -3q-62 -18 -104.5 -46.5t-81.5 -76.5l8 -23l43 -13l92 -21l42 -5l76 -4q4 1 7 1
h7h14l4 -1h21zM1526 305q0 -29 -6 -70.5t-22 -93.5q-8 -24 -19.5 -42t-25 -32.5t-26.5 -26t-23 -20.5q-61 -28 -149 -28q-52 0 -100 14t-80 49l-18 22v-1l-24 39l-28 -3q-5 -23 -22.5 -43t-43.5 -37q-29 -16 -53 -24t-38 -8h-202q-51 0 -87 73v-1q-7 18 -16 52.5t-17 76.5
l-2 15l-22 11l-12 -5q-30 -18 -77 -106q-28 -52 -44 -52l-10 2h1l-59 14q-36 9 -61 13t-28 4l-3 5l-162 30q6 22 17.5 52t28.5 70l2 5q22 58 41 93.5t35 49.5q5 3 41 24t108 64v-1q121 66 138 80l5 11v33q-1 5 -1.5 11t-1.5 10q0 12 -4 20l2 5l8 12h-1l18 24l26 30
q9 12 18.5 24t17.5 24q6 -48 11 -90.5t11 -90.5v1q19 -180 29.5 -271.5t15.5 -99.5q19 -31 40 -39q21 -6 48 -6l134 -6q2 2 7 2q32 0 61.5 6t55.5 19q9 8 21.5 16.5t22.5 16.5q5 5 9 14t4 22q0 35 -6.5 89t-19.5 130l-54 309q-1 9 -2 15.5t-5 20.5q-1 2 -1.5 5t-1.5 5l23 40
l38 58q48 76 64 94l68 -772l3 -7q17 -19 38.5 -34t46.5 -29q25 -10 50.5 -14.5t50.5 -4.5h35q18 0 41.5 15.5t37.5 50.5l-2 49q-16 55 -27 127t-21 147t-20.5 147t-26.5 127l80 176l2 -2q7 12 11.5 19t7.5 12l95 -654z" />
    <glyph glyph-name="tatweelwithfathatanabove" unicode="&#x640;&#x64b;" horiz-adv-x="1284" arabic-form="medial" 
d="M811 1434q0 -66 -35 -86l-303 -172q3 38 14 59q12 20 52 42zM811 1288q0 -66 -35 -86l-303 -172q3 38 14 59q12 20 52 42zM1354 129h-1354v121h1354v-121z" />
    <glyph glyph-name="fathamedial" unicode="&#x640;&#x64e;" horiz-adv-x="1284" arabic-form="medial" 
d="M811 1288q0 -66 -35 -86l-303 -172q3 38 14 59q12 20 52 42zM1354 129h-1354v121h1354v-121z" />
    <glyph glyph-name="dammamedial" unicode="&#x640;&#x64f;" horiz-adv-x="1284" arabic-form="medial" 
d="M814 1221l-8 -99l-80 52q-120 -144 -197 -144q-19 0 -59 12q102 57 213 156q-61 45 -61 90q0 60 45 125q30 43 71 43q68 0 68 -88q0 -51 -31 -117q13 -11 39 -30zM744 1309q0 23 -16 42t-37 19q-18 0 -18 -20q0 -31 65 -75q6 19 6 34zM1354 129h-1354v121h1354v-121z" />
    <glyph glyph-name="kasramedial" unicode="&#x640;&#x650;" horiz-adv-x="1284" arabic-form="medial" 
d="M811 -71q0 -66 -35 -86l-303 -172q3 38 14 60q13 18 52 41zM1354 129h-1354v121h1354v-121z" />
    <glyph glyph-name="shaddamedial" unicode="&#x640;&#x651;" horiz-adv-x="1284" arabic-form="medial" 
d="M819 1263q0 -168 -104 -168q-36 0 -64 21q-8 -35 -39 -60q-32 -26 -65 -26q-82 0 -82 108q0 25 22 101l23 4q0 -111 39 -111q64 0 90 162l18 6q23 -98 58 -98q58 0 67 147l23 10q14 -61 14 -96zM1354 129h-1354v121h1354v-121z" />
    <glyph glyph-name="sukunmedial" unicode="&#x640;&#x652;" horiz-adv-x="1284" arabic-form="medial" 
d="M771 1194q0 -65 -46 -114q-47 -50 -105 -50q-107 0 -107 121q0 84 38 137q37 54 99 54q47 0 84 -46q37 -43 37 -102zM716 1170q0 26 -43 57q-41 29 -68 29q-59 0 -59 -68q0 -59 92 -59q78 0 78 41zM1354 129h-1354v121h1354v-121z" />
    <glyph glyph-name="lamwithalefmaddaaboveisolatedd" unicode="&#xfedf;&#xfe82;" horiz-adv-x="1039" arabic-form="isolated" 
d="M764 130v30l-2 12q0 17 -8 36l-10 40l-18 56q-11 -13 -34 -34t-59 -52h1l-129 -97zM553 1301v1q-130 -113 -229 -113q-116 0 -216 58q-8 -15 -19 -33t-19 -33q-31 -48 -51 -48q-2 0 -3.5 1t-3.5 1q-6 6 50 107h-1q15 26 30 51.5t30 51.5l39 -21l41 -18l71 -21
q30 -6 63 -6q42 0 126 30q56 23 88.5 36t43.5 15zM1024 988q-2 -5 -3 -7l-3 -6l1 1q-2 -3 -4.5 -8l-4.5 -9l-83 -103v-115q0 -5 -1 -11t-1 -11q-1 -11 -1.5 -24.5t-1.5 -24.5l-2 -12l-2 -12l-7 -27q-4 -14 -8 -27.5t-8 -27.5q-9 -27 -25 -60q-4 -9 -8.5 -18.5t-8.5 -18.5h1
l-48 -81l-27 -46l12 -35q2 -7 5.5 -13.5t5.5 -13.5q9 -31 18 -69.5t19 -82.5q0 -13 1 -28.5t3 -21.5q-2 -86 -80 -86h-425q6 38 12.5 74t12.5 75q64 18 188 115q128 102 128 125q0 35 -114 169q-18 22 -42 49.5t-54 60.5l-87 88q-5 -18 -12 -40.5t-12 -41.5q-74 49 -117 78
t-55 39q-37 32 -58 64t-21 63v55q0 21 2 27q0 4 0.5 10t0.5 11l8 27q9 34 37 43q4 -2 13 -5q14 -5 34.5 -15.5t54.5 -36.5q112 -79 220 -203q141 -164 263 -387q13 9 29 30.5t34 50.5q10 17 17 30t10 18l8 24l7 22l4 68q0 48 -12 132l-27 131l-26 26q-11 11 -17.5 20.5
t-8.5 16.5q2 8 14 33t33 62q11 17 22.5 36t22.5 37q12 -59 65 -112l26 -23l34 -24z" />
    <glyph glyph-name="lamwithalefmaddaabovefinal" unicode="&#xfee0;&#xfe82;" horiz-adv-x="1185" arabic-form="final" 
d="M488 1205h-1h1zM411 1169q70 36 76 36q2 -2 2 -4q0 -9 -9 -21q-5 -7 -20.5 -21.5t-39.5 -33.5q-29 -23 -83 -53v1q-36 -18 -66 -18q-29 0 -51.5 3t-40.5 8h1q-9 4 -19 8t-19 8v-1l-43 27q-7 -14 -15 -30.5t-15 -30.5h1q-23 -40 -41 -45q0 2 1 8t3 13v-1q8 19 16.5 38
t16.5 38l11 25q5 14 35 67l30 -19l53 -28l42 -11l42 -5q28 0 58 9q8 3 17 6t17 6l17 8q5 3 11.5 7t11.5 7v-1zM1238 0h-325q-1 28 -1.5 53.5t-1.5 54.5t-2.5 58.5t-2.5 58.5q0 102 -14 164.5t-34 70.5q-6 -14 -15 -32t-15 -32q-6 -13 -15 -31t-16 -31q-13 -25 -30 -57.5
t-38 -67.5q-18 -29 -40.5 -57.5t-47.5 -55.5t-50.5 -50.5t-50.5 -42.5q-19 -14 -49 -30t-71 -33h1l-35 -14q-9 -3 -18.5 -6.5t-18.5 -6.5q-20 -7 -41 -13.5t-41 -12.5q-71 -18 -127 -27.5t-91 -9.5q-15 0 -22 3q9 7 59 36.5t137 79.5l97 54l40 25q8 5 17 11t16 11l115 79
l52 40q9 8 18 17.5t20 21.5q-9 45 -17 74.5t-14 43.5v-1q-5 12 -9 25.5t-9 25.5q-2 7 -8.5 19t-17.5 31h1l-14 29l-21 32l-18 28q-5 6 -10 13t-10 13q-22 29 -46.5 53.5t-49.5 39.5q-1 -3 -2.5 -9.5t-2.5 -9.5q-5 -12 -10 -21.5t-8 -13.5q-5 1 -23.5 11t-42.5 26
q-13 10 -26 20.5t-26 20.5h1q-13 11 -27.5 25t-27.5 25q-3 4 -7.5 11t-6.5 13q-1 6 -2.5 11.5t-2.5 11.5v14l3 44q0 12 4 23l7 30q2 14 5 27.5t5 27.5q2 5 2.5 10.5t2.5 10.5q42 -26 80 -49t79 -49h-1q157 -142 219 -278v1q13 -32 26.5 -65t26.5 -65q15 -47 24 -94t9 -88
q22 17 54 57.5t77 106.5q86 132 86 189q-5 92 -11.5 189t-11.5 190q1 12 52 72q5 6 10 12.5t10 12.5v-1q7 7 14.5 15.5t13.5 15.5q17 -208 36.5 -427.5t36.5 -427.5l3 -56l9 -35q19 -48 84 -48h143v-140z" />
    <glyph glyph-name="lamwithalefhamzaaboveisolatedd" unicode="&#xfedf;&#xfe84;" horiz-adv-x="1019" arabic-form="isolated" 
d="M720 130q0 53 -6 86l-2 15q0 13 -5 21q-3 18 -18 49q-11 -14 -23.5 -26.5t-24.5 -23.5h1q-15 -12 -30 -24.5t-31 -24.5q-13 -8 -25.5 -17t-25.5 -17v1l-80 -45l2 -7zM348 1135q-48 -1 -99.5 -14.5t-99.5 -40.5v-1q-15 -8 -29.5 -17t-29.5 -17q13 13 19 20t17 19l14 9
l24 15l46 31l-58 1q-4 0 -9 0.5t-9 0.5l-23 6q-20 5 -33 15t-20 21q1 23 14.5 50.5t36.5 56.5q30 32 66 50.5t77 18.5q11 0 29 -6q17 -3 17 -28q0 -12 -4 -16q-2 -6 -5 -14.5t-7 -15.5q-22 28 -68 28q-45 0 -71 -14h1q-31 -13 -42 -38v1q-10 -25 53 -52q34 -10 91 -14.5
t135 -4.5zM954 1000q-2 -7 -5.5 -15t-5.5 -15v1q-22 -47 -49 -83l-3 -110q0 -6 -0.5 -16t-0.5 -17l-9 -58q-12 -90 -56 -183q-4 -8 -8 -17t-8 -17h1l-25 -42l-50 -88l11 -35q2 -7 5.5 -13.5t5.5 -13.5q9 -31 18.5 -69.5t19.5 -82.5l2 -27q0 -47 -25 -79q-8 -11 -22 -18
t-33 -12h-424q7 38 12.5 74t12.5 74l16 3l17 5q3 2 8 3t8 3l20 9q29 13 62.5 30.5t68.5 40t70 50.5t68 63q-7 17 -36 58t-81 107l-78 90l-81 83q-7 -18 -13.5 -39t-13.5 -40q-27 18 -54 36.5t-53 35.5q-14 10 -28.5 20t-28.5 20h1q-74 62 -74 121v45q0 22 4 37q12 84 51 84
q10 0 33 -14t60 -39q48 -35 100.5 -82.5t103.5 -104.5q62 -72 123.5 -162t117.5 -193q21 29 36 55.5t26 51.5l17 47l13 54q6 52 6 83v48l-2 14l-1 32q-2 6 -3 14.5t-3 15.5l-8 62l-13 55l-25 26q-11 11 -17.5 20.5t-8.5 16.5q0 4 2 8l9 21l36 66h-1q13 18 24 36t23 37
q11 -54 47.5 -91t93.5 -60z" />
    <glyph glyph-name="lamwithalefhamzaabovefinal" unicode="&#xfee0;&#xfe84;" horiz-adv-x="1220" arabic-form="final" 
d="M350 1106q-108 -2 -217 -62q-17 -9 -33.5 -19t-33.5 -19l4 4q10 11 19.5 21.5t19.5 21.5h-1l90 57q-45 0 -100 12q-26 5 -42 14.5t-23 20.5q1 27 15.5 58t40.5 63q32 36 71 55.5t84 19.5q16 0 34 -11q11 -5 19 -30q0 -3 -1.5 -8t-4.5 -10q-7 -15 -14 -28q-25 29 -72 29
l-35 -3l-16 -4l-21 -7q-37 -14 -53 -43l-2 -10q0 -28 58 -47q33 -9 94.5 -14t157.5 -5zM1261 0h-341q-1 28 -1.5 53.5t-1.5 54.5q-2 29 -3.5 58.5t-2.5 58.5q0 102 -13.5 164.5t-33.5 70.5q-6 -14 -15 -32t-15 -32q-6 -13 -15 -31t-16 -31q-13 -25 -30 -57.5t-39 -67.5
q-18 -29 -40.5 -57.5t-47 -55.5t-50 -50.5t-50.5 -42.5q-19 -14 -49 -30t-71 -33h1l-35 -14q-9 -3 -18.5 -6.5t-18.5 -6.5q-20 -7 -41 -13.5t-41 -12.5q-71 -18 -127 -27.5t-91 -9.5q-13 0 -18 2l21 14q23 14 49 28.5t49 29.5l78 43q48 26 90 52.5t77 50.5q23 16 47.5 34.5
t46.5 38.5l109 97q-13 73 -32 111v-1q-5 11 -9.5 24t-9.5 24q-10 27 -24 48h1l-14 29l-21 32l-18 28q-5 6 -10 13t-10 13q-22 29 -46.5 53.5t-49.5 39.5q-1 -3 -2.5 -9.5t-2.5 -9.5q-5 -12 -10 -21.5t-8 -13.5q-5 1 -23.5 11t-42.5 26q-13 10 -26 20.5t-26 20.5h1
q-13 11 -27.5 25t-27.5 25q-3 4 -7.5 11t-6.5 13q-1 6 -2.5 11.5t-2.5 11.5v14l3 44q0 12 4 23l7 30q2 14 5 27.5t5 27.5q2 5 2.5 10.5t2.5 10.5q42 -26 80 -49t79 -49h-1q158 -142 218 -278v1q14 -32 26.5 -65t25.5 -65q13 -43 23 -92.5t10 -87.5q22 23 47 50t45 51l35 43
l28 41q26 42 47 87q17 45 17 79q-5 92 -11.5 189t-11.5 190q1 12 52 72q5 6 10 12.5t10 12.5v-1q6 7 14 15.5t14 15.5q17 -208 36.5 -427.5t36.5 -427.5l3 -56l9 -35q19 -48 84 -48h159v-140z" />
    <glyph glyph-name="lamwithalefhamzabelowisolated" unicode="&#xfedf;&#xfe88;" horiz-adv-x="1019" arabic-form="isolated" 
d="M724 130l-1 36q0 14 -7 31v-1q-3 9 -6 18.5t-6 18.5q-2 8 -4 14.5t-4 10.5l-12 29q-4 -5 -10.5 -12.5t-10.5 -12.5l-21 -18h1l-28 -20l-28 -20l-64 -37l-67 -40l2 -6zM505 -464q-48 0 -98.5 -14.5t-99.5 -40.5l-50 -27q-2 -2 -4.5 -2.5t-4.5 -2.5l8 10v-1l29 29h-1l29 17
l54 37l-32 -1h-22l-15 3q-8 0 -29 8q-40 12 -53 33q1 24 14.5 51.5t36.5 55.5q29 34 65 52t76 18q23 0 35.5 -5t12.5 -30q0 -11 -5 -18l-2 -8q-1 -4 -4 -9.5t-5 -10.5q-23 29 -68 29q-36 0 -72 -15q-23 -10 -40 -38l-2 -9q0 -21 64 -40q62 -20 217 -20zM945 999
q-2 -7 -5 -14.5t-5 -14.5v1q-22 -47 -49 -83q0 -158 -12 -237l-7 -40q-3 -22 -10 -34q0 -9 -5 -16l-6 -15l-17 -43q-3 -11 -6.5 -20t-8.5 -16l-25 -41l-25 -40l-25 -46l11 -35q2 -7 5.5 -13.5t5.5 -13.5q9 -31 18.5 -69.5t19.5 -82.5l2 -25q0 -23 -8 -44q-7 -20 -23 -36
q-31 -31 -80 -31h-393q7 38 12.5 74.5t12.5 74.5q38 10 86.5 35.5t108.5 69.5q122 91 122 119q0 14 -28.5 57t-82.5 112t-102.5 125t-84.5 89q-5 -18 -11.5 -40.5t-11.5 -41.5q-27 17 -59 38.5t-58 38.5q-14 10 -28.5 20t-28.5 20h1q-78 64 -78 127v55l2 29q0 5 0.5 12
t0.5 12l7 22q6 36 40 44q9 -2 35 -18t64 -44q57 -44 112.5 -96t108.5 -113q136 -160 263 -392q35 22 75 112l16 40l14 44l4 62l-3 61q-2 17 -4.5 36t-4.5 36q-1 7 -2 13.5t-2 13.5q0 20 -7 44l-17 74q-6 10 -13 21t-13 22h1q-5 12 -13 27.5t-13 27.5q4 14 46 70v-1
q12 11 23.5 24t22.5 26q10 -59 49 -97q14 -14 38.5 -28t52.5 -26z" />
    <glyph glyph-name="lamwithalefhamzabelowfinal" unicode="&#xfee0;&#xfe88;" horiz-adv-x="1181" arabic-form="final" 
d="M761 -464q-49 0 -99.5 -14.5t-99.5 -40.5l-42 -23l-10 -6l-10 -6q3 4 4 5l1.5 1.5l1.5 1.5t4 5v-1l29 29h-1l30 17l54 37h-32h-22l-15 2q-9 0 -30 8q-39 11 -52 33q1 24 14 51.5t36 55.5q30 34 66 52t76 18q22 0 34.5 -5t12.5 -30q0 -11 -5 -18l-2 -8q-1 -4 -4 -9.5
t-5 -10.5q-23 29 -67 29q-36 0 -72 -15q-24 -10 -41 -38l-2 -10q0 -10 17.5 -20t49.5 -20q31 -10 85 -14.5t130 -4.5zM1238 0h-325q-1 27 -1.5 53t-1.5 54l-9 210v33q-3 8 -5 18.5t-5 21.5q-6 29 -14.5 46.5t-20.5 18.5q-60 -133 -130 -254q-38 -61 -84.5 -111t-97.5 -85
q-23 -14 -52.5 -28t-63 -27.5t-69.5 -25.5t-71 -21q-29 -5 -58.5 -10.5t-58.5 -10.5q-13 -1 -25 -2.5t-25 -2.5l-51 -2q-35 0 -42 3q17 9 36 18.5t36 18.5q30 16 61.5 31.5t62.5 31.5l89 44l81 48q40 28 67 47.5t44 33.5l37 36l46 45q-2 8 -2.5 17.5t-1.5 17.5
q0 5 -0.5 10.5t-1.5 7.5q0 4 -1.5 9.5t-3.5 9.5q-2 17 -7 34.5t-12 37.5l-11 42l-26 66q-4 8 -8.5 16.5t-8.5 16.5v-1q-29 72 -72 123v-1q-25 33 -49 57.5t-49 40.5q-2 -6 -6 -15t-6 -15q-4 -5 -9 -11.5t-9 -11.5q-8 2 -26.5 12t-41.5 25q-29 21 -58 46.5t-54 54.5
q-19 19 -19 56q0 11 5 38t13 65q5 23 11.5 46t12.5 46l103 -64q17 -10 34 -21t34 -21h-1q82 -74 139.5 -150.5t87.5 -148.5q11 -35 23.5 -71.5t23.5 -71.5q13 -53 21 -104l6 -45q0 -8 1 -19.5t1 -19.5l-3 -34v-11l-2 -27l128 136q110 156 110 221q-5 91 -11.5 185.5
t-11.5 185.5q1 3 14 24t36 56q11 15 24 30.5t24 30.5q17 -209 36.5 -428t36.5 -428l3 -59q3 -15 9 -32q19 -46 84 -46h141v-140z" />
    <glyph glyph-name="lamwithalefisolated" unicode="&#xfedf;&#xfe8e;" horiz-adv-x="1019" arabic-form="isolated" 
d="M716 119q0 41 -12 91l-3 16q-2 6 -5 14t-5 15q-2 9 -4 17t-4 10l-15 32q-15 -22 -43.5 -48t-64.5 -52l-151 -90l13 -7l14 -6l69 -2l68 1l60 1h19l25 2zM962 976h1q-2 -3 -5 -8t-5 -9l-83 -103v-115q0 -5 -1 -11t-1 -11q-1 -11 -1.5 -25t-1.5 -25l-2 -12l-2 -12l-7 -28
q-8 -33 -17.5 -61t-22.5 -51q-4 -11 -7.5 -20.5t-8.5 -17.5l-26 -41l-24 -40l-25 -46l11 -35q2 -7 5.5 -13.5t5.5 -13.5q9 -31 18 -69.5t20 -82.5q0 -13 1 -28.5t3 -21.5q-2 -86 -81 -86h-425q7 38 12.5 74.5t12.5 74.5q61 16 189 115q63 51 95.5 82t32.5 43q0 33 -115 169
l-52 61l-44 48l-87 89q-5 -18 -11.5 -40.5t-11.5 -41.5q-27 17 -59 38.5t-58 38.5q-14 10 -28.5 20t-28.5 20h1q-79 65 -79 127v55l2 29q0 5 0.5 12t0.5 12l8 22q6 36 40 44q5 -1 13 -4.5t18 -8.5l68 -45q112 -80 221 -203q29 -35 64 -80.5t72 -96.5q14 -24 31 -49.5
t32 -48.5l65 -111q11 6 27 28.5t34 51.5q3 5 11 19.5t14 28.5l18 46l4 68l-3 59l-10 73l-27 131q-3 3 -13 12.5t-13 13.5q-5 7 -11 16t-14 23q0 2 1 3t1 3l9 21l36 66h-1q11 17 23 36t23 37q6 -32 20 -57.5t43 -53.5l22 -19l35 -27q15 -8 27 -14.5t26 -11.5z" />
    <glyph glyph-name="lamwithaleffinal" unicode="&#xfee0;&#xfe8e;" horiz-adv-x="1181" arabic-form="final" 
d="M1238 0h-325q-1 27 -1.5 53t-1.5 54l-5 116l-3 94l-4 33q0 8 -2 18.5t-5 21.5q-6 29 -14.5 46.5t-20.5 18.5q-28 -66 -60.5 -128.5t-69.5 -125.5q-39 -64 -85 -113.5t-102 -84.5q-49 -31 -118.5 -59.5t-154.5 -54.5q-74 -18 -129.5 -27.5t-86.5 -9.5q-17 0 -24 3
q9 7 58 36t140 80v-1l49 26q10 7 26 16.5t27 16.5l68 41q40 28 67 47.5t44 33.5l38 36l44 46q-6 63 -25 123t-53 118l-39 67l-46 65q-26 36 -54 63t-57 46q-2 -6 -4.5 -14.5t-4.5 -14.5q-6 -17 -17 -24q-27 1 -73.5 35t-115.5 101q-18 16 -18 47q0 10 1 18.5t3.5 18.5
t7 22.5t11.5 30.5q4 13 8 28t8 29q3 10 5 19.5t5 19.5q45 -27 87.5 -53t87.5 -53h-1q41 -35 78 -74t68 -79q25 -32 49 -71t41 -76q9 -18 17.5 -37t16.5 -37v1q5 -12 10 -26.5t10 -26.5q5 -20 9.5 -42t9.5 -42q2 -9 3 -20.5t3 -20.5l2 -40l-1 -16q0 -10 -2 -14v-13l-2 -27
l128 136q110 156 110 221q-5 91 -11.5 185.5t-11.5 185.5q1 3 14 24t36 56q11 15 24 30.5t24 30.5q17 -209 36.5 -428t36.5 -428l3 -59q3 -15 9 -32q19 -46 84 -46h141v-140z" />
    <glyph glyph-name="fathatanisolated" unicode="&#xfe70;" horiz-adv-x="408" arabic-form="isolated" 
d="M408 2054q0 -66 -35 -86l-303 -172q3 38 14 59q12 20 52 42zM408 1908q0 -66 -35 -86l-303 -172q3 38 14 59q12 20 52 42z" />
    <glyph glyph-name="dammatanisolated" unicode="&#xfe72;" horiz-adv-x="463" arabic-form="isolated" 
d="M463 1582q0 -17 -0.5 -32t-1.5 -27q-20 11 -43 25.5t-49 33.5q-126 -129 -240 -145q43 89 43 129q0 55 -49 55q-42 0 -49 -76q-10 29 -10 52t6.5 43t18 35t26.5 23.5t33 8.5q67 0 67 -100l-6 -92q65 25 124 90q-66 43 -66 94q0 53 40 99q40 48 82 48q22 0 45 -27
q23 -26 23 -53q0 -30 -11 -58l-22 -56q39 -30 39 -70zM387 1726q0 53 -41 53q-26 0 -26 -23q0 -26 63 -69q4 9 4 39z" />
    <glyph glyph-name="kasratanisolated" unicode="&#xfe74;" horiz-adv-x="408" arabic-form="isolated" 
d="M408 -620q0 -66 -35 -86l-303 -172q3 38 14 60q13 18 52 41zM408 -767q0 -66 -35 -86l-303 -172q3 38 14 60q13 18 52 41z" />
    <glyph glyph-name="fathaisolated" unicode="&#xfe76;" horiz-adv-x="408" arabic-form="isolated" 
d="M408 1708q0 -66 -35 -86l-303 -172q3 38 14 59q12 20 52 42z" />
    <glyph glyph-name="dammaisolated" unicode="&#xfe78;" horiz-adv-x="414" arabic-form="isolated" 
d="M414 1641l-8 -99l-80 52q-120 -144 -197 -144q-19 0 -59 12q102 57 213 156q-61 45 -61 90q0 60 45 125q30 43 71 43q68 0 68 -88q0 -51 -31 -117q13 -11 39 -30zM344 1729q0 23 -16 42t-37 19q-18 0 -18 -20q0 -31 65 -75q6 19 6 34z" />
    <glyph glyph-name="kasraisolated" unicode="&#xfe7a;" horiz-adv-x="408" arabic-form="isolated" 
d="M408 -620q0 -66 -35 -86l-303 -172q3 38 14 60q13 18 52 41z" />
    <glyph glyph-name="shaddaisolated" unicode="&#xfe7c;" horiz-adv-x="420" arabic-form="isolated" 
d="M420 1683q0 -168 -104 -168q-36 0 -64 21q-8 -35 -39 -60q-32 -26 -65 -26q-82 0 -82 108q0 25 22 101l23 4q0 -111 39 -111q64 0 90 162l18 6q23 -98 58 -98q58 0 67 147l23 10q14 -61 14 -96z" />
    <glyph glyph-name="sukunisolated" unicode="&#xfe7e;" horiz-adv-x="332" arabic-form="isolated" 
d="M332 1614q0 -65 -46 -114q-47 -50 -105 -50q-107 0 -107 121q0 84 38 137q37 54 99 54q47 0 84 -46q37 -43 37 -102zM277 1590q0 26 -43 57q-41 29 -68 29q-59 0 -59 -68q0 -59 92 -59q78 0 78 41z" />
    <glyph glyph-name="hamzaisolated" unicode="&#x621;" horiz-adv-x="622" arabic-form="isolated" 
d="M556 177q-11 -31 -22 -59t-22 -59l-37 -1q-25 0 -37 -4q-8 -2 -17.5 -3t-17.5 -3l-19 -4q-5 -2 -10 -3.5t-10 -3.5l-29 -6l-27 -8l-25 -9l-28 -12l-61 -33l-30 -18l-36 -27l-28 -24q-14 -12 -28 -23q0 10 26 52v-1q45 54 69 73q9 9 22 17v-1l18 10q9 5 19 10h-1l36 14
l-1 8h-38q-5 0 -8.5 1t-7.5 1q-8 1 -15 2.5t-15 2.5q-8 2 -17.5 4.5t-17.5 4.5q-77 25 -77 50q0 105 95 212q96 105 220 105q23 0 52 -23h-1q9 -9 14 -19.5t6 -18.5q-13 -21 -26.5 -42t-27.5 -41l-20 17l-25 15q-29 12 -80 12q-13 0 -32.5 -8.5t-42.5 -23.5
q-22 -15 -36 -28.5t-18 -26.5q0 -55 144 -77q55 -6 139 -6h84z" />
    <glyph glyph-name="alefwithmaddaaboveisolated" unicode="&#x622;" horiz-adv-x="499" arabic-form="isolated" 
d="M474 1183v1l3 -1h-3zM395 1147q61 33 79 36q2 -2 2 -4q0 -20 -70 -78h1q-84 -66 -145 -66q-93 0 -170 53q-7 -14 -15.5 -30.5t-15.5 -30.5q-26 -51 -41 -44v-1q-6 6 39 96q4 9 8.5 18.5t8.5 18.5h-1q8 13 15 26t15 27q17 -11 31.5 -20t31.5 -17q55 -24 100 -24
q20 0 55.5 9t71.5 32v-1zM303 170q-1 -11 -1.5 -23.5t-1.5 -23.5q-3 -21 -10 -44l-18 -60q-4 -10 -8 -20.5t-8 -20.5v1q-4 -10 -8 -19t-9 -19q-1 42 -4 87t-8 90q-5 48 -11 98t-11 98q0 31 -1 58t-3 51q-2 26 -6 55t-10 61q-5 35 -11.5 71.5t-11.5 71.5q-4 23 10.5 62
t43.5 93q6 11 12.5 21.5t12.5 21.5q8 11 16 23.5t16 23.5q2 -14 3.5 -22t3.5 -22q1 -20 2 -43.5t2 -43.5q1 -28 1.5 -61.5t1.5 -62.5l3 -121z" />
    <glyph glyph-name="alefwithmaddaabovefinal" unicode="&#x622;" horiz-adv-x="546" arabic-form="final" 
d="M474 1183q1 -1 1 -2q0 -20 -69 -80h1q-21 -15 -41.5 -27.5t-40.5 -22.5q-2 -1 -3 -1t-3 -1h1q-12 -4 -29 -9t-32 -5q-93 0 -170 53q-7 -14 -15.5 -30.5t-15.5 -30.5q-11 -22 -23 -32.5t-20 -11.5q-6 8 37 92q7 18 18.5 41t29.5 54l32 -23l32 -16q52 -24 101 -24
q37 0 99 24l70 31zM303 525l-14 118q-2 27 -4 56.5t-2 49.5q-1 23 -1.5 50t-1.5 50q-1 21 -1 43t-1 44q-24 -32 -47.5 -61t-46.5 -61q14 -186 27 -372l5 -141q5 -72 10 -132q5 -70 10 -112t61 -56h299v139h-153l-49 3q-20 7 -33 20l-13 15q-5 10 -11.5 41t-19.5 109
q-6 124 -14 197v0z" />
    <glyph glyph-name="alefwithhamzaaboveisolated" unicode="&#x623;" horiz-adv-x="499" arabic-form="isolated" 
d="M378 1011q-45 0 -83 -8.5t-77 -28.5q-25 -14 -50 -27.5t-51 -27.5q7 7 11 12t8 8.5t8 8t11 12.5h-1l85 55l-63 1q-4 0 -9 0.5t-10 0.5q-5 2 -11.5 3t-11.5 3q-18 6 -31.5 15t-20.5 22q1 26 15 54t37 56q30 32 66.5 49.5t77.5 18.5l33 -6q17 -3 17 -28q0 -11 -5 -18
q-2 -5 -2.5 -8t-2.5 -8l1 1q-2 -2 -3.5 -6t-3.5 -7q-14 16 -30.5 22.5t-39.5 6.5q-17 0 -66 -12q-38 -13 -49 -43v1q-7 -13 5 -28q8 -7 21.5 -12.5t30.5 -12.5q66 -18 230 -18zM306 170q-1 -11 -1.5 -23.5t-1.5 -23.5q-3 -21 -10 -44l-18 -60q-4 -10 -8 -20.5t-8 -20.5v1
q-5 -10 -9.5 -20.5t-9.5 -21.5q-5 51 -8 95.5t-8 95.5q-4 44 -8 89.5t-8 90.5q-1 18 -1.5 39.5t-1.5 39.5l-1 31l-10 67q-7 46 -14.5 92.5t-14.5 93.5v-1q-6 47 54 156q6 11 20 33.5t37 57.5q2 -14 3.5 -21.5t3.5 -21.5q1 -20 2 -43t2 -43q1 -30 1.5 -61t1.5 -61l3 -119z
" />
    <glyph glyph-name="alefwithhamzaabovefinal" unicode="&#x623;" horiz-adv-x="531" arabic-form="final" 
d="M266 455q8 -73 14 -127q13 -78 19.5 -109t11.5 -41l13 -15q13 -13 33 -20l49 -3h153v-139h-299q-56 14 -61 56t-10 112q-5 60 -10 132l-5 71q-13 186 -27 372q23 32 46.5 61t47.5 61q1 -22 1 -44t1 -43q1 -23 1.5 -50t1.5 -50q0 -20 2 -49.5t4 -56.5l14 -118v0zM397 1039
q-11 -14 -20.5 -28t-18.5 -28q-108 -2 -217 -62q-15 -8 -30.5 -17t-30.5 -17q6 6 9.5 9t6.5 7t8 9.5t14 16.5h-1l90 59q-49 0 -104 12q-49 10 -62 35q1 28 15.5 58t40.5 61t70 54q20 10 42 16t43 6q15 0 39 -11q5 -4 8.5 -11.5t5.5 -17.5q0 -3 -1 -7.5t-3 -9.5t-5.5 -14
t-8.5 -17q-28 31 -74 31l-33 -3l-40 -13q-42 -13 -52 -40l-2 -12q0 -28 58 -47q4 -2 15.5 -3.5t30.5 -3.5q13 -2 26.5 -3.5t26.5 -3.5l82 -3z" />
    <glyph glyph-name="wawwithhamzaaboveisolated" unicode="&#x624;" horiz-adv-x="770" arabic-form="isolated" 
d="M655 258q-8 57 -30 87.5t-56 33.5q-48 0 -70 -92q2 -10 10.5 -22.5t24.5 -26.5l17 -8l25 -8l24 -2q37 0 55 36v2zM666 711q-1 -3 -2.5 -5t-3.5 -5l-17 -22l-16 -21l-12 -21q-17 0 -38 -3t-47 -10q-55 -11 -83 -33v1q-23 -13 -42.5 -29.5t-36.5 -35.5q-2 -2 -6 -4
q-4 8 -4 14l6 30q3 8 9 19t12 19q4 3 8.5 6.5t9.5 7.5l39 18q-10 2 -26.5 6.5t-26.5 6.5q-8 3 -15 6.5t-12 8.5q-20 14 -20 41q0 22 12 51.5t31 60.5q25 32 56.5 51.5t65.5 19.5q17 0 19 -2q9 0 23 -10q25 -14 25 -42q-6 -12 -13 -25t-13 -25q-14 14 -45 26l-20 5l-22 5
q-11 0 -17 -1t-8 -2l-23 -14q-22 -13 -24 -29q0 -26 50 -58q20 -10 37 -14.5t29 -4.5l56 3q20 2 39 4t39 4zM736 233q0 -82 -31.5 -178t-88.5 -197q-64 -108 -136.5 -166t-147.5 -58l-40 3q-11 2 -21.5 5t-20.5 5q-24 7 -52.5 18.5t-58.5 29.5q-106 49 -106 71q0 4 10 9
l112 -33l43 -12l45 -7q60 0 125.5 34t139.5 103q96 95 183 243l-26 86q-10 -17 -18 -30.5t-13 -20.5q-9 -14 -32 -28q-29 -19 -56 -19q-36 0 -75 44v-1q-34 46 -34 95l3 43l2 10l2 10l7 24q10 38 45 97q27 47 52.5 75t42.5 28t39.5 -19.5t48.5 -56.5q27 -48 42 -101t15 -106
z" />
    <glyph glyph-name="wawwithhamzaabovefinal" unicode="&#x624;" horiz-adv-x="759" arabic-form="final" 
d="M631 143q0 32 -35 85q-17 26 -33.5 41.5t-30.5 15.5q-21 0 -46 -31q-12 -16 -20.5 -30t-12.5 -27q0 -10 5 -17q3 -4 9.5 -8t14.5 -9l36 -16l37 -8l53 -5q16 0 22 6zM647 614q-4 -8 -6.5 -14t-6.5 -14h1l-27 -42q-34 0 -82 -14q-23 -7 -46 -16t-40 -20v1q-37 -18 -66 -55
h1q-6 -4 -9 -7v20q16 62 72 82v7q-5 1 -11.5 1.5t-11.5 1.5l-18 6h1q-2 1 -7 1h1q-8 2 -22 12q-24 16 -24 44q0 18 1 26t7 23q2 7 5 13.5t5 13.5v-1l4 6l4 6h-1l16 23q47 68 115 68q10 0 16 -2q8 0 17 -6q25 -15 25 -43q-6 -13 -12.5 -24t-13.5 -24q-4 5 -11 10t-18 12
l-33 12q-18 0 -51 -15q-19 -10 -28 -27q0 -31 40 -57q20 -11 37 -16.5t30 -5.5l45 1l19 1q7 2 15.5 3t15.5 3zM810 0h-107q-12 -45 -29.5 -89t-42.5 -86q-11 -23 -22.5 -42.5t-22.5 -33.5q-14 -21 -30.5 -42.5t-36.5 -44.5q-116 -139 -240 -139q-60 0 -196 71
q-134 68 -134 100q0 9 5 11q32 -20 61 -36.5t58 -29.5q17 -7 34.5 -11.5t34.5 -9.5l32 -6l36 -2q104 0 264 153q160 152 160 239h-26q-74 0 -121 8.5t-78 41.5q-6 8 -10.5 20.5t-6.5 26.5v21q0 15 2 19q0 73 54 178q54 103 111 103q24 0 51 -28.5t54 -79.5q17 -44 30.5 -90
t20.5 -88h95v-134z" />
    <glyph glyph-name="alefwithhamzabelowisolated" unicode="&#x625;" horiz-adv-x="473" arabic-form="isolated" 
d="M362 -306q-48 0 -98.5 -14.5t-99.5 -40.5l-46 -24q-3 -2 -6.5 -4.5t-7.5 -4.5l1 1q8 8 17.5 18.5t17.5 18.5l33 19l52 35h-33l-27 2q-10 0 -40 9q-39 10 -52 33q1 24 14 51.5t36 55.5q30 33 66 51.5t76 18.5q19 0 30 -4q17 -9 17 -31q0 -11 -5 -18q-2 -4 -2.5 -7t-2.5 -7
v1q-2 -3 -3.5 -6l-3.5 -7q-25 27 -66 27q-28 0 -76 -17q-20 -8 -37 -36l-2 -9q0 -24 64 -43q58 -18 218 -18zM308 206q0 -42 -12 -90l-18 -61q-4 -10 -8 -20.5t-8 -20.5v1q-5 -11 -9.5 -21.5t-9.5 -21.5q-5 45 -8 84t-8 84l-16 165l-19 189q-12 118 -23 215t-22 177v-1
q-4 24 10.5 63t43.5 93q7 12 15.5 26.5t16.5 26.5q6 9 13 20.5t14 21.5q2 -2 1 -3t0 -8q1 -5 2 -10.5t2 -10.5q1 -15 2 -30.5t2 -30.5l2 -46l3 -61l2 -59q2 -33 3.5 -67t3.5 -67l2 -52l2 -52l3 -106l4 -54q2 -27 4 -55l1 -75v-31l2 -32l1 -38z" />
    <glyph glyph-name="alefwithhamzabelowfinal" unicode="&#x625;" horiz-adv-x="417" arabic-form="final" 
d="M344 -401q-96 0 -200 -56l-39 -23q-5 -3 -11.5 -6.5t-11.5 -7.5q3 4 4 5l2 2l2 2q1 1 4 5v-1l29 29h-1l29 18l55 37h-45l-14 2l-19 1q-6 0 -19 6q-41 12 -54 33q1 23 14 51t36 58q13 12 31 26.5t35 25.5v-1q39 17 76 17q22 0 34.5 -5t12.5 -29q0 -11 -5 -18
q-2 -5 -2.5 -8t-2.5 -8l1 1q-2 -2 -4 -5.5t-4 -6.5q-22 28 -66 28q-42 0 -71.5 -13t-41.5 -39l-2 -11q0 -19 66 -40q62 -20 216 -20zM421 0l-217 1q-56 14 -61 56t-10 112t-12 158t-14 178.5t-14 178.5t-13.5 171t-11.5 156q23 30 46.5 60.5t46.5 59.5l2 -60q2 -38 3.5 -76
t3.5 -76q0 -50 9 -146l18 -178q5 -42 9 -85.5t9 -85.5l14 -119q8 -55 14.5 -86t11.5 -41l13 -15q13 -13 33 -19l48 -4h72v-140z" />
    <glyph glyph-name="yehwithhamzaaboveisolated" unicode="&#x626;" horiz-adv-x="1198" arabic-form="isolated" 
d="M623 785q-2 -4 -2.5 -5.5t-2.5 -5.5v1q-2 -5 -5 -9t-5 -9h1l-30 -45q-16 0 -38 -5t-49 -14l-48 -16l-21 -8l-18 -9q-21 -10 -38.5 -25t-33.5 -34q-2 -2 -8 -6q0 7 2 16.5t5 23.5q10 20 30.5 39.5t51.5 33.5q-49 6 -80 26q-30 17 -30 45q0 51 45 116q25 32 55.5 51.5
t62.5 19.5q25 0 42 -15.5t21 -38.5l-7 -14q-1 -3 -2 -6.5t-2 -6.5l1 1q-4 -6 -8.5 -12t-9.5 -13q-10 15 -30 24.5t-35 11.5l-28 -3q-10 -2 -26 -12v1q-16 -7 -28 -30q0 -28 44 -60l22 -12l42 -10h63q5 1 10.5 2t10.5 2zM1111 578q0 -11 -2.5 -26.5t-7.5 -32.5
q-2 -5 -3.5 -11t-3.5 -11q-10 5 -20 8t-24 8l-20 5l-30 4q-95 0 -203 -93q-107 -92 -107 -174q0 -41 56 -67q61 -21 150 -21q50 0 87 -7.5t59 -21.5q28 -22 28 -62q0 -91 -31 -143q-31 -53 -125 -120q-52 -38 -111.5 -68t-128.5 -52q-67 -22 -135.5 -34t-133.5 -12
q-68 0 -125 18t-99 49q-45 38 -69.5 89.5t-24.5 117.5q0 53 17.5 120t49.5 139q27 59 47.5 91t33.5 32q3 0 6 -8l-34 -88q-5 -15 -11.5 -31.5t-11.5 -31.5q-11 -35 -17.5 -67.5t-6.5 -58.5q0 -131 106 -195q80 -44 238 -44q127 0 313 84q189 84 189 130q-12 25 -36 42l-39 4
l-69 3q-63 0 -108.5 7.5t-75.5 21.5q-26 14 -40 42q-14 33 -14 71q0 131 142 306t249 175h36q6 -1 12.5 -1.5t12.5 -1.5h-1q36 -11 36 -50v-34z" />
    <glyph glyph-name="yehwithhamzaabovefinal" unicode="&#x626;" horiz-adv-x="997" arabic-form="final" 
d="M579 601q-2 -4 -2.5 -5.5t-2.5 -5.5v1q-2 -5 -5 -9t-5 -9h1l-30 -45q-15 0 -37 -5t-49 -13l-49 -16l-21 -8l-18 -9q-18 -9 -36 -24.5t-36 -35.5q-1 -1 -3 -2.5t-4 -3.5q0 7 2 16.5t4 23.5q10 20 30 39t50 33q-10 2 -25 6t-25 6l-13 5q-4 2 -7.5 5.5t-7.5 5.5
q-30 18 -30 44q0 25 12 54.5t33 61.5q25 32 55.5 51.5t62.5 19.5q27 0 44 -15.5t19 -39.5q-2 -5 -6.5 -13t-4.5 -13l1 1l-8 -12q-4 -6 -9 -13q-10 15 -30.5 24.5t-35.5 11.5l-28 -3q-10 -2 -26 -12l1 1q-14 -3 -22 -16l-7 -15q0 -28 46 -60l28 -14q18 -7 35 -7h62
q5 1 10.5 2t10.5 2zM1032 0h-165q-41 0 -90 -13q-21 -5 -36 -12.5t-20 -18.5q0 -16 47 -33l40 -14l56 -13q10 -2 20.5 -3.5t20.5 -3.5q12 -2 25 -5.5t25 -5.5q15 -7 30 -22.5t23 -32.5q0 -91 -47 -133h1l-105 -73q-45 -32 -108.5 -60.5t-129.5 -47.5q-32 -8 -68 -15t-71 -12
q-17 -2 -35.5 -3.5t-35.5 -3.5q-16 -1 -35 -1.5t-35 -1.5q-61 2 -118 19t-102 49q-91 69 -91 201q0 55 15 121q0 3 2 9q2 10 6 24.5t11 31.5q7 15 15.5 33.5t15.5 33.5q24 51 43.5 82.5t32.5 38.5v-32q0 -4 -1 -8.5t-1 -8.5l-29 -79l-22 -69q-16 -58 -16 -82
q0 -135 102 -192q83 -43 234 -43q63 0 140 16t159 46q87 29 134 51.5t47 35.5q0 15 -58 28q-18 3 -36.5 6.5t-37.5 6.5q-67 12 -107 32t-40 46q0 87 91 175q90 90 162 90h142v-134z" />
    <glyph glyph-name="yehwithhamzaaboveinitial" unicode="&#x626;" horiz-adv-x="500" arabic-form="initial" 
d="M480 859q-11 -17 -21.5 -33t-21.5 -33q-59 0 -100 -11q-21 -5 -43 -13t-48 -20q-32 -21 -68.5 -45.5t-71.5 -46.5q14 20 23 34t23 34v-1q10 8 20.5 17t20.5 17h-1l49 39q-57 0 -106 13q-48 11 -59 40q2 30 18.5 69t45.5 77q35 44 76.5 67t84.5 25l8 -4h2q5 -2 11 -6
t11 -7q23 -18 23 -32q0 -2 -1 -3t-1 -3q-2 -2 -4 -6l-3 -6q-4 -8 -8.5 -16.5t-8.5 -16.5q-25 31 -81 31q-40 0 -81 -37h1q-9 -6 -35 -35q-5 -5 -7 -11.5t-4 -14.5q0 -18 45 -44q37 -14 113 -14l156 -4h43zM-59 140h480q0 59 -37 139q-13 31 -32.5 65.5t-48.5 71.5l36 68
q2 5 5 10.5t5 10.5h-1q7 12 14 23.5t15 23.5q8 -12 22.5 -40.5t37.5 -75.5q21 -50 36.5 -104.5t25.5 -105.5q-1 -35 -4 -74t-9 -67q-9 -37 -27 -61t-42 -24h-476v140z" />
    <glyph glyph-name="yehwithhamzaabovemedial" unicode="&#x626;" horiz-adv-x="520" arabic-form="medial" 
d="M522 859q-11 -17 -21.5 -33t-21.5 -33q-59 0 -100 -11q-40 -9 -91 -33q-32 -21 -68.5 -45.5t-71.5 -46.5q14 20 23 34t23 34v-1q10 8 20.5 17t20.5 17h-1l49 39q-57 0 -106 13q-48 11 -59 40q2 30 18.5 69t45.5 77q35 44 76.5 67t84.5 25l9 -4h1q5 -2 11 -6t11 -7
q23 -18 23 -32q0 -2 -1 -3t-1 -3q-2 -2 -4 -6l-3 -6q-4 -8 -8.5 -16.5t-8.5 -16.5q-25 31 -81 31q-40 0 -81 -37h1q-9 -6 -35 -35q-8 -9 -11 -26q0 -18 45 -44q37 -14 113 -14l156 -4h43zM-17 140h95l46 -1l43 -1q8 0 20 -0.5t20 -0.5l43 -3l47 1l35 7q41 10 41 49
q0 15 0.5 34.5t0.5 39.5q0 21 0.5 40.5t0.5 34.5q13 17 26 33t26 33q25 32 43 54t29 32q-2 -32 -4 -64.5t-4 -64.5q-2 -23 -5.5 -48t-5.5 -49q-1 -7 -1.5 -14.5t-1.5 -14.5v1l-6 -21l-8 -53q0 -14 31 -24h43v-140h-80q-26 0 -65 24q-2 2 -15 31v-1q-8 22 -22 37l-18 -20
l-24 -33q-17 -33 -33 -38h-297v140z" />
    <glyph glyph-name="alefisolated" unicode="&#x627;" horiz-adv-x="407" arabic-form="isolated" 
d="M254 190q0 -53 -13 -92q-3 -22 -18 -61v1l-31 -78l-4 105v37q-19 166 -32 285t-22 201.5t-15 134.5t-10 84t-6.5 49t-5.5 30l-1 11q0 17 2 23l9 30q7 20 17 43t25 48q14 23 28.5 47t28.5 47q1 -1 1 -2v-3v-5q1 -5 2 -10.5t2 -10.5l4 -60l6 -171q3 -78 5.5 -130t4.5 -87
t3 -57.5t3 -42.5l1 -9l6 -135l6 -145l-2 -43z" />
    <glyph glyph-name="aleffinal" unicode="&#x627;" horiz-adv-x="392" arabic-form="final" 
d="M421 0l-217 1q-56 14 -61 56t-10 112t-12 158t-14 178.5t-14 178.5t-13.5 171t-11.5 156q23 30 46.5 60.5t46.5 59.5l2 -60q2 -38 3.5 -76t3.5 -76q0 -50 9 -146l18 -178q5 -42 9 -85.5t9 -85.5l14 -119q8 -55 14.5 -86t11.5 -41l13 -15q13 -13 33 -19l48 -4h72v-140z
" />
    <glyph glyph-name="behisolated" unicode="&#x628;" horiz-adv-x="1276" arabic-form="isolated" 
d="M741 -286q-19 -29 -35 -55t-34 -55q-40 24 -78.5 46.5t-79.5 46.5l34.5 57.5t34.5 56.5zM1257 201l-4 -25q-1 -6 -2 -12.5t-2 -12.5q-2 -8 -3.5 -16t-3.5 -15l-16 -67l-6 -30q-2 -5 -3.5 -11t-3.5 -12h-876q-150 0 -232 70q-42 37 -65 78q-22 48 -22 94q0 29 15 72t42 97
q25 49 45 77.5t34 33.5q-2 -10 -3.5 -16.5t-3.5 -15.5q-23 -51 -36 -88t-13 -51q0 -98 57 -155q11 -11 27 -21t36 -20q43 -15 87 -15h877q0 28 -9 69l-12 42q-2 6 -3.5 11.5t-4.5 9.5q-2 3 -3 7t-3 7q-5 14 -11.5 27.5t-17.5 33.5q-11 18 -21.5 35t-21.5 35q19 35 39 73
t38 73q8 -12 22 -43q9 -19 18 -38.5t18 -39.5v1q5 -13 9 -26t9 -26q4 -14 8.5 -28.5t8.5 -28.5q12 -51 12 -94v-39z" />
    <glyph glyph-name="behfinal" unicode="&#x628;" horiz-adv-x="1245" arabic-form="final" 
d="M730 -286q-19 -29 -35 -55t-34 -55q-40 24 -78 46.5t-79 46.5q22 30 42 57.5t42 56.5zM1272 0h-42q-8 1 -17 2t-17 2q-24 3 -28 7q-48 29 -81 82q-12 -16 -25.5 -32.5t-24.5 -31.5q-14 -4 -76 -11.5t-169 -19.5q-45 -3 -91.5 -7t-91.5 -7l-77 -3q-13 -1 -27 -1.5
t-27 -1.5q-24 1 -53 1.5t-53 1.5l-87 3l-32 1q-17 0 -35 5q-6 1 -12.5 2t-12.5 2l-28 10q-82 26 -124.5 84.5t-44.5 140.5q1 8 1.5 18.5t1.5 18.5q1 5 2 9.5t2 9.5l8 23q13 41 45 104q53 105 84 113v-33q-28 -61 -43.5 -103.5t-15.5 -62.5q0 -129 136 -180l30 -6l76 -14
l72 -5l79 -2l111 2l104 2l84 2l84 2q85 0 122 8l36 5l46 13l7 14l9 28l14 49l12 61q0 4 59 57h-1q14 10 28.5 20t28.5 20q1 -2 1 -7v-6q-1 -6 -1.5 -14.5t-1.5 -14.5q-1 -5 -2 -8.5t-2 -8.5l-7 -24q-18 -79 -57 -137q6 -20 22 -35q15 -7 46 -7h56v-140z" />
    <glyph glyph-name="behinitial" unicode="&#x628;" horiz-adv-x="485" arabic-form="initial" 
d="M336 -295q-17 -29 -34.5 -56t-34.5 -56q-40 25 -78 48.5t-79 48.5q18 29 35 55.5t34 54.5zM-38 140h440q0 65 -31 137v-1l-15 39q-4 8 -7.5 16t-9.5 18l1 -1l-7 15l-11 20l-10 16l-10 16q8 15 17.5 35.5t17.5 35.5q10 17 20 35.5t20 36.5q5 -8 9.5 -18t10.5 -23
q8 -18 17 -37t17 -38v1q47 -123 47 -199l-1 -27l-1 -19q0 -9 -4 -18q0 -16 -5 -33l-12 -50q-1 -8 -2.5 -16t-2.5 -15l-4 -20l-4 -20q-2 -5 -4 -12.5t-4 -13.5h-472v140z" />
    <glyph glyph-name="behmedial" unicode="&#x628;" horiz-adv-x="552" arabic-form="medial" 
d="M442 -295q-17 -32 -35 -63t-35 -63q-43 23 -86.5 48t-85.5 48q17 30 32.5 60t32.5 60zM-28 140h432q-7 43 -15 88t-15 89q8 17 19.5 38t19.5 38q20 37 36.5 58t26.5 21t10 -128q2 -39 3.5 -78.5t3.5 -78.5q0 -47 49 -47h23v-140h-119q-10 0 -17.5 7.5t-11.5 18.5l-6 24
l-4 20l-6 24q-4 -6 -10.5 -16t-10.5 -15v1l-11 -16q-28 -41 -40 -48h-357v140z" />
    <glyph glyph-name="tehmarbutaisolated" unicode="&#x629;" horiz-adv-x="539" arabic-form="isolated" 
d="M408 194q0 21 -6 39l-6 17q-2 2 -4.5 7t-4.5 7l-14 22l-21 20q-10 9 -38 29q-4 0 -6 2t-3.5 2.5t-3.5 2.5l-23 16l-46 -49q-21 -24 -33 -45q-27 -47 -27 -68q0 -12 9 -25l8 -10l21 -14q6 -1 13 -2.5t13 -2.5l22 -3l46 3q17 2 24 5l14 6l14 6h-1q52 20 53 35zM443 814
q-20 -29 -37 -56t-37 -56l-30 25l-41 30l-36 23l-25 -36q-6 -11 -13 -22.5t-13 -22.5h1q-4 -5 -6.5 -11t-6.5 -12q-32 23 -61 45.5t-60 45.5q18 28 34.5 54t34.5 54l14 -13q4 -3 12 -8.5t13 -8.5q39 -30 72 -51l44 66q6 9 11 18t11 18zM462 274q0 -85 -27 -148
q-11 -26 -30.5 -49t-50.5 -40q-61 -35 -132 -35q-84 0 -109 40v-1q-2 4 -3.5 9t-3.5 8q-1 3 -2.5 8t-2.5 8v11l-2 20q0 49 21.5 109t73.5 146q81 142 98 142q36 0 100 -70q70 -76 70 -158z" />
    <glyph glyph-name="tehmarbutafinal" unicode="&#x629;" horiz-adv-x="551" arabic-form="final" 
d="M349 281l-2 24l-1 18l-3 22l-27 150q-8 -15 -20 -36t-20 -36l-37 -19l-45 -28q-52 -35 -52 -58q0 -17 64 -30l67 -5zM467 951q-20 -29 -37.5 -55.5t-37.5 -55.5l-34 29q-12 9 -30.5 21.5t-42.5 27.5l-18 -28l-33 -57q-2 -10 -11 -19q-32 23 -61 45.5t-60 45.5
q18 28 34.5 53.5t34.5 54.5l36 -31q41 -31 75 -50l44 66q2 3 4.5 8.5t4.5 8.5q3 5 6.5 9.5t6.5 9.5zM579 0h-21q-93 0 -130 40q-17 20 -36 70.5t-38 131.5l-60 -67q-10 -13 -21.5 -21.5t-21.5 -13.5h-28q-10 1 -19.5 2t-18.5 2q-7 1 -13 2t-13 2l-33 10q-92 20 -92 53
t18.5 73.5t51.5 82.5q38 46 90 84t118 66q-2 16 -6 34t-6 35q0 4 2 10t5 14q5 9 14 21t20 26q7 6 18 13q5 -32 9.5 -62t9.5 -62q5 -38 10.5 -77t11.5 -77l8 -74q12 -112 52 -156q28 -28 102 -28h17v-134z" />
    <glyph glyph-name="tehisolated" unicode="&#x62a;" horiz-adv-x="1276" arabic-form="isolated" 
d="M855 635q-17 -29 -32.5 -55t-32.5 -54l-164 95q-13 -21 -25.5 -44t-25.5 -45q-43 25 -84 48.5t-83 49.5q17 29 33.5 55.5t33.5 55.5l163 -98q12 21 26.5 45t26.5 45zM1257 201l-4 -25q-1 -6 -2 -12.5t-2 -12.5q-2 -8 -3.5 -16t-3.5 -15l-16 -67l-6 -30q-2 -5 -3.5 -11
t-3.5 -12h-876q-150 0 -232 70q-42 37 -65 78q-22 48 -22 94q0 29 15 72t42 97q25 49 45 77.5t34 33.5q-2 -10 -3.5 -16.5t-3.5 -15.5q-23 -51 -36 -88t-13 -51q0 -98 57 -155q11 -11 27 -21t36 -20q43 -15 87 -15h877q0 28 -9 69l-12 42q-2 6 -3.5 11.5t-4.5 9.5q-2 3 -3 7
t-3 7q-5 14 -11.5 27.5t-17.5 33.5q-11 18 -21.5 35t-21.5 35q19 35 39 73t38 73q8 -12 22 -43q9 -19 18 -38.5t18 -39.5v1q5 -13 9 -26t9 -26q4 -14 8.5 -28.5t8.5 -28.5q12 -51 12 -94v-39z" />
    <glyph glyph-name="tehfinal" unicode="&#x62a;" horiz-adv-x="1268" arabic-form="final" 
d="M830 597q-17 -28 -33 -54.5t-33 -53.5l-164 96q-12 -21 -26 -45t-26 -45q-43 25 -83 48t-82 48q17 30 32.5 57t32.5 56l164 -99q12 22 26.5 46t26.5 45zM1272 0h-42q-8 1 -17 2t-17 2q-24 3 -28 7q-48 29 -81 82q-12 -16 -25.5 -32.5t-24.5 -31.5q-14 -4 -76 -11.5
t-169 -19.5q-45 -3 -91.5 -7t-91.5 -7l-77 -3q-13 -1 -27 -1.5t-27 -1.5q-24 1 -53 1.5t-53 1.5l-87 3l-32 1q-17 0 -35 5q-6 1 -12.5 2t-12.5 2l-28 10q-82 26 -124.5 84.5t-44.5 140.5q1 8 1.5 18.5t1.5 18.5q1 5 2 9.5t2 9.5l8 23q13 41 45 104q53 105 84 113v-33
q-28 -61 -43.5 -103.5t-15.5 -62.5q0 -129 136 -180l30 -6l76 -14l72 -5l79 -2l111 2l104 2l84 2l84 2q85 0 122 8l36 5l46 13l7 14l9 28l14 49l12 61q0 4 59 57h-1q14 10 28.5 20t28.5 20q1 -2 1 -7v-6q-1 -6 -1.5 -14.5t-1.5 -14.5q-1 -5 -2 -8.5t-2 -8.5l-7 -24
q-18 -79 -57 -137q6 -20 22 -35q15 -7 46 -7h56v-140z" />
    <glyph glyph-name="tehinitial" unicode="&#x62a;" horiz-adv-x="495" arabic-form="initial" 
d="M464 817q-17 -29 -32.5 -55t-32.5 -54l-164 96q-12 -21 -26 -45t-26 -45q-43 25 -83 48t-82 49q17 29 32.5 56t32.5 56l162 -98q13 21 27.5 45t27.5 45zM-28 140h440q0 65 -31 137v-1l-15 39q-4 8 -7.5 16t-9.5 18l1 -1l-7 15l-11 20l-10 16l-10 16q8 15 17.5 35.5
t17.5 35.5q10 17 20 35.5t20 36.5q5 -8 9.5 -18t10.5 -23q8 -18 17 -37t17 -38v1q47 -123 47 -199l-1 -27l-1 -19q0 -9 -4 -18q0 -16 -5 -33l-12 -50q-1 -8 -2.5 -16.5t-2.5 -15.5l-4 -20q-2 -10 -4 -19q-2 -5 -4 -12.5t-4 -13.5h-472v140z" />
    <glyph glyph-name="tehmedial" unicode="&#x62a;" horiz-adv-x="495" arabic-form="medial" 
d="M453 788q-17 -29 -32.5 -55.5t-32.5 -55.5l-164 98q-13 -21 -25.5 -44t-25.5 -45q-43 24 -83.5 46.5t-82.5 46.5q17 30 32.5 58.5t32.5 57.5l164 -101q12 21 26.5 45t26.5 45zM-42 140h388q1 46 2 100t2 100q13 17 26 33t26 33q25 32 43 54t29 32q-2 -32 -4 -64.5
t-4 -64.5q-2 -23 -5.5 -48t-5.5 -49q-1 -7 -1.5 -14.5t-1.5 -14.5v1l-6 -21l-8 -53q0 -14 31 -24h43v-140h-80q-26 0 -65 24q-2 2 -15 31v-1q-8 22 -22 37l-18 -20l-24 -33q-17 -33 -33 -38h-297v140z" />
    <glyph glyph-name="thehisolated" unicode="&#x62b;" horiz-adv-x="1276" arabic-form="isolated" 
d="M597 856q-17 -29 -32.5 -55.5t-33.5 -55.5q-41 24 -79.5 48t-79.5 48q17 29 34 55.5t34 55.5zM820 613q-17 -29 -32.5 -54.5t-32.5 -53.5l-162 96q-12 -21 -27 -45t-28 -45q-42 25 -82 48t-82 48q17 30 32.5 57t32.5 56l164 -98q12 21 26.5 45t26.5 45zM1257 201l-4 -25
q-1 -6 -2 -12.5t-2 -11.5q-2 -8 -3.5 -16t-3.5 -16l-16 -67l-6 -30q-2 -5 -3.5 -11t-3.5 -12h-876q-150 0 -232 70q-42 37 -65 78q-22 48 -22 94q0 29 15 72t42 97q25 49 45 77.5t34 33.5q-2 -10 -3.5 -16.5t-3.5 -15.5q-23 -51 -36 -88t-13 -51q0 -98 57 -155
q11 -11 27 -21t36 -20q43 -15 87 -15h877q0 28 -9 69l-12 42q-2 6 -3.5 11.5t-4.5 9.5q-2 3 -3 7t-3 7q-5 14 -11.5 27.5t-17.5 33.5q-11 18 -21.5 35t-21.5 35q19 35 39 73t38 73q8 -12 22 -43q9 -19 18 -38.5t18 -39.5v1q5 -13 9 -26t9 -26q4 -14 8.5 -28.5t8.5 -28.5
q12 -51 12 -94v-39z" />
    <glyph glyph-name="thehfinal" unicode="&#x62b;" horiz-adv-x="1380" arabic-form="final" 
d="M737 830q-18 -29 -34.5 -55.5t-34.5 -54.5q-31 20 -59.5 40t-58.5 40q20 29 39 57t39 57zM864 632q-20 -30 -38 -56.5t-38 -55.5q-8 7 -16 14.5t-16 14.5q-10 8 -19 14.5t-16 10.5v-1l-39 25q-11 -19 -24.5 -40.5t-25.5 -40.5q-4 -5 -6.5 -11t-6.5 -12q-31 23 -60 45.5
t-60 45.5q18 28 34.5 54t34.5 54l14 -13q4 -3 11 -8.5t12 -8.5q44 -34 74 -51l45 68q2 4 7.5 12.5t13.5 21.5zM1422 0h-49q-47 0 -86 15l1 -1q-8 5 -15.5 9t-15.5 9h1q-6 6 -13 12t-13 12v-1q-5 8 -11 15.5t-11 15.5q-19 30 -26 30q-15 0 -34 -19l-12 -13q-5 -6 -10.5 -12.5
t-10.5 -12.5h1q-20 -13 -65.5 -31t-100.5 -35q-89 -22 -185.5 -34t-193.5 -12q-60 0 -111 4t-91 12q-80 15 -162 48h1q-91 38 -134.5 98.5t-43.5 143.5q0 50 10 84q3 19 12 43v-1l9 22l5.5 11t5.5 12q14 29 27 47.5t23 26.5v-21q0 -3 -1 -6.5t-1 -6.5l-18 -61l-8 -44
q0 -80 52 -137q52 -55 177 -96q63 -20 135.5 -30.5t161.5 -10.5q59 0 106.5 1.5t82.5 6.5h43l23 4q11 2 24.5 4.5t24.5 4.5l26 4q4 2 8.5 3t8.5 3q51 11 96.5 26t80.5 34q9 5 40 53q13 30 27 31q2 -4 4 -6.5t4 -6.5h-1l25 -49q35 -64 135 -64h42v-134z" />
    <glyph glyph-name="thehinitial" unicode="&#x62b;" horiz-adv-x="495" arabic-form="initial" 
d="M267 1030q-17 -29 -34 -56.5t-34 -56.5q-40 25 -78.5 48.5t-78.5 49.5q17 29 34 55.5t34 55.5zM454 788q-17 -29 -32.5 -55.5t-32.5 -55.5l-162 98q-12 -20 -27 -44t-27 -45q-43 24 -83.5 46.5t-82.5 46.5q18 30 34 58.5t34 57.5l162 -101q14 22 27.5 45t27.5 45z
M-28 140h440q0 65 -31 137v-1l-15 39q-4 8 -7.5 16t-9.5 18l1 -1l-7 15l-11 20l-10 16l-10 16q8 15 17.5 35.5t17.5 35.5q10 17 20 35.5t20 36.5q5 -8 9.5 -18t10.5 -23q8 -18 17 -37t17 -38v1q47 -123 47 -199l-1 -27l-1 -19q0 -9 -4 -18q0 -16 -5 -33l-12 -50
q-1 -8 -2.5 -16.5t-2.5 -15.5l-4 -20q-2 -10 -4 -19q-2 -5 -4 -12.5t-4 -13.5h-472v140z" />
    <glyph glyph-name="thehmedial" unicode="&#x62b;" horiz-adv-x="520" arabic-form="medial" 
d="M288 1030q-18 -29 -34 -56.5t-34 -56.5q-41 25 -79.5 48t-78.5 49q18 29 34 56t34 56zM474 775q-17 -29 -32.5 -54.5t-32.5 -53.5l-162 96q-12 -21 -27 -45t-27 -45q-43 25 -83 48.5t-82 48.5q17 29 33.5 56.5t33.5 55.5l162 -98q14 22 27.5 45t27.5 45zM-17 140h388
q1 46 2 100t2 100q13 17 26 33t26 33q25 32 43 54t29 32q-2 -32 -4 -64.5t-4 -64.5q-2 -23 -5.5 -48t-5.5 -49q-1 -7 -1.5 -14.5t-1.5 -14.5v1l-6 -21l-8 -53q0 -14 31 -24h43v-140h-80q-26 0 -65 24q-2 2 -15 31v-1q-8 22 -22 37l-18 -20l-24 -33q-17 -33 -33 -38h-297v140
z" />
    <glyph glyph-name="jeemisolated" unicode="&#x62c;" horiz-adv-x="815" arabic-form="isolated" 
d="M634 -101q-18 -32 -33.5 -61t-33.5 -61q-42 25 -81.5 48t-81.5 48q15 29 30.5 57.5t30.5 57.5zM854 -573q-28 -21 -59 -39v1l-42 -21q-10 -5 -20 -9t-20 -9h1q-17 -7 -46.5 -13.5t-66.5 -14.5q-15 -2 -30.5 -4t-30.5 -4l-67 -3q-246 0 -379 106q-131 104 -131 277
q0 117 31 214q21 78 53 137q16 30 37 60t47 62q4 4 8 9l8 10q5 5 10 10.5t10 10.5q11 11 26 25t27 25l105 85l-32 9l-26 7l-45 9q-62 12 -126 12q-32 0 -64.5 -5t-61.5 -13q-2 0 -7.5 -2.5t-8.5 -4.5q2 15 4.5 26t4.5 25q49 130 145 130q86 0 210 -25q126 -24 251 -24h192
q-17 -38 -31.5 -71.5t-31.5 -70.5q-28 0 -62.5 -5.5t-71.5 -14.5l-50 -10l-46 -12q-92 -29 -173.5 -85t-147.5 -134q-58 -69 -89.5 -131.5t-31.5 -111.5q0 -288 319 -373l86 -20l57 -7l60 -3l103 -3z" />
    <glyph glyph-name="jeemfinal" unicode="&#x62c;" horiz-adv-x="908" arabic-form="final" 
d="M536 -200q-17 -29 -32.5 -55.5t-32.5 -55.5q-41 24 -80 48t-80 48q18 29 34.5 55.5t35.5 55.5zM875 -573q-25 -20 -58 -39v1l-42 -21q-10 -5 -20 -9t-21 -9h1q-17 -7 -46 -13.5t-66 -14.5q-15 -2 -30.5 -4t-30.5 -4l-67 -3q-246 0 -379 97q-132 96 -132 266q0 60 6 109
t21 105q18 68 51.5 132.5t82.5 127.5v-1q3 4 7 9l8 10q5 5 10 10.5t10 10.5q11 11 26.5 25t27.5 25l104 85l-40 11l-56 13q-62 13 -112 13q-73 0 -122 -28q-5 -4 -9 -7t-9 -7q6 26 11.5 47t11.5 47v-1q50 105 129 105q39 0 89 -6t110 -19q121 -24 242 -24h188
q-17 -38 -33 -71.5t-33 -70.5l-28 -1q-14 0 -42 -7l-51 -9l-32 -6l-25 -9v-62l3 -23q3 -16 25 -38q38 -29 231 -29h168v-140h-271q-44 0 -56 4q-69 12 -113 50v-1l-8 12l-8 12l1 -1q-3 10 -7 22.5t-7 22.5q-2 14 -4 27.5t-4 27.5l-3 51v24q0 18 2 20l-3 7
q-87 -29 -166 -85.5t-145 -134.5q-51 -62 -86 -127q-28 -65 -28 -111q0 -170 121 -267q90 -72 280 -106l73 -10l73 -4l169 -6h111z" />
    <glyph glyph-name="jeeminitial" unicode="&#x62c;" horiz-adv-x="1106" arabic-form="initial" 
d="M708 -294q-18 -29 -34 -56.5t-34 -56.5q-41 25 -79.5 48t-78.5 48q18 29 34 55.5t34 55.5zM-35 140h391q14 1 32 1.5t32 1.5q5 0 11.5 1t12.5 3l21 7l81 34l87 36l-65 47l-66 42q-71 40 -122 61t-87 21t-72 -18q-15 -8 -30 -17t-30 -17q0 10 -4 20q5 13 17.5 29.5
t30.5 36.5q9 8 19.5 18.5t19.5 18.5q5 4 10.5 8.5t10.5 8.5h-1l15 10q44 28 91 28q13 0 23.5 -0.5t21 -3t22.5 -6.5t27 -10q29 -11 58.5 -27t62.5 -37l174 -107l110 -55l93 -37q53 -13 132 -13q-16 -38 -31 -72.5t-31 -73.5l-70 17l-86 11l-86 7l-67 3q-36 0 -111 -18
l-34 -11l-42 -13l-41 -14l-55 -20l-52 -18l-45 -12q-11 -2 -21.5 -4t-21.5 -4q-9 -1 -20 -1.5t-21 -1.5h-294v140z" />
    <glyph glyph-name="jeemmedial" unicode="&#x62c;" horiz-adv-x="1131" arabic-form="medial" 
d="M708 -294q-18 -29 -34 -56.5t-35 -56.5q-40 25 -78.5 48t-78.5 48q18 29 34 55.5t34 55.5zM-35 140h365q43 0 88 12l18 5l16 4q3 2 8 3.5t9 3.5l21 8q7 4 16 9t16 9v-1q20 10 41 22t41 26l95 69l-96 20q-39 8 -83.5 17.5t-84.5 17.5l-44 12l-37 4l-26 -1q-9 0 -16.5 -1.5
t-15.5 -3.5q-18 -3 -37 -17q-17 -12 -33.5 -25t-33.5 -25l6 31q1 5 2 8.5t2 8.5l6 13q32 69 75 112q56 50 120 50q32 0 71 -6t98 -21l308 -84l55 -5l58 -3q26 0 49.5 1t48.5 1q-16 -38 -29.5 -71.5t-29.5 -71.5l-53 2h-31l-34 -2l-29 -1q-6 0 -15 -2.5t-19 -5.5
q-31 -3 -59.5 -10.5t-54.5 -21.5q0 -49 40 -82l16 -8h374v-140h-397q-34 0 -57 47v-1q-2 4 -9 42.5t-21 113.5l-193 -141q-17 -17 -34 -27q-13 -10 -38 -20q-11 -2 -22 -5.5t-22 -5.5l-48 -3h-361v140z" />
    <glyph glyph-name="hahisolated" unicode="&#x62d;" horiz-adv-x="856" arabic-form="isolated" 
d="M897 -573q-13 -9 -29 -19t-33 -20v1q-12 -5 -25 -12t-25 -12h1q-10 -4 -21 -8t-21 -8q-12 -3 -24 -7t-24 -7q-16 -3 -31.5 -6t-30.5 -6q-17 -2 -34 -4.5t-34 -4.5h1q-16 -1 -35.5 -1.5t-36.5 -1.5q-125 2 -226.5 28t-170.5 78q-65 48 -101.5 120.5t-36.5 156.5
q0 54 8.5 108t25.5 106q21 66 57 131.5t86 128.5v-1q18 21 41 43.5t52 46.5q17 17 44.5 37.5t65.5 46.5q-33 12 -59 18q-12 2 -24.5 4t-24.5 4q-32 6 -66 9t-66 3q-14 -1 -30.5 -1.5t-30.5 -1.5q-5 0 -13 -1t-14 -3q-7 -2 -13.5 -3.5t-13.5 -3.5h1q-18 -3 -22 -5
q-3 -2 -6 -3.5t-6 -3.5l4 26q2 13 4 25q29 63 68 97t86 34q45 0 100 -6t123 -19q133 -24 261 -24h196q-18 -38 -34 -71.5t-34 -70.5h-19l-30 -3l-36 -6q-12 -2 -25 -5.5t-25 -5.5l-35 -7l-64 -15q-94 -29 -178.5 -83.5t-159.5 -135.5q-125 -140 -125 -243q0 -67 23 -125
t66.5 -105t105.5 -83t140 -60q19 -5 47 -11t50 -9q10 -2 25 -3.5t31.5 -3t33 -2.5t30.5 -1l107 -3z" />
    <glyph glyph-name="hahfinal" unicode="&#x62d;" horiz-adv-x="923" arabic-form="final" 
d="M947 0h-233q-20 0 -42 1.5t-42 4.5q-33 6 -61 16.5t-46 24.5h1q-16 13 -28.5 44.5t-20.5 73.5v41q-1 9 -2 19t-2 19l2 15q-53 -16 -87 -34v1q-19 -8 -38.5 -20.5t-40.5 -28.5q-32 -22 -67 -56t-65 -72q-47 -61 -72 -119.5t-25 -109.5q0 -166 126 -267q92 -70 290 -106
l76 -10l74 -4l173 -6h115q-12 -11 -28.5 -19.5t-33.5 -17.5q-7 -3 -16.5 -8t-17.5 -8q-14 -7 -29.5 -13.5t-29.5 -12.5h1q-117 -37 -240 -37q-243 0 -382 97q-66 45 -102 113t-36 153l2 62l1 32v15l4 23q1 9 1.5 19t1.5 19v-1l13 45q16 68 47.5 133.5t75.5 126.5l24 30v-1
l36 35l33 28l88 76q-8 2 -21.5 5t-21.5 5l-54 12l-61 7l-60 3q-78 0 -120 -29l1 1q-4 -1 -9 -6t-11 -13l3 18t3 17q2 8 3 16t3 16q2 5 3.5 11t3.5 11v-1q49 105 128 105q41 0 90.5 -6t109.5 -19q60 -12 118 -18.5t115 -6.5h198q-15 -36 -28.5 -70t-28.5 -70l-35 -2
q-15 0 -26 -4q-7 -2 -14 -3t-14 -3l-30 -4l-23 -5l-20 -5l-27 -8l2 -18v-31l3 -21q2 -10 13 -17h-1l15 -14q19 -10 98 -25l135 -4h162v-140z" />
    <glyph glyph-name="hahinitial" unicode="&#x62d;" horiz-adv-x="1101" arabic-form="initial" 
d="M-40 140h391q14 1 32 1.5t32 1.5q5 0 11.5 1t12.5 3l21 7l81 34l87 36l-65 47l-66 42q-71 40 -122 61t-87 21t-72 -18q-15 -8 -30 -17t-30 -17q0 10 -4 20q5 13 17.5 29.5t30.5 36.5q9 8 19.5 18.5t19.5 18.5q5 4 10.5 8.5t10.5 8.5h-1l15 10q44 28 91 28q77 0 173 -54
l215 -137l111 -55l93 -37q53 -13 132 -13q-16 -38 -31 -72.5t-31 -73.5l-70 17l-86 11l-86 7l-67 3q-36 0 -111 -18l-34 -11l-42 -13l-41 -14l-55 -20l-52 -18l-45 -12q-11 -2 -21.5 -4t-21.5 -4q-9 -1 -20 -1.5t-21 -1.5h-294v140z" />
    <glyph glyph-name="hahmedial" unicode="&#x62d;" horiz-adv-x="1157" arabic-form="medial" 
d="M-30 140h365q43 0 88 12l18 5l16 4q3 2 8 3.5t9 3.5l21 8q7 4 16 9t16 9v-1q20 10 41 22t41 26l95 69l-96 20q-39 8 -83.5 17.5t-84.5 17.5l-44 12l-37 4l-26 -1q-9 0 -16.5 -1.5t-15.5 -3.5q-18 -3 -37 -17q-17 -12 -33.5 -25t-33.5 -25l6 31q1 5 2 8.5t2 8.5l6 13
q32 69 75 112q56 50 120 50q32 0 71 -6t98 -21l308 -84l55 -5l58 -3q26 0 49.5 1t48.5 1q-16 -38 -29.5 -71.5t-29.5 -71.5l-53 2h-31l-34 -2l-29 -1q-6 0 -15 -2.5t-19 -5.5q-31 -3 -59.5 -10.5t-54.5 -21.5q0 -49 40 -82l16 -8h374v-140h-397q-44 0 -68 76l-21 126
l-191 -141q-17 -17 -34 -27q-13 -10 -38 -20q-11 -2 -22 -5.5t-22 -5.5l-48 -3h-361v140z" />
    <glyph glyph-name="khahisolated" unicode="&#x62e;" horiz-adv-x="815" arabic-form="isolated" 
d="M412 906q-18 -32 -33.5 -61.5t-33.5 -61.5q-42 26 -81.5 49t-81.5 48q15 29 30.5 57.5t30.5 57.5zM854 -573q-28 -21 -59 -39v1l-42 -21q-10 -5 -20 -9t-20 -9h1q-17 -7 -46.5 -13.5t-66.5 -14.5q-15 -2 -30.5 -4t-30.5 -4l-67 -3q-246 0 -379 106q-131 104 -131 277
q0 117 31 214q21 78 53 137q16 30 37 60t47 62q4 4 8 9l8 10q5 5 10 10.5t10 10.5q11 11 26 25t27 25l105 85l-32 9l-26 7l-45 9q-62 12 -126 12q-32 0 -64.5 -5t-61.5 -13q-2 0 -7.5 -2.5t-8.5 -4.5q2 15 4.5 26t4.5 25q49 130 145 130q86 0 210 -25q126 -24 251 -24h192
q-17 -38 -31.5 -71.5t-31.5 -70.5q-28 0 -62.5 -5.5t-71.5 -14.5l-50 -10l-46 -12q-92 -29 -173.5 -85t-147.5 -134q-58 -69 -89.5 -131.5t-31.5 -111.5q0 -288 319 -373l86 -20l57 -7l60 -3l103 -3z" />
    <glyph glyph-name="khahfinal" unicode="&#x62e;" horiz-adv-x="933" arabic-form="final" 
d="M466 800q-17 -29 -34 -55t-34 -55q-41 25 -79 48.5t-78 48.5q17 29 34 55.5t34 54.5zM953 0h-278l-11 2q-23 0 -42 3t-35.5 9t-32 16t-31.5 24q-15 16 -29 48q-2 6 -4 13.5t-4 13.5q-2 9 -3.5 21t-1.5 20v53q-1 10 -2 20.5t-2 20.5l2 17q-178 -60 -311 -222
q-104 -131 -104 -239q0 -86 31 -151t97 -116q46 -33 119 -61t173 -45l78 -10l73 -4l86 -3l88 -3h115q-25 -18 -63 -37q-17 -8 -43 -20t-46 -20h1q-19 -7 -49 -14t-66 -15q-15 -2 -31 -3.5t-31 -3.5q-15 -1 -34 -1.5t-34 -1.5q-120 2 -219 26t-168 72q-65 44 -101.5 112.5
t-36.5 152.5l1 61v39l4 29v14l4 20q1 5 2 9.5t2 9.5l11 32q16 68 47.5 133.5t75.5 126.5q6 8 13 16t13 16v-1q9 8 20 18.5t20 18.5l135 116l-56 15q-11 2 -23 5t-23 5q-59 12 -122 12q-41 0 -69 -7.5t-54 -24.5q-3 -3 -8.5 -9t-8.5 -9l7 37q3 26 6 34l7 21v-1
q50 105 128 105q39 0 89 -6t110 -19q121 -24 242 -24h198q-15 -37 -29 -71.5t-29 -70.5q-10 -1 -18.5 -1.5t-18.5 -1.5l-20 -2q-18 0 -30 -5l-63 -11l-40 -13v-17l1 -31q0 -20 5 -32q3 -15 11 -26l19 -18q8 -5 30.5 -9.5t63.5 -12.5l135 -4h162v-140z" />
    <glyph glyph-name="khahinitial" unicode="&#x62e;" horiz-adv-x="1096" arabic-form="initial" 
d="M511 886q-17 -29 -32.5 -55.5t-32.5 -55.5q-42 26 -80.5 49.5t-79.5 48.5q17 29 34 55t34 54zM-45 140h391q14 1 32 1.5t32 1.5q5 0 11.5 1t12.5 3l21 7l81 34l87 36l-65 47l-66 42q-71 40 -122 61t-87 21t-72 -18q-15 -8 -30 -17t-30 -17q0 10 -4 20q5 13 17.5 29.5
t30.5 36.5q9 8 19.5 18.5t19.5 18.5q5 4 10.5 8.5t10.5 8.5h-1l15 10q44 28 91 28q77 0 173 -54l215 -137l111 -55l93 -37q53 -13 132 -13q-16 -38 -31 -72.5t-31 -73.5l-70 17l-86 11l-86 7l-67 3q-36 0 -111 -18l-34 -11l-42 -13l-41 -14l-55 -20l-52 -18l-45 -12
q-11 -2 -21.5 -4t-21.5 -4q-9 -1 -20 -1.5t-21 -1.5h-294v140z" />
    <glyph glyph-name="khahmedial" unicode="&#x62e;" horiz-adv-x="1141" arabic-form="medial" 
d="M562 886q-17 -29 -33 -55.5t-34 -55.5q-41 26 -79.5 49t-79.5 48q18 29 34 55t34 55zM-15 140h365q43 0 88 12l18 5l16 4q3 2 8 3.5t9 3.5l21 8q7 4 16 9t16 9v-1q20 10 41 22t41 26l95 69l-96 20q-39 8 -83.5 17.5t-84.5 17.5l-44 12l-37 4l-26 -1q-9 0 -16.5 -1.5
t-15.5 -3.5q-18 -3 -37 -17q-17 -12 -33.5 -25t-33.5 -25l6 31q1 5 2 8.5t2 8.5l6 13q32 69 75 112q56 50 120 50q32 0 71 -6t98 -21l308 -84l55 -5l58 -3q26 0 49.5 1t48.5 1q-16 -38 -29.5 -71.5t-29.5 -71.5l-53 2h-31l-34 -2l-29 -1q-6 0 -15 -2.5t-19 -5.5
q-31 -3 -59.5 -10.5t-54.5 -21.5q0 -49 40 -82l16 -8h374v-140h-397q-44 0 -68 76l-21 126l-191 -141q-17 -17 -34 -27q-13 -10 -38 -20q-11 -2 -22 -5.5t-22 -5.5l-48 -3h-361v140z" />
    <glyph glyph-name="dalisolated" unicode="&#x62f;" horiz-adv-x="721" arabic-form="isolated" 
d="M650 159q-7 -37 -14 -76t-15 -76q-8 -5 -43.5 -12.5t-92.5 -18.5l-40 -5l-75 -9l-62 -2l-46 -3h-59q-5 0 -14.5 0.5t-14.5 0.5l-34 3q-49 0 -70 6q11 38 21 75.5t21 76.5l71 -8l87 -4q74 0 200 12l25 1h20q3 1 6.5 2t7.5 2l53 8l4 34l-1 26q0 14 -7 29v-1l-10 32
q-5 8 -8.5 16.5t-8.5 16.5l-14 25l-22 33q-8 14 -18 27.5t-21 24.5l-29 31q-5 5 -10 9.5t-10 9.5q-8 10 -23 21t-35 26l1 39q0 3 0.5 7.5t0.5 7.5l6 29l10 50l10 50q35 -24 72.5 -63.5t72.5 -88.5q40 -62 68.5 -136t39.5 -143l2 -33v-36z" />
    <glyph glyph-name="dalfinal" unicode="&#x62f;" horiz-adv-x="843" arabic-form="final" 
d="M874 0h-40q-11 3 -23.5 6t-23.5 6h1q-5 2 -10 4.5t-10 4.5v-1l-27 20q-2 2 -4.5 3.5t-4.5 3.5l-9 14q-3 5 -6 9.5t-6 9.5l1 -1l-23 69q-18 0 -57 -77q-36 -71 -71 -71q-22 -3 -44 -7t-44 -7q-23 -3 -49 -6t-50 -6q-16 -1 -32.5 -2.5t-32.5 -2.5h-65l-16 1l-19 4
q-39 0 -63 6q-8 0 -17 4.5t-17 11.5l-5 21q-1 5 -1.5 11.5t-1.5 11.5q0 2 0.5 6t0.5 6l3 22q2 9 3.5 19.5t3.5 19.5q2 12 5.5 24t5.5 24q11 44 19.5 70.5t15.5 32.5q6 -2 6 -23v-16l-2 -24v-19l2 -21q2 -10 9 -19h-1q11 -23 50 -23l51 -8h20q10 0 16 -2q18 1 40.5 1.5
t40.5 1.5l29 1q8 0 24 2.5t40 7.5l19 1l93 19q4 2 8.5 6t8.5 9l10 14l14 25l5 11q1 5 2.5 10.5t2.5 10.5l3 20l-1 16q-20 76 -40 150.5t-40 149.5q20 36 39.5 73.5t38.5 73.5q6 -17 15.5 -52.5t23.5 -90.5l72 -337l11 -33q4 -7 8.5 -15.5t8.5 -15.5l-1 1q3 -10 41 -25l15 -4
h31v-140z" />
    <glyph glyph-name="thalisolated" unicode="&#x630;" horiz-adv-x="721" arabic-form="isolated" 
d="M340 921q-18 -29 -34 -56t-34 -56q-41 25 -79.5 48t-78.5 48q18 29 34 56.5t34 56.5zM650 159q-7 -37 -14 -76t-15 -76q-8 -5 -43.5 -12.5t-92.5 -18.5l-40 -5l-75 -9l-62 -2l-46 -3h-59q-5 0 -14.5 0.5t-14.5 0.5l-34 3q-49 0 -70 6q11 38 21 75.5t21 76.5l71 -8l87 -4
q74 0 200 12l25 1h20q4 1 7.5 2t7.5 2h-1l53 8l4 34l-1 26q0 14 -7 29v-1l-10 32q-5 8 -8.5 16.5t-8.5 16.5l-14 25l-22 33q-8 14 -18 27.5t-21 24.5l-29 31q-5 5 -10 9.5t-10 9.5q-8 10 -23 21t-35 26l1 39q0 3 0.5 7.5t0.5 7.5l6 29l10 50l10 50q35 -24 72.5 -63.5
t72.5 -88.5q40 -62 68.5 -136t39.5 -143l2 -33v-36z" />
    <glyph glyph-name="thalfinal" unicode="&#x630;" horiz-adv-x="843" arabic-form="final" 
d="M476 941q-17 -29 -33.5 -56.5t-33.5 -55.5q-41 25 -80 48t-79 48q18 29 34 56.5t34 56.5zM874 0h-40q-11 3 -23.5 6t-23.5 6h1q-5 2 -10 4.5t-10 4.5v-1l-27 20q-2 2 -4.5 3.5t-4.5 3.5l-9 14q-3 5 -6 9.5t-6 9.5l1 -1l-23 69q-18 0 -57 -77q-36 -71 -71 -71
q-22 -3 -44 -7t-44 -7q-23 -3 -49 -6t-50 -6q-16 -1 -32.5 -2.5t-32.5 -2.5h-65l-16 1l-19 4q-39 0 -63 6q-8 0 -17 4.5t-17 11.5l-5 21q-1 5 -1.5 11.5t-1.5 11.5q0 2 0.5 6t0.5 6l3 22q2 9 3.5 19.5t3.5 19.5q2 12 5.5 24t5.5 24q11 44 19.5 70.5t15.5 32.5q6 -2 6 -23
v-16l-2 -24v-19l2 -21q2 -10 9 -19h-1q11 -23 50 -23l51 -8h20q10 0 16 -2q18 1 40.5 1.5t40.5 1.5l29 1q8 0 24 2.5t40 7.5l19 1l93 19q4 2 8.5 6t8.5 9l10 14l14 25l5 11q1 5 2.5 10.5t2.5 10.5l3 20l-1 16q-20 76 -40 150.5t-40 149.5q20 36 39.5 73.5t38.5 73.5
q6 -17 15.5 -52.5t23.5 -90.5l72 -337l11 -33q4 -7 8.5 -15.5t8.5 -15.5l-1 1q3 -10 41 -25l15 -4h31v-140z" />
    <glyph glyph-name="rehisolated" unicode="&#x631;" horiz-adv-x="791" arabic-form="isolated" 
d="M706 69q0 -80 -32.5 -161t-95.5 -174q-5 -6 -10 -14t-9 -13v1l-22 -26q-4 -5 -16.5 -16.5t-32.5 -29.5h1q-82 -64 -148 -64q-63 0 -216 57q-150 55 -150 92q0 3 8 11l128 -50l54 -16q27 -6 47 -6q58 0 128.5 40.5t151.5 118.5q38 37 69.5 76t52.5 72q21 36 31 65.5
t10 58.5q0 67 -105 162q-20 16 -44.5 33.5t-44.5 32.5q9 42 18.5 84t18.5 85q62 -48 103.5 -95t61.5 -97v1q4 -12 8.5 -24.5t8.5 -24.5q2 -5 3.5 -11.5t3.5 -11.5l7 -35q3 -12 5 -27t4 -29z" />
    <glyph glyph-name="rehfinal" unicode="&#x631;" horiz-adv-x="837" arabic-form="final" 
d="M861 -3h-44q-8 1 -17.5 1.5t-17.5 1.5q-14 3 -36 13q-41 20 -71 60q0 -136 -133 -323q-132 -187 -238 -187q-44 0 -213 66q-161 64 -165 80q5 14 17 15q14 -5 28 -10.5t28 -10.5h-1q14 -5 28.5 -12t28.5 -12q26 -11 53.5 -17.5t49.5 -6.5l25 1q13 0 26 8l-1 -1
q58 19 123 69q19 14 36.5 28t32.5 28q14 13 31 31t39 41q75 81 110.5 138.5t35.5 99.5l-16 30l-25 40l-21 32q-5 7 -12 16t-12 16q-15 20 -31.5 40.5t-32.5 40.5l76 136l118 -181q24 -32 43 -54t33 -35l22 -16l31 -18q22 -8 48 -8h24v-140z" />
    <glyph glyph-name="zainisolated" unicode="&#x632;" horiz-adv-x="791" arabic-form="isolated" 
d="M517 809q-17 -30 -33.5 -57t-33.5 -56q-42 25 -80 48t-79 48q18 29 34 55.5t34 55.5zM706 69q-2 -79 -33.5 -160.5t-94.5 -174.5q-5 -6 -10 -14t-9 -13v1l-22 -26q-4 -5 -16.5 -16.5t-32.5 -29.5h1q-82 -64 -148 -64q-63 0 -216 57q-150 55 -150 92q0 3 8 11l128 -50
l54 -16q27 -6 47 -6q58 0 128.5 40.5t151.5 118.5q38 37 69.5 76t52.5 72q21 36 31 65.5t10 58.5q0 67 -105 162q-20 16 -44.5 33.5t-44.5 32.5q9 42 18.5 84t18.5 85q62 -48 103.5 -95t61.5 -97v1q4 -12 8.5 -24.5t8.5 -24.5q2 -5 3.5 -11.5t3.5 -11.5l7 -35q3 -12 5 -27
t4 -29z" />
    <glyph glyph-name="zainfinal" unicode="&#x632;" horiz-adv-x="821" arabic-form="final" 
d="M562 807q-17 -30 -32.5 -57t-32.5 -56q-42 25 -80.5 48.5t-79.5 48.5q17 29 34 55.5t34 54.5zM846 -2h-29q-8 1 -17.5 1.5t-17.5 1.5q-14 3 -36 13q-41 20 -71 60q0 -136 -133 -323q-132 -187 -238 -187q-44 0 -213 66q-161 64 -165 80q5 14 17 15q14 -5 28 -10.5
t28 -10.5h-1q14 -5 28.5 -12t28.5 -12q26 -11 53.5 -17.5t49.5 -6.5l25 1q13 0 26 8l-1 -1q58 19 123 69q19 14 36.5 28t32.5 28q14 13 31 31t39 41q75 81 110.5 138.5t35.5 99.5l-16 30l-25 40l-21 32q-5 7 -12 16t-12 16q-15 20 -31.5 40.5t-32.5 40.5l76 136l118 -181
q24 -32 43 -54t33 -35l22 -16l31 -18q22 -8 33 -8h24v-140z" />
    <glyph glyph-name="seenisolated" unicode="&#x633;" horiz-adv-x="1536" arabic-form="isolated" 
d="M1499 233q0 -9 -1.5 -20.5t-3.5 -25.5q-5 -28 -6 -32q0 -1 -0.5 -2t-0.5 -2q-2 -8 -4 -17t-9 -37.5t-16 -47.5q-4 -9 -7.5 -18t-7.5 -19q-5 -1 -9 -2t-9 -2q-13 -2 -26.5 -3.5t-26.5 -3.5q-13 -1 -27.5 -1.5t-28.5 -1.5h-48q-3 0 -7.5 1t-8.5 1l-45 12q-5 2 -11.5 4
t-11.5 4l-30 15q-3 1 -10 5t-17 10q-53 -64 -181 -56q-16 0 -34 7q0 -14 -7 -40t-20 -63q-2 -5 -4.5 -12.5l-4.5 -13.5l-13 -32q-4 -12 -8 -20t-8 -13q-26 -42 -70 -80t-101 -69q-71 -36 -156.5 -55t-183.5 -19q-71 0 -131 21h1l-27 11q-18 7 -24 11q-10 7 -23 17.5
t-29 24.5q-74 79 -74 189q0 107 61 262q28 69 51 107t40 45q-3 -16 -5.5 -30.5t-5.5 -29.5l-57 -146q-21 -60 -21 -84q0 -140 98 -208q81 -55 210 -55q40 0 98 12.5t140 39.5q198 69 198 162q0 45 -12.5 96t-41.5 104q-16 28 -32.5 55t-32.5 55q18 38 36 77t35 77l47 -83h-1
l33 -79q4 -10 9 -21t9 -21q11 -26 42 -55l55 -6h21q13 0 92 10q25 3 29 37v73q2 24 33 58.5t98 90.5l-57 -228q0 -11 28 -23l21 -4l39 -5l46 -3h91l-15 104q-7 24 -14 47l71 90q8 11 17 23t17 23v-192z" />
    <glyph glyph-name="seenfinal" unicode="&#x633;" horiz-adv-x="1550" arabic-form="final" 
d="M1586 0h-146l-16 12q-5 -1 -10.5 -2t-10.5 -2q-14 -2 -27 -3.5t-27 -3.5l-55 -3h-49q-3 0 -7.5 1t-8.5 1q-10 2 -20.5 5.5t-20.5 5.5l-28 10q-7 2 -13.5 5.5t-14.5 8.5l-6 2l-6 2l1 -1l-16 11q-6 -2 -8.5 -3t-4.5 -3h1q-5 -3 -11 -6.5t-11 -6.5q-7 -4 -13.5 -8.5
t-13.5 -8.5l1 1q-95 -24 -28 -24h-39l-19 4h-16q-17 0 -34 7q0 -14 -7 -40t-20 -63q-2 -5 -4.5 -12.5l-4.5 -13.5l-13 -32q-4 -12 -8 -20t-8 -13q-26 -42 -70 -80t-101 -69q-72 -36 -157 -55t-183 -19q-71 0 -132 21h1l-26 11q-18 7 -24 11q-10 7 -23 17.5t-29 24.5
q-75 78 -75 189q0 108 62 262q28 69 51 107t40 45q-3 -16 -5.5 -30.5t-5.5 -29.5l-57 -146q-21 -60 -21 -84q0 -140 98 -208q81 -55 209 -55q41 0 99 12.5t140 39.5q198 70 198 162q0 45 -12.5 96t-41.5 104q-17 28 -33 55t-32 55q17 38 35 77t36 77l47 -83h-1l33 -79
q4 -10 9 -21t9 -21q11 -25 41 -55l56 -6h-15q7 1 14.5 2t14.5 2l80 6q18 3 28 37v73q2 23 34 61q14 17 39.5 40.5t58.5 49.5l-57 -230q0 -10 27 -23l60 -10l45 -2l47 -2l47 -2l-19 108q-2 11 -5.5 23.5t-7.5 24.5q-2 7 13.5 28.5t46.5 55.5l24 25q5 6 11 13t11 14v-193
q0 -5 -0.5 -9.5t-0.5 -9.5l-7 -74h118v-140z" />
    <glyph glyph-name="seeninitial" unicode="&#x633;" horiz-adv-x="1236" arabic-form="initial" 
d="M-32 140h454q33 0 52 52l4 54v39q30 33 61 66t61 66q-2 -33 -9.5 -78.5t-20.5 -97.5q-3 -10 -7 -22t-7 -22l-21 -57h241q5 12 7 39.5t2 72.5q0 23 33 61q12 14 37 37t59 52l-58 -233l6 -6q2 -2 6 -4.5t10 -6.5l33 -8h26l28 -4h117l-8 57l-9 45q-2 13 -5.5 25t-7.5 23
q-2 7 13.5 28.5t46.5 55.5q9 9 22 24t24 29v-202q0 -79 -25 -157q-14 -47 -29 -68h-251l2 -1q-9 4 -30 30l-4 9l-10 20q-2 -2 -6 -5t-6 -5l-21 -18l-16 -16q-3 -3 -7.5 -7t-8.5 -7h-252l-35 57l-32 -29q-31 -28 -62 -28h-397v140z" />
    <glyph glyph-name="seenmedial" unicode="&#x633;" horiz-adv-x="1163" arabic-form="medial" 
d="M-95 140h407l44 3q9 1 16.5 4t14.5 8q30 13 30 62q-1 28 -5 38q-1 6 -2 12.5t-2 13.5q32 35 62 68t61 68v-45q0 -2 -0.5 -3.5t-0.5 -3.5q-1 -4 -1 -9v-6q0 -8 -0.5 -17t-1.5 -15q-1 -5 -2 -9t-2 -9q1 4 -0.5 -5.5t-2.5 -13.5q-10 -66 -53 -112q10 -16 68 -31q55 -6 47 -6
h46l114 12l4 23l2 35l-2 50q0 11 8.5 27t23.5 34q13 14 37 37t59 52l-56 -229q0 -17 68 -29l82 -6h76q-2 6 -3.5 18t-3.5 20l-8 38q-6 35 -18 76q3 21 48 72q8 9 15.5 18t15.5 18q7 7 14.5 15t14.5 15v-199q-1 -14 -1 -17l-9 -72h60v-140h-86l-16 12q-15 -2 -31 -5.5
t-31 -5.5l-64 -3q-95 0 -193 52l-60 -36q-20 -3 -41.5 -6.5t-42.5 -6.5h1q-15 -1 -91 -1q-59 6 -71 15l-54 52l-23 -23q-17 -17 -44 -34q-27 -10 -47 -10h-370v140z" />
    <glyph glyph-name="sheenisolated" unicode="&#x634;" horiz-adv-x="1562" arabic-form="isolated" 
d="M1158 971l-32 -58l-32 -58q-41 24 -80 45.5t-81 45.5q16 28 32 55t31 55zM1329 714q-15 -29 -31.5 -56t-31.5 -56l-164 96q-12 -21 -24.5 -44t-24.5 -45q-42 25 -83.5 48.5t-83.5 47.5q17 29 34 58.5t34 59.5l175 -110q11 21 24.5 45.5t24.5 46.5zM1499 233
q0 -9 -1.5 -20.5t-3.5 -25.5q-5 -28 -6 -32q0 -1 -0.5 -2t-0.5 -2q-2 -8 -4 -17t-9 -37.5t-16 -47.5q-4 -9 -7.5 -18t-7.5 -19q-5 -1 -9 -2t-9 -2q-13 -2 -26.5 -3.5t-26.5 -3.5q-13 -1 -27.5 -1.5t-28.5 -1.5h-48q-3 0 -7.5 1t-8.5 1l-45 12q-5 2 -11.5 4t-11.5 4l-30 15
q-3 1 -10 5t-17 10q-53 -64 -181 -56q-16 0 -34 7q0 -14 -7 -40t-20 -63q-2 -5 -4.5 -12.5l-4.5 -13.5l-13 -32q-4 -12 -8 -20t-8 -13q-26 -42 -70 -80t-101 -69q-71 -36 -156.5 -55t-183.5 -19q-71 0 -131 21h1l-27 11q-18 7 -24 11q-10 7 -23 17.5t-29 24.5
q-74 79 -74 189q0 107 61 262q28 69 51 107t40 45q-3 -16 -5.5 -30.5t-5.5 -29.5l-57 -146q-21 -60 -21 -84q0 -140 98 -208q81 -55 210 -55q40 0 98 12.5t140 39.5q198 69 198 162q0 45 -12.5 96t-41.5 104q-16 28 -32.5 55t-32.5 55q18 38 36 77t35 77l47 -83h-1l33 -79
q4 -10 9 -21t9 -21q11 -26 42 -55l55 -6h21q13 0 92 10q25 3 29 37v73q2 24 33 58.5t98 90.5l-57 -228q0 -11 28 -23l21 -4l39 -5l46 -3h91l-15 104q-7 24 -14 47l71 90q8 11 17 23t17 23v-192z" />
    <glyph glyph-name="sheenfinal" unicode="&#x634;" horiz-adv-x="1562" arabic-form="final" 
d="M1264 971q-16 -29 -31.5 -58t-31.5 -58q-41 24 -80 45.5t-81 45.5q15 28 31 55t32 55zM1435 714q-15 -29 -31 -56t-31 -56l-164 96q-12 -21 -24.5 -44t-24.5 -45q-42 25 -83.5 48.5t-83.5 47.5q17 29 33.5 58.5t33.5 59.5l175 -110q11 21 25 45.5t25 46.5zM1586 0h-146
l-16 12q-5 -1 -10.5 -2t-10.5 -2q-14 -2 -27 -3.5t-27 -3.5l-55 -3h-49q-3 0 -7.5 1t-8.5 1q-10 2 -20.5 5.5t-20.5 5.5l-28 10q-7 2 -13.5 5.5t-14.5 8.5l-6 2l-6 2l1 -1l-16 11q-6 -2 -8.5 -3t-4.5 -3h1q-5 -3 -11 -6.5t-11 -6.5q-7 -4 -13.5 -8.5t-13.5 -8.5l1 1
q-95 -24 -28 -24h-39l-19 4h-16q-17 0 -34 7q0 -14 -7 -40t-20 -63q-2 -5 -4.5 -12.5l-4.5 -13.5l-13 -32q-4 -12 -8 -20t-8 -13q-26 -42 -70 -80t-101 -69q-72 -36 -157 -55t-183 -19q-71 0 -132 21h1l-26 11q-18 7 -24 11q-10 7 -23 17.5t-29 24.5q-75 78 -75 189
q0 108 62 262q28 69 51 107t40 45q-3 -16 -5.5 -30.5t-5.5 -29.5l-57 -146q-21 -60 -21 -84q0 -140 98 -208q81 -55 209 -55q41 0 99 12.5t140 39.5q198 70 198 162q0 45 -12.5 96t-41.5 104q-17 28 -33 55t-32 55q17 38 35 77t36 77l47 -83h-1l33 -79q4 -10 9 -21t9 -21
q11 -25 41 -55l56 -6h-15q7 1 14.5 2t14.5 2l80 6q18 3 28 37v73q2 23 34 61q14 17 39.5 40.5t58.5 49.5l-57 -230q0 -10 27 -23l60 -10l139 -6l-19 108q-2 11 -5.5 23.5t-7.5 24.5q-2 7 13.5 28.5t46.5 55.5l24 25q5 6 11 13t11 14v-193q0 -5 -0.5 -9.5t-0.5 -9.5l-7 -74
h118v-140z" />
    <glyph glyph-name="sheeninitial" unicode="&#x634;" horiz-adv-x="1228" arabic-form="initial" 
d="M791 971q-16 -29 -31.5 -58t-31.5 -58q-41 24 -80.5 45.5t-80.5 45.5q15 28 31 55t31 55zM962 714q-15 -29 -31 -56t-31 -56l-164 96q-12 -21 -24.5 -44t-24.5 -45q-43 25 -84 48.5t-83 47.5q17 29 33.5 58.5t33.5 59.5l175 -110q11 21 24.5 45.5t24.5 46.5zM-35 140h457
q33 0 52 52l4 54v39q30 33 61 66t61 66q-2 -33 -9.5 -78.5t-20.5 -97.5q-3 -10 -7 -22t-7 -22l-21 -57h241q5 12 7 39.5t2 72.5q0 23 33 61q12 14 37 37t59 52l-58 -233l6 -6q2 -2 6 -4.5t10 -6.5l33 -8h26l28 -4h117l-8 57l-9 45q-2 13 -5.5 25t-7.5 23q-2 7 13.5 28.5
t46.5 55.5q9 9 22 24t24 29v-202q0 -79 -25 -157q-14 -47 -29 -68h-251l2 -1q-9 4 -30 30l-14 29q-2 -2 -6 -5t-6 -5l-21 -18l-16 -16q-3 -3 -7.5 -7t-8.5 -7h-252l-35 57l-32 -29q-31 -28 -62 -28h-400v140z" />
    <glyph glyph-name="sheenmedial" unicode="&#x634;" horiz-adv-x="1155" arabic-form="medial" 
d="M774 971q-16 -29 -31.5 -58t-31.5 -58q-41 24 -80.5 45.5t-80.5 45.5q15 28 31 55t31 55zM945 714q-15 -29 -31 -56t-31 -56l-164 96q-12 -21 -24.5 -44t-24.5 -45q-43 25 -84 48.5t-83 47.5q17 29 33.5 58.5t33.5 59.5l175 -110q11 21 24.5 45.5t24.5 46.5zM-95 140h407
l44 3q9 1 16.5 4t14.5 8q30 13 30 62q-1 28 -5 38q-1 6 -2 12.5t-2 13.5q32 35 62 68t61 68v-45q0 -2 -0.5 -3.5t-0.5 -3.5q-1 -4 -1 -9v-6q0 -8 -0.5 -17t-1.5 -15q-1 -5 -2 -9t-2 -9q1 4 -0.5 -5.5t-2.5 -13.5q-10 -66 -53 -112q10 -16 68 -31q55 -6 47 -6h46l114 12l4 23
l2 35l-2 50q0 11 8.5 27t23.5 34q13 14 37 37t59 52l-56 -229q0 -17 68 -29l82 -6h76q-2 6 -3.5 18t-3.5 20l-8 38q-6 35 -18 76q3 21 48 72q8 9 15.5 18t15.5 18q7 7 14.5 15t14.5 15v-199q-1 -14 -1 -17l-9 -72h60v-140h-86l-16 12q-15 -2 -31 -5.5t-31 -5.5l-64 -3
q-95 0 -193 52l-60 -36q-20 -3 -41.5 -6.5t-42.5 -6.5h1q-15 -1 -91 -1q-59 6 -71 15l-54 52l-23 -23q-17 -17 -44 -34q-27 -10 -47 -10h-370v140z" />
    <glyph glyph-name="sadisolated" unicode="&#x635;" horiz-adv-x="1946" arabic-form="isolated" 
d="M1720 301q-17 12 -38 21.5t-47 17.5q-50 15 -79 15h-25l-8 -2q-46 0 -158 -75q-32 -23 -66 -45.5t-66 -45.5l-92 -57l61 -2l39 -1h153q35 1 75 1.5t74 1.5l49 1l81 9l81 8q58 9 58 43q0 21 -21 45v-1q-5 7 -11.5 14.5t-13.5 13.5zM1912 246q0 -19 -46 -104l-21 -42
q-5 -10 -7.5 -15.5t-5.5 -8.5q-16 -23 -28 -34q-14 -8 -60.5 -16t-115.5 -16l-73 -3l-87 -2q-50 -1 -99.5 -2.5t-98.5 -2.5h-382q-2 -8 -3.5 -18.5t-3.5 -18.5l-9 -29q-2 -11 -5.5 -19.5t-7.5 -16.5q-23 -71 -36 -87q-27 -44 -71.5 -83t-101.5 -70q-71 -36 -156.5 -55
t-183.5 -19q-71 0 -131 21h1l-26 11q-19 6 -25 11q-10 7 -23 17.5t-29 24.5q-74 79 -74 189q0 107 61 262q55 138 92 152q-3 -16 -6 -30.5t-6 -29.5l-57 -146q-21 -60 -21 -84q0 -141 99 -208q79 -55 209 -55q40 0 98 12.5t140 39.5q198 69 198 162q0 45 -12.5 96t-41.5 104
q-16 28 -32 55t-32 55l12 34l12 34v-1q7 14 13.5 29t13.5 29h-1q5 8 9 16t9 16q6 -11 11.5 -19.5t11.5 -19.5t12.5 -23.5t12.5 -23.5v1l17 -39l15 -40l12 -33l9 -16q31 -47 66 -47l21 -2q19 0 25 -2h12q18 0 26 5l-1 -1q22 7 46 17t50 25v-1q11 5 26 14.5t32 20.5l71 47
l110 77q26 19 55.5 39.5t55.5 39.5q116 75 193 75q67 0 167 -85q96 -81 96 -163z" />
    <glyph glyph-name="sadfinal" unicode="&#x635;" horiz-adv-x="1926" arabic-form="final" 
d="M1666 321q-10 6 -20.5 12t-19.5 10q-25 8 -45 11t-35 3l-29 -2l-12 -2q-25 0 -76.5 -26.5t-125.5 -77.5q-23 -14 -46 -29.5t-46 -29.5l-89 -54q131 1 266.5 2t266.5 2h26q20 0 26 -2q24 0 54 6q15 8 25 28q0 20 -19 48h1q-5 8 -21 26.5t-44 47.5zM1941 0h-1072
q-2 -8 -3.5 -18.5t-3.5 -18.5l-9 -29q-2 -11 -5 -19.5t-7 -16.5q-23 -71 -36 -87q-27 -44 -71.5 -83t-101.5 -70q-71 -36 -156.5 -55t-183.5 -19q-71 0 -131 21h1l-27 11q-18 7 -24 11q-10 7 -23 17.5t-29 24.5q-74 79 -74 189q0 107 61 262q28 69 51 107t40 45
q-3 -16 -5.5 -30.5t-5.5 -29.5l-57 -146q-21 -60 -21 -84q0 -140 98 -208q81 -55 210 -55q40 0 98 12.5t140 39.5q198 69 198 162q0 45 -12.5 96t-41.5 104q-16 28 -32 55t-33 55q18 38 36 77t35 77l20 -35l27 -48h-1l33 -79v1q8 -21 13 -34.5t10 -19.5q14 -20 30 -31
t33 -11l33 -2q22 0 46 6q38 11 94.5 41t131.5 80l224 154q121 75 193 75q67 0 167 -85q93 -79 96 -162q-3 -9 -6 -18.5t-6 -18.5q-3 -7 -7 -15t-6 -15l1 1l-25 -41h96v-140z" />
    <glyph glyph-name="sadinitial" unicode="&#x635;" horiz-adv-x="1508" arabic-form="initial" 
d="M1289 301q-17 12 -38 21.5t-47 17.5q-50 15 -79 15h-25l-8 -2q-46 0 -158 -75q-32 -23 -66 -45.5t-67 -45.5l-91 -57l61 -2l39 -1h153q35 1 75 1.5t74 1.5l48 1l82 9l81 8q58 9 58 43q0 21 -21 45v-1q-5 7 -12 14.5t-14 13.5zM382 43v-1l-44 26q-8 -5 -18.5 -12
t-18.5 -12v1q-11 -6 -24 -12t-24 -12h1q-11 -5 -25 -8.5t-28 -6.5q-8 -2 -17 -3t-17 -3h-208q0 36 -1 70.5t-1 69.5h245q87 0 112 43q12 21 12 58v17l-1 13l-1 17v11q0 20 -4 33q1 4 18 24.5t48 55.5l27 30q10 11 17.5 19t17.5 18l-1 -43l-1 -45q0 -16 -0.5 -28t-1.5 -19
q-1 -6 -2.5 -13t-3.5 -18q-9 -78 -31 -103l-8 -21q0 -22 33 -38q31 -12 64 -12l21 -1q19 0 25 -2h12q18 0 26 5l-1 -1q22 7 46 17t50 25v-1q11 5 26 14.5t32 20.5l70 47l111 77q26 19 55.5 39.5t55.5 39.5q116 75 193 75q67 0 167 -85q96 -81 96 -163q0 -19 -46 -104
l-21 -42q-5 -10 -7.5 -15.5t-5.5 -8.5q-16 -23 -28 -34q-14 -8 -60.5 -16t-115.5 -16l-73 -3l-87 -2q-50 -1 -99.5 -2.5t-98.5 -2.5h-377z" />
    <glyph glyph-name="sadmedial" unicode="&#x635;" horiz-adv-x="1522" arabic-form="medial" 
d="M1299 305q-29 29 -69 46.5t-81 17.5q-46 0 -104 -23t-121 -64l-210 -142l68 -2h389l81 2h21l23 -2q33 0 60 6q31 7 31 36q0 19 -21 51q-11 16 -27.5 35t-39.5 39zM-83 140h246q85 0 111 42q13 23 13 58v17l-2 13l-1 17v11q0 20 -4 33q1 4 18.5 24.5t48.5 55.5l27 30
q10 11 17.5 19t17.5 18l-1 -43l-1 -45q0 -16 -0.5 -28t-1.5 -19q-1 -6 -2.5 -13t-3.5 -18q-9 -78 -31 -103l-8 -21q0 -22 33 -38q30 -12 63 -12h54l34 3l16 4l21 7l49 20q10 5 26 12.5t25 12.5l30 16q8 5 15 10t15 10q18 11 35 22t31 23h-1q57 38 113 77.5t113 77.5
q123 78 195 78q66 0 167 -88q101 -89 101 -169q0 -9 -14 -39h1l-22 -38l-19 -37h110v-140h-976q-131 0 -194 20h1q-10 5 -19.5 11t-19.5 11v-1l-44 26q-8 -5 -19 -12t-19 -12v1q-11 -6 -23.5 -12t-23.5 -12h1q-11 -5 -25 -8.5t-28 -6.5q-27 -3 -37 -5h-208v140z" />
    <glyph glyph-name="dadisolated" unicode="&#x636;" horiz-adv-x="1962" arabic-form="isolated" 
d="M1252 792q-17 -29 -33 -56t-33 -56q-41 25 -79.5 47.5t-80.5 47.5q18 30 35 56.5t34 55.5zM1720 301q-17 12 -38 21.5t-47 17.5q-50 15 -79 15h-25l-8 -2q-46 0 -158 -75q-32 -23 -66 -45.5t-66 -45.5l-92 -57h253q35 -2 75 -1.5t74 1.5h49l162 20q58 7 58 41
q0 21 -21 45v-1q-5 7 -11.5 14.5t-13.5 13.5zM1912 246q0 -19 -46 -104l-21 -42q-5 -10 -7.5 -15.5t-5.5 -8.5q-16 -23 -28 -34q-14 -8 -60.5 -16t-115.5 -16l-160 -7q-50 1 -99.5 -0.5t-98.5 -2.5l-382 -8q-2 0 -3.5 -10.5t-3.5 -18.5l-9 -29q-2 -11 -5.5 -19.5t-7.5 -16.5
q-23 -71 -36 -87q-27 -44 -71.5 -83t-101.5 -70q-71 -36 -156.5 -55t-183.5 -19q-71 0 -131 21h1l-26 11q-19 6 -25 11q-10 7 -23 17.5t-29 24.5q-74 79 -74 189q0 107 61 262q55 138 92 152q-3 -16 -6 -30.5t-6 -29.5l-57 -146q-21 -60 -21 -84q0 -141 99 -208
q79 -55 209 -55q40 0 98 12.5t140 39.5q198 69 198 162q0 45 -12.5 96t-41.5 104q-16 28 -32 55t-32 55l12 34l12 34v-1q7 14 13.5 29t13.5 29h-1q5 8 9 16t9 16q6 -11 11.5 -19.5t11.5 -19.5t12.5 -23.5t12.5 -23.5v1l34 -78l10 -34l9 -16q31 -47 66 -47l21 -2q19 0 25 -2
h12q18 0 26 5l-1 -1q22 7 46 17t50 25v-1q11 5 26 14.5t32 20.5l183 121q24 22 53.5 42.5t55.5 39.5q116 75 193 75q67 0 167 -85q96 -81 96 -163z" />
    <glyph glyph-name="dadfinal" unicode="&#x636;" horiz-adv-x="1926" arabic-form="final" 
d="M1439 792q-17 -29 -33 -56t-33 -56q-41 25 -79.5 47.5t-80.5 47.5q18 30 35 56.5t34 55.5zM1666 321q-10 6 -20.5 12t-19.5 10q-25 8 -45 11t-35 3l-29 -2l-12 -2q-25 0 -76.5 -26.5t-125.5 -77.5q-23 -14 -46 -29.5t-46 -29.5l-89 -54q131 1 266.5 2t266.5 2h26
q20 0 26 -2q24 0 54 6q15 8 25 28q0 20 -19 48h1q-5 8 -21 26.5t-44 47.5zM1941 0h-1072q-2 -8 -3.5 -18.5t-3.5 -18.5l-9 -29q-2 -11 -5 -19.5t-7 -16.5q-23 -71 -36 -87q-27 -44 -71.5 -83t-101.5 -70q-71 -36 -156.5 -55t-183.5 -19q-71 0 -131 21h1l-27 11q-18 7 -24 11
q-10 7 -23 17.5t-29 24.5q-74 79 -74 189q0 107 61 262q28 69 51 107t40 45q-3 -16 -5.5 -30.5t-5.5 -29.5l-57 -146q-21 -60 -21 -84q0 -140 98 -208q81 -55 210 -55q40 0 98 12.5t140 39.5q198 69 198 162q0 45 -12.5 96t-41.5 104q-16 28 -32 55t-33 55q18 38 36 77
t35 77l20 -35l27 -48h-1l33 -79v1q8 -21 13 -34.5t10 -19.5q14 -20 30 -31t33 -11l33 -2q22 0 46 6q38 11 94.5 41t131.5 80l224 154q121 75 193 75q67 0 167 -85q93 -79 96 -162q-3 -9 -6 -18.5t-6 -18.5q-3 -7 -7 -15t-6 -15l1 1l-25 -41h96v-140z" />
    <glyph glyph-name="dadinitial" unicode="&#x636;" horiz-adv-x="1483" arabic-form="initial" 
d="M1007 795q-17 -29 -34.5 -55t-34.5 -54q-40 24 -78 47t-79 47q18 30 35 57t34 56zM1264 301q-17 12 -38 21.5t-47 17.5q-50 15 -79 15h-25l-8 -2q-46 0 -158 -75q-32 -23 -66 -45.5t-67 -45.5l-91 -57h100h153q35 -2 75 -1.5t74 1.5h48l82 10l81 10q58 7 58 41
q0 21 -21 45v-1q-5 7 -12 14.5t-14 13.5zM357 43v-1l-44 26q-8 -5 -18.5 -12t-18.5 -12v1q-11 -6 -24 -12t-24 -12h1q-6 -2 -13.5 -5t-13.5 -5t-13 -3t-13 -3q-27 -3 -37 -5h-207v140h245q87 0 112 43q12 21 12 58v17l-2 30v11q0 20 -4 33q1 4 18 24.5t48 55.5l27 30
q10 11 17.5 19t17.5 18v-43v-45q-2 -16 -2.5 -28t-1.5 -19q-1 -6 -2.5 -13t-3.5 -18q-9 -78 -31 -103l-8 -21q0 -22 33 -38q31 -12 64 -12l21 -1q19 0 25 -2h12q18 0 26 5l-1 -1q22 7 46 17t50 25v-1q11 5 26 14.5t32 20.5l70 47l112 75q25 21 54.5 41.5t55.5 39.5
q116 75 193 75q67 0 167 -85q96 -81 96 -163q0 -19 -46 -104l-21 -42q-5 -10 -7.5 -15.5t-5.5 -8.5q-16 -23 -28 -34q-14 -8 -60.5 -16t-115.5 -16l-73 -3l-87 -4q-50 1 -99.5 -0.5t-98.5 -2.5l-377 -8z" />
    <glyph glyph-name="dadmedial" unicode="&#x636;" horiz-adv-x="1513" arabic-form="medial" 
d="M944 796q-17 -29 -34 -55t-34 -55q-40 24 -78.5 47t-78.5 47q17 30 34 57t34 56zM1290 305q-29 29 -69 46.5t-81 17.5q-46 0 -104 -23t-121 -64l-210 -142l68 -2h389l81 2h21l23 -2q33 0 60 6q31 7 31 36q0 19 -21 51q-11 16 -27.5 35t-39.5 39zM-92 140h246q85 0 111 42
q13 23 13 58v17l-2 13l-1 17v11q0 20 -4 33q1 4 18.5 24.5t48.5 55.5l27 30q10 11 17.5 19t17.5 18l-1 -43l-1 -45q0 -16 -0.5 -28t-1.5 -19q-1 -6 -2.5 -13t-3.5 -18q-9 -78 -31 -103l-8 -21q0 -22 33 -38q30 -12 63 -12h54l34 3l16 4l21 7l49 20q10 5 26 12.5t25 12.5
l30 16q8 5 15 10t15 10q18 11 35 22t31 23h-1q57 38 113 77.5t113 77.5q123 78 195 78q66 0 167 -88q101 -89 101 -169q0 -9 -14 -39h1l-22 -38l-19 -37h110v-140h-976q-131 0 -194 20h1q-10 5 -19.5 11t-19.5 11v-1l-44 26q-8 -5 -19 -12t-19 -12v1q-11 -6 -23.5 -12
t-23.5 -12h1q-11 -5 -25 -8.5t-28 -6.5q-27 -3 -37 -5h-208v140z" />
    <glyph glyph-name="tahisolated" unicode="&#x637;" horiz-adv-x="1406" arabic-form="isolated" 
d="M1187 305q-20 15 -41 27t-41 22l-39 11l-37 4q-42 0 -97.5 -28t-118.5 -80q-26 -21 -54 -42t-53 -38q-17 -11 -35 -19t-35 -15l1 -7h527q61 0 83 8q15 4 24.5 14t11.5 25q0 18 -24 48q-10 14 -28.5 32.5t-43.5 37.5zM1384 254q0 -23 -11 -53q-5 -14 -13.5 -34.5
t-22.5 -49.5q-56 -117 -93 -117h-998q-11 1 -24.5 1.5t-24.5 1.5l-10 2l-10 2l-21 7q-17 7 -35.5 18t-32.5 24q-14 14 -26.5 31.5t-24.5 37.5l1 -1q-3 9 -6 19t-6 19q-1 10 -2 19.5t-2 19.5q0 64 36 153q36 88 52 88q2 0 3 -3.5t2 -7.5q-2 -16 -18 -81l-11 -51l-5 -43
q0 -13 2.5 -22.5t6.5 -16.5q22 -36 68 -60q13 -4 27.5 -7.5t30.5 -5.5l86 -4h130q16 0 27 4l21 6l18 8q5 3 10 7t10 7v-1l13 7q10 8 15 23.5t5 29.5l-59 663q-45 26 -47 60q2 5 3 11t3 11v-1l82 147q4 13 13 22q5 2 8.5 4t8.5 4q2 -2 3.5 -5t4.5 -8l-7 -18q-7 -21 -7 -35
q0 -17 19 -28v1l68 -42q15 -8 30.5 -15.5t30.5 -15.5q-22 -44 -42 -84.5t-42 -83.5l-26 11q3 -39 7.5 -82t7.5 -81l9 -93q1 -7 1.5 -15t1.5 -15l-3 -102l-1 -28v-20q-1 -3 -1 -6q0 -2 -1 -4q-1 -1 -1 -4q0 -1 -1 -2l-7 -64q-7 -73 -34 -114q19 0 77.5 38t165.5 119
q205 155 299 155q66 0 166 -88q103 -85 103 -169z" />
    <glyph glyph-name="tahfinal" unicode="&#x637;" horiz-adv-x="1409" arabic-form="final" 
d="M1163 305q-20 15 -41 27t-41 22l-39 11l-37 4q-43 0 -98.5 -28t-118.5 -80q-26 -21 -53.5 -42t-52.5 -38q-17 -11 -35.5 -19t-35.5 -15l1 -7h527q62 0 84 8q15 4 24.5 14t11.5 25q0 18 -24 48q-10 14 -28.5 32.5t-43.5 37.5zM1431 0h-1209q-11 1 -24.5 1.5t-24.5 1.5
l-10 2l-10 2l-21 7q-17 7 -36 18t-33 24q-14 14 -26 31.5t-24 37.5l1 -1q-3 9 -6 19t-6 19q-1 10 -2 19.5t-2 19.5q0 64 36 153q34 88 51 88q2 0 3.5 -3.5t2.5 -7.5q-1 -7 -6 -27.5t-13 -53.5l-11 -51l-5 -43q0 -13 2.5 -22.5t6.5 -16.5q22 -36 69 -60q13 -4 27.5 -7.5
t30.5 -5.5l84 -4h132q15 0 26 4l22 6l18 8q5 3 10 7t10 7v-1l13 7q10 8 15 23.5t5 29.5l-59 663q-46 25 -48 60q2 5 3 11t3 11v-1l83 147q4 13 13 22q5 2 8.5 4t8.5 4q2 -2 3.5 -5t4.5 -8l-7 -18q-7 -21 -7 -35q0 -17 19 -28v1l67 -42q16 -8 31.5 -15.5t30.5 -15.5
q-22 -44 -42 -84.5t-43 -83.5l-25 11q3 -39 7.5 -82t7.5 -81l8 -93q1 -7 1.5 -15t1.5 -15l-3 -102l-1 -28v-20q-1 -3 -1 -6q0 -2 -1 -4q-1 -1 -1 -4q0 -1 -1 -2l-6 -64q-7 -73 -34 -114q19 0 77.5 38t164.5 119q206 155 300 155q66 0 166 -88q100 -85 103 -168l-3 -16
q0 -8 -2 -12l-5 -11l-28 -76h109v-140z" />
    <glyph glyph-name="tahinitial" unicode="&#x637;" horiz-adv-x="1139" arabic-form="initial" 
d="M906 305q-39 28 -81 49l-40 11l-37 4q-86 0 -212 -105q-122 -101 -182 -116l1 -8h528q61 0 83 8q25 8 36 38q0 18 -21 47q-11 14 -29.5 32t-45.5 40zM-51 140h187q32 0 41 4h-1l23 6l17 7l36 24q19 15 19 50l-60 663q-45 26 -47 60q2 5 3 11t3 11v-1l80 147q2 8 20 26h-1
q8 5 12 5q10 -5 10 -13l-8 -22q-6 -18 -6 -32q0 -18 18 -28v1l68 -42q15 -8 30.5 -15.5t30.5 -15.5q-22 -44 -42 -84.5t-42 -83.5l-25 11q3 -39 7.5 -82t7.5 -81q2 -31 5 -62t5 -61q0 -127 -10.5 -217.5t-38.5 -126.5q38 0 244 157q206 155 299 155q65 0 166 -88
q102 -86 102 -169q0 -9 -1 -20t-9 -28q-5 -15 -14 -37.5t-23 -51.5q-52 -117 -92 -117h-1014v140z" />
    <glyph glyph-name="tahmedial" unicode="&#x637;" horiz-adv-x="1202" arabic-form="medial" 
d="M960 305q-17 14 -37.5 26.5t-43.5 23.5q-8 2 -15.5 4t-14.5 4q-24 6 -48 6q-42 0 -95.5 -26.5t-118.5 -81.5q-122 -101 -179 -113l1 -8h528l51 1q8 2 15.5 3.5t15.5 3.5q17 4 27 14t10 26q0 11 -6 20l1 -1q-5 11 -20 29v-1q-19 30 -72 70h1zM-27 140h219l22 1q8 0 14 1.5
t13 3.5l30 11l37 24q20 17 17 50l-65 664q-21 11 -32 25l1 -1q-4 8 -6.5 15.5t-3.5 15.5q2 6 3 13t3 13v-1l81 147q3 10 6 13q2 2 5 7t5 7v-1q5 5 13 5q10 -5 10 -13l-8 -27l-7 -24q0 -10 19 -29l69 -43q15 -8 30.5 -15.5t30.5 -15.5q-22 -44 -41.5 -85t-41.5 -84l-28 11
q4 -39 8 -81.5t8 -80.5q2 -31 5 -62t5 -61q0 -128 -11.5 -217t-36.5 -127q37 0 243 157q206 155 299 155q71 0 171 -88q45 -39 72 -84t27 -85q0 -24 -40 -114h112v-140h-1257v140z" />
    <glyph glyph-name="zahisolated" unicode="&#x638;" horiz-adv-x="1406" arabic-form="isolated" 
d="M1075 796q-17 -29 -34 -55t-34 -55q-41 24 -79 47t-78 47q17 30 34 57t34 56zM1187 305q-20 15 -41 27t-41 22l-39 11l-37 4q-42 0 -97.5 -28t-118.5 -80q-26 -21 -54 -42t-53 -38q-17 -11 -35 -19t-35 -15l1 -7h527q61 0 83 8q15 4 24.5 14t11.5 25q0 18 -24 48
q-10 14 -28.5 32.5t-43.5 37.5zM1384 254q0 -23 -11 -53q-5 -14 -13.5 -34.5t-22.5 -49.5q-56 -117 -93 -117h-998q-11 1 -24.5 1.5t-24.5 1.5l-10 2l-10 2l-21 7q-17 7 -35.5 18t-32.5 24q-14 14 -26.5 31.5t-24.5 37.5l1 -1q-3 9 -6 19t-6 19q-1 10 -2 19.5t-2 19.5
q0 64 36 153q36 88 52 88q2 0 3 -3.5t2 -7.5q-2 -16 -18 -81l-11 -51l-5 -43q0 -13 2.5 -22.5t6.5 -16.5q22 -36 68 -60q13 -4 27.5 -7.5t30.5 -5.5l86 -4h130q16 0 27 4l21 6l18 8q5 3 10 7t10 7v-1l13 7q10 8 15 23.5t5 29.5l-59 663q-45 26 -47 60q2 5 3 11t3 11v-1
l82 147q4 13 13 22q5 2 8.5 4t8.5 4q2 -2 3.5 -5t4.5 -8l-7 -18q-7 -21 -7 -35q0 -17 19 -28v1l68 -42q15 -8 30.5 -15.5t30.5 -15.5q-22 -44 -42 -84.5t-42 -83.5l-26 11q3 -39 7.5 -82t7.5 -81l9 -93q1 -7 1.5 -15t1.5 -15l-3 -102l-1 -28v-20q-1 -3 -1 -6q0 -2 -1 -4
q-1 -1 -1 -4q0 -1 -1 -2l-7 -64q-7 -73 -34 -114q19 0 77.5 38t165.5 119q205 155 299 155q66 0 166 -88q103 -85 103 -169z" />
    <glyph glyph-name="zahfinal" unicode="&#x638;" horiz-adv-x="1399" arabic-form="final" 
d="M1051 796q-17 -29 -34 -55t-35 -55q-40 24 -78 47t-78 47q17 30 34 57t34 56zM1163 305q-20 15 -41 27t-41 22l-39 11l-37 4q-43 0 -98.5 -28t-118.5 -80q-26 -21 -53.5 -42t-52.5 -38q-17 -11 -35.5 -19t-35.5 -15l1 -7h527q62 0 84 8q15 4 24.5 14t11.5 25q0 18 -24 48
q-10 14 -28.5 32.5t-43.5 37.5zM1431 0h-1209q-11 1 -24.5 1.5t-24.5 1.5l-10 2l-10 2l-21 7q-17 7 -36 18t-33 24q-14 14 -26 31.5t-24 37.5l1 -1q-3 9 -6 19t-6 19q-1 10 -2 19.5t-2 19.5q0 64 36 153q34 88 51 88q2 0 3.5 -3.5t2.5 -7.5q-1 -7 -6 -27.5t-13 -53.5
l-11 -51l-5 -43q0 -13 2.5 -22.5t6.5 -16.5q22 -36 69 -60q13 -4 27.5 -7.5t30.5 -5.5l84 -4h132q15 0 26 4l22 6l18 8q5 3 10 7t10 7v-1l13 7q10 8 15 23.5t5 29.5l-59 663q-46 25 -48 60q2 5 3 11t3 11v-1l83 147q4 13 13 22q5 2 8.5 4t8.5 4q2 -2 3.5 -5t4.5 -8l-7 -18
q-7 -21 -7 -35q0 -17 19 -28v1l67 -42q16 -8 31.5 -15.5t30.5 -15.5q-22 -44 -42 -84.5t-43 -83.5l-25 11q3 -39 7.5 -82t7.5 -81l8 -93q1 -7 1.5 -15t1.5 -15l-3 -102l-1 -28v-20q-1 -3 -1 -6q0 -2 -1 -4q-1 -1 -1 -4q0 -1 -1 -2l-6 -64q-7 -73 -34 -114q19 0 77.5 38
t164.5 119q206 155 300 155q66 0 166 -88q103 -86 103 -169l-1 -17q0 -5 -7 -19q-2 -10 -10 -29t-20 -49h109v-140z" />
    <glyph glyph-name="zahinitial" unicode="&#x638;" horiz-adv-x="1171" arabic-form="initial" 
d="M840 796q-17 -29 -34.5 -55t-34.5 -55q-40 24 -78 47t-79 47q18 30 35 57t34 56zM921 305q-39 28 -81 49l-40 11l-37 4q-86 0 -212 -105q-122 -101 -182 -116l1 -8h528q61 0 83 8q25 8 36 38q0 18 -21 47q-11 14 -29.5 32t-45.5 40zM-36 140h187q32 0 41 4h-1l23 6l17 7
l36 24q19 15 19 50l-60 663q-45 26 -47 60q2 5 3 11t3 11v-1l80 147q2 8 20 26h-1q8 5 12 5q10 -5 10 -13l-8 -22q-6 -18 -6 -32q0 -18 18 -28v1l68 -42q15 -8 30.5 -15.5t30.5 -15.5q-22 -44 -42 -84.5t-42 -83.5l-25 11q3 -39 7.5 -82t7.5 -81q2 -31 5 -62t5 -61
q0 -127 -10.5 -217.5t-38.5 -126.5q38 0 244 157q206 155 299 155q65 0 166 -88q102 -86 102 -169q0 -9 -1 -20t-9 -28q-5 -15 -14 -37.5t-23 -51.5q-52 -117 -92 -117h-1014v140z" />
    <glyph glyph-name="zahmedial" unicode="&#x638;" horiz-adv-x="1202" arabic-form="medial" 
d="M804 796q-17 -29 -34 -55t-34 -55q-41 24 -79 47t-78 47q17 30 34 57t34 56zM960 305q-17 14 -37.5 26.5t-43.5 23.5q-8 2 -15.5 4t-14.5 4q-24 6 -48 6q-42 0 -95.5 -26.5t-118.5 -81.5q-122 -101 -179 -113l1 -8h528l51 1q8 2 15.5 3.5t15.5 3.5q17 4 27 14t10 26
q0 11 -6 20l1 -1q-5 11 -20 29v-1q-19 30 -72 70h1zM-27 140h219l22 1q8 0 14 1.5t13 3.5l30 11l37 24q20 17 17 50l-65 664q-21 11 -32 25l1 -1q-4 8 -6.5 15.5t-3.5 15.5q2 6 3 13t3 13v-1l81 147q3 10 6 13q2 2 5 7t5 7v-1q5 5 13 5q10 -5 10 -13l-8 -27l-7 -24
q0 -10 19 -29l69 -43q15 -8 30.5 -15.5t30.5 -15.5q-22 -44 -41.5 -85t-41.5 -84l-28 11q4 -39 8 -81.5t8 -80.5q2 -31 5 -62t5 -61q0 -128 -11.5 -217t-36.5 -127q37 0 243 157q206 155 299 155q71 0 171 -88q45 -39 72 -84t27 -85q0 -24 -40 -114h112v-140h-1257v140z" />
    <glyph glyph-name="ainisolated" unicode="&#x639;" horiz-adv-x="750" arabic-form="isolated" 
d="M845 -579v1v-1zM822 -575q8 0 14 -1t9 -3q-5 -18 -145 -65q-76 -21 -147.5 -33t-140.5 -12q-243 0 -376 97q-64 46 -96.5 114.5t-34.5 151.5q1 14 1.5 31.5t1.5 31.5q1 9 2 19t2 19l6 27q16 74 42 140t65 132q11 15 21 31.5t21 30.5q5 7 12 16t12 16l30 35l-30 15l-30 15
v-1l-35 25q-89 61 -89 112q0 38 22.5 93t61.5 118q48 73 99.5 112.5t102.5 39.5q47 0 114 -73q53 -58 52 -82q-8 2 -13 3t-12 3l-41 11q-50 12 -112 12q-51 0 -118 -38q-29 -17 -47.5 -32t-20.5 -25q0 -22 10 -51q3 -5 10 -16.5t21 -29.5q50 -62 142 -78l29 -2q29 0 49 5
l38 10q8 4 16.5 7t16.5 7h-1q37 15 75 30l76 30q14 5 27.5 11t27.5 11q-14 -31 -27 -58t-27 -58q-173 -53 -339 -207q-91 -85 -138 -165.5t-47 -153.5v-14l-2 -20q0 -149 133 -240q40 -24 125 -54l26 -7l53 -13l99 -18l97 -11l57 -3q20 0 48.5 -1t49.5 -1l82 -3l15 1l24 3
h12q4 1 9.5 1.5t9.5 1.5z" />
    <glyph glyph-name="ainfinal" unicode="&#x639;" horiz-adv-x="665" arabic-form="final" 
d="M815 -561q-15 -13 -27.5 -21t-23.5 -15v1l-36 -20q-11 -5 -21.5 -11t-21.5 -11h1q-30 -11 -64.5 -20t-70.5 -16q-17 -2 -35.5 -4.5t-35.5 -4.5q-19 -1 -36.5 -2t-35.5 -2q-219 0 -349 97q-128 95 -128 266q0 34 2 69t7 67l12 61l4 16l4 16l12 31q55 159 189 286l26 24
q-18 18 -27 22v-1l-50 35l-24 8l-23 4q-27 0 -36 -4q-4 -1 -6.5 -1.5t-6.5 -1.5q15 60 35.5 102t47.5 70h-1q20 15 44 23.5t57 8.5q37 0 41 -2q57 0 135 -48t78 -98q0 -10 -6 -34q0 -2 -32 -69q-27 0 -49 -6q-15 -3 -53 -22q8 -8 21.5 -19t33.5 -25l45 -25q41 -12 81 -17.5
t82 -5.5h129v-140h-157l-27 1q-10 0 -30 7q-12 0 -19 3l-14 4q-7 2 -13 4h1q-5 2 -11 4.5t-11 4.5v-1l-36 19q-30 13 -69.5 47.5t-80.5 90.5q-99 -79 -169 -190q-69 -108 -69 -182q0 -168 126 -268q146 -107 499 -107l111 2h81z" />
    <glyph glyph-name="aininitial" unicode="&#x639;" horiz-adv-x="985" arabic-form="initial" 
d="M-42 140h253q-12 10 -21.5 21.5t-18.5 25.5h1q-8 16 -12 29.5t-4 29.5l-2 14q0 27 29.5 73t80.5 106q69 77 145.5 121t151.5 44q35 0 74 -28q36 -25 85 -90l-1 1l21 -62q5 -13 9.5 -25t9.5 -25l-40 27l-55 30q-17 8 -32 14.5t-31 11.5l-34 7l-40 3q-67 0 -160 -38
q-48 -18 -73.5 -35.5t-25.5 -31.5q0 -50 87 -125l57 -37l58 -40l16 -6l24 -8l26 -5l29 -2q50 3 99 7t100 7q42 2 86 4t87 4q-17 -40 -33 -76t-33 -76l-64 -1l-68 -1h-156l-96 -2l-129 -2q-55 -1 -109 -2t-109 -2h-182v140z" />
    <glyph glyph-name="ainmedial" unicode="&#x639;" horiz-adv-x="711" arabic-form="medial" 
d="M-16 140h187q60 0 111 6q64 9 119 39q-4 7 -9 17.5t-9 18.5q-13 24 -30 35l-10 4l-27 4q-11 -1 -23.5 -2t-23.5 -2q-11 0 -23.5 6.5t-12.5 20.5q0 7 5 19t13 28q21 35 41.5 71.5t40.5 72.5v-1l15 18h-1q6 4 12 8.5t12 8.5v-1q24 12 55 12q41 0 87 -25q7 -3 11.5 -5.5
t6.5 -4.5q5 -4 13.5 -9t13.5 -9h-1q12 -10 24 -20.5t24 -20.5q30 -26 44.5 -46t10.5 -31v1l-64 -136q0 -6 -4 -7q-7 -4 -17.5 -8t-25.5 -8l10 -21l17 -21l29 -10l47 -2h78v-140h-90q-62 0 -107 28q-9 5 -20.5 12t-20.5 12q-7 5 -15 16t-16 27q-37 -32 -97 -54t-138 -33
q-26 -2 -50.5 -4t-50.5 -4h-143z" />
    <glyph glyph-name="ghainisolated" unicode="&#x63a;" horiz-adv-x="750" arabic-form="isolated" 
d="M844 -579v1v-1zM332 970q-17 -29 -32.5 -55t-33.5 -55q-41 24 -79.5 47.5t-79.5 47.5q18 29 34.5 56t34.5 56zM814 -573q25 0 30 -5q-2 -10 -39 -26.5t-108 -39.5q-71 -18 -148.5 -31.5t-142.5 -13.5q-121 0 -214.5 25t-157 71.5t-96 114t-32.5 152.5q0 157 89 326
q24 48 55 95.5t73 92.5q-32 16 -57.5 31t-42.5 26q-45 32 -68 62.5t-23 57.5q0 40 23.5 96t68.5 125q53 78 107.5 119t108.5 41q50 0 121 -77q57 -60 57 -82q0 -2 -0.5 -2.5t-0.5 -1.5l-69 19q-48 12 -120 12q-54 0 -127 -41q-26 -16 -48 -32t-26 -26q0 -41 45 -96
q45 -52 147 -89q37 0 57 5l40 9q9 4 20 7.5t20 7.5q59 21 118 43t119 43q-15 -32 -28.5 -62t-28.5 -62q-169 -47 -350 -209q-180 -159 -201 -308l-2 -39q0 -143 133 -227q49 -30 124 -53.5t178 -41.5l157 -15l84 -3l90 -3q20 0 30 5h35z" />
    <glyph glyph-name="ghainfinal" unicode="&#x63a;" horiz-adv-x="640" arabic-form="final" 
d="M382 885q-18 -31 -33.5 -61t-33.5 -61q-42 25 -81.5 48.5t-81.5 48.5q15 29 30.5 56.5t30.5 56.5zM815 -561q-15 -13 -27.5 -21t-23.5 -15v1l-36 -20q-11 -5 -21.5 -11t-21.5 -11h1q-30 -11 -64.5 -20t-70.5 -16q-17 -2 -35.5 -4.5t-35.5 -4.5q-19 -1 -36.5 -2t-35.5 -2
q-219 0 -349 97q-128 95 -128 266q0 34 2 69t7 67l12 61l4 16l4 16l12 31q55 159 189 286l26 24q-18 18 -27 22v-1l-50 35l-24 8l-23 4q-27 0 -36 -4q-4 -1 -6.5 -1.5t-6.5 -1.5q15 60 35.5 102t47.5 70h-1q20 15 44 23.5t57 8.5q37 0 41 -2q57 0 135 -48t78 -98
q0 -10 -6 -34q0 -2 -32 -69q-27 0 -49 -6q-15 -3 -53 -22q8 -8 21.5 -19t33.5 -25l45 -25q41 -12 81 -17.5t82 -5.5h129v-140h-157l-27 1q-10 0 -30 7q-12 0 -19 3l-14 4q-7 2 -13 4h1q-5 2 -11 4.5t-11 4.5v-1l-36 19q-30 13 -69.5 47.5t-80.5 90.5q-99 -79 -169 -190
q-69 -108 -69 -182q0 -168 126 -268q146 -107 499 -107l111 2h81z" />
    <glyph glyph-name="ghaininitial" unicode="&#x63a;" horiz-adv-x="977" arabic-form="initial" 
d="M564 967l-34 -60l-34 -60q-42 25 -81.5 47t-81.5 47q16 29 32 57.5t31 57.5zM-43 140h227q-5 25 -12 53.5t-12 53.5q-1 3 -1.5 8t-1.5 8q2 25 29 70.5t75 105.5q66 75 141.5 120t149.5 45q35 0 74 -28q37 -26 84 -90l-1 1l22 -62q5 -13 9.5 -25t9.5 -25l-41 27l-54 30
q-17 8 -32 14.5t-31 11.5l-34 7l-40 3q-34 0 -72.5 -9t-89.5 -29q-94 -37 -97 -65q0 -32 57 -93q55 -58 136 -112q12 -6 37 -13q13 -3 27.5 -5t31.5 -2q9 1 19 2.5t19 2.5l65 2q12 1 26 1.5t26 1.5l112 3q27 2 56 4t57 4q-17 -40 -33 -75.5t-33 -75.5l-64 -1l-68 -1h-156
l-96 -2l-130 -2l-108 -2q-54 -1 -109 -2h-174v140z" />
    <glyph glyph-name="ghainmedial" unicode="&#x63a;" horiz-adv-x="711" arabic-form="medial" 
d="M533 885q-17 -30 -33.5 -61t-33.5 -61q-42 25 -81 48.5t-81 48.5q15 29 30.5 56.5t30.5 56.5zM-16 140h186q62 0 112 6q64 9 119 39q-4 7 -9 17.5t-9 18.5q-13 24 -30 35l-10 4l-27 4q-11 -1 -23.5 -2t-23.5 -2q-11 0 -23.5 6.5t-12.5 20.5q0 7 5 19t13 28
q21 35 41.5 71.5t40.5 72.5v-1l15 18h-1q6 4 12 8.5t12 8.5v-1q24 12 55 12q41 0 87 -25q7 -3 11.5 -5.5t6.5 -4.5q5 -4 13.5 -9t13.5 -9h-1q12 -10 24 -20.5t24 -20.5q30 -26 44.5 -46t10.5 -31v1l-64 -136q0 -6 -4 -7q-7 -4 -17.5 -8t-25.5 -8l10 -21l17 -21l29 -10l47 -2
h78v-140h-90q-62 0 -107 28q-9 5 -20.5 12t-20.5 12q-7 5 -15 16t-16 27q-37 -32 -97 -54t-138 -33q-26 -2 -52.5 -4t-52.5 -4h-139z" />
    <glyph glyph-name="fehisolated" unicode="&#x641;" horiz-adv-x="1502" arabic-form="isolated" 
d="M1137 1009q-17 -32 -33.5 -62t-33.5 -61q-42 25 -81 48t-81 48q15 29 30.5 57t30.5 57zM1301 437q-11 39 -62 101q-45 54 -86 54q-19 0 -73 -40q-10 -8 -19.5 -18t-19.5 -25l-3 -3l-13 -24q0 -15 33 -48l48 -24q13 -6 47 -6l43 1q9 2 18.5 3.5t18.5 3.5q21 3 37.5 8.5
t28.5 12.5zM1455 191l-7 -41q-1 -5 -3 -12.5t-4 -15.5q-31 -122 -62 -122h-1117q-109 0 -182 70q-70 72 -70 167q0 45 9 89.5t30 95.5q37 98 62 101q6 0 8 -16q-2 -8 -3 -18.5t-3 -18.5l-21 -84l-8 -39l-6 -44l1 -24q0 -10 8 -21q16 -28 35 -50q8 -9 21 -19.5t33 -23.5
q20 -10 58 -18l41 -5l47 -2h1063l-1 41l-1 28q0 29 -4 40q-3 10 -6 20.5t-6 20.5q-4 11 -8 23.5t-7 23.5q-2 8 -5 17t-7 18l-5 10l-16 21q-17 -21 -36.5 -45t-36.5 -45q-9 -5 -18 -11t-18 -11v1q-10 -5 -20 -9.5t-20 -9.5h1q-19 -7 -41 -10t-46 -3q-27 0 -56 9.5t-59 26.5
q-23 18 -36 36.5t-13 34.5q0 71 120 211q118 141 212 141q55 0 132 -165q79 -165 79 -308z" />
    <glyph glyph-name="fehfinal" unicode="&#x641;" horiz-adv-x="1500" arabic-form="final" 
d="M1224 885q-17 -30 -33.5 -61t-33.5 -61q-42 25 -81 48.5t-81 48.5q15 29 30.5 56.5t30.5 56.5zM1362 237q-1 5 -2.5 11.5t-2.5 11.5t-2.5 11.5t-3.5 11.5q-3 12 -14 33q-36 57 -101 57q-35 0 -92 -26q-55 -25 -79 -88q6 -50 69 -94q50 -31 90 -31q37 0 84 34q48 35 54 56
v13zM1524 0h-1156q-109 0 -180 37t-113 115l1 -1q-4 11 -8 23.5t-8 23.5q-6 25 -6 52q0 120 81 254q30 52 54 52q6 0 11 -5q4 -1 4 -14q0 -11 -43 -101h2q-6 -8 -10 -17.5t-7 -19.5l-8 -31q0 -108 63 -167q62 -61 165 -61h600v16l-2 14v28q0 8 2.5 19t19.5 33
q92 122 192 195t189 92q27 -3 59 -65v1q2 -6 6.5 -15.5t7.5 -17.5t6 -17t6 -17q9 -30 9 -64q0 -28 -5 -36q0 -10 -43 -89h1l-47 -77h157v-140z" />
    <glyph glyph-name="fehinitial" unicode="&#x641;" horiz-adv-x="808" arabic-form="initial" 
d="M329 917q-18 -29 -34 -56.5t-34 -56.5q-41 26 -79.5 49t-78.5 48q18 29 34 55.5t34 55.5zM571 441q-3 11 -8.5 22t-14.5 23l-15 22l-24 31q-49 55 -89 55q-27 -6 -71 -41q-44 -34 -56 -68q0 -27 43 -53l33 -17q12 -4 25 -5.5t27 -1.5l48 1q8 2 17 3.5t17 3.5
q21 3 37.5 8.5t28.5 12.5zM-35 140h691v42q-1 7 -2 13.5t-2 13.5q0 36 -15 83q-9 36 -21 65.5t-27 49.5q-17 -21 -37 -45t-37 -45l-24 -18v1q-8 -4 -15.5 -8.5t-15.5 -8.5h1q-4 -2 -8.5 -3t-8.5 -3q-9 -2 -18.5 -4.5t-17.5 -5.5q-9 -1 -18.5 -2.5t-18.5 -2.5h-19l-31 1
q-9 0 -22 7q-35 11 -62 31q-51 34 -51 70q0 75 116 208q126 142 220 142q58 0 132 -162q75 -162 75 -311v1l-12 -76q-2 -12 -4 -24.5t-4 -24.5q-29 -124 -59 -124h-685v140z" />
    <glyph glyph-name="fehmedial" unicode="&#x641;" horiz-adv-x="760" arabic-form="medial" 
d="M646 885q-17 -30 -33.5 -61t-33.5 -61q-42 25 -81 48.5t-81 48.5q15 29 30.5 56.5t31.5 56.5zM640 229q-6 67 -29 101q-17 24 -40.5 37.5t-54.5 13.5q-47 0 -91 -22q-62 -30 -81 -85q6 -58 75 -103l18 -11l22 -9l28 -8l17 -1q20 0 44 7t52 26q33 28 40 53v1zM-21 140h272
l-2 24v11l-2 20v32l8 22q3 8 9 14q97 115 146 158q128 116 234 116q27 0 60 -68q35 -73 35 -129q0 -3 -0.5 -8t-0.5 -8l-3 -17q0 -8 -11.5 -31.5t-32.5 -58.5l-48 -77h139v-140h-803v140z" />
    <glyph glyph-name="qafisolated" unicode="&#x642;" horiz-adv-x="985" arabic-form="isolated" 
d="M806 323q-2 3 -3.5 6t-3.5 6v-1q-1 4 -13 19h1q-44 65 -88 65q-40 0 -78 -33.5t-58 -88.5q17 -44 50 -60q42 -17 104 -17q19 0 50 11q27 17 58 52zM864 866q-16 -29 -32 -57t-32 -57l-167 96q-12 -21 -26.5 -44.5t-27.5 -44.5q-45 25 -86.5 49t-85.5 49q17 31 35 60.5
t35 60.5l181 -113q12 23 25 48.5t26 48.5zM950 144l-1 -47l-1 -39q0 -7 -0.5 -13.5t-0.5 -13.5v1l-3 -21q-1 -5 -2.5 -9t-2.5 -9q-8 -42 -23.5 -81.5t-37.5 -71.5q-31 -45 -76 -82.5t-107 -69.5q-36 -17 -77 -30.5t-86 -23.5q-9 -2 -18.5 -3.5t-18.5 -3.5q-12 -2 -26.5 -3
t-26.5 -3q-13 -1 -26.5 -2.5t-26.5 -2.5l-55 -1q-83 0 -146.5 19t-106.5 55q-37 34 -57 81.5t-20 108.5q0 97 70 270l-1 -1q21 29 41 57t41 57v-4q0 -19 -15 -58v1q-59 -138 -59 -219q0 -101 61 -159t260 -58q35 0 88 9t136 30q188 48 249 131l6 21l4 23l4 88v12l-2 19
q-1 3 -1.5 8t-1.5 9q0 8 -5 18v-1q-2 8 -4.5 17.5t-4.5 17.5l-5 17l-10 25q-49 -91 -104 -124q-42 -22 -117 -22q-78 0 -104 48h1q-23 54 -23 143q0 75 86 197q84 121 144 121q35 0 71 -36t70 -106q16 -36 29 -73.5t23 -68.5q2 -9 4 -18.5t4 -18.5q2 -10 3 -22t3 -22
q1 -9 2 -18.5t2 -18.5z" />
    <glyph glyph-name="qaffinal" unicode="&#x642;" horiz-adv-x="948" arabic-form="final" 
d="M816 147q4 4 5 15q0 21 -37 88q-57 88 -129 88q-20 0 -49 -41q-26 -42 -26 -72q0 -20 11 -34l29 -23l23 -15l12 -6q40 -13 86 -13q58 0 74 13h1zM874 798l-74 -108l-156 95q-14 -21 -28.5 -44t-28.5 -45q-42 25 -80.5 48t-79.5 48q20 29 37.5 56.5t36.5 56.5l158 -98
q14 21 29.5 44.5t29.5 45.5zM959 0h-42l-3 -32q0 -12 -4 -21l-12 -67l-4 -16l-7 -19q-28 -83 -222 -169q-95 -42 -195.5 -64t-203.5 -22q-50 0 -95 17q-22 8 -44 20t-46 29q-74 53 -86 106q-6 43 -6 68v35q0 67 12 136l2.5 12.5t2.5 13.5l3 15l8 25q2 8 5 16.5t6 17.5v-1
l15 36q46 118 75 118q7 0 11 -14l-74 -245l-4 -62q0 -57 21.5 -98.5t80.5 -69.5l56 -21q15 -5 28.5 -9t25.5 -7l56 -8l59 -3h20q75 0 154 22.5t154 57.5q69 33 104.5 59.5t35.5 46.5l-15 110l-42 -7l-56 -2h-17q-107 0 -154.5 42t-47.5 110v19l2 22l3 20q0 1 0.5 3t0.5 4
l4 10q5 18 15.5 43t28.5 57q38 80 81 117t78 37q37 0 73.5 -42.5t65.5 -114.5l21 -73l27 -118h45v-140z" />
    <glyph glyph-name="qafinitial" unicode="&#x642;" horiz-adv-x="767" arabic-form="initial" 
d="M542 441q-3 11 -8.5 22t-14.5 23l-15 22l-24 31q-49 55 -89 55q-27 -6 -71 -41q-44 -34 -56 -68q0 -27 43 -53l33 -17q12 -4 25 -5.5t27 -1.5h48q8 3 17 4.5t17 3.5q21 3 37.5 8.5t28.5 12.5zM470 964q-16 -29 -32 -57t-33 -57l-169 95q-13 -21 -27.5 -43.5t-27.5 -43.5
q-43 25 -84 48.5t-85 48.5q17 32 35.5 61.5t35.5 60.5l181 -114q11 24 24.5 49.5t25.5 48.5zM-64 140h691v42q-1 7 -2 13.5t-2 13.5q0 36 -15 83q-9 36 -21 65.5t-27 49.5q-17 -21 -37 -45t-37 -45l-24 -18v1q-8 -4 -15.5 -8.5t-15.5 -8.5h1q-4 -2 -8.5 -3t-8.5 -3
q-9 -2 -18.5 -4.5t-17.5 -5.5q-9 -1 -18.5 -2.5t-18.5 -2.5h-50q-9 1 -22 8q-35 11 -62 31q-51 34 -51 70q0 75 116 208q126 142 220 142q58 0 132 -162q75 -162 75 -311v1l-12 -76q-2 -12 -4 -24.5t-4 -24.5q-29 -124 -59 -124h-685v140z" />
    <glyph glyph-name="qafmedial" unicode="&#x642;" horiz-adv-x="780" arabic-form="medial" 
d="M712 862q-16 -29 -32.5 -57t-33.5 -57l-169 96q-12 -21 -26.5 -44.5t-27.5 -44.5q-43 25 -84 48.5t-85 48.5q18 31 34.5 61t35.5 61l182 -113q11 23 24.5 48.5t25.5 48.5zM661 229q-8 68 -30 101q-17 24 -40.5 37.5t-54.5 13.5q-19 0 -43 -6l-22 -6q-5 -2 -12.5 -4.5
t-12.5 -6.5v1q-60 -30 -82 -84q6 -56 74 -103l19 -12l22 -9l28 -8l17 -1q49 0 97 33q33 30 40 53v1zM-21 140h292v28l-2 10l2 41q0 16 15 45h-1q51 65 101 115t95 86q49 35 95.5 53.5t89.5 18.5q25 0 59 -67q7 -14 13 -31.5t11 -34.5q2 -8 3.5 -16t3.5 -16q1 -7 1.5 -16
t1.5 -16q0 -3 -0.5 -8t-0.5 -8l-3 -17q0 -8 -11.5 -31.5t-32.5 -58.5l-46 -77h137v-140h-823v140z" />
    <glyph glyph-name="kafisolated" unicode="&#x643;" horiz-adv-x="1321" arabic-form="isolated" 
d="M798 739q-4 -10 -8 -19.5t-8 -19.5l-69 -34q-51 -29 -78 -72q-13 -35 65 -55q64 -12 75 -37q-2 -35 -30 -79t-82 -94q-2 -2 -13 -5t-26 -6q-14 -1 -29 -2l-30 -2h-61q-13 0 -19 2q11 11 99 36q105 32 111 61q0 15 -71 36q-65 17 -65 49q0 23 24 67t72 108v-1q47 58 91 91
t79 38zM1294 916q-20 -41 -38.5 -79t-38.5 -80h-7q5 -56 10.5 -117t11.5 -122.5t11.5 -122.5t10.5 -116q-1 -36 -5.5 -83t-13.5 -94q-8 -48 -18.5 -72.5t-21.5 -29.5h-918q-111 0 -181 69q-72 74 -72 168q0 40 10 85.5t30 96.5q19 49 34 74t27 30q6 -2 8 -16q-2 -8 -3 -18.5
t-3 -18.5l-20 -84l-8 -39l-6 -44l1 -24q0 -10 8 -21q8 -14 16.5 -26.5t17.5 -23.5q8 -9 21 -19.5t33 -23.5q11 -5 26 -9.5t33 -8.5l41 -5l46 -2h837q10 0 10 32q0 48 -9 122t-26 171l-21 129l-45 242q-24 16 -27 39q0 2 0.5 6t1.5 6q2 5 4.5 10.5t4.5 10.5q17 34 36 68.5
t36 68.5h-1l14 26l2 1q2 0 3.5 0.5t5.5 1.5q1 -2 3 -4t3 -4.5t3 -4.5q-1 -3 -2.5 -8t-3.5 -10q-3 -8 -5 -15t-2 -13q0 -12 23 -34q11 -6 22.5 -13t22.5 -13v1l31 -20z" />
    <glyph glyph-name="arabickaffinal" unicode="&#x643;" horiz-adv-x="1275" arabic-form="final" 
d="M754 740l-12 -23q-1 -2 -3 -8.5t-3 -8.5l-67 -34q-24 -13 -43.5 -31t-33.5 -40l-2 -11q0 -23 66 -45q63 -12 74 -37q-2 -35 -29.5 -79t-81.5 -94q-2 -2 -13 -5t-26 -6q-14 -1 -29.5 -2t-29.5 -2h-61q-13 0 -19 2q11 11 97 36q106 31 112 61q0 15 -70 36q-65 16 -65 49
q0 47 96 175v-1q47 58 91 91t79 38zM1303 0h-169l-21 164q-61 -106 -118 -135q-60 -29 -176 -29h-570q-111 0 -181 69q-72 72 -72 168q0 84 40 176q37 87 61 96q9 0 9 -15q0 -8 -27 -114q-2 -11 -4 -21t-4 -21l-6 -37q0 -31 9 -43q8 -14 16.5 -26.5t17.5 -23.5
q8 -9 21 -19.5t33 -23.5q21 -10 59 -18l41 -5l46 -2h549q34 0 65.5 5t57.5 13q53 17 130 66q-25 186 -50 369.5t-49 368.5q29 37 59 73.5t59 72.5l69 -968h105v-140z" />
    <glyph glyph-name="kafinitial" unicode="&#x643;" horiz-adv-x="1817" arabic-form="initial" 
d="M-35 140h1660q8 20 11 37t3 34q0 76 -74 112l-42 15l-45 12q-45 9 -102 9q-44 -4 -90 -7.5t-90 -7.5q-86 -4 -173 -8t-173 -8h-162q-51 -5 -101.5 -6.5t-101.5 -3.5q-178 0 -292 12q-108 12 -108 43q0 128 155 268h-1q29 23 66.5 51.5t83.5 60.5q17 11 42.5 25.5
t60.5 31.5q17 8 38.5 18t39.5 18q24 11 48.5 22t48.5 22h-1q54 21 95 36.5t76 27.5q26 8 46 13.5t33 7.5q-21 -37 -40.5 -75t-39.5 -75l-241 -73l-94 -39l-104 -43l-49 -26l-48 -26q-91 -55 -103 -99q13 -40 113 -55l118 -9h158q37 -3 74 -2t75 2q48 1 95.5 2.5t95.5 2.5
h250l202 12q30 2 64 3t64 3q44 -1 85.5 -4.5t64.5 -11.5q24 -6 45.5 -24t38.5 -45q11 -20 11 -71q0 -81 -20 -126l-75 -196h-1691v140z" />
    <glyph glyph-name="kafmedial" unicode="&#x643;" horiz-adv-x="1874" arabic-form="medial" 
d="M-29 140h1671q13 38 13 71q0 76 -73 112l-42 15l-46 12q-44 9 -101 9q-45 -4 -90.5 -7.5t-89.5 -7.5q-86 -4 -173.5 -8t-172.5 -8l-162 -3q-51 -2 -101.5 -3.5t-101.5 -3.5q-178 0 -292 12q-108 12 -108 43q0 128 154 268h-1q30 23 67.5 51.5t82.5 60.5q17 11 43 25.5
t61 31.5q17 8 38.5 18t38.5 18q24 11 49 22t49 22h-1q53 21 94 36.5t77 27.5q26 8 46 13.5t32 7.5q-20 -37 -39.5 -75t-39.5 -75l-119 -36l-122 -40l-94 -36l-104 -45l-49 -24l-47 -28q-93 -53 -105 -97q13 -40 114 -55l117 -9l158 -4q38 1 75 2l74 2q48 1 95.5 2.5
t95.5 2.5l138 1l113 2l202 9q30 2 63.5 3t63.5 3q45 -1 86.5 -4.5t63.5 -11.5q51 -12 85 -69l-1 1q1 -3 2.5 -7t2.5 -7t2.5 -8t2.5 -8l2 -40l-1 -29v-16q-1 -6 -2.5 -12.5t-2.5 -12.5l-6 -28l-8 -31q4 -6 15.5 -16t31.5 -23l30 -11l35 -5h29v-140h-31l-22 1q-8 0 -28 7
q-22 4 -48 18v-1l-16 10l-16 10l-4 4l-4 4l-19 24q-7 -17 -14.5 -38t-14.5 -39h-1701v140z" />
    <glyph glyph-name="lamisolated" unicode="&#x644;" horiz-adv-x="915" arabic-form="isolated" 
d="M815 746l-15 7q12 -165 25 -335.5t25 -335.5q-2 -13 -4.5 -25t-4.5 -25l-6 -26q-1 -11 -2 -14.5t-6 -11.5q-12 -42 -26 -74.5t-31 -53.5q-16 -21 -34.5 -41t-38.5 -39q-20 -18 -43 -36t-46 -34q-61 -37 -132.5 -58t-146.5 -21q-162 0 -247 85q-36 37 -53 86.5t-17 106.5
q0 130 67 273q26 52 45 82.5t32 38.5q-2 -14 -2.5 -24.5t-2.5 -24.5v2l-27 -64l-23 -72q-17 -63 -17 -92q0 -61 19 -110.5t60 -82.5q32 -24 81 -41q29 -7 56.5 -10t53.5 -3q15 1 33.5 1.5t32.5 1.5h19q4 1 8.5 2.5t9.5 2.5q5 0 13 2l16 4q27 6 60 17.5t70 27.5
q119 56 164 135l-109 861q-8 5 -15 11t-12 12l1 -1q-2 5 -4 12.5t-4 13.5q1 8 4 18t9 18l79 144q16 30 27 30q10 -5 10 -13l-8 -26l-6 -27q0 -12 5 -19l13 -12q17 -10 35 -21t35 -20q27 -18 61 -32z" />
    <glyph glyph-name="lamfinal" unicode="&#x644;" horiz-adv-x="868" arabic-form="final" 
d="M883 0h-53q-4 -32 -12 -64.5t-19 -67.5q-1 -5 -2.5 -10t-2.5 -10q-4 -11 -8.5 -22t-8.5 -22q-6 -18 -42 -47.5t-104 -69.5v1q-164 -85 -324 -85q-69 0 -128 22t-104 60q-36 35 -62 77h1q-20 42 -20 82q0 77 12 151q1 5 2 11t2 11q2 11 5.5 23.5t5.5 23.5q5 18 11 36
t14 33q24 65 47 100t42 40q-2 -15 -4 -27t-4 -26q-32 -84 -50 -144t-18 -88q0 -99 83 -167q77 -58 204 -58q69 0 133 12t137 39q93 39 138 87q-2 32 -3 67.5t-3 66.5l-2 73v16q0 12 -2 22q-2 8 -3 17.5t-3 17.5v11l-1 40l-1 15l-3 25q-2 14 -4.5 29t-4.5 29v-1l-3 44l-5 39
l-13 97l-21 174q-8 64 -18.5 139t-18.5 139q31 44 62 86.5t61 85.5l64 -993h51v-140z" />
    <glyph glyph-name="laminitial" unicode="&#x644;" horiz-adv-x="469" arabic-form="initial" 
d="M-35 140h363q10 0 10 40q0 49 -6 109l-3 56l-8 51q-3 20 -6 41.5t-6 41.5v-1q-10 78 -24 171t-34 199q-2 1 -6.5 2.5t-6.5 2.5h1q-19 10 -27 40q0 3 0.5 7.5t0.5 7.5q2 3 4.5 8t4.5 8q19 33 37.5 69t37.5 69q3 5 7.5 11t7.5 11v-1q4 4 15 7q2 -2 7 -12l-9 -24l-5 -22
q0 -11 18 -29l76 -44q8 -4 12.5 -6.5t12.5 -6.5v1q6 -4 11.5 -7t11.5 -7q-20 -41 -40 -79.5t-40 -80.5l-23 7q12 -121 25 -250.5t25 -250.5q-1 -36 -5.5 -83t-13.5 -94q-8 -48 -18.5 -72.5t-21.5 -29.5h-385v140z" />
    <glyph glyph-name="lammedial" unicode="&#x644;" horiz-adv-x="434" arabic-form="medial" 
d="M-20 140h330q-26 206 -52.5 411.5t-52.5 411.5q29 37 58.5 74.5t59.5 73.5l71 -971h61v-140h-128l-13 86q-9 -14 -21 -32t-20 -32q-16 -22 -48 -22h-245v140z" />
    <glyph glyph-name="meemisolated" unicode="&#x645;" horiz-adv-x="711" arabic-form="isolated" 
d="M699 174l-8 -29q-3 -19 -8 -26q-5 -11 -9 -24.5t-9 -24.5l-8 -18l-8 -18l-43 12l-91 19l-91 12l-67 5l-46 -1q-28 0 -43 -4h1q-8 -1 -17.5 -1.5t-17.5 -1.5q-5 0 -11.5 -1t-11.5 -3q-7 -2 -14 -3.5t-14 -3.5q-70 -15 -101 -59q14 -57 28.5 -116t28.5 -116
q18 -78 28.5 -139t10.5 -92q0 -12 -1.5 -31.5t-4.5 -42.5l-6 -42q-1 -6 -1.5 -11.5t-1.5 -11.5l-7 -27q-6 -38 -12 -64t-11 -37v4l-2 18l-6 43q-5 30 -11 61t-11 60q-10 56 -20 115.5t-20 115.5q-19 114 -32 184t-19 90q3 9 6.5 18t6.5 18l-1 -1l16 30q6 14 14 27t16 27v-1
q6 8 14 17.5t14 17.5q11 10 34.5 24.5t53.5 29.5q46 18 93 31.5t82 13.5l36 -2q18 0 52 -14l65 -27l-23 42l-85 97q-51 48 -104 48q-34 0 -77 -26v1l-38 -21q-9 -5 -17 -10.5t-17 -10.5q6 15 9.5 25.5t9.5 25.5l-1 -1q107 136 222 136q22 0 59 -37q10 -8 22.5 -20.5
t24.5 -26.5q7 -8 14 -16.5t14 -16.5v1l35 -45l69 -82l40 -40z" />
    <glyph glyph-name="meemfinal" unicode="&#x645;" horiz-adv-x="774" arabic-form="final" 
d="M650 86q-16 36 -35 77t-35 76v-1q-6 15 -12.5 32.5t-12.5 32.5q-2 5 -3 11.5t-3 11.5l-2 24q-31 0 -111 -37q-68 -38 -71 -52q0 -34 144 -116zM793 0h-86q-13 -18 -25 -37t-26 -37l-36 23l-26 14l-80 40q-17 6 -36 12.5t-36 12.5h1q-7 3 -14.5 6.5t-14.5 6.5v-1
q-5 3 -14 8t-15 8q-23 13 -49.5 34.5t-58.5 50.5l28 67l19 56q-75 -18 -117 -44v1l-35 -20l-35 -22l-37 -24l-35 -29q-7 -7 35 -180l43 -166q11 -42 24 -87t24 -87q6 -27 6 -61l-1 -36q0 -6 -0.5 -16t-4.5 -26l-4 -27q0 -8 -3 -14l-13 -49l-4 -17q0 -9 -8 -22q-3 -9 -6 -17
l-6 -16q-2 8 -2.5 18t-2.5 18q0 29 -2 60.5t-5 48.5q-6 45 -17 70v-1q-31 121 -48.5 188t-22.5 79q-8 38 -17 80t-17 81q-2 14 -4 27.5t-4 27.5l-3 51q0 58 42 135q21 39 45 69t49 50q19 13 74 41t137 69q78 38 136 60.5t81 22.5q12 0 74 -177q66 -183 116 -183h37v-140z
" />
    <glyph glyph-name="meeminitial" unicode="&#x645;" horiz-adv-x="832" arabic-form="initial" 
d="M656 172q23 0 23 37q0 50 -39 116q-41 66 -92 66q-41 0 -99 -39l-68 -81zM-52 140h268q12 0 21.5 5t23.5 25q65 171 165 265q45 42 111 72q33 14 65 21t71 7q11 0 17 -42q0 -20 2.5 -38t7.5 -34q3 -15 12 -40.5t25 -60.5v1l30 -91q3 -12 7 -26.5t7 -26.5l-24 -81
q-24 -72 -45 -80q-12 1 -66 17t-140 44l-190 66l-47 -76q-36 -67 -92 -67h-229v140z" />
    <glyph glyph-name="meemmedial" unicode="&#x645;" horiz-adv-x="862" arabic-form="medial" 
d="M683 143l-12 54l-12 50q-22 85 -79 85q-71 0 -127 -42q-16 -13 -40 -45l105 -65l69 -35l25 -7l19 -4zM-16 140h264q42 0 74 68q37 104 50 117q33 30 70.5 56t81.5 48q42 22 75.5 34.5t59.5 12.5q33 0 33 -34v-38l-2 -20q29 -113 65.5 -172.5t85.5 -71.5h39v-140h-119
q-11 -23 -22 -47l-22 -48l-368 202q-32 0 -58 -56q-21 -51 -55 -51h-252v140z" />
    <glyph glyph-name="noonisolated" unicode="&#x646;" horiz-adv-x="911" arabic-form="isolated" 
d="M501 695q-16 -29 -32 -58.5t-32 -58.5q-40 23 -78 44.5t-78 44.5q15 28 29.5 55t29.5 55zM863 321q3 -13 7 -27t7 -28q2 -14 5.5 -28t5.5 -28q2 -24 4 -49t4 -48v-11q0 -24 -1.5 -40t-3.5 -25q-3 -27 -9 -48q-4 -10 -7.5 -20.5t-7.5 -20.5v1l-20 -44q-3 -8 -7 -17.5
t-7 -17.5l1 1q-55 -85 -172 -151v1q-140 -74 -340 -74q-148 0 -232 86q-16 16 -30 37.5t-24 46t-15.5 52t-5.5 54.5q0 104 61 259q54 140 91 153q-3 -15 -5.5 -29.5t-5.5 -29.5q-36 -91 -54.5 -149.5t-18.5 -81.5q0 -137 102 -206q37 -21 90.5 -36.5t110.5 -15.5
q54 0 120 12q7 2 15.5 3t16.5 3q11 0 15 2h-1l18 6l73 23q91 31 135 71.5t44 88.5q0 50 -18 118q-2 9 -4 17.5t-7 16.5l1 -1q-2 9 -5.5 17.5t-8.5 16.5l1 -1q-5 15 -15 34.5t-22 41.5q-11 20 -22.5 39.5t-22.5 39.5q21 38 41.5 75.5t40.5 76.5q7 -11 12 -19t12 -19h-1
q8 -17 17.5 -33.5t17.5 -33.5v1z" />
    <glyph glyph-name="noonfinal" unicode="&#x646;" horiz-adv-x="933" arabic-form="final" 
d="M477 620q-17 -29 -32.5 -56.5t-32.5 -56.5q-42 25 -80.5 48.5t-79.5 48.5q17 29 34 55.5t34 54.5zM958 0h-81q-2 -8 -3.5 -18.5t-3.5 -18.5l-9 -29q-2 -11 -5 -19.5t-7 -16.5q-23 -71 -36 -87q-27 -44 -71.5 -83t-101.5 -70q-72 -36 -157 -55t-183 -19q-71 0 -132 21h1
l-26 11q-18 7 -24 11q-10 7 -23 17.5t-29 24.5q-75 78 -75 189q0 108 62 262q28 69 51 107t40 45q-3 -16 -5.5 -30.5t-5.5 -29.5l-57 -146q-21 -60 -21 -84q0 -140 98 -208q81 -55 209 -55q41 0 99 12.5t140 39.5q198 70 198 162q0 45 -12.5 96t-41.5 104q-17 28 -33 55
t-32 55q17 38 35 77t36 77l20 -35l27 -48h-1l33 -79v1q8 -21 13 -34.5t10 -19.5q14 -20 29.5 -31t32.5 -11h42v-140z" />
    <glyph glyph-name="nooninitial" unicode="&#x646;" horiz-adv-x="533" arabic-form="initial" 
d="M368 967l-34 -60l-34 -60q-42 25 -81 47t-81 47q15 29 31 57.5t31 57.5zM-33 140h440q0 65 -31 137v-1l-15 39q-4 8 -7.5 16t-9.5 18l1 -1l-7 15l-11 20l-10 16l-10 16q8 15 17.5 35.5t17.5 35.5q10 17 20 35.5t20 36.5q5 -8 9.5 -18t10.5 -23q8 -18 17 -37t17 -38v1
q47 -123 47 -199l-1 -27l-1 -19q0 -9 -4 -18q0 -16 -5 -33l-12 -50q-1 -8 -2.5 -16t-2.5 -15l-4 -20l-4 -20q-2 -5 -4 -12.5t-4 -13.5h-472v140z" />
    <glyph glyph-name="noonmedial" unicode="&#x646;" horiz-adv-x="530" arabic-form="medial" 
d="M502 824q-18 -32 -33.5 -61.5t-33.5 -60.5q-42 25 -81.5 48t-81.5 48q15 29 30.5 57t30.5 57zM-23 140h346q14 0 40 110q3 27 6 56t6 55q5 14 28.5 39t64.5 61h-1q8 6 16.5 13.5t16.5 14.5v-43q0 -14 -1.5 -28.5t-4.5 -27.5l-15 -47l-36 -124l-4 -32q0 -21 18 -39l13 -4
l32 -4h52v-140h-75q-32 0 -68 36q-5 5 -10 12t-10 12l-14 38q-11 -23 -23 -49t-23 -49h-354v140z" />
    <glyph glyph-name="hehisolated" unicode="&#x647;" horiz-adv-x="524" arabic-form="isolated" 
d="M371 179q28 24 36 64q0 52 -83 109l-32 19l-49 27l-52 -68q-24 -32 -38.5 -55t-19.5 -36l-6 -36l-3 -22q0 -66 68 -66q15 0 21 2q31 3 54.5 10.5t54.5 24.5h-1q10 3 21.5 9.5t27.5 17.5h1zM463 463q16 -15 37 -53v1l10 -30q1 -8 2.5 -15t2.5 -15q0 -20 -7 -48t-20 -61
q-8 -18 -15 -37t-15 -37h1q-21 -27 -42 -51.5t-38 -42.5q-37 -32 -86 -58.5t-98 -39.5q-8 -2 -17.5 -3t-17.5 -3h1q-8 -1 -19 -1.5t-19 -1.5q-22 1 -43.5 5.5t-35.5 12.5q-33 23 -35 69q2 9 3 20.5t3 21.5l15 48q5 14 11 27t11 27v-1q26 61 60 113q36 59 83.5 124.5
t104.5 137.5q11 -11 31.5 -25.5t53.5 -32.5q66 -36 78 -51z" />
    <glyph glyph-name="hehfinal" unicode="&#x647;" horiz-adv-x="650" arabic-form="final" 
d="M443 275v15l-43 268l-15 -15l-26 -39l-27 -45q-32 -10 -66 -21t-63 -22q-23 -9 -48.5 -23.5t-51.5 -35.5q39 -39 119 -64q41 -13 75.5 -20t64.5 -7zM686 0h-65q-42 0 -70.5 6t-49.5 30q-17 13 -27 36v-1q-3 11 -6.5 22.5t-6.5 22.5v-1q-2 19 -3 40t-3 40q-1 14 -4 24
t-8 14q-32 0 -77 -81q-12 -32 -31 -37q-20 5 -41.5 9t-41.5 9l-39 9q-5 1 -10.5 2t-10.5 2l-27 10q-152 39 -155 74q22 97 72 177q25 42 54.5 70t63.5 44h-1l61 21q23 8 47.5 16t47.5 16q12 3 22 7.5t16 11.5q-3 20 -6 44t-6 44q23 31 45.5 62t45.5 62q17 -146 35.5 -293
t35.5 -293v-21q0 -11 5 -18l-1 1q14 -41 65 -41h74v-140z" />
    <glyph glyph-name="hehinitial" unicode="&#x647;" horiz-adv-x="1012" arabic-form="initial" 
d="M893 136q8 5 9 20q0 14 -12 39.5t-35 60.5q-32 48 -59 73.5t-47 25.5t-60 -57q-9 -18 -13 -34.5t-4 -30.5q0 -49 88 -83l47 -14l53 -9q20 0 33 10v-1zM633 283q0 41 -29 82q-8 10 -17 19.5t-22 20.5l-13 7q-12 6 -28 6q-36 0 -106 -76l-24 -30v1l-38 -45q0 -42 75 -77
q57 -23 93 -23q29 0 70 44q14 17 24 34.5t15 35.5v1zM-45 140h301q23 0 37 60l7 42q3 28 18 49q22 51 47 93.5t52 79.5v-1q9 11 18.5 22t18.5 22q7 7 14.5 13.5t17.5 12.5q-2 2 -5.5 13t-7.5 25q2 40 34 99q5 9 13 22t22 30q2 -1 3.5 -1.5t3.5 -1.5l-1 1l43 -30h-1
q12 -11 25 -22t25 -22l90 -88q29 -26 54 -51.5t48 -51.5q22 -26 40 -48t30 -40q72 -98 72 -162v-11l-2 -19q0 -12 -9 -36q-5 -14 -13.5 -32.5t-22.5 -43.5q-43 -77 -60 -77h-11q-48 0 -71 4l-56 6l-56 6q-8 1 -16.5 2t-16.5 2q-11 2 -22.5 3.5t-22.5 3.5q-50 9 -94 24
q-17 0 -58 -6.5t-98 -18.5q-62 -12 -135 -12h-255v140z" />
    <glyph glyph-name="hehmedial" unicode="&#x647;" horiz-adv-x="734" arabic-form="medial" 
d="M600 290l4 26l2 63v29q-1 6 -2.5 12t-2.5 12q0 16 -20 21q-39 0 -139 -115l-74 -99q-11 -18 -20.5 -38t-21.5 -48l42 5l32 7q37 11 72 28q30 13 61 33.5t63 50.5zM596 -174v7q0 13 -4 28t-21 40q-32 48 -96 70l-20 8l-52 15l-73 8l-30 -1q-13 0 -32 -8q0 -36 44 -101
l18 -20l23 -21q6 -6 20.5 -15t36.5 -22q8 -2 16 -6t15 -7l32 -12l28 -6l34 -4q25 0 59 20zM-24 140h281l45 85q22 47 39 78.5t31 48.5q32 45 62 81.5t59 63.5q58 55 144 87l9 1q11 0 20 -15l-1 1q2 -8 3.5 -15t3.5 -15q1 -9 1.5 -20.5t1.5 -20.5v-11q0 -21 -1 -38.5
t-3 -29.5l-12 -80q-14 -97 -29 -118q-8 -11 -15.5 -22.5t-15.5 -22.5v1l-37 -39h196v-140h-63q-12 -87 -26.5 -143t-30.5 -84q-51 -109 -166 -109q-69 0 -124 28.5t-95 82.5q-27 42 -42.5 88t-15.5 94v43h-219v140z" />
    <glyph glyph-name="wawisolated" unicode="&#x648;" horiz-adv-x="693" arabic-form="isolated" 
d="M619 223q0 49 -31 103q-36 63 -82 63q-20 0 -38 -12v1q-8 -4 -20 -14.5t-24 -22.5q-20 -21 -31 -40.5t-9 -34.5q0 -24 39 -54q40 -25 101 -25l32 1q13 0 27 7q18 4 35 26zM721 205q0 -61 -4.5 -112t-14.5 -91q-8 -42 -25 -85.5t-46 -98.5q-29 -57 -62.5 -102t-74.5 -78
q-39 -33 -79 -50q-36 -18 -71 -18q-54 0 -113.5 9t-124.5 28q-122 33 -133 57q2 2 7.5 4.5t11.5 5.5q7 0 13 -0.5t13 -0.5q7 -2 14 -3.5t15 -3.5q48 -11 85 -17.5t54 -6.5h14l19 2q14 0 20 2q2 2 6.5 3.5t6.5 2.5q63 22 132 68t141 115q145 142 145 256q0 29 -5.5 54
t-15.5 46q-20 -45 -39.5 -75.5t-45.5 -53.5h1q-5 -3 -11 -6.5t-11 -6.5v1q-5 -2 -11.5 -4.5t-11.5 -4.5q-10 -1 -18.5 -2t-18.5 -2h-24l-10 2q-51 0 -82 54q-32 55 -32 132q0 71 83 201q83 129 139 129q41 0 98 -109q66 -123 66 -241z" />
    <glyph glyph-name="wawfinal" unicode="&#x648;" horiz-adv-x="687" arabic-form="final" 
d="M595 151q6 6 8 25q0 36 -23 80v-1q-33 82 -103 91q-17 0 -36 -13t-37 -33q-18 -21 -30.5 -43t-17.5 -39q20 -39 84 -58q37 -8 64.5 -12t45.5 -4q38 0 45 7zM732 0h-67q0 -107 -104 -262q-57 -89 -117 -132.5t-122 -43.5q-5 0 -9 0.5t-9 0.5l-27 3q-8 2 -17.5 3.5
t-17.5 3.5q-38 7 -131 36q-155 43 -155 68q0 3 18 11q8 0 18 -1.5t22 -5.5l51 -15l69 -16q33 -6 55 -6q57 0 116 28t133 90q70 58 114 118t64 120h-52l-45 1l-39 1l-30 1q-9 0 -29 7q-23 4 -44 16t-37 30.5t-25 44t-9 57.5q0 94 71 218q72 124 128 124q24 0 51.5 -22.5
t53.5 -63.5q32 -54 48.5 -123t16.5 -151h57v-140z" />
    <glyph glyph-name="alefmaksuraisolated" unicode="&#x649;" horiz-adv-x="1060" arabic-form="isolated" 
d="M1027 558q-4 -15 -7 -29t-7 -29q-6 8 -16.5 16.5t-26.5 16.5l-23 8l-30 6q-35 0 -65.5 -10t-64.5 -36q-35 -24 -67 -54t-60 -65q-55 -70 -64 -115q0 -27 59 -64q21 -10 112 -31q153 -21 175 -34q20 -6 23 -37q0 -16 -1.5 -32t-4.5 -30q-2 -9 -4.5 -19t-4.5 -19l-12 -30
q-7 -20 -13 -35.5t-14 -27.5q-6 -16 -24 -38q-11 -9 -22.5 -19t-22.5 -19l-49 -36q-10 -6 -22 -14t-22 -14q-14 -8 -28 -15.5t-28 -15.5v1q-26 -14 -57 -25t-66 -21q-17 -4 -35.5 -8t-35.5 -8q-21 -4 -42.5 -8t-43.5 -8h1l-25 -2l-43 -2q-132 0 -215 44q-121 64 -121 205
q0 21 0.5 42.5t0.5 41.5q2 19 4 39t4 39q2 14 4.5 31t4.5 31l7 33q3 19 4 20q3 7 6 16v-1q14 32 27.5 63t28.5 63q0 -1 4 -15l-31 -145q-8 -42 -12.5 -69.5t-4.5 -42.5v-24q0 -14 5 -21l-1 1q29 -131 151 -175q69 -24 239 -24l62 3l33 3q8 2 16.5 3.5t16.5 3.5q35 6 70 16
t68 24h-1q124 41 163 91q0 59 -176 74q-38 0 -73 5.5t-56 19.5q-19 11 -32 29.5t-19 41.5q2 73 36.5 164.5t97.5 187.5q72 106 148 161.5t152 55.5q43 0 65 -13q12 -5 28 -46z" />
    <glyph glyph-name="alefmaksurafinal" unicode="&#x649;" horiz-adv-x="1047" arabic-form="final" 
d="M1055 0h-21l-43 -2l-29 -62q-6 -14 -15.5 -34t-23.5 -44q-35 -68 -66 -110t-58 -57v1q-20 -8 -41.5 -19t-40.5 -19q-17 -7 -33 -14.5t-33 -14.5h1l-84 -28l-38 -10q-11 -3 -23 -6t-23 -6q-41 -8 -80 -12.5t-73 -4.5q-72 0 -130 14.5t-103 41.5q-105 70 -105 206v34
q1 8 1.5 18.5t1.5 18.5l6 39q1 5 2 9t2 9l7 24q10 38 26 77t39 83q29 59 52.5 93t38.5 45l-5 -28q-1 -9 -2.5 -20t-2.5 -20l-71 -172q-25 -65 -25 -91q0 -136 127 -199q37 -16 91 -23.5t124 -7.5q109 0 170 11q75 9 140 37h-1q17 7 33.5 14.5t33.5 17.5l18 9q4 2 8.5 5.5
t8.5 5.5v-1q12 7 40 29q0 56 -41 94q-13 9 -33.5 18t-47.5 17l-53 7q-13 1 -29 1.5t-29 1.5l-91 15q7 14 19.5 34.5t28.5 45.5l30 46q104 5 212 11.5t212 11.5h21v-140z" />
    <glyph glyph-name="yehisolated" unicode="&#x64a;" horiz-adv-x="1117" arabic-form="isolated" 
d="M775 -635q-17 -28 -33 -54.5t-33 -53.5l-162 96q-12 -21 -27 -45t-27 -45q-43 25 -83 48t-82 48q17 30 32.5 57t32.5 56l164 -97q12 20 26.5 44t26.5 45zM1086 593l-15 -47q-3 -12 -6.5 -23t-7.5 -23q-6 8 -16.5 16.5t-25.5 16.5l-24 8l-30 6q-25 0 -67 -12
q-15 -6 -32 -14.5t-32 -19.5q-35 -23 -68 -54.5t-65 -69.5q-57 -75 -57 -111q0 -25 57 -61q44 -19 117 -35q38 -5 77.5 -10t77.5 -10q78 -17 78 -55q0 -59 -31 -137v1l-50 -99h1q-45 -64 -227 -135q-182 -69 -380 -69q-111 0 -205 51v-1q-131 76 -131 245q0 142 36 282
q34 138 71 138q4 0 7 -5.5t5 -10.5l-48 -165l-15 -72l-5 -65q0 -131 149 -201q123 -46 271 -46q66 0 137 12t140 34q72 22 120 45t68 46q0 29 -52 49t-149 29q-92 10 -142 34.5t-50 65.5q0 75 34 164t100 189q72 106 148 161.5t152 55.5q43 0 69 -15q3 -2 23 -46z" />
    <glyph glyph-name="yehfinal" unicode="&#x64a;" horiz-adv-x="1027" arabic-form="final" 
d="M667 -675q-14 -26 -28.5 -52t-29.5 -52l-151 85q-11 -19 -23 -39t-23 -40l-156 87q17 28 32.5 55.5t31.5 54.5l163 -102q11 20 22.5 42.5t22.5 43.5zM1063 0h-18l-54 -2l-29 -62q-6 -14 -15.5 -34t-23.5 -44q-35 -68 -66 -110t-58 -57v1q-20 -8 -41.5 -19t-40.5 -19
q-17 -7 -33 -14.5t-33 -14.5h1l-84 -28l-38 -10q-11 -3 -23 -6t-23 -6q-41 -8 -80 -12.5t-73 -4.5q-72 0 -130 14.5t-103 41.5q-105 70 -105 206v34q1 8 1.5 18.5t1.5 18.5l6 39q1 5 2 9t2 9l7 24q10 38 26 77t38 83q30 59 53.5 93t38.5 45l-5 -28q-1 -9 -2.5 -20t-2.5 -20
l-71 -172q-25 -65 -25 -91q0 -136 127 -199q37 -16 91 -23.5t124 -7.5q109 0 170 11q75 9 140 37h-1q17 7 33.5 14.5t33.5 17.5l18 9q4 2 8.5 5.5t8.5 5.5v-1q12 7 40 29q0 56 -41 94q-13 9 -33.5 18t-47.5 17l-53 7q-13 1 -29 1.5t-29 1.5l-91 15q7 14 19.5 34.5t28.5 45.5
q7 11 14.5 23t14.5 23q38 2 74.5 4t73.5 4q29 0 61 1.5t63 5.5q35 2 69.5 4t69.5 4h43v-140z" />
    <glyph glyph-name="yehinitial" unicode="&#x64a;" horiz-adv-x="541" arabic-form="initial" 
d="M441 -298q-17 -29 -33.5 -55.5t-33.5 -55.5l-164 98q-12 -22 -25.5 -45t-25.5 -45q-43 25 -83 47t-82 47q17 30 33.5 58.5t33.5 57.5l163 -101q12 21 26.5 45t26.5 45zM-33 140h440q0 65 -31 137v-1l-15 39q-4 8 -7.5 16t-9.5 18l1 -1l-7 15l-11 20l-10 16l-10 16
q8 15 17.5 35.5t17.5 35.5q10 17 20 35.5t20 36.5q5 -8 9.5 -18t10.5 -23q8 -18 17 -37t17 -38v1q47 -123 47 -199l-1 -27l-1 -19q0 -9 -4 -18q0 -16 -5 -33l-12 -50q-1 -8 -2.5 -16t-2.5 -15l-4 -20l-4 -20q-2 -5 -4 -12.5t-4 -13.5h-472v140z" />
    <glyph glyph-name="yehmedial" unicode="&#x64a;" horiz-adv-x="567" arabic-form="medial" 
d="M561 -270q-17 -29 -33 -57t-32 -57l-168 96q-12 -21 -26.5 -44t-27.5 -44q-43 25 -84.5 48.5t-84.5 48.5q17 32 35 61.5t35 60.5l179 -114q12 24 25.5 49.5t26.5 48.5zM-23 140h452q-7 53 -14.5 108.5t-14.5 108.5l10 18l10 18h-1l12 21q1 2 6 7q41 66 66 91
q7 -11 7 -113l4 -106l4 -106q0 -47 28 -47h44v-140h-109q-8 0 -11 6l1 -1l-8 19q-4 7 -8 16t-8 16h1q-12 28 -25 33l-12 -13l-25 -31q-11 -18 -18.5 -29.5t-11.5 -15.5h-379v140z" />
    <glyph glyph-name=".notdef" horiz-adv-x="1024" 
d="M128 0v1450h768v-1450h-768zM256 128h512v1194h-512v-1194z" />
    <glyph glyph-name=".null" horiz-adv-x="0" 
 />
    <glyph glyph-name="nonmarkingreturn" horiz-adv-x="682" 
 />
    <glyph glyph-name="space" unicode=" " horiz-adv-x="500" 
 />
    <glyph glyph-name="exclam" unicode="!" horiz-adv-x="614" 
d="M373 238q79 0 117 -72q14 -30 14 -60q0 -81 -72 -118q-29 -15 -59 -15q-81 0 -119 74q-14 30 -14 59q0 77 69 115q32 17 64 17zM406 356h-74v66l-10 176q-11 106 -21 164l-45 268l-24 156v28q0 207 147 207q115 0 141 -125v-2l7 -61q0 -31 -7.5 -82.5t-21.5 -126.5
l-58 -279l-20 -143q-5 -43 -8.5 -80t-5.5 -69v-33v-64z" />
    <glyph glyph-name="quotedbl" unicode="&#x22;" horiz-adv-x="778" 
d="M234 911l-57 346l-2 29q-2 2 -2 25q0 94 69 108q5 1 10.5 1.5t10.5 0.5q67 0 82 -69l2 -2l2 -29l-2 -31v-2l-4 -26l-64 -351h-45zM605 911l-58 346l-2 29q-2 2 -2 25q0 95 70 108h2q5 1 9.5 1.5t8.5 0.5q68 0 82 -69l2 -2l3 -29l-3 -31v-2l-4 -26l-63 -351h-45z" />
    <glyph glyph-name="numbersign" unicode="#" 
d="M990 831l-41 -272h206v-117h-223l-67 -442h-123l67 442h-268l-65 -442h-123l65 442h-217v117h236l41 272h-226v117h242l63 416h123l-63 -416h268l62 416h122l-61 -416h199v-117h-217zM867 831h-267l-40 -272h266z" />
    <glyph glyph-name="dollar" unicode="$" 
d="M637 1620h76v-250q206 -17 319 -98q133 -94 136 -209q0 -92 -80 -119l-2 -2l-45 -6q-85 0 -107 76l-4 39v16l2 16l4 35v6q0 109 -143 148l-80 14v-471l184 -33q97 -19 152 -43q198 -82 200 -288q0 -222 -229 -336q-126 -64 -307 -80v-260h-76v260q-530 51 -532 330
q0 104 84 139q28 12 61 12q84 0 113 -74q4 -10 6.5 -23t3.5 -30l-8 -67l-6 -60q0 -125 278 -143v504q-376 53 -467 202q-37 61 -37 150q0 206 193 315q128 74 311 80v250zM637 1286h-20q-39 0 -90 -12q-28 -7 -52.5 -16.5t-44.5 -20.5q-88 -51 -100 -150q-1 -5 -1.5 -10.5
t-0.5 -11.5q0 -109 92 -166l4 -2l29 -16q17 -10 37 -17t43 -12q12 -3 26 -5.5t31 -4.5l47 -8v452zM713 608v-489q215 6 303 133q39 55 39 127q0 126 -154 184l-75 23z" />
    <glyph glyph-name="percent" unicode="%" horiz-adv-x="567" 
d="M197 762h-166v167h166v-167zM520 929l-411 -966h-93l411 966h93zM508 -51h-167v166h167v-166z" />
    <glyph glyph-name="ampersand" unicode="&#x26;" horiz-adv-x="1638" 
d="M1616 938v-61l-33 -7q-103 -22 -139 -67q-23 -34 -41 -96l-27 -101l-8 -28q-37 -137 -92 -232l-27 -43q76 -110 137 -162q80 -65 207 -65l66 2v-78h-199q-137 0 -182 18l-2 2l-39 19q-19 11 -35 24t-29 27q-11 13 -23.5 30t-25.5 38q-96 -84 -176 -125q-116 -60 -268 -60
h-17q-208 7 -346 105q-135 94 -170 254q-5 20 -6 41q-1 8 -1.5 17t-0.5 20q0 161 135 290l27 23q65 56 166 90q14 5 31 10.5t36 12.5q-143 131 -143 290q0 146 137 232q100 63 230 63q173 0 262 -116q47 -68 47 -148q0 -147 -148 -252q-61 -46 -137 -69q76 -58 410 -430
l-244 282q66 -66 126.5 -136.5t117.5 -145.5q94 166 98 342q0 70 -47 96q-14 7 -35 13t-49 13l-35 7v61h492zM713 899l61 27l4 2l10 6q101 57 129 178l7 59q0 106 -93 150q-39 18 -84 18q-104 0 -153 -90l-2 -2q-19 -37 -21 -86q0 -41 13 -76q24 -80 129 -186zM594 770
q-245 -72 -246 -324q0 -219 156 -321q88 -57 207 -57q206 0 362 165l8 11q-119 174 -243 309q-63 69 -123.5 122t-120.5 95z" />
    <glyph glyph-name="quotesingle" unicode="'" horiz-adv-x="450" 
d="M212 975l-23 45l19 12q100 70 108 176q-28 -22 -47 -26q-10 -2 -16 -2q-80 0 -105 73l-6 43q0 73 68 111q31 14 59 14q84 0 125 -84q19 -37 19 -84q0 -158 -158 -256z" />
    <glyph glyph-name="parenleft" unicode="(" horiz-adv-x="645" 
d="M538 -224q-59 30 -108 64t-88 73q-57 59 -101.5 128t-75.5 150q-64 158 -64 331q0 126 31 240t92 217q60 101 138.5 174.5t175.5 117.5v-18q-99 -58 -163.5 -154t-96.5 -243q-17 -75 -24.5 -152t-7.5 -158q0 -85 7 -166.5t20 -151.5q10 -54 22.5 -100t28.5 -80
q15 -33 37 -68t45 -64q24 -29 57.5 -60t74.5 -59v-21z" />
    <glyph glyph-name="parenright" unicode=")" horiz-adv-x="625" 
d="M102 1232q59 -30 108 -64t88 -73q57 -59 101.5 -128t75.5 -150q64 -158 64 -331q0 -126 -31 -240t-92 -217q-60 -101 -138.5 -174.5t-175.5 -117.5v18q99 58 163.5 154t96.5 243q17 75 24.5 152t7.5 158q0 85 -7 166.5t-20 151.5q-10 54 -22.5 100t-28.5 80
q-15 33 -37 68t-45 64q-24 29 -57.5 60t-74.5 59v21z" />
    <glyph glyph-name="asterisk" unicode="*" horiz-adv-x="901" 
d="M511 738l-61 160q-16 39 -16 64q0 29 16.5 46.5t45.5 23.5l19 2q61 0 76 -45l-1 2l4 -23q-1 -14 -4.5 -32t-11.5 -38l-55 -158l55 -40l108 133q24 33 45 45q19 12 39 12q44 0 71 -57q8 -14 8 -36q0 -27 -26.5 -46t-74.5 -29l-160 -31l-11 -66q19 -3 40.5 -7t44 -7.5
t44.5 -7t41 -6.5q48 -8 74 -27t26 -46q0 -57 -48 -85q-15 -10 -31 -10q-10 0 -27 7q-1 0 -1.5 0.5t-1.5 0.5h1q-25 9 -56 49l-110 126l-61 -26q14 -35 30.5 -80t29.5 -81q8 -20 13 -38.5t5 -27.5q0 -28 -15.5 -44.5t-42.5 -22.5l-21 -2q-63 0 -78 47l1 -3q-1 5 -2.5 10.5
t-2.5 10.5q1 11 5 30t12 40l54 158l-55 41l-108 -133h1q-29 -36 -53 -49h1q-13 -8 -32 -8q-45 0 -69 52q-10 19 -10 40q0 58 100 75l161 32l11 66q-19 3 -41 6.5t-44.5 7.5t-44.5 7.5t-41 6.5q-48 8 -73.5 26t-25.5 46q0 59 48 85q14 10 33 10l10 -2q14 -2 33 -16.5
t41 -38.5l108 -126z" />
    <glyph glyph-name="plus" unicode="+" horiz-adv-x="875" 
d="M365 414v266h107v-266h267v-107h-267v-268h-107v268h-267v107h267z" />
    <glyph glyph-name="comma" unicode="," horiz-adv-x="383" 
d="M118 -175q38 28 70 65t48.5 73t14.5 66.5t-31 44.5l-2 -1q-8 -7 -15.5 -11.5t-14.5 -8.5l-2 -2q-4 -2 -5 -3q-5 -2 -8.5 -3.5t-6.5 -3.5l-5 -1h-1q-2 -1 -12 -1q-7 0 -13 1t-11 3q-3 1 -7 3q-1 1 -2 1q-3 2 -5.5 4t-5.5 4q-4 4 -5 6q-1 1 -1.5 2t-1.5 2t-3 5q-3 4 -7 14
l-8 38v3q0 5 0.5 8.5t1.5 7.5q0 4 2 12q1 2 1 3l1 2q0 2 1 3q0 2 2 6q1 2 1.5 3.5t1.5 3.5q2 4 6 10q3 6 8 11l6 6q3 3 6 5q2 1 2.5 1.5t2.5 1.5q2 2 4.5 3.5t5.5 2.5q1 1 1 11t1 10v-20q2 2 5 2.5t5 1.5q1 1 3 1l5 2h3q2 1 5 1q5 1 15 1h13l9 -2q11 -2 20 -6l6 -3
q1 -1 5 -3q1 -1 5 -3q1 -1 2 -1.5t3 -2.5q18 -15 30 -39l4 -11v1l2 -3q2 -8 3 -11l7 -25l1 -10q1 -2 1 -8q0 -1 0.5 -1.5t0.5 -2.5v-33q0 -5 -1 -8v-5q-6 -37 -22 -74t-38 -70t-49.5 -60t-56.5 -45z" />
    <glyph glyph-name="hyphenminus" unicode="-" horiz-adv-x="821" 
d="M739 414v-107h-641v107h641z" />
    <glyph glyph-name="period" unicode="." horiz-adv-x="375" 
d="M210 134l10 -24l6 -28q0 -45 -32 -70l-24 -11l-31 -5q-48 0 -70 28q-10 18 -20 58q0 51 35 73q16 12 53 16q45 0 73 -37z" />
    <glyph glyph-name="slash" unicode="/" horiz-adv-x="878" 
d="M741 985l-460 -1057h-89l457 1057h92z" />
    <glyph glyph-name="zero" unicode="0" 
d="M680 1421q269 0 426 -229q135 -200 135 -504q0 -351 -190 -553q-152 -162 -371 -162q-264 0 -420 228q-137 200 -137 501l2 54q17 268 156 461l41 51q126 135 319 151q9 1 18.5 1.5t20.5 0.5zM688 1323q-153 0 -237 -133l-2 -2l-27 -53q-49 -120 -70 -304
q-4 -40 -6 -77.5t-2 -73.5q0 -216 49 -369q54 -169 193 -221q46 -18 98 -18q134 0 223 116q16 19 27.5 40t19.5 44q66 163 66 430q0 357 -109 502q-84 119 -223 119z" />
    <glyph glyph-name="one" unicode="1" 
d="M943 1395v-1110q0 -144 43 -181q35 -32 142 -38l65 -5v-61h-698v61l67 5q107 6 160 59q27 27 27 164v784q0 129 -35 162q-33 27 -135 31l-82 4v61l190 25q19 3 66 12.5t125 26.5l-119 -27l119 27h65z" />
    <glyph glyph-name="two" unicode="2" 
d="M1180 383l-99 -383h-995v143q207 124 324 219q85 70 165 156l29 31q245 272 246 502q0 166 -129 237q-42 25 -103 31l-47 4q-145 0 -237 -86q-50 -47 -51 -102l4 -35q1 -3 2 -5.5t2 -4.5l35 -50l18 -36l6 -29q0 -62 -61 -96q-27 -15 -56 -15q-81 0 -120 86q-8 19 -13 40
t-6 46q0 164 158 281q146 104 336 104q266 0 407 -155q90 -99 97 -244q0 -261 -359 -563l-37 -31l-32 -25q-51 -38 -137 -96t-214 -139h465q154 0 213 47q33 27 62 82l28 59l21 47z" />
    <glyph glyph-name="three" unicode="3" 
d="M494 717v92l102 -4h12q154 4 244 82q57 51 76 186l-2 -35l2 35q0 162 -137 227q-64 29 -144 29q-149 0 -221 -78q-31 -31 -31 -73v-11l25 -61l10 -49q0 -60 -63 -88q-25 -11 -50 -11q-77 0 -108 76q-10 23 -10 56l2 32q20 127 151 215q123 84 307 84q262 0 402 -135
q72 -69 86 -160q1 -9 1.5 -18.5t0.5 -20.5v-18q-10 -119 -117 -205q-31 -23 -71.5 -42.5t-94.5 -33.5q-8 -2 -17 -4.5t-20 -5.5l-10 -2l-10 -2l76 -16q85 -21 139 -49q4 -2 10 -7q5 -4 15 -8l4 -2q143 -85 166 -246q1 -10 1.5 -21t0.5 -24q0 -204 -193 -325
q-160 -103 -397 -103q-231 0 -379 105q-115 82 -127 190l-2 21q0 88 70 127q26 14 55 14q82 0 106 -72l9 -43v-20l-15 -49l-4 -23q0 -19 12 -41q21 -37 58 -61q85 -55 225 -55q242 0 320 176q30 67 30 155q0 157 -92 246l-2 2l-12 10q-77 60 -246 72l33 -2l-33 2z" />
    <glyph glyph-name="four" unicode="4" 
d="M944 1395v-897h311l-45 -117h-266v-86q0 -119 18 -164q29 -59 113 -65l67 -5v-61h-592v61l68 5q84 6 113 65q18 39 18 164v86h-641l-31 84l322 428l313 453l37 49h195zM749 498v723l-184 -256l-183 -250l-127 -172l-32 -45h526z" />
    <glyph glyph-name="five" unicode="5" 
d="M1127 1468l-35 -241h-700v-410q71 57 133 86q89 43 217 43q270 0 414 -172q75 -89 96 -207q6 -39 6 -84q0 -254 -197 -397q-155 -113 -381 -113q-258 0 -403 123q-90 77 -92 178q0 80 67 117q27 15 58 15q72 0 106 -64q13 -25 13 -51v-8l-19 -68l-2 -22q0 -64 103 -103
q63 -24 141 -24q218 0 319 165q56 95 56 222q0 232 -164 327q-80 47 -189 47q-144 0 -239 -92q-19 -17 -37.5 -39.5t-38.5 -48.5l-6 -8l-88 20v736h618q103 0 133 30l19 21q3 5 6.5 10.5t7.5 11.5h78z" />
    <glyph glyph-name="six" unicode="6" 
d="M362 682q136 184 332 205q17 2 34 3t34 1q246 0 387 -162q106 -121 106 -289q0 -211 -176 -348q-155 -119 -373 -119q-235 0 -389 150q-13 14 -25.5 27.5t-23.5 27.5q-129 175 -129 473q0 272 105 469q106 195 321 269q94 32 191 32q211 0 348 -108q90 -70 92 -156
q0 -70 -68 -94l-39 -6q-90 0 -118 94q-11 35 -11 68q-2 39 -20 57q-65 63 -191 63q-313 0 -370 -442l-6 -43l-2 -35zM715 784q-206 0 -291 -168q-43 -82 -43 -200q0 -229 164 -312q72 -32 157 -32q197 0 281 164q41 84 41 194q0 219 -146 309q-71 45 -163 45z" />
    <glyph glyph-name="seven" unicode="7" 
d="M1246 1395l16 -129q-72 -81 -135 -168.5t-123 -184.5q-32 -54 -65.5 -113t-67.5 -126q-67 -138 -102 -250q-55 -172 -78 -424h-264q37 215 145 449q193 424 541 778h-537q-154 0 -213 -35q-4 -2 -7.5 -4t-6.5 -4l-11 -8q-44 -35 -69 -99l-2 -2l-17 -45h-65l65 365h996z
" />
    <glyph glyph-name="eight" unicode="8" 
d="M873 791q100 -37 152 -62q32 -17 60 -36.5t53 -41.5l4 -4q98 -89 98 -231q0 -204 -182 -332q-158 -111 -385 -111q-273 0 -428 146q-109 102 -109 239v21q7 124 100 217q60 58 156 96l88 29l-106 49q-52 27 -86 66q-78 85 -78 204q0 193 174 301q131 80 311 80
q271 0 408 -137l2 -2q78 -80 78 -186q0 -128 -103 -213l-10 -9q-51 -37 -125 -63zM617 872l152 -47q190 43 235 187q11 38 11 75q0 138 -125 209q-76 43 -172 43q-181 0 -275 -108q-53 -62 -53 -137q0 -150 227 -222zM816 610l-235 74q-240 -94 -263 -283l-2 -45
q0 -178 164 -258q86 -43 209 -43q207 0 311 123q60 70 60 160q0 194 -244 272z" />
    <glyph glyph-name="nine" unicode="9" 
d="M1005 735q-31 -54 -60 -88q-31 -42 -82 -74q-108 -69 -264 -69q-246 0 -385 162q-88 103 -98 245q-1 19 -1.5 28t-0.5 114t176 245q154 123 371 123q236 0 391 -153q55 -55 88 -123q78 -168 78 -414q0 -268 -86 -446q-111 -227 -361 -291q-80 -21 -168 -21
q-204 0 -340 105q-89 67 -90 147q0 68 60 94q19 9 41 9q73 0 112 -74l8 -23l9 -59q2 -34 38 -63l-14 10l14 -10q53 -35 144 -41l31 -2q215 0 311 188l14 31q55 131 64 401v49zM667 1329q-194 0 -283 -158l-2 -2q-47 -86 -47 -202q0 -226 149 -318q74 -47 170 -47
q200 0 283 170q43 85 43 205q0 227 -156 313q-68 39 -157 39z" />
    <glyph glyph-name="colon" unicode=":" horiz-adv-x="536" 
d="M259 748q54 0 83 -53q13 -24 13 -45q0 -57 -51 -86q-27 -12 -48 -12q-59 0 -87 54v-1q-5 12 -8 22.5t-3 22.5q0 60 56 87q20 11 45 11zM259 199q54 0 83 -54q13 -24 13 -45q0 -59 -55 -87q-11 -5 -22 -8.5t-22 -3.5q-58 0 -86 53q-12 22 -12 48q0 58 56 85q19 12 45 12z
" />
    <glyph glyph-name="semicolon" unicode=";" horiz-adv-x="655" 
d="M479 771q-38 -28 -70 -65t-48.5 -73t-14.5 -66.5t31 -44.5l2 1q8 7 15.5 11.5t14.5 8.5l2 2q4 2 5 3q5 2 8.5 3.5t6.5 3.5l5 1h1q2 1 12 1q7 0 13 -1t11 -3q3 -1 7 -3q1 -1 2 -1q3 -2 5.5 -4t5.5 -4q4 -4 5 -6q1 -1 1.5 -2t1.5 -2t3 -5q3 -4 7 -14l8 -38v-3
q0 -5 -0.5 -8.5t-1.5 -7.5q0 -4 -2 -12q-1 -2 -1 -3l-1 -2q0 -2 -1 -3q0 -2 -2 -6q-1 -2 -1.5 -3.5t-1.5 -3.5q-2 -4 -6 -10q-3 -6 -8 -11l-6 -6q-3 -3 -6 -5q-2 -1 -2.5 -1.5t-2.5 -1.5q-2 -2 -4.5 -3.5t-5.5 -2.5q-1 -1 -2 -1q-2 -2 -5 -2.5t-5 -1.5q-1 -1 -3 -1l-5 -2h-3
q-2 -1 -5 -1q-5 -1 -15 -1h-13l-9 2q-11 2 -20 6l-6 3q-1 1 -5 3q-1 1 -5 3q-1 1 -2 1.5t-3 2.5q-18 15 -30 39l-4 11v-1l-2 3q-2 8 -3 11l-7 25l-1 10q-1 2 -1 8q0 1 -0.5 1.5t-0.5 2.5v33q0 5 1 8v5q6 37 22 74t38 70t49.5 60t56.5 45zM414 46q-53 0 -82 53q-14 23 -14 45
q0 57 52 86q25 12 47 12q58 0 87 -54v1q5 -12 8 -22.5t3 -22.5q0 -60 -56 -87q-20 -11 -45 -11z" />
    <glyph glyph-name="less" unicode="&#x3c;" horiz-adv-x="1228" 
d="M151 737l1043 490v-178l-826 -385l826 -388v-176l-1043 490v147z" />
    <glyph glyph-name="equal" unicode="=" horiz-adv-x="932" 
d="M804 549v-122h-701v122h701zM804 301v-124h-701v124h701z" />
    <glyph glyph-name="greater" unicode="&#x3e;" horiz-adv-x="1228" 
d="M1191 737v-147l-1043 -490v176l826 388l-826 385v178z" />
    <glyph glyph-name="question" unicode="?" horiz-adv-x="1105" 
d="M511 238q76 0 113 -70q16 -25 16 -62q0 -80 -71 -118q-26 -14 -60 -15q-81 0 -119 74q-14 30 -14 59q0 79 72 117q31 15 63 15zM556 356h-92q-2 40 -3 59t-1 17v14q0 134 66 203q4 5 8.5 10t11.5 11h2l4 4l49 37l117 80q140 96 141 268q0 213 -180 266q-35 11 -76 12
l-34 2q-168 0 -252 -88l-2 -2q-37 -37 -37 -86l2 -24l16 -41q10 -22 16.5 -41t8.5 -35v10v-10q0 -57 -62 -86q-23 -12 -49 -12q-83 0 -114 82v2q-13 26 -13 65q0 37 13 72q32 94 129 170q110 86 299 102l65 4l43 -2q160 -10 287 -86q129 -78 158 -233q2 -14 3 -29t1 -31
l-2 -26q-9 -113 -76 -201q-68 -80 -199 -125l-67 -24q-125 -48 -158 -138q-25 -56 -23 -170z" />
    <glyph glyph-name="at" unicode="@" horiz-adv-x="1679" 
d="M1138 1118h148l-96 -520l-11 -86q0 -57 52 -76h2l22 -4q45 0 94 37q40 31 78 78q88 118 88 268q0 221 -180 377q-176 149 -422 149q-264 0 -453 -186q-191 -182 -192 -446q0 -270 190 -457q187 -186 453 -186l86 6q225 28 373 161l4 5l20 20q29 29 52 61l41 66h94
l-33 -66q-30 -61 -74 -106l-14 -14q-170 -174 -428 -215q-23 -5 -44.5 -7.5t-43.5 -3.5h-33q-300 0 -514 201q-213 202 -227 490v36q0 294 204 506q207 211 504 228h39q289 0 492 -183q192 -176 194 -424q0 -187 -121 -329q-77 -92 -182 -140q-68 -30 -125 -30
q-82 0 -125 82q-20 43 -20 90v22q-137 -188 -322 -194q-164 0 -237 135q-37 67 -37 160q0 218 151 372q133 138 308 138q142 0 231 -95zM1112 971l-8 8q-68 78 -177 78q-149 0 -252 -162q-49 -76 -73 -190q-15 -65 -15 -121q0 -129 91 -168q25 -13 59 -13q35 0 78 17
q96 38 164 135l4 6q56 86 90 223q4 19 8.5 40t9.5 46q7 33 15 72z" />
    <glyph glyph-name="A" unicode="A" horiz-adv-x="1392" 
d="M759 1395l434 -1098q19 -48 33.5 -81.5t25.5 -53.5q39 -68 111 -86h2q11 -3 25.5 -6t33.5 -7v-63h-575v63l59 11q45 8 60 20q41 25 43 72q0 25 -19 78l-4 10l-102 264h-529l-65 -176q-39 -98 -39 -152q0 -60 51 -94q25 -13 82 -24l49 -9v-63h-549v63l23 5q96 18 145 79
l8 11q26 34 64.5 117t89.5 217l352 903h191zM388 606h461l-234 615z" />
    <glyph glyph-name="B" unicode="B" horiz-adv-x="1515" 
d="M63 1395h721q292 0 426 -78q121 -71 146 -205q2 -10 3 -22.5t1 -26.5q0 -127 -98 -201l-19 -14q-11 -8 -22.5 -15.5t-24.5 -13.5q-17 -8 -38.5 -15.5t-47.5 -15.5q-17 -6 -47 -12l82 -20l2 -2h2q58 -19 100 -41l33 -21q149 -92 156 -280q0 -162 -117 -273l-2 -2l-35 -28
q-148 -109 -473 -109h-748v63l52 7q92 12 114 73h2q17 48 17 152v805q0 155 -47 194q-25 21 -68 29q-4 0 -8.5 0.5t-9.5 1.5l-52 6v64zM453 805h237q344 0 428 123v2l2 2q31 49 31 125q0 258 -422 258q-194 0 -240 -43l-4 -4h-2q-30 -35 -30 -127v-336zM453 717v-402
q0 -131 24 -165q43 -66 242 -66q257 0 373 86q104 78 114 229v23q0 182 -139 254l-14 6q-85 35 -359 35h-241z" />
    <glyph glyph-name="C" unicode="C" horiz-adv-x="1515" 
d="M1342 1376l99 -493h-66l-98 170l-10 16l-2 2v2l-17 25q-121 174 -311 215q-39 10 -88 10q-213 0 -348 -195q-123 -176 -123 -436q0 -290 145 -450l4 -4q103 -115 262 -154q52 -12 101 -12q69 0 147 24q110 35 191 97l16 12q23 19 44 38.5t40 41.5q16 17 32.5 39.5
t35.5 50.5l88 -49q-226 -351 -625 -353q-315 0 -522 211q-201 202 -201 506q0 301 193 506q135 146 481 225l-150 -22q75 22 150 22q250 0 416 -127l6 -4l43 86h67z" />
    <glyph glyph-name="D" unicode="D" horiz-adv-x="1638" 
d="M280 295v805q0 155 -47 194q-25 21 -68 29q-4 0 -8.5 0.5t-9.5 1.5l-52 6v64h625q412 0 615 -164q16 -14 32 -29q150 -144 193 -385q4 -20 6.5 -40t3.5 -40l2 -51q0 -257 -151 -444q-36 -42 -70 -72q-154 -133 -410 -160q-38 -4 -80.5 -6.5t-91.5 -3.5h-49h-625v63l52 7
q92 12 114 73h2q17 48 17 152zM485 1122v-858q0 -108 28 -135q46 -45 213 -45q318 0 473 192q131 164 131 424q0 234 -112 394q-154 217 -490 217q-170 0 -219 -51q-24 -27 -24 -138z" />
    <glyph glyph-name="E" unicode="E" horiz-adv-x="1474" 
d="M1265 1395l141 -369l-65 -27q-31 37 -60 68t-57 57q-163 154 -385 176l-121 7q-171 0 -211 -64q-22 -34 -22 -106v-349h155q139 0 189 62v2q39 51 59 197h70v-613h-70q-19 197 -129 244h-2q-49 20 -121 20h-151v-432q0 -88 26 -123q49 -57 205 -57q267 0 440 119
q19 12 37 26t37 31q87 80 182 201l64 -29l-187 -436h-1194v63l52 7q92 12 114 73h2q17 48 17 152v805q0 155 -47 194q-25 21 -68 29q-4 0 -8.5 0.5t-9.5 1.5l-52 6v64h1170z" />
    <glyph glyph-name="F" unicode="F" horiz-adv-x="1310" 
d="M1224 1395l147 -351l-65 -32l-70 78q-186 188 -422 215l-100 4q-150 0 -195 -45q-34 -34 -34 -156v-320h135q151 0 205 62l20 29q23 46 35 129v4v2l4 30h63v-606h-63l-4 31q-17 106 -53 154q-65 77 -207 77h-135v-405q0 -162 53 -201q26 -18 80 -24l67 -7v-63h-590v63
l52 7q92 12 114 73h2q17 48 17 152v805q0 155 -47 194q-25 21 -68 29q-4 0 -8.5 0.5t-9.5 1.5l-52 6v64h1129z" />
    <glyph glyph-name="G" unicode="G" horiz-adv-x="1638" 
d="M1326 1395l125 -434l-78 -23q-51 72 -104 134.5t-111 119.5l49 -45q-6 4 -10 10l-39 35q-158 131 -324 131q-230 0 -358 -215q-92 -161 -98 -395v-25q0 -328 184 -500q131 -116 309 -116h23q174 7 291 108q19 18 30 31q66 84 66 199q0 125 -86 163l-2 2q-41 20 -113 27
v62h559v-64l-37 -6q-85 -13 -104 -49v-2l-2 -2v-2l-2 -2q-25 -56 -25 -168v-369h-96l-65 141q-35 -26 -68.5 -48.5t-65.5 -39.5l-6 -2q-147 -78 -325 -78q-305 0 -506 211q-201 207 -201 518q0 294 186 500q170 182 418 213q31 4 64 6h18q218 0 400 -125l41 99h63z" />
    <glyph glyph-name="H" unicode="H" horiz-adv-x="1638" 
d="M485 795h733v305q0 155 -47 194q-25 21 -68 29l-18 2l-52 6v64h574v-64l-51 -6q-92 -12 -115 -74q-18 -45 -18 -151v-805q0 -156 47 -195q25 -20 69 -28h2l15 -2l51 -7v-63h-574v63l52 7q92 12 114 73h2q17 48 17 152v412h-733v-412q0 -156 47 -195q25 -20 69 -28l17 -2
l51 -7v-63h-574v63l52 7q92 12 114 73h2q17 48 17 152v805q0 155 -47 194q-25 21 -68 29q-4 0 -8.5 0.5t-9.5 1.5l-52 6v64h574v-64l-51 -6q-92 -12 -115 -74q-18 -45 -18 -151v-305z" />
    <glyph glyph-name="I" unicode="I" horiz-adv-x="696" 
d="M474 1100v-805q0 -152 41 -191q27 -24 92 -34l41 -7v-63h-553v63l41 7q90 13 115 67q19 41 19 158v805q0 151 -41 190q-26 25 -93 35l-41 6v64h553v-64l-41 -6q-90 -14 -114 -68q-19 -41 -19 -157z" />
    <glyph glyph-name="J" unicode="J" horiz-adv-x="1228" 
d="M953 1100v-568q0 -242 -37 -317q-11 -24 -27 -47l-4 -6l-4 -6q-98 -131 -311 -170q-31 -7 -63 -10t-64 -3q-197 0 -332 90q-133 91 -172 240q-1 5 -2 10.5t-2 10.5q-6 28 -6 57q0 120 88 166q31 16 72 16q89 0 108 -76l4 -34q0 -38 -22 -66l-29 -33l-29 -32
q-11 -17 -12 -50q0 -96 117 -157q79 -43 178 -43q200 0 279 127q55 90 63 293q1 73 1.5 109t0.5 499q0 155 -47 194q-25 21 -68 29l-18 2l-51 6v64h573v-64l-51 -6q-92 -12 -115 -74q-18 -45 -18 -151z" />
    <glyph glyph-name="K" unicode="K" horiz-adv-x="1474" 
d="M1568 0h-631v63l37 5q121 10 125 82q0 37 -47 114l-330 527l-237 -211v-285q0 -164 57 -203q27 -18 76 -22l84 -7v-63h-607v63l52 7q92 12 114 73h2q17 48 17 152v805q0 155 -47 194q-25 21 -68 29q-4 0 -8.5 0.5t-9.5 1.5l-52 6v64h607v-64l-84 -6q-92 -8 -117 -82
q-16 -44 -16 -143v-393l360 325l12 10l47 41q105 93 117 129v2l4 31q0 61 -71 78q-20 4 -48 6l-20 2v64h586v-64l-15 -4q-131 -24 -325 -188l-246 -215l389 -635q28 -42 51.5 -73.5t42.5 -53.5q69 -72 199 -101v-61z" />
    <glyph glyph-name="L" unicode="L" horiz-adv-x="1228" 
d="M1320 438l-164 -438h-1061v63l52 7q92 12 114 73h2q17 48 17 152v805q0 155 -47 194q-25 21 -68 29q-4 0 -8.5 0.5t-9.5 1.5l-52 6v64h588v-64l-65 -6q-92 -8 -117 -78q-16 -42 -16 -147v-848q0 -92 24 -123q40 -51 152 -51q66 0 137 18q127 33 240 119l6 4q48 37 80 72
q27 27 61.5 70.5t77.5 103.5z" />
    <glyph glyph-name="M" unicode="M" horiz-adv-x="1884" 
d="M955 0h-92l-469 1274v-979q0 -162 53 -201q26 -18 80 -24l71 -7v-63h-518v63l64 7q92 8 116 77q4 10 6.5 20.5t4.5 22.5l6 105v805q0 155 -47 194q-25 21 -68 29q-4 0 -8.5 0.5t-9.5 1.5l-51 6v64h477l393 -1055l428 1055h467v-64l-51 -6q-92 -12 -115 -74
q-18 -45 -18 -151v-805q0 -156 47 -195q25 -20 69 -28h2l15 -2l51 -7v-63h-574v63l52 7q92 12 114 73h2q17 48 17 152v954z" />
    <glyph glyph-name="N" unicode="N" horiz-adv-x="1515" 
d="M381 1241v-946q0 -162 54 -201q26 -18 79 -24l72 -7v-63h-506v63l51 7q93 12 115 73h2q17 48 17 152v805q0 155 -48 194q-24 21 -67 29l-19 2l-51 6v64h457l668 -1104v809q0 162 -54 200h-2q-25 19 -78 25l-71 6v64h506v-64l-52 -6q-91 -12 -114 -74q-19 -42 -19 -151
v-1100h-180z" />
    <glyph glyph-name="O" unicode="O" horiz-adv-x="1638" 
d="M873 1421q322 0 529 -215q196 -205 196 -514q0 -266 -151 -450q-160 -195 -422 -252q-42 -8 -81.5 -12.5t-78.5 -4.5q-311 0 -520 209t-209 520q0 295 207 504q207 207 508 215h22zM869 1323q-256 0 -391 -217q0 -2 -2 -4q-98 -161 -98 -402q0 -356 194 -524
q125 -104 295 -104q258 0 393 217q97 157 97 391q0 374 -199 543q-2 0 -4 2l-2 2h-2q-117 96 -281 96z" />
    <glyph glyph-name="P" unicode="P" 
d="M485 596v-301q0 -164 57 -203q27 -18 76 -22l76 -7v-63h-599v63l52 7q92 12 114 73h2q17 48 17 152v805q0 155 -47 194q-25 21 -68 29q-4 0 -8.5 0.5t-9.5 1.5l-52 6v64h680q318 0 447 -178q65 -92 65 -213q0 -170 -120 -287l-2 -2q-14 -12 -27 -22.5t-27 -18.5
q-128 -78 -338 -78h-288zM485 684h256q172 0 256 92l2 2l2 2q78 85 78 217q0 136 -78 220q-84 92 -283 92q-172 0 -209 -39q-24 -26 -24 -92v-494z" />
    <glyph glyph-name="Q" unicode="Q" horiz-adv-x="1679" 
d="M1428 186q66 -82 80 -145l6 -55q0 -173 -202 -279q-182 -96 -447 -96q-293 0 -481 110q-125 73 -127 162q0 68 74 88l43 6q96 0 118 -79l7 -41q1 -58 39 -82h2l4 -2v-2l34 -17q77 -39 222 -49l63 -2q258 0 391 121q78 70 80 162l-4 34q-6 25 -27 66q-191 -113 -423 -113
q-308 0 -523 203q-211 200 -221 486v24q0 307 211 518t541 217q329 0 536 -217q197 -206 197 -514q0 -266 -156 -461zM1299 285l19 49q61 161 61 364q0 336 -184 508q-128 117 -307 117q-249 0 -391 -211q-2 -2 -2 -4q-117 -173 -117 -432q0 -218 92 -379l4 -6v-2
q78 -129 193 -180h2q23 -11 48 -19.5t54 -15.5q10 -4 23 -6q8 -2 -8.5 8.5t-57.5 99.5l20 -63q-20 26 -20 63q0 98 131 143q68 25 162 25l86 -4q31 -4 73 -15.5t97 -31.5zM1215 172l-16 8q-76 39 -166 45h-29q-131 0 -167 -61q-11 -14 -11 -31q0 -52 88 -65l41 -2l56 4
q120 19 204 102z" />
    <glyph glyph-name="R" unicode="R" horiz-adv-x="1474" 
d="M1023 678l340 -481l29 -35q72 -77 190 -99v-63h-342l-460 657h-295v-362q0 -162 53 -201q26 -18 80 -24l73 -7v-63h-596v63l52 7q92 12 114 73h2q17 48 17 152v805q0 155 -47 194q-25 21 -68 29q-4 0 -8.5 0.5t-9.5 1.5l-52 6v64h834q311 0 424 -176q49 -76 49 -177
q0 -165 -127 -268l-26 -20q-22 -16 -45 -27.5t-48 -19.5t-58 -15.5t-75 -13.5zM485 745h344q166 0 245 64q105 83 107 225q0 277 -393 277q-174 0 -250 -33q-51 -23 -53 -88v-445z" />
    <glyph glyph-name="S" unicode="S" horiz-adv-x="1351" 
d="M1104 1395l125 -371l-65 -25q-212 324 -504 324q-171 0 -256 -102q-45 -53 -45 -117q0 -121 147 -182q8 -4 17.5 -7t19.5 -6l94 -28l256 -62q258 -61 348 -160q20 -18 35 -43l2 -4q43 -64 49 -172v-26q0 -193 -178 -322l-4 -4q-160 -115 -387 -115q-243 0 -424 129
l-39 -102h-76l-133 469l76 25q184 -355 481 -412q47 -10 105 -10q196 0 303 125q68 77 68 180q0 121 -113 178q-28 16 -68 29.5t-92 25.5l-274 70q-239 61 -332 154q-72 75 -88 180q-1 10 -1.5 20t-0.5 21v18q10 146 141 250q128 98 328 98q221 0 387 -100l24 74h74z" />
    <glyph glyph-name="T" unicode="T" 
d="M1191 1395l114 -361l-71 -24q-175 306 -451 307q-68 0 -78 -39l-6 -51v-932q0 -164 58 -203l2 -2q25 -16 73 -20l80 -7v-63h-631v63l80 7q93 8 117 82q16 44 16 143v940q0 67 -51 78l-39 4q-254 0 -417 -252l-33 -55l-68 24l117 361h1188z" />
    <glyph glyph-name="U" unicode="U" horiz-adv-x="1597" 
d="M1386 1100v-682q0 -188 -86 -289q-127 -142 -416 -156h-55q-245 0 -387 93q-140 88 -168 219q-11 45 -12 100v29v686q0 155 -48 194q-24 21 -67 29l-19 2l-51 6v64h598v-64l-76 -6q-92 -8 -116 -82q-17 -49 -17 -143v-547q0 -235 43 -320q1 -4 6 -10q82 -151 345 -151
q235 0 333 114q61 72 72 222q2 75 3 112t1 580q0 162 -53 200h-2q-25 19 -78 25l-68 6v64h502v-64l-51 -6q-92 -12 -115 -74q-18 -45 -18 -151z" />
    <glyph glyph-name="V" unicode="V" horiz-adv-x="1433" 
d="M723 227l352 893l6 17q14 42 14 69q0 106 -155 123l-33 2v64h547v-64q-122 -12 -168 -57q-10 -10 -18.5 -21t-16.5 -24l-2 -2v-2q-14 -21 -31 -55.5t-37 -82.5l-448 -1087h-123l-461 1118q-28 69 -51 109q-44 73 -123 92q-10 2 -21.5 4t-25.5 4l-20 4v64h612v-64
q-40 -1 -70.5 -5t-50.5 -11l6 2h-2l-4 -2q-49 -15 -55 -74l8 -51l10 -33z" />
    <glyph glyph-name="W" unicode="W" horiz-adv-x="1966" 
d="M1353 0h-120l-301 895l-299 -895h-121l-385 1106l-45 113q-34 65 -90 88q-8 3 -18.5 6.5l-22.5 7.5l-43 10v64h557v-64q-125 -8 -144 -57l-4 -33q0 -34 12 -65l299 -902l244 781l-4 12q-49 168 -125 221h-2q-41 27 -108 43v64h561v-64l-56 -8q-3 0 -7 -0.5t-9 -1.5
l-14 -4q-62 -17 -64 -80q0 -26 8 -47l299 -911l275 851l8 37l4 39q0 71 -67 105l-7 2l-2 2q-4 0 -6 2l-10 2l-78 12v64h516v-64q-108 -6 -155 -63q-10 -11 -18.5 -26t-16.5 -32l-2 -2l-41 -102z" />
    <glyph glyph-name="X" unicode="X" horiz-adv-x="1474" 
d="M827 760l393 -512q26 -34 48.5 -60t41.5 -43q73 -65 205 -82v-63h-672v63l19 3l12 2q134 12 135 79v9q-4 37 -49 100l-286 383l-314 -389l-20 -39l-9 -39q0 -99 142 -109h12v-63h-577v63l24 9q127 43 205 108q61 51 151 160l324 383l-352 448q-37 51 -74 84
q-67 64 -184 76v64h635v-64q-145 -6 -156 -65l-2 -13q0 -28 25 -65v-2l12 -15l254 -331l239 307l19 29q10 16 16 32l6 35q0 86 -143 88v64h551v-64q-123 -20 -189 -65q-60 -42 -174 -176z" />
    <glyph glyph-name="Y" unicode="Y" horiz-adv-x="1310" 
d="M696 586v-291q0 -164 57 -203l2 -2q27 -16 74 -20l84 -7v-63h-639v63l84 7q92 8 117 82q16 44 16 143v287l-342 544q-55 93 -92 129q-51 54 -149 76v64h583v-64q-141 -18 -157 -61l-3 -2l-2 -21q0 -24 31 -73l289 -467l291 446q6 7 12 18q10 22 16 39l5 31q0 51 -72 72
l-2 2l-76 16v64h510v-64q-126 -24 -299 -227l102 135q-41 -41 -102 -135z" />
    <glyph glyph-name="Z" unicode="Z" horiz-adv-x="1310" 
d="M1353 420l-147 -420h-1137l-39 63l965 1221l-127 21l-119 4q-262 0 -426 -131q-56 -47 -110 -111q-3 -3 -6 -6.5t-7 -7.5q-7 -8 -14 -17.5t-14 -19.5l-12 -17l-68 25l149 371h1014l23 -76l-959 -1215l168 -14q20 -1 44 -1.5t50 -0.5q384 0 559 154q88 76 150 204z" />
    <glyph glyph-name="bracketleft" unicode="[" horiz-adv-x="571" 
d="M459 -284h-319v1465h319v-53h-208v-1360h208v-52z" />
    <glyph glyph-name="backslash" unicode="\" horiz-adv-x="704" 
d="M185 985l457 -1057h-89l-460 1057h92z" />
    <glyph glyph-name="bracketright" unicode="]" horiz-adv-x="614" 
d="M141 1182h319v-1465h-319v52h208v1360h-208v53z" />
    <glyph glyph-name="asciicircum" unicode="^" horiz-adv-x="1228" 
d="M1189 651h-177l-337 637l-338 -637h-177l429 828h172z" />
    <glyph glyph-name="underscore" unicode="_" horiz-adv-x="1024" 
d="M0 -195h1024v-122h-1024v122z" />
    <glyph glyph-name="grave" unicode="`" horiz-adv-x="450" 
d="M343 1421l22 -45l-16 -12q-102 -72 -111 -176q29 21 43 26q5 0 23 3q76 0 100 -72l2 -2v-2l7 -43q0 -73 -68 -111q-31 -14 -59 -14q-80 0 -123 84q-21 39 -21 86q0 156 148 250q12 8 25.5 15t27.5 13z" />
    <glyph glyph-name="a" unicode="a" horiz-adv-x="1187" 
d="M798 582v163q0 125 -127 168q-53 17 -111 17q-135 0 -190 -64q-17 -20 -17 -43l2 -57q0 -65 -59 -94q-20 -10 -45 -10q-63 0 -90 55l-8 35q0 26 12 55q39 94 154 145q35 16 73.5 27.5t81.5 19.5q65 13 125 13l82 -6q57 -8 105 -24.5t90 -39.5q100 -55 112 -174l4 -59
v-435q0 -101 17 -141l2 -2q25 -57 96 -57q25 0 47 8q19 10 45 33l39 -54q-82 -79 -211 -79q-162 0 -219 133l-10 24q-104 -86 -189 -123q-81 -34 -186 -34q-180 0 -268 114q-47 62 -47 140q0 208 344 294l57 15q11 2 22.5 4t22.5 4q19 2 41 6zM798 231v279
q-418 -37 -473 -205q-8 -26 -8 -49q0 -103 88 -152q40 -24 90 -24q55 0 106 18q88 31 197 133z" />
    <glyph glyph-name="b" unicode="b" 
d="M367 1468v-604q23 20 44.5 38t43.5 32q114 78 268 78q231 0 365 -176q102 -137 102 -328q0 -266 -176 -416q-134 -110 -320 -110q-90 0 -170 26q-81 32 -188 111l-49 -119h-115v1102q0 162 -41 198l-2 3q-25 22 -90 28l-45 4v64l49 6q82 10 139 27l103 36h82zM367 754
v-559q115 -115 280 -115q195 0 283 178q51 100 51 244q0 267 -156 368q-64 43 -155 43q-107 0 -189 -55q-26 -17 -54 -43t-60 -61z" />
    <glyph glyph-name="c" unicode="c" horiz-adv-x="1064" 
d="M999 258l59 -37q-143 -224 -397 -237l-43 -2q-263 0 -404 188q-100 133 -100 326q0 223 133 368l12 13q129 135 354 135q181 0 302 -88q100 -77 114 -168l2 -25q0 -76 -61 -104q-21 -9 -43 -9q-70 0 -96 62l-9 41v2l2 72q0 66 -90 110q-49 25 -112 25q-170 0 -240 -148
q-59 -123 -59 -295q0 -245 151 -360q85 -64 201 -64q106 0 188 58q64 47 136 137z" />
    <glyph glyph-name="d" unicode="d" 
d="M904 903v199q0 162 -41 198q-25 25 -92 31l-43 4v64l49 6q42 5 77 12t63 17l100 34h82v-1232q0 -116 63 -150q13 -6 28 -11t34 -9l24 -5v-61h-344v137q-44 -47 -75 -69l-54 -31l-20 -10l-82 -29q-61 -16 -123 -16q-172 0 -291 116q-18 19 -33 39q-89 117 -108 285l-4 72
q0 248 157 399q125 119 293 119q144 0 265 -64zM904 242v555q-99 82 -166 104q-48 19 -112 19q-178 0 -250 -160q-44 -98 -51 -219q-1 -11 -1.5 -21.5t-0.5 -21.5l2 -54q5 -61 18 -114t35 -101q59 -131 199 -147q8 -1 16 -1.5t16 -0.5q144 0 258 121z" />
    <glyph glyph-name="e" unicode="e" horiz-adv-x="1064" 
d="M976 270l68 -32q-136 -229 -361 -252q-16 -2 -31.5 -3t-31.5 -1q-234 0 -371 155q-129 145 -135 369q0 252 172 397q130 109 311 109q221 0 350 -150l17 -18q78 -99 80 -252h-711q0 -208 41 -307q85 -211 307 -211q186 0 295 196zM339 674h492v6l-5 49l-8 37l-4 12
q-59 152 -225 152q-125 0 -191 -90l-10 -15q-14 -23 -24 -45q-5 -14 -10 -33t-9 -42l-2 -3v-2v-4z" />
    <glyph glyph-name="f" unicode="f" horiz-adv-x="655" 
d="M239 926h-172v67h172v97q0 173 74 256q16 18 39 36q104 86 252 113l88 8q118 0 162 -69l2 -2q12 -21 12 -46q0 -54 -55 -79q-20 -9 -39 -9q-52 0 -95 58q-47 59 -96 59l-31 -4q-38 -10 -71 -43q-47 -50 -47 -158v-217h202v-67h-202v-690q0 -133 86 -162l41 -8l51 -5v-61
h-551v61l51 5q103 12 121 106l6 64v690z" />
    <glyph glyph-name="g" unicode="g" horiz-adv-x="1105" 
d="M418 143l392 -53q200 -29 260 -104q49 -61 49 -148q0 -178 -203 -270q-144 -62 -344 -62q-222 0 -377 70q-110 47 -137 139l-6 41q0 123 149 197q31 12 66 27q-149 51 -150 172q0 135 189 200q2 1 5 2t7 2q-164 112 -166 291q0 169 150 279q116 86 272 86l55 -4h2
q11 -1 24.5 -3.5t27.5 -7.5l84 -26q35 66 57 92l14 14l2 2l4 4q50 53 131 66q17 4 41 4q85 0 107 -61l4 -27q0 -59 -55 -74l-23 -4l-20 2q-19 4 -41 19l-37 18h-2h-8q-13 0 -21 -4q-41 -12 -88 -84q156 -104 170 -266v-25l-8 -67q-23 -96 -88 -164q-119 -113 -334 -113
l-76 4q-41 6 -117 29q-63 -34 -86 -76l-8 -33q0 -65 129 -84h4zM584 946q-161 0 -209 -166q-8 -33 -12 -73l-2 -48q0 -290 217 -290q108 0 164 71l4 4q47 68 47 213q0 289 -209 289zM765 -90l-420 51q-168 -61 -170 -184q0 -105 157 -160q103 -35 240 -35q221 0 319 66
q82 51 84 125q0 88 -116 121z" />
    <glyph glyph-name="h" unicode="h" horiz-adv-x="1351" 
d="M434 1468v-626q37 32 73.5 57.5t71.5 44.5q125 68 258 68q141 0 230 -60q77 -53 90 -164v-4q1 -32 1.5 -48.5t0.5 -499.5q0 -133 86 -162l41 -8l51 -5v-61h-551v61l51 5q103 12 121 106l6 64v471q0 206 -176 206q-69 0 -141 -26q-107 -39 -213 -142v-509q0 -133 86 -162
l41 -8l51 -5v-61h-551v61l51 5q103 12 121 106l6 64v866q0 162 -41 198l-2 3q-25 22 -90 28l-45 4v64l49 6q82 10 139 27l103 36h82z" />
    <glyph glyph-name="i" unicode="i" horiz-adv-x="614" 
d="M434 993v-757q0 -130 78 -160h2q10 -4 21.5 -6.5t25.5 -3.5l49 -5v-61h-549v61l51 5q103 12 121 106l6 64v481q0 117 -51 147q-25 15 -68 21q-5 1 -9 1.5t-7 0.5l-41 4v61l121 13q34 4 78.5 11t101.5 17h70zM339 1339q76 0 109 -69q14 -26 14 -56q0 -75 -67 -108
q-30 -14 -58 -14q-75 0 -108 67q-14 30 -14 58q0 75 67 108q30 14 57 14z" />
    <glyph glyph-name="j" unicode="j" horiz-adv-x="614" 
d="M302 993v-1089q0 -164 -68 -244q-16 -19 -41 -41l-2 -2q-2 -2 -5 -4.5t-7 -5.5q-125 -101 -297 -101q-160 0 -207 80q-12 21 -12 45q0 53 57 76q16 6 37 6q20 0 41 -8q21 -13 49 -45q29 -35 51 -47q23 -14 62 -14q60 0 98 39l2 2l2 2q19 24 27 51q18 58 18 317v707
q0 121 -57 151q-29 15 -78 19l-49 4v61l133 13q37 4 81 11t95 17h70zM201 1339q76 0 109 -69q14 -26 14 -56q0 -75 -67 -108q-30 -14 -58 -14q-75 0 -108 67q-15 27 -15 58q0 75 68 108q30 14 57 14z" />
    <glyph glyph-name="k" unicode="k" 
d="M753 672l305 -436q111 -146 248 -170v-66h-553v61l55 5q58 6 60 47q0 49 -53 123l-215 311l-166 -141v-170q0 -138 92 -164q4 -1 8.5 -2t9.5 -2l15 -2l53 -5v-61h-551v61l51 5q103 12 121 106l6 64v866q0 162 -41 198l-2 3q-25 22 -90 28l-45 4v64l49 6q82 10 139 27
l103 36h82v-958l319 278q45 39 53 62l2 18q0 58 -114 66v59h545v-61q-183 -27 -293 -101q-22 -13 -44.5 -30t-45.5 -37l-11 -10z" />
    <glyph glyph-name="l" unicode="l" horiz-adv-x="614" 
d="M432 1468v-1232q0 -130 77 -160h3q10 -4 21.5 -6.5t25.5 -3.5l47 -5v-61h-545v61l49 5q100 10 121 100l6 70v866q0 162 -41 198l-2 3q-25 22 -90 28l-43 4v64l49 6q42 5 76.5 12t62.5 17l101 34h82z" />
    <glyph glyph-name="m" unicode="m" horiz-adv-x="1925" 
d="M1082 764v-528q0 -127 76 -158l51 -12l43 -5v-61h-535v61l43 5q101 13 121 96q6 28 6 74v452q0 195 -131 215l-37 2l-69 -8q-95 -23 -225 -133v-528q0 -86 28 -123l17 -17q10 -10 18 -14q10 -6 25 -8l2 -2h2l35 -6l36 -5v-61h-536v61l51 5q102 12 121 106l6 64v481
q0 117 -51 147q-25 15 -68 21q-5 1 -9 1.5t-7 0.5l-43 4v61l43 4l112 13l148 24h70v-137q42 37 80 64.5t73 44.5q99 47 219 47q170 0 244 -105v-2l37 -63q126 105 389 170l-164 -27q72 25 164 27q192 0 252 -154q12 -33 18 -72l2 -49v-501q0 -133 86 -162l41 -8l52 -5v-61
h-537v61l37 5q69 12 104 57l-6 -8l2 2l4 6q23 32 23 113v446q0 223 -162 223q-33 0 -61 -6q-76 -13 -166 -78z" />
    <glyph glyph-name="n" unicode="n" horiz-adv-x="1351" 
d="M440 993v-162q88 78 422 181l-248 -58q112 58 248 58q219 0 286 -154q23 -54 23 -117v-505q0 -133 86 -162l41 -8l51 -5v-61h-551v61l51 5q103 12 121 106l6 64v473q0 192 -174 204q-172 0 -362 -172v-505q0 -133 86 -162l41 -8l51 -5v-61h-551v61l51 5q103 12 121 106
l6 64v481q0 121 -57 151q-29 15 -78 19l-49 4v61l133 13q37 4 81 11t95 17h70z" />
    <glyph glyph-name="o" unicode="o" horiz-adv-x="1146" 
d="M609 1012q248 0 383 -160q117 -143 123 -344v-19q0 -268 -184 -409q-131 -98 -313 -98q-276 0 -412 196q-92 131 -92 316l2 51q18 192 131 323l10 11q129 133 352 133zM611 930q-163 0 -241 -176q-47 -108 -47 -256q0 -326 180 -410q49 -25 117 -25q185 0 256 201
q30 90 30 215q0 311 -159 412q-60 39 -136 39z" />
    <glyph glyph-name="p" unicode="p" 
d="M434 993v-135q135 154 334 154q180 0 303 -123l30 -35q97 -128 111 -303q1 -11 1.5 -23.5t0.5 -25.5q0 -249 -160 -400q-125 -120 -297 -120q-186 0 -323 104v-317q0 -142 96 -166q7 -1 15 -2l16 -2l51 -5v-61h-551v61l51 5q109 10 123 118l3 39t1 961q0 117 -51 147
q-25 15 -68 21q-5 1 -9 1.5t-7 0.5l-43 4v61l43 4l113 13l147 24h70zM434 756v-570q118 -112 272 -112q152 0 238 149q61 106 61 254q0 276 -143 389q-71 54 -158 54q-122 0 -219 -103z" />
    <glyph glyph-name="q" unicode="q" horiz-adv-x="1187" 
d="M1066 993v-1224q0 -142 96 -166h2h2h2q7 -1 13 -2l12 -2l51 -5v-61h-551v61l52 5q108 10 122 118q2 26 3.5 39t1.5 348q-119 -86 -209 -110q-47 -12 -103 -12l-65 6q-130 22 -228 110q-153 138 -153 383q0 213 114 357q108 135 275 166q10 2 12 2q31 6 62 6
q174 0 329 -135l54 116h106zM872 203v592l-41 45q-83 80 -195 80q-128 0 -217 -101l-33 -47q-63 -110 -63 -287q0 -233 129 -348q70 -63 164 -63l40 4q95 16 216 125z" />
    <glyph glyph-name="r" unicode="r" horiz-adv-x="901" 
d="M440 993v-164l43 37q46 40 76 63.5t45 31.5l18 10l19 8q69 33 145 33q108 0 141 -74l8 -39v-2q0 -78 -71 -104q-21 -9 -45 -9q-34 0 -70 17q-9 4 -18 8.5t-17 11.5l-45 25l-41 6l-33 -4q-69 -13 -155 -111v-501q0 -133 86 -162l41 -8l51 -5v-61h-551v61l51 5
q103 12 121 106l6 64v481q0 121 -57 151q-29 15 -78 19l-49 4v61l133 13q37 4 81 11t95 17h70z" />
    <glyph glyph-name="s" unicode="s" horiz-adv-x="1064" 
d="M899 985l66 -315h-66q-78 186 -246 241q-53 19 -112 19q-133 0 -187 -84q-20 -32 -20 -70q0 -64 63 -98l25 -10l72 -21l284 -69q232 -55 256 -218q2 -10 3 -21.5t1 -25.5q0 -166 -155 -262q-113 -69 -271 -69q-130 0 -221 45q-54 26 -108 67l-23 -86h-67l-70 365h70
l26 -68q11 -25 24.5 -46.5t28.5 -41.5l7 -6q103 -127 284 -145q22 -3 43 -3q153 0 230 93q34 43 34 96q0 96 -149 135l-262 66q-248 63 -293 184q-12 33 -12 76q0 145 141 235q100 64 233 64q165 0 293 -101l21 74h57z" />
    <glyph glyph-name="t" unicode="t" horiz-adv-x="778" 
d="M720 993v-67h-292v-592q0 -261 153 -271q36 0 68 15q47 20 110 92l56 -45q-110 -143 -289 -143h-21q-97 6 -178 53q-94 57 -94 205v686h-172v67q225 8 272 211q17 73 17 162h78v-373h292z" />
    <glyph glyph-name="u" unicode="u" horiz-adv-x="1392" 
d="M985 0v172q-162 -132 -283 -170q-74 -20 -152 -20q-157 0 -239 94q-66 73 -66 213v428q0 121 -57 151q-29 15 -78 19l-49 4v61l76 6q82 7 135 15q20 3 44.5 8t53.5 12h70v-688q0 -199 141 -221l45 -4q153 0 359 180v457q0 121 -58 151h-2q-26 15 -76 19l-49 4v61l113 9
l100 12q36 6 86 18h2l9 2h69v-757q0 -133 86 -162l41 -8l51 -5v-61h-372z" />
    <glyph glyph-name="v" unicode="v" horiz-adv-x="1064" 
d="M545 180l213 561l9 21q5 17 10 41l2 24q0 69 -70 91l-61 14v61h422v-65q-122 -29 -195 -166l-18 -37l-314 -725h-121l-325 788l-31 60q-34 59 -104 76l-33 6v63h500v-61l-35 -4q-95 -8 -96 -70l10 -49l6 -21z" />
    <glyph glyph-name="w" unicode="w" horiz-adv-x="1597" 
d="M1128 184l184 541l10 41q1 9 2 21t3 26q0 96 -121 115q-5 1 -11 2l-12 2h-8v61h453v-61q-106 -27 -156 -98q-6 -11 -12.5 -22t-14.5 -24v-2l-2 -2v-2q-6 -11 -12.5 -25.5t-13.5 -31.5l-287 -725h-143l-205 588l-242 -588h-133l-305 793q-45 112 -129 133q-15 5 -31 6v61
h483v-61q-114 -8 -116 -70l4 -35l8 -34l217 -611l199 525l-35 86l-19 41q-30 63 -90 84l-45 12h-2l-6 2v61h488v-61q-107 -14 -121 -62v-2l-2 -20l4 -37l6 -18z" />
    <glyph glyph-name="x" unicode="x" horiz-adv-x="1146" 
d="M646 571l280 -358q55 -68 94 -98q23 -17 49 -29q17 -7 41 -13.5t54 -11.5v-61h-568v61q109 16 121 50l2 18l-6 31q-2 4 -4.5 8t-5.5 8l-2 4l-2 4l-185 258l-204 -229l-21 -25q-16 -25 -16 -49q0 -51 88 -67q13 -5 33 -6l16 -5v-61h-459v61q78 14 133 48q44 28 111 104
l260 293l-240 301q-43 52 -71 74q-49 39 -137 51v61h507v-61l-20 -2q-83 -8 -84 -49q0 -18 25 -52l161 -196l174 196l11 17l2 4l2 4l2 2v2l4 21q0 32 -33 43l-45 8h-2l-12 2v61h432v-61q-119 -23 -191 -72q-50 -32 -116 -98z" />
    <glyph glyph-name="y" unicode="y" horiz-adv-x="1105" 
d="M560 193l190 483q39 96 39 155q0 57 -59 80l-80 21v61h450v-63q-116 -29 -170 -111l-39 -76l-354 -831q-53 -131 -96 -201q-31 -53 -78 -100q-101 -105 -223 -105q-125 0 -174 78q-19 28 -19 62q0 61 62 90q20 10 47 10q21 0 43 -8q24 -11 70 -60q38 -38 67 -38
q30 0 68 30q61 50 104 156l51 119l-366 856l-19 39q-28 57 -73 73q-29 11 -72 17v63h477v-61q-107 -14 -111 -76l3 -20l6 -21z" />
    <glyph glyph-name="z" unicode="z" horiz-adv-x="983" 
d="M982 324l-111 -324h-817l-33 59l672 856l-96 15q-10 1 -20 1.5t-21 0.5h-29q-164 -8 -268 -80q-53 -35 -88 -88q-13 -17 -26 -41t-27 -53l-64 22l115 301h766l22 -51l-686 -852l94 -22q17 -4 42.5 -5.5t58.5 -1.5q211 0 338 127q39 39 80 95q10 14 20 29t21 32z" />
    <glyph glyph-name="braceleft" unicode="{" horiz-adv-x="573" 
d="M545 -273q-139 21 -227 114q-42 48 -65.5 102t-23.5 112q0 61 21 145q10 42 15 73.5t5 56.5q0 63 -56 121q-51 53 -144 68v26q92 14 144 67q56 56 56 122q0 45 -20 130q-21 84 -21 145q0 57 23.5 111.5t65.5 101.5q42 42 102.5 73.5t124.5 42.5v-18
q-103 -26 -150.5 -82.5t-47.5 -125.5q0 -52 21 -137q20 -85 20 -141q0 -43 -16.5 -85t-48.5 -83q-63 -83 -207 -132q72 -26 123 -59.5t83 -75.5q66 -84 66 -169q0 -56 -20 -142q-21 -84 -21 -136q0 -34 11.5 -66t35.5 -59t61.5 -48.5t89.5 -33.5v-18z" />
    <glyph glyph-name="bar" unicode="|" horiz-adv-x="1228" 
d="M976 1479v-1479h-159v1479h159z" />
    <glyph glyph-name="braceright" unicode="}" horiz-adv-x="697" 
d="M71 1338q139 -21 226 -114q90 -96 90 -215q0 -60 -21 -144q-10 -42 -15 -74t-5 -56q0 -32 13 -62t42 -59q53 -53 145 -68v-26q-46 -7 -82.5 -23t-62.5 -44q-29 -29 -42 -59.5t-13 -62.5q0 -45 20 -130q21 -84 21 -146q0 -116 -90 -212q-88 -95 -226 -116v18
q103 26 150.5 82.5t47.5 125.5q0 50 -20 136q-21 84 -21 142q0 85 64 167q64 84 208 132q-71 27 -123 60.5t-84 75.5t-48.5 83.5t-16.5 85.5q0 58 21 141q10 43 15 77t5 60q0 34 -11.5 66t-35.5 59t-61.5 48.5t-89.5 33.5v18z" />
    <glyph glyph-name="asciitilde" unicode="~" horiz-adv-x="1228" 
d="M1105 680l88 -96q-105 -203 -252 -228q-10 -1 -18.5 -1.5t-16.5 -0.5q-64 0 -190 54l-111 45q-46 20 -78 30.5t-49 12.5h-2h-21q-79 0 -137 -72l-12 -18l-2 -3q-13 -18 -27 -41t-30 -51l-87 97q34 58 64.5 101t58.5 71q73 73 172 73q70 0 156 -39l133 -55
q57 -23 96.5 -34.5t63.5 -12.5h4q43 0 82 27q14 11 29.5 26t31.5 35q13 17 26.5 37t27.5 43z" />
    <glyph glyph-name="delete" horiz-adv-x="1600" 
d="M1520 129h-366v586h78v-517h288v-69zM1080 129h-438v586h424v-69h-346v-179h324v-69h-324v-200h360v-69zM572 425q0 -126 -56 -203q-47 -64 -123 -83q-37 -10 -95 -10h-211v586h202q64 0 104 -8q113 -26 156 -142q23 -64 23 -140zM492 427q0 166 -104 207q-32 12 -100 12
h-124v-448h126q102 0 143 41q59 59 59 188z" />
    <glyph glyph-name="nonbreakingspace" unicode="&#xa0;" horiz-adv-x="500" 
 />
    <glyph glyph-name="exclamdown" unicode="&#xa1;" horiz-adv-x="614" 
d="M385 748q-79 0 -117 71v2q-14 30 -14 58q0 82 72 118q28 15 59 15q81 0 119 -74q14 -30 14 -59q0 -78 -69 -115q-31 -16 -64 -16zM352 629h74v-66l10 -176q11 -106 21 -164l45 -268l25 -156v-28q0 -207 -148 -207q-115 0 -141 125l-6 63q0 63 28 209l58 279l20 143
q7 57 10.5 102t3.5 80v64z" />
    <glyph glyph-name="cent" unicode="&#xa2;" 
d="M821 1032v-604l50 -6h12q46 0 84 12q54 19 151 101l50 -29q-99 -172 -293 -211q-27 -5 -54 -6v-246h-75v246q-195 18 -308 174q-79 106 -79 246q0 219 165 335q95 68 222 80v211h75v-211q195 -12 283 -120q41 -50 41 -109q0 -73 -61 -98q-20 -9 -39 -9q-89 0 -111 109
l-4 23q-6 100 -109 112zM746 453v581q-144 -43 -164 -233q-1 -26 -1.5 -39.5t1.5 -50.5q2 -30 8 -57t14 -52q32 -87 107 -131l10 -6h2l2 -2z" />
    <glyph glyph-name="sterling" unicode="&#xa3;" 
d="M534 819h412l-33 -88h-338l74 -174q8 -20 14 -41.5t11 -44.5l6 -59v-27q-4 -45 -27 -119q-1 -2 -2 -4.5t-2 -5.5l195 -61q60 -20 96 -31t49 -12h29q100 0 141 71q12 22 12 51q0 74 -73 95h-3l-34 4l-29 -2q-33 -4 -90 -29l-33 57l57 31q53 25 121 25q123 0 183 -103
q30 -50 30 -112q0 -139 -116 -213q-68 -45 -154 -45l-45 2q-26 4 -51 12q-47 14 -148 65l-186 95q-141 -183 -340 -183q-139 0 -205 95q-31 43 -31 96q0 106 109 160q58 30 133 30q87 0 242 -47l-4 41q-2 11 -4.5 22t-6.5 23l-69 174l-70 164h-260l29 88h200
q-39 135 -39 191q0 49 21 106q34 100 100 166q127 129 346 139h27q216 0 326 -129q61 -73 61 -170q0 -98 -74 -125h-2l-2 -2h-2q-11 -4 -30 -4q-65 0 -91 56v2l-6 28v15q2 8 2 10v2l29 70l6 16l2 16q0 69 -98 119q-62 31 -137 31q-170 0 -248 -139q-41 -74 -41 -175l2 -53
q6 -44 37 -117zM493 205q-73 43 -215 67l80 -8q-19 4 -38.5 6t-41.5 2q-112 0 -139 -75l-6 -33q0 -73 78 -98q28 -11 59 -11q133 0 223 150z" />
    <glyph glyph-name="currency" unicode="&#xa4;" 
d="M181 319l108 109q-47 66 -69 123q-31 71 -31 174q0 127 51 223q11 19 23 38t26 38l-110 111l104 106l111 -111q139 105 305 105q103 0 197 -41q25 -11 50.5 -26.5t51.5 -34.5l109 108l102 -106l-109 -107q16 -20 28.5 -39.5t23.5 -38.5q53 -98 53 -225q0 -123 -51 -219
q-11 -20 -23.5 -39t-26.5 -39l109 -109l-102 -104l-109 109q-23 -17 -44.5 -32t-43.5 -26q-94 -49 -217 -49t-217 49q-22 11 -43.5 26t-44.5 32l-109 -109zM703 1065q-170 0 -272 -129q-74 -92 -74 -207q0 -168 131 -270q91 -72 209 -72q162 0 264 129q76 91 76 211
q0 159 -127 262q-91 76 -207 76z" />
    <glyph glyph-name="yen" unicode="&#xa5;" 
d="M688 481v-215q0 -134 53 -172q41 -29 149 -33v-61h-589v61l36 2q117 7 146 66q20 43 20 137v215h-465v82h465v21l-131 223h-334v82h283l-149 250q-54 91 -84 127q-40 43 -121 65l-35 8v56h549v-56l-23 -4q-114 -20 -129 -63v-2l-2 -19v-12l2 -6l2 -6v-2q4 -17 41 -78
l269 -438l249 415q52 84 56 105v14q0 45 -45 66v2l-23 8h-2l-72 20v56h498v-56q-122 -22 -180 -77q-3 -2 -10 -11q-2 0 -2 -2q-20 -20 -48 -57t-63 -92l-141 -211h303v-82h-357l-116 -176v-68h473v-82h-473z" />
    <glyph glyph-name="brokenbar" unicode="&#xa6;" horiz-adv-x="410" 
d="M244 809h-83v742h83v-742zM244 -313h-83v742h83v-742z" />
    <glyph glyph-name="section" unicode="&#xa7;" horiz-adv-x="1064" 
d="M483 956l276 -77q184 -55 238 -201q18 -45 18 -96q0 -87 -35 -172q-14 -36 -37 -74t-55 -78q141 -104 141 -268q0 -194 -176 -295q-71 -41 -162 -57q-29 -7 -61 -10t-66 -3q-236 0 -372 121q-89 79 -90 180q0 80 65 109q22 8 41 8q72 0 92 -66l6 -36v-7v-6l-8 -51l-2 -14
v-15q0 -65 60 -96q32 -16 68.5 -26t78.5 -15l61 -4q191 0 258 127q27 49 27 113q0 133 -143 172l-33 8l-221 47q-185 37 -258 117q-84 85 -84 205q0 99 55 178q45 65 143 143q-145 82 -172 201q-8 37 -8 80q0 176 170 266q109 57 262 57q227 0 355 -116q77 -72 80 -164
q0 -82 -60 -109l-35 -8q-70 0 -96 68v2q-6 18 -6 41v2l2 41v24q0 94 -125 127q-41 10 -98 10q-215 0 -260 -135q-9 -26 -9 -59q0 -120 127 -172zM644 717l-262 76q-78 -84 -100 -150q-12 -38 -12 -80q0 -121 145 -182q35 -16 84 -25l145 -30l70 -15h2l2 -2l8 -2q23 -4 45 -9
t45 -11q19 35 31.5 64.5t17.5 54.5q7 25 7 65q0 145 -140 211z" />
    <glyph glyph-name="dieresis" unicode="&#xa8;" horiz-adv-x="860" 
d="M333 1395q68 0 103 -62q16 -25 16 -59q0 -73 -66 -107q-26 -14 -55 -14q-72 0 -106 66l-2 2q-13 22 -13 53q0 77 70 108q22 13 53 13zM667 1395q67 0 102 -62q17 -26 17 -59q0 -73 -66 -107q-26 -14 -55 -14q-73 0 -107 66l-2 2q-12 24 -12 53q0 77 70 108q22 13 53 13z
" />
    <glyph glyph-name="copyright" unicode="&#xa9;" horiz-adv-x="1515" 
d="M1072 1083l57 -282h-47l-53 94l-7 8q-2 4 -5 9t-7 10q-78 110 -199 120h-16q-133 0 -205 -135q-47 -86 -49 -205q0 -159 80 -245q55 -60 137 -82q14 -4 29 -5.5t31 -2.5q160 0 272 163l4 7l59 -33q-131 -203 -352 -203q-204 0 -319 150q-84 106 -84 249q0 168 106 283
q77 81 187 113q45 12 84 12q137 0 229 -68l22 43h46zM799 1434q74 0 144 -19h6q202 -51 348 -192q211 -201 211 -500q0 -295 -203 -504q-199 -208 -487 -219h-27q-289 0 -498 203q-207 199 -219 489v29q0 307 211 502q219 204 514 211zM797 1352q-246 0 -436 -172l-14 -15
q-185 -179 -185 -444q0 -268 187 -455q181 -184 442 -184t446 188q183 187 183 453q0 262 -174 432l-11 10q-133 127 -309 170q-68 17 -129 17z" />
    <glyph glyph-name="ordfeminine" unicode="&#xaa;" horiz-adv-x="860" 
d="M817 879l39 -50l-49 -32q-36 -17 -80 -17q-118 0 -156 80q-28 -20 -53.5 -35.5t-48.5 -25.5q-53 -21 -117 -21q-137 0 -184 92v2q-17 32 -17 68q0 95 107 145l14 7q27 13 61 22t76 16l156 25v92q0 70 -88 86q-15 4 -45 4q-54 0 -88 -28l-2 -2q-6 -8 -6 -27v-14
q0 -62 -56 -76l-18 -2q-45 0 -66 43q-4 8 -4 22q0 68 105 115q73 35 153 35h23q119 -6 180 -55q51 -38 51 -121v-269q0 -94 39 -100l13 -2l20 2q20 6 41 21zM565 936v156q-229 -37 -262 -107q-8 -19 -8 -37q0 -67 65 -88l37 -6l31 2q56 12 137 80zM805 672v-82h-625v82h625z
" />
    <glyph glyph-name="guillemotleft" unicode="&#xab;" horiz-adv-x="737" 
d="M669 219l-61 -37l-199 361l222 352l61 -35l-127 -317zM420 219l-62 -37l-201 361l224 352l59 -35l-127 -317z" />
    <glyph glyph-name="logicalnot" unicode="&#xac;" horiz-adv-x="1365" 
d="M1222 490h-108v466h-972v108h1080v-574z" />
    <glyph glyph-name="sfthyphen" unicode="&#xad;" horiz-adv-x="1155" 
d="M1106 926h-1070v81h1070v-81z" />
    <glyph glyph-name="registered" unicode="&#xae;" horiz-adv-x="1515" 
d="M946 737l182 -256l20 -24q9 -10 19.5 -17t21.5 -12l2 -2l58 -16v-45h-197l-254 360h-151v-193q0 -94 36 -110l31 -6l45 -4v-47h-342v47l33 4q51 6 63 43q7 20 7 73v443q0 90 -33 108h-2h-2l-33 9l-33 4v47h467q198 0 250 -121q16 -32 16 -78q0 -153 -168 -199l-18 -4z
M647 786h182q176 0 190 132q1 5 1.5 10t0.5 10q0 145 -215 145q-150 0 -157 -49l-2 -10v-238zM796 1434q73 0 143 -19h7q202 -51 348 -192q211 -201 211 -500q0 -295 -203 -504q-199 -208 -487 -219h-27q-289 0 -498 203q-207 199 -219 489v29q0 307 211 502
q219 204 514 211zM794 1352q-246 0 -436 -172l-15 -15q-184 -178 -184 -444q0 -268 187 -455q181 -184 442 -184t446 188q183 187 183 453q0 262 -174 432l-11 10q-133 127 -309 170q-68 17 -129 17z" />
    <glyph glyph-name="macron" unicode="&#xaf;" horiz-adv-x="683" 
d="M603 1297h-521v108h521v-108z" />
    <glyph glyph-name="degree" unicode="&#xb0;" horiz-adv-x="819" 
d="M468 1405q152 0 241 -125q60 -83 60 -188q0 -161 -123 -252q-80 -62 -184 -62q-156 0 -246 125q-62 83 -62 191q0 155 123 247q82 64 191 64zM466 1288q-113 0 -168 -94q-29 -47 -29 -102q0 -109 90 -166q46 -31 103 -31q108 0 163 94q26 45 27 103q0 109 -90 168
q-43 28 -96 28z" />
    <glyph glyph-name="plusminus" unicode="&#xb1;" horiz-adv-x="946" 
d="M835 452h-321v-253h-84v253h-325v83h325v328h84v-328h321v-83zM835 46h-730v83h730v-83z" />
    <glyph glyph-name="twosuperior" unicode="&#xb2;" horiz-adv-x="761" 
d="M772 799l-66 -240h-645v98q63 35 105 61.5t67 45.5l12 8q6 4 11 8l49 41l63 58q164 164 166 303q0 109 -100 143q-29 10 -68 10q-100 0 -151 -57q-20 -18 -21 -45q0 -4 2 -14q4 -13 25 -35l16 -27l4 -18q0 -43 -47 -64q-21 -8 -35 -8q-64 0 -86 66l-2 2v2q-6 18 -6 41
q0 110 121 182q88 51 196 51q186 0 275 -113l2 -2l2 -2q41 -56 41 -127q0 -157 -225 -338l-29 -22q-11 -6 -18 -12q-11 -8 -23.5 -16.5t-28.5 -18.5l-137 -86h273q102 0 135 33l2 2l2 2l20 30l19 37l16 35z" />
    <glyph glyph-name="threesuperior" unicode="&#xb3;" horiz-adv-x="761" 
d="M518 1022l26 -6q155 -35 195 -148q10 -27 10 -65q0 -138 -147 -211q-97 -49 -232 -49q-194 0 -288 94q-45 43 -45 98q0 62 53 86l33 6q61 0 75 -51l4 -22v-11v-2v-2l-10 -28l-2 -11q0 -47 90 -71q42 -11 86 -11q172 0 207 125l8 58v2q0 141 -139 174q-37 8 -74 8h-4
l-90 -6v74l31 -2l43 -2q148 0 186 96q10 20 10 51q0 100 -98 129q-26 10 -63 10q-107 0 -140 -53l-8 -25v-2v-2l10 -34l5 -11q0 -3 0.5 -8t1.5 -12q0 -47 -52 -62q-9 -4 -26 -4q-60 0 -78 58l-4 28q0 102 119 164q76 39 176 39q186 0 270 -100q33 -39 39 -84l2 -21
q0 -122 -147 -174z" />
    <glyph glyph-name="acute" unicode="&#xb4;" horiz-adv-x="683" 
d="M516 1449q0 -23 -35 -64l-169 -188l-42 29l128 238q24 44 57 44q24 0 42.5 -17.5t18.5 -41.5z" />
    <glyph glyph-name="micro" unicode="&#xb5;" horiz-adv-x="1392" 
d="M325 100v-49l4 -71l19 -89q37 -129 39 -170v-18q0 -113 -66 -143q-17 -9 -33 -9q-67 0 -92 82q-3 10 -5 19t-3 18q-1 7 -1.5 14t-0.5 15v29q1 11 3 24.5t5 30.5q3 12 7.5 30.5t11.5 43.5l8 28q24 88 24 156v680q0 121 -61 149q-14 7 -32.5 11t-41.5 6l-49 4v61l76 6
q82 7 135 15q20 3 44.5 8t53.5 12h70v-688q0 -199 141 -221l45 -4q153 0 359 180v457q0 121 -58 151h-2q-26 15 -76 19l-49 4v61l113 9l100 12q36 6 86 18h2l9 2h69v-757q0 -133 86 -162l41 -8l51 -5v-61h-372v172q-172 -139 -299 -174q-58 -16 -129 -16q-153 0 -232 118z
" />
    <glyph glyph-name="paragraph" unicode="&#xb6;" horiz-adv-x="896" 
 />
    <glyph glyph-name="periodcentered" unicode="&#xb7;" horiz-adv-x="405" 
d="M326 768q0 -51 -36 -85q-35 -35 -85 -35q-47 0 -85 35q-35 38 -35 85q0 51 34 85q34 36 84 36q49 0 87 -35q36 -35 36 -86z" />
    <glyph glyph-name="cedilla" unicode="&#xb8;" horiz-adv-x="683" 
d="M543 -91q0 -66 -60 -106q-53 -36 -122 -36q-59 0 -144 25v55q84 -29 128 -29q86 0 86 72q0 78 -99 78h-54v184h54v-135q13 1 22 1.5t15 0.5q174 0 174 -110z" />
    <glyph glyph-name="onesuperior" unicode="&#xb9;" horiz-adv-x="761" 
d="M544 1395v-660q0 -82 26 -100q13 -8 45 -17q1 0 9 -2l26 -2h51v-55h-454v55h53l41 7q37 12 51 26q15 12 15 92v459q0 77 -25 90q-17 12 -72 15l-59 2v53l121 14l45 8q25 4 76 15h51z" />
    <glyph glyph-name="ordmasculine" unicode="&#xba;" horiz-adv-x="661" 
d="M638 1149q0 -139 -96 -244q-97 -109 -236 -109q-127 0 -200 79q-74 80 -74 206q0 139 94 245q97 111 235 111q130 0 203 -79q74 -80 74 -209zM548 1079q0 112 -64 203q-71 104 -177 104q-90 0 -141 -68q-45 -62 -45 -155q0 -112 67 -206q74 -104 181 -104q86 0 136 72
q43 64 43 154z" />
    <glyph glyph-name="guillemotright" unicode="&#xbb;" horiz-adv-x="737" 
d="M178 858l63 37l199 -360l-221 -353l-62 35l127 318zM430 858l61 37l201 -360l-223 -353l-60 35l127 318z" />
    <glyph glyph-name="onequarter" unicode="&#xbc;" horiz-adv-x="1904" 
d="M544 1395v-660q0 -82 26 -100q13 -8 45 -17q1 0 9 -2l26 -2h51v-55h-454v55h53l41 7q37 12 51 26q15 12 15 92v459q0 77 -25 90q-17 12 -72 15l-59 2v53l121 14l45 8q25 4 76 15h51zM1564 1395l-953 -1395h-118l950 1395h121zM1668 836v-525h195l-35 -88h-160v-43
q0 -103 39 -119l35 -6l49 -2v-53h-383v53l49 2q56 2 68 49q6 25 6 76v43h-393l-25 62l203 254l219 297h133zM1531 311v389l-160 -208l-141 -181h301z" />
    <glyph glyph-name="onehalf" unicode="&#xbd;" horiz-adv-x="1904" 
d="M544 1395v-660q0 -82 26 -100q13 -8 45 -17q1 0 9 -2l26 -2h51v-55h-454v55h53l41 7q37 12 51 26q15 12 15 92v459q0 77 -25 90q-17 12 -72 15l-59 2v53l121 14l45 8q25 4 76 15h51zM1525 1395l-953 -1395h-118l950 1395h121zM1895 240l-65 -240h-645v98q63 35 105 61.5
t67 45.5q6 4 11.5 8t10.5 8l50 41l63 57q164 164 166 304q0 109 -100 143q-29 10 -68 10q-100 0 -152 -57q-18 -21 -20 -45q0 -2 0.5 -6t1.5 -9q1 -2 2 -4.5t2 -5.5l2 -2l19 -22l16 -27l4 -18q0 -43 -47 -64l-35 -8q-63 0 -86 65l-8 43v2q0 111 121 183q88 51 196 51
q186 0 275 -113q45 -57 45 -131q0 -157 -225 -338l-29 -22l-19 -12q-1 -1 -1.5 -2t-2.5 -3l-184 -116h272q101 0 136 32l24 35q4 8 9 17t10 20l16 35z" />
    <glyph glyph-name="threequarters" unicode="&#xbe;" horiz-adv-x="1904" 
d="M642 1022l26 -6q155 -35 195 -148q10 -27 10 -65q0 -138 -147 -211q-97 -49 -232 -49q-194 0 -288 94q-46 43 -46 98q0 62 54 86l33 6q61 0 75 -51l4 -22v-11v-2v-2l-10 -28l-2 -11q0 -47 90 -71q42 -11 86 -11q172 0 207 125l8 58v2q0 141 -139 174q-37 8 -74 8h-4
l-90 -6v74l31 -2l43 -2q148 0 186 96q10 20 10 51q0 100 -98 129q-26 10 -63 10q-107 0 -140 -53l-8 -25v-2v-2l10 -34l4 -11q0 -7 3 -20q0 -47 -52 -62l-26 -4q-60 0 -78 58l-4 28q0 102 119 164q76 39 176 39q186 0 270 -100q33 -39 39 -84l2 -21q0 -122 -147 -174z
M1629 1395l-952 -1395h-119l950 1395h121zM1680 836v-525h195l-35 -88h-160v-43q0 -103 39 -119l35 -6l49 -2v-53h-383v53l49 2q55 2 68 49q6 25 6 76v43h-393l-25 62l203 254l219 297h133zM1543 311v389l-238 -309l-53 -67l-10 -13h301z" />
    <glyph glyph-name="questiondown" unicode="&#xbf;" horiz-adv-x="917" 
d="M603 886q0 -50 -35 -85t-85 -35t-85 35q-34 34 -34 85q0 50 34 84q35 35 83 35q25 0 47.5 -9t39 -25t26 -38t9.5 -47zM782 -180q-271 -151 -505 -151q-121 0 -197 51q-90 58 -90 174q0 95 68 190q20 26 55 64t86 87q123 117 168 192q63 105 64 243h100q-1 -78 -12 -142.5
t-31 -118.5q-38 -97 -138 -227q-142 -187 -142 -284q0 -39 13 -71t36.5 -54.5t56.5 -34.5t73 -12q145 0 239 130q84 115 90 266h66v-302z" />
    <glyph glyph-name="Agrave" unicode="&#xc0;" horiz-adv-x="1392" 
d="M753 1542l-285 60q-125 25 -127 102q0 57 49 72l23 4q64 0 155 -70l195 -139zM759 1395l434 -1098q19 -48 33.5 -81.5t25.5 -53.5q39 -68 111 -86h2q11 -3 25.5 -6t33.5 -7v-63h-575v63l59 11q45 8 60 20q41 25 43 72q0 25 -19 78l-4 10l-102 264h-529l-65 -176
q-39 -98 -39 -152q0 -60 51 -94q25 -13 82 -24l49 -9v-63h-549v63l23 5q96 18 145 79l8 11q26 34 64.5 117t89.5 217l352 903h191zM388 606h461l-234 615z" />
    <glyph glyph-name="multiply" unicode="&#xd7;" horiz-adv-x="867" 
d="M687 716l57 -56l-266 -264l266 -265q-16 -16 -29 -28.5t-28 -27.5l-264 264q-64 -63 -133 -131.5t-133 -132.5q-15 16 -27.5 28.5l-27.5 27.5l265 265q-64 64 -132.5 132t-132.5 132l55 56l266 -264z" />
    <glyph glyph-name="agrave" unicode="&#xe0;" horiz-adv-x="960" 
d="M948 249q-152 -149 -248 -149q-86 0 -86 96v148q-238 -244 -375 -244q-78 0 -131 62q-50 59 -50 139q0 218 556 468v120q0 57 -33.5 92t-90.5 35q-113 0 -191 -115q-64 -95 -77 -220h-67v240q230 152 433 152q48 0 82 -10.5t55.5 -32.5t31 -57t9.5 -84v-625q0 -45 41 -45
q40 0 141 92v-62zM625 688q-147 -30 -261 -103q-154 -96 -154 -217q0 -63 38 -99.5t101 -36.5q144 0 219 166q56 125 57 290zM595 1214l-36 -21l-139 156q-66 73 -66 97q0 62 60 62q35 0 67 -63z" />
    <glyph glyph-name="acircumflex" unicode="&#xe2;" horiz-adv-x="960" 
d="M948 249q-152 -149 -248 -149q-86 0 -86 96v148q-238 -244 -375 -244q-78 0 -131 62q-50 59 -50 139q0 218 556 468v120q0 57 -33.5 92t-90.5 35q-113 0 -191 -115q-64 -95 -77 -220h-67v240q230 152 433 152q48 0 82 -10.5t55.5 -32.5t31 -57t9.5 -84v-625q0 -45 41 -45
q40 0 141 92v-62zM625 688q-147 -30 -261 -103q-154 -96 -154 -217q0 -63 38 -99.5t101 -36.5q144 0 219 166q56 125 57 290zM754 1234h-66l-214 126l-211 -126h-68l279 242z" />
    <glyph glyph-name="ccedilla" unicode="&#xe7;" horiz-adv-x="1515" 
d="M857 0l-27 -88l25 2l25 2q139 0 172 -100l8 -52q0 -117 -103 -157q-42 -17 -86 -17q-120 0 -178 66q-20 23 -20 49q0 38 39 49q10 2 12 2q44 0 63 -49l4 -10q20 -39 48 -47h2v-2h2l24 -2q63 0 86 65l8 43v2q0 105 -122 105q-36 0 -97 -21l52 160h63zM1342 1376l99 -493
h-66l-98 170l-10 16l-2 2v2l-17 25q-121 174 -311 215q-39 10 -88 10q-213 0 -348 -195q-123 -176 -123 -436q0 -290 145 -450l4 -4q103 -115 262 -154q52 -12 101 -12q69 0 147 24q110 35 191 97l16 12q23 19 44 38.5t40 41.5q16 17 32.5 39.5t35.5 50.5l88 -49
q-226 -351 -625 -353q-315 0 -522 211q-201 202 -201 506q0 301 193 506q135 146 481 225l-150 -22q75 22 150 22q250 0 416 -127l6 -4l43 86h67z" />
    <glyph glyph-name="egrave" unicode="&#xe8;" horiz-adv-x="1064" 
d="M732 1155l-284 59q-126 27 -127 103q0 57 49 72l22 4q65 0 156 -70l195 -139zM976 270l68 -32q-136 -229 -361 -252q-16 -2 -31.5 -3t-31.5 -1q-234 0 -371 155q-129 145 -135 369q0 252 172 397q130 109 311 109q221 0 350 -150l17 -18q78 -99 80 -252h-711
q0 -208 41 -307q85 -211 307 -211q186 0 295 196zM339 674h492v6l-5 49l-8 37l-4 12q-59 152 -225 152q-125 0 -191 -90l-10 -15q-14 -23 -24 -45q-5 -14 -10 -33t-9 -42l-2 -3v-2v-4z" />
    <glyph glyph-name="eacute" unicode="&#xe9;" horiz-adv-x="1064" 
d="M482 1155l-10 29l195 139q91 70 155 70q54 0 68 -54l4 -22q0 -76 -123 -103h-4zM976 270l68 -32q-136 -229 -361 -252q-16 -2 -31.5 -3t-31.5 -1q-234 0 -371 155q-129 145 -135 369q0 252 172 397q130 109 311 109q221 0 350 -150l17 -18q78 -99 80 -252h-711
q0 -208 41 -307q85 -211 307 -211q186 0 295 196zM339 674h492v6l-5 49l-8 37l-4 12q-59 152 -225 152q-125 0 -191 -90l-10 -15q-14 -23 -24 -45q-5 -14 -10 -33t-9 -42l-2 -3v-2v-4z" />
    <glyph glyph-name="ecircumflex" unicode="&#xea;" horiz-adv-x="1064" 
d="M593 1395l291 -191l-29 -51l-262 92l-264 -92l-27 51zM976 270l68 -32q-136 -229 -361 -252q-16 -2 -31.5 -3t-31.5 -1q-234 0 -371 155q-129 145 -135 369q0 252 172 397q130 109 311 109q221 0 350 -150l17 -18q78 -99 80 -252h-711q0 -208 41 -307q85 -211 307 -211
q186 0 295 196zM339 674h492v6l-5 49l-8 37l-4 12q-59 152 -225 152q-125 0 -191 -90l-10 -15q-14 -23 -24 -45q-5 -14 -10 -33t-9 -42l-2 -3v-2v-4z" />
    <glyph glyph-name="edieresis" unicode="&#xeb;" horiz-adv-x="1064" 
d="M429 1395q68 0 103 -62q16 -25 16 -59q0 -73 -66 -107q-26 -14 -55 -14q-72 0 -106 66l-2 2q-13 22 -13 53q0 77 70 108q22 13 53 13zM763 1395q67 0 102 -62q17 -26 17 -59q0 -73 -66 -107q-26 -14 -55 -14q-73 0 -107 66l-2 2q-12 24 -12 53q0 77 70 108q22 13 53 13z
M976 270l68 -32q-136 -229 -361 -252q-16 -2 -31.5 -3t-31.5 -1q-234 0 -371 155q-129 145 -135 369q0 252 172 397q130 109 311 109q221 0 350 -150l17 -18q78 -99 80 -252h-711q0 -208 41 -307q85 -211 307 -211q186 0 295 196zM339 674h492v6l-5 49l-8 37l-4 12
q-59 152 -225 152q-125 0 -191 -90l-10 -15q-14 -23 -24 -45q-5 -14 -10 -33t-9 -42l-2 -3v-2v-4z" />
    <glyph glyph-name="icircumflex" unicode="&#xee;" horiz-adv-x="614" 
d="M315 1395l291 -191l-29 -51l-262 92l-264 -92l-27 51zM422 993v-757q0 -130 78 -160h2q10 -4 21.5 -6.5t25.5 -3.5l49 -5v-61h-549v61l51 5q103 12 121 106l6 64v481q0 117 -51 147q-25 15 -68 21q-5 1 -9 1.5t-7 0.5l-41 4v61l121 13q34 4 78.5 11t101.5 17h70z" />
    <glyph glyph-name="idieresis" unicode="&#xef;" horiz-adv-x="614" 
d="M147 1395q68 0 103 -62q16 -25 16 -59q0 -72 -65 -107q-30 -14 -56 -14q-72 0 -106 66l-2 2q-13 22 -13 53q0 77 70 108q25 13 53 13zM481 1395q67 0 102 -62q17 -26 17 -59q0 -73 -66 -107q-26 -14 -55 -14q-72 0 -106 66l-3 2q-12 24 -12 53q0 77 70 108q22 13 53 13z
M422 993v-757q0 -130 78 -160h2q10 -4 21.5 -6.5t25.5 -3.5l49 -5v-61h-549v61l51 5q103 12 121 106l6 64v481q0 117 -51 147q-25 15 -68 21q-5 1 -9 1.5t-7 0.5l-41 4v61l121 13q34 4 78.5 11t101.5 17h70z" />
    <glyph glyph-name="ocircumflex" unicode="&#xf4;" horiz-adv-x="1146" 
d="M613 1395l291 -191l-28 -51l-263 92l-264 -92l-26 51zM609 1012q248 0 383 -160q117 -143 123 -344v-19q0 -268 -184 -409q-131 -98 -313 -98q-276 0 -412 196q-92 131 -92 316l2 51q18 192 131 323l10 11q129 133 352 133zM611 930q-163 0 -241 -176q-47 -108 -47 -256
q0 -326 180 -410q49 -25 117 -25q185 0 256 201q30 90 30 215q0 311 -159 412q-60 39 -136 39z" />
    <glyph glyph-name="divide" unicode="&#xf7;" horiz-adv-x="1012" 
d="M504 728q49 0 77 -48l-1 1q10 -20 10 -41q0 -56 -49 -79h1q-20 -9 -40 -9q-55 0 -78 47v-1q-5 14 -7.5 24t-2.5 19q0 52 48 76q16 11 42 11zM504 172q49 0 77 -46q9 -20 9 -42q0 -54 -49 -78q-17 -10 -39 -10q-54 0 -78 49v-1q-10 20 -10 42q0 54 50 78h-1q16 8 41 8z
M900 422v-120h-797v120h797z" />
    <glyph glyph-name="ugrave" unicode="&#xf9;" horiz-adv-x="1392" 
d="M583 1155l-10 29l195 139q91 70 155 70q53 0 68 -54l4 -22q0 -76 -123 -103h-4zM985 0v172q-162 -132 -283 -170q-74 -20 -152 -20q-157 0 -239 94q-66 73 -66 213v428q0 121 -57 151q-29 15 -78 19l-49 4v61l76 6q82 7 135 15q20 3 44.5 8t53.5 12h70v-688
q0 -199 141 -221l45 -4q153 0 359 180v457q0 121 -58 151h-2q-26 15 -76 19l-49 4v61l113 9l100 12q36 6 86 18h2l9 2h69v-757q0 -133 86 -162l41 -8l51 -5v-61h-372z" />
    <glyph glyph-name="ucircumflex" unicode="&#xfb;" horiz-adv-x="1392" 
d="M704 1395l291 -191l-29 -51l-262 92l-264 -92l-27 51zM985 0v172q-162 -132 -283 -170q-74 -20 -152 -20q-157 0 -239 94q-66 73 -66 213v428q0 121 -57 151q-29 15 -78 19l-49 4v61l76 6q82 7 135 15q20 3 44.5 8t53.5 12h70v-688q0 -199 141 -221l45 -4q153 0 359 180
v457q0 121 -58 151h-2q-26 15 -76 19l-49 4v61l113 9l100 12q36 6 86 18h2l9 2h69v-757q0 -133 86 -162l41 -8l51 -5v-61h-372z" />
    <glyph glyph-name="udieresis" unicode="&#xfc;" horiz-adv-x="1392" 
d="M544 1395q68 0 103 -62q16 -25 16 -59q0 -72 -65 -107q-30 -14 -56 -14q-72 0 -106 66l-2 2q-13 22 -13 53q0 77 70 108q25 13 53 13zM878 1395q68 0 103 -62q16 -25 16 -59q0 -73 -66 -107q-26 -14 -55 -14q-72 0 -106 66l-2 2q-13 22 -13 53q0 77 70 108q22 13 53 13z
M985 0v172q-162 -132 -283 -170q-74 -20 -152 -20q-157 0 -239 94q-66 73 -66 213v428q0 121 -57 151q-29 15 -78 19l-49 4v61l76 6q82 7 135 15q20 3 44.5 8t53.5 12h70v-688q0 -199 141 -221l45 -4q153 0 359 180v457q0 121 -58 151h-2q-26 15 -76 19l-49 4v61l113 9
l100 12q36 6 86 18h2l9 2h69v-757q0 -133 86 -162l41 -8l51 -5v-61h-372z" />
    <glyph glyph-name="ydieresis" unicode="&#xff;" horiz-adv-x="1105" 
d="M371 1397q68 0 103 -62q16 -25 16 -59q0 -72 -65 -107q-30 -14 -56 -14q-72 0 -106 66l-2 2q-13 22 -13 53q0 77 70 108q25 13 53 13zM705 1397q67 0 102 -62q17 -26 17 -59q0 -73 -66 -107q-26 -14 -55 -14q-72 0 -106 66l-3 2q-12 24 -12 53q0 77 70 108q22 13 53 13z
M560 193l190 483q39 96 39 155q0 57 -59 80l-80 21v61h450v-63q-116 -29 -170 -111l-39 -76l-354 -831q-53 -131 -96 -201q-31 -53 -78 -100q-101 -105 -223 -105q-125 0 -174 78q-19 28 -19 62q0 61 62 90q20 10 47 10q21 0 43 -8q24 -11 70 -60q38 -38 67 -38q30 0 68 30
q61 50 104 156l51 119l-366 856l-19 39q-28 57 -73 73q-29 11 -72 17v63h477v-61q-107 -14 -111 -76l3 -20l6 -21z" />
    <glyph glyph-name="dotlessi" unicode="&#x131;" horiz-adv-x="761" 
d="M544 1395v-660q0 -82 26 -100q13 -8 45 -17q1 0 9 -2l26 -2h51v-55h-454v55h53l41 7q37 12 51 26q15 12 15 92v459q0 77 -25 90q-17 12 -72 15l-59 2v53l121 14l45 8q25 4 76 15h51z" />
    <glyph glyph-name="OE" unicode="&#x152;" horiz-adv-x="1771" 
d="M1735 463l-76 -381h-51l1 10q0 37 -44 37h-512q-17 0 -55 -3.5t-99 -10.5q-129 -15 -188 -15q-351 0 -536 275q-96 142 -96 328q0 315 246 540q112 102 231 144q110 40 270 40q20 0 46 -1.5t58 -5.5q108 -12 168 -12h467q57 0 57 48h49v-383h-73q0 287 -313 287h-106
q-12 -74 -12 -200q0 -164 62 -244q69 -87 229 -87h89v-70l-368 -8v-574h112q311 0 368 286h76zM997 177v1077q-125 101 -294 101q-211 0 -337 -142q-121 -136 -121 -350q0 -186 85 -349q89 -171 245 -260q156 -87 315 -87q70 0 107 10z" />
    <glyph glyph-name="oe" unicode="&#x153;" horiz-adv-x="2539" 
d="M1342 1395h953l159 -355l-67 -26q-40 51 -73.5 86.5t-59.5 58.5q-16 13 -33 25.5t-37 23.5q-167 99 -407 99q-157 0 -201 -35q-37 -28 -43 -105l-2 -112v-240h98q171 0 229 49q48 45 62 140l1.5 28.5t0.5 44.5h78v-628h-78v30l-2 33q-12 116 -80 172q-55 43 -213 43h-96
v-434q0 -125 31 -156l30 -20q61 -29 201 -29q251 0 436 135l35 29q40 35 89.5 91t109.5 134l69 -31l-178 -446h-1012v176q-206 -203 -493 -203q-302 0 -508 209q-205 205 -205 516q0 306 205 514q207 209 512 209q274 0 489 -186v160zM851 1323q-246 0 -375 -213
q-98 -161 -98 -395q0 -358 186 -533q122 -110 289 -110q243 0 377 215q104 167 104 418q0 323 -180 497l-2 2v2q-128 117 -301 117z" />
    <glyph glyph-name="Scaron" unicode="&#x160;" horiz-adv-x="1064" 
d="M557 1151l-291 190l27 52l264 -95l262 95l29 -52zM899 985l66 -315h-66q-78 186 -246 241q-53 19 -112 19q-133 0 -187 -84q-20 -32 -20 -70q0 -64 63 -98l25 -10l72 -21l284 -69q232 -55 256 -218q2 -10 3 -21.5t1 -25.5q0 -166 -155 -262q-113 -69 -271 -69
q-130 0 -221 45q-54 26 -108 67l-23 -86h-67l-70 365h70l26 -68q11 -25 24.5 -46.5t28.5 -41.5l7 -6q103 -127 284 -145q22 -3 43 -3q153 0 230 93q34 43 34 96q0 96 -149 135l-262 66q-248 63 -293 184q-12 33 -12 76q0 145 141 235q100 64 233 64q165 0 293 -101l21 74h57
z" />
    <glyph glyph-name="scaron" unicode="&#x161;" horiz-adv-x="1064" 
d="M557 1151l-291 190l27 52l264 -95l262 95l29 -52zM899 985l66 -315h-66q-78 186 -246 241q-53 19 -112 19q-133 0 -187 -84q-20 -32 -20 -70q0 -64 63 -98l25 -10l72 -21l284 -69q232 -55 256 -218q2 -10 3 -21.5t1 -25.5q0 -166 -155 -262q-113 -69 -271 -69
q-130 0 -221 45q-54 26 -108 67l-23 -86h-67l-70 365h70l26 -68q11 -25 24.5 -46.5t28.5 -41.5l7 -6q103 -127 284 -145q22 -3 43 -3q153 0 230 93q34 43 34 96q0 96 -149 135l-262 66q-248 63 -293 184q-12 33 -12 76q0 145 141 235q100 64 233 64q165 0 293 -101l21 74h57
z" />
    <glyph glyph-name="Ydieresis" unicode="&#x178;" horiz-adv-x="1195" 
d="M1236 1360q-109 -2 -239 -224l-303 -516v-284q0 -154 152 -159v-48h-489v48q88 1 120 35q32 35 32 124v284l-250 502q-26 52 -48 89t-39 60q-65 87 -137 89v48h363v-48q-38 -2 -38 -27q0 -11 4 -18l314 -624q243 379 243 554q0 71 -49 96q-17 8 -45.5 13t-68.5 6v48h478
v-48zM919 1675q0 -21 -8 -39.5t-21.5 -32t-32 -21.5t-39.5 -8t-39.5 8t-32 21.5t-21.5 32t-8 39.5t7.5 39t21 32t31.5 22t39 8q43 0 73 -29t30 -72zM555 1676q0 -21 -8 -39.5t-21.5 -32t-32 -21.5t-39.5 -8t-39.5 8t-32 21.5t-21 32t-7.5 39.5q0 42 28.5 71t70.5 29
q43 0 72.5 -28.5t29.5 -71.5z" />
    <glyph glyph-name="florin" unicode="&#x192;" 
d="M752 948l-118 -686q-48 -263 -140 -389l-47 -57q-17 -17 -34 -32t-33 -28q-97 -73 -209 -73q-129 0 -213 86q-45 45 -47 102q0 58 57 78q16 6 33 6q65 0 94 -92l12 -41q25 -66 66 -72h2l18 -2q77 0 142 113q2 2 4 6q11 20 22 47t21 61q12 45 27 115t32 170l121 688h-199
l15 68h196l10 55l29 146l2 4v2q27 113 82 168l4 4l2 2l23 20q133 117 305 117q162 0 219 -72v-2q16 -16 16 -43q0 -57 -57 -78l-35 -6q-61 0 -102 62l-33 45q-4 3 -7.5 6t-6.5 6q-22 16 -64 16q-84 0 -117 -75l-16 -50l-29 -141l-32 -186h219l-15 -68h-219z" />
    <glyph glyph-name="circumflex" unicode="&#x2c6;" horiz-adv-x="860" 
d="M501 1395l291 -191l-29 -51l-262 92l-264 -92l-27 51z" />
    <glyph glyph-name="caron" unicode="&#x2c7;" horiz-adv-x="860" 
d="M501 1151l-291 190l27 52l264 -95l262 95l29 -52z" />
    <glyph glyph-name="arabiccomma" unicode="&#x60c;" horiz-adv-x="403" 
d="M277 379q-38 -28 -70 -65t-48.5 -73t-14.5 -66.5t31 -44.5l2 1q8 7 15.5 11.5t14.5 8.5l2 2q4 2 5 3q5 2 8.5 3.5t6.5 3.5l5 1h1q2 1 12 1q7 0 13 -1t11 -3q3 -1 7 -3q1 -1 2 -1q3 -2 5.5 -4t5.5 -4q4 -4 5 -6q1 -1 1.5 -2t1.5 -2t3 -5q3 -4 7 -14l8 -38v-3
q0 -5 -0.5 -8.5t-1.5 -7.5q0 -4 -2 -12q-1 -2 -1 -3l-1 -2q0 -2 -1 -3q0 -2 -2 -6q-1 -2 -1.5 -3.5t-1.5 -3.5q-2 -4 -6 -10q-3 -6 -8 -11l-6 -6q-3 -3 -6 -5q-2 -1 -2.5 -1.5t-2.5 -1.5q-2 -2 -4.5 -3.5t-5.5 -2.5q-1 -1 -1 -11t-1 -10v20q-2 -2 -5 -2.5t-5 -1.5
q-1 -1 -3 -1l-5 -2h-3q-2 -1 -5 -1q-5 -1 -15 -1h-13l-9 2q-11 2 -20 6l-6 3q-1 1 -5 3q-1 1 -5 3q-1 1 -2 1.5t-3 2.5q-18 15 -30 39l-4 11v-1l-2 3q-2 8 -3 11l-7 25l-1 10q-1 2 -1 8q0 1 -0.5 1.5t-0.5 2.5v33q0 5 1 8v5q6 37 22 74t38 70t49.5 60t56.5 45z" />
    <glyph glyph-name="arabicsemicolon" unicode="&#x61b;" horiz-adv-x="852" 
d="M580 371q0 -21 -7.5 -40.5t-22 -34t-35.5 -23.5t-48 -9q-62 0 -118 71t-56 165q0 97 53 168q38 53 92 81l31 9q-40 -26 -71 -84q-25 -56 -25 -113q0 -55 33 -110l32 20q10 4 19.5 6.5t17.5 3.5q22 0 41.5 -9t33.5 -24t22 -35t8 -42zM539 74q0 -18 -7 -33.5t-18.5 -27
t-27 -18.5t-33.5 -7q-32 0 -57 27q-25 25 -25 59q0 32 25 57q25 27 57 27q33 0 59 -26q27 -24 27 -58z" />
    <glyph glyph-name="arabicquestionmark" unicode="&#x61f;" horiz-adv-x="757" 
d="M404 263q-6 101 -33 158q-28 58 -148 195q-78 89 -104 151q-27 64 -27 125q0 90 60 164q81 100 254 100q140 0 220 -73q81 -74 81 -167q0 -31 -8 -55.5t-21 -41t-29.5 -25.5t-34.5 -9q-27 0 -46.5 20.5t-19.5 50.5q0 24 25 68t25 76q0 40 -42 75q-40 34 -114 34
q-82 0 -139 -63q-56 -62 -56 -169q0 -51 15 -102q8 -26 24 -61.5t41 -83.5q32 -62 53.5 -109.5t31.5 -82.5q22 -71 26 -175h-34zM416 160q19 0 36 -7.5t29.5 -20t20 -30t7.5 -36.5q0 -20 -7.5 -36.5t-20 -29.5t-29.5 -20t-36 -7q-39 0 -66.5 27t-27.5 66t27 66.5t67 27.5z
" />
    <glyph glyph-name="hamza" unicode="&#x621;" horiz-adv-x="622" 
d="M556 177q-11 -31 -22 -59t-22 -59l-37 -1q-25 0 -37 -4q-8 -2 -17.5 -3t-17.5 -3l-19 -4q-5 -2 -10 -3.5t-10 -3.5l-29 -6l-27 -8l-25 -9l-28 -12l-61 -33l-30 -18l-36 -27l-28 -24q-14 -12 -28 -23q0 10 26 52v-1q45 54 69 73q9 9 22 17v-1l18 10q9 5 19 10h-1l36 14
l-1 8h-38q-5 0 -8.5 1t-7.5 1q-8 1 -15 2.5t-15 2.5q-8 2 -17.5 4.5t-17.5 4.5q-77 25 -77 50q0 105 95 212q96 105 220 105q23 0 52 -23h-1q9 -9 14 -19.5t6 -18.5q-13 -21 -26.5 -42t-27.5 -41l-20 17l-25 15q-29 12 -80 12q-13 0 -32.5 -8.5t-42.5 -23.5
q-22 -15 -36 -28.5t-18 -26.5q0 -55 144 -77q55 -6 139 -6h84z" />
    <glyph glyph-name="alefwithmaddaabove" unicode="&#x622;" horiz-adv-x="499" 
d="M474 1183v1l3 -1h-3zM395 1147q61 33 79 36q2 -2 2 -4q0 -20 -70 -78h1q-84 -66 -145 -66q-93 0 -170 53q-7 -14 -15.5 -30.5t-15.5 -30.5q-26 -51 -41 -44v-1q-6 6 39 96q4 9 8.5 18.5t8.5 18.5h-1q8 13 15 26t15 27q17 -11 31.5 -20t31.5 -17q55 -24 100 -24
q20 0 55.5 9t71.5 32v-1zM303 170q-1 -11 -1.5 -23.5t-1.5 -23.5q-3 -21 -10 -44l-18 -60q-4 -10 -8 -20.5t-8 -20.5v1q-4 -10 -8 -19t-9 -19q-1 42 -4 87t-8 90q-5 48 -11 98t-11 98q0 31 -1 58t-3 51q-2 26 -6 55t-10 61q-5 35 -11.5 71.5t-11.5 71.5q-4 23 10.5 62
t43.5 93q6 11 12.5 21.5t12.5 21.5q8 11 16 23.5t16 23.5q2 -14 3.5 -22t3.5 -22q1 -20 2 -43.5t2 -43.5q1 -28 1.5 -61.5t1.5 -62.5l3 -121z" />
    <glyph glyph-name="alefwithhamzaabove" unicode="&#x623;" horiz-adv-x="499" 
d="M378 1011q-45 0 -83 -8.5t-77 -28.5q-25 -14 -50 -27.5t-51 -27.5q7 7 11 12t8 8.5t8 8t11 12.5h-1l85 55l-63 1q-4 0 -9 0.5t-10 0.5q-5 2 -11.5 3t-11.5 3q-18 6 -31.5 15t-20.5 22q1 26 15 54t37 56q30 32 66.5 49.5t77.5 18.5l33 -6q17 -3 17 -28q0 -11 -5 -18
q-2 -5 -2.5 -8t-2.5 -8l1 1q-2 -2 -3.5 -6t-3.5 -7q-14 16 -30.5 22.5t-39.5 6.5q-17 0 -66 -12q-38 -13 -49 -43v1q-7 -13 5 -28q8 -7 21.5 -12.5t30.5 -12.5q66 -18 230 -18zM306 170q-1 -11 -1.5 -23.5t-1.5 -23.5q-3 -21 -10 -44l-18 -60q-4 -10 -8 -20.5t-8 -20.5v1
q-5 -10 -9.5 -20.5t-9.5 -21.5q-5 51 -8 95.5t-8 95.5q-4 44 -8 89.5t-8 90.5q-1 18 -1.5 39.5t-1.5 39.5l-1 31l-10 67q-7 46 -14.5 92.5t-14.5 93.5v-1q-6 47 54 156q6 11 20 33.5t37 57.5q2 -14 3.5 -21.5t3.5 -21.5q1 -20 2 -43t2 -43q1 -30 1.5 -61t1.5 -61l3 -119z
" />
    <glyph glyph-name="wawwithhamzaabove" unicode="&#x624;" horiz-adv-x="770" 
d="M655 258q-8 57 -30 87.5t-56 33.5q-48 0 -70 -92q2 -10 10.5 -22.5t24.5 -26.5l17 -8l25 -8l24 -2q37 0 55 36v2zM666 711q-1 -3 -2.5 -5t-3.5 -5l-17 -22l-16 -21l-12 -21q-17 0 -38 -3t-47 -10q-55 -11 -83 -33v1q-23 -13 -42.5 -29.5t-36.5 -35.5q-2 -2 -6 -4
q-4 8 -4 14l6 30q3 8 9 19t12 19q4 3 8.5 6.5t9.5 7.5l39 18q-10 2 -26.5 6.5t-26.5 6.5q-8 3 -15 6.5t-12 8.5q-20 14 -20 41q0 22 12 51.5t31 60.5q25 32 56.5 51.5t65.5 19.5q17 0 19 -2q9 0 23 -10q25 -14 25 -42q-6 -12 -13 -25t-13 -25q-14 14 -45 26l-20 5l-22 5
q-11 0 -17 -1t-8 -2l-23 -14q-22 -13 -24 -29q0 -26 50 -58q20 -10 37 -14.5t29 -4.5l56 3q20 2 39 4t39 4zM736 233q0 -82 -31.5 -178t-88.5 -197q-64 -108 -136.5 -166t-147.5 -58l-40 3q-11 2 -21.5 5t-20.5 5q-24 7 -52.5 18.5t-58.5 29.5q-106 49 -106 71q0 4 10 9
l112 -33l43 -12l45 -7q60 0 125.5 34t139.5 103q96 95 183 243l-26 86q-10 -17 -18 -30.5t-13 -20.5q-9 -14 -32 -28q-29 -19 -56 -19q-36 0 -75 44v-1q-34 46 -34 95l3 43l2 10l2 10l7 24q10 38 45 97q27 47 52.5 75t42.5 28t39.5 -19.5t48.5 -56.5q27 -48 42 -101t15 -106
z" />
    <glyph glyph-name="alefwithhamzabelow" unicode="&#x625;" horiz-adv-x="473" 
d="M362 -306q-48 0 -98.5 -14.5t-99.5 -40.5l-46 -24q-3 -2 -6.5 -4.5t-7.5 -4.5l1 1q8 8 17.5 18.5t17.5 18.5l33 19l52 35h-33l-27 2q-10 0 -40 9q-39 10 -52 33q1 24 14 51.5t36 55.5q30 33 66 51.5t76 18.5q19 0 30 -4q17 -9 17 -31q0 -11 -5 -18q-2 -4 -2.5 -7t-2.5 -7
v1q-2 -3 -3.5 -6l-3.5 -7q-25 27 -66 27q-28 0 -76 -17q-20 -8 -37 -36l-2 -9q0 -24 64 -43q58 -18 218 -18zM308 206q0 -42 -12 -90l-18 -61q-4 -10 -8 -20.5t-8 -20.5v1q-5 -11 -9.5 -21.5t-9.5 -21.5q-5 45 -8 84t-8 84l-16 165l-19 189q-12 118 -23 215t-22 177v-1
q-4 24 10.5 63t43.5 93q7 12 15.5 26.5t16.5 26.5q6 9 13 20.5t14 21.5q2 -2 1 -3t0 -8q1 -5 2 -10.5t2 -10.5q1 -15 2 -30.5t2 -30.5l2 -46l3 -61l2 -59q2 -33 3.5 -67t3.5 -67l2 -52l2 -52l3 -106l4 -54q2 -27 4 -55l1 -75v-31l2 -32l1 -38z" />
    <glyph glyph-name="yehwithhamzaabove" unicode="&#x626;" horiz-adv-x="1198" 
d="M623 785q-2 -4 -2.5 -5.5t-2.5 -5.5v1q-2 -5 -5 -9t-5 -9h1l-30 -45q-16 0 -38 -5t-49 -14l-48 -16l-21 -8l-18 -9q-21 -10 -38.5 -25t-33.5 -34q-2 -2 -8 -6q0 7 2 16.5t5 23.5q10 20 30.5 39.5t51.5 33.5q-49 6 -80 26q-30 17 -30 45q0 51 45 116q25 32 55.5 51.5
t62.5 19.5q25 0 42 -15.5t21 -38.5l-7 -14q-1 -3 -2 -6.5t-2 -6.5l1 1q-4 -6 -8.5 -12t-9.5 -13q-10 15 -30 24.5t-35 11.5l-28 -3q-10 -2 -26 -12v1q-16 -7 -28 -30q0 -28 44 -60l22 -12l42 -10h63q5 1 10.5 2t10.5 2zM1111 578q0 -11 -2.5 -26.5t-7.5 -32.5
q-2 -5 -3.5 -11t-3.5 -11q-10 5 -20 8t-24 8l-20 5l-30 4q-95 0 -203 -93q-107 -92 -107 -174q0 -41 56 -67q61 -21 150 -21q50 0 87 -7.5t59 -21.5q28 -22 28 -62q0 -91 -31 -143q-31 -53 -125 -120q-52 -38 -111.5 -68t-128.5 -52q-67 -22 -135.5 -34t-133.5 -12
q-68 0 -125 18t-99 49q-45 38 -69.5 89.5t-24.5 117.5q0 53 17.5 120t49.5 139q27 59 47.5 91t33.5 32q3 0 6 -8l-34 -88q-5 -15 -11.5 -31.5t-11.5 -31.5q-11 -35 -17.5 -67.5t-6.5 -58.5q0 -131 106 -195q80 -44 238 -44q127 0 313 84q189 84 189 130q-12 25 -36 42l-39 4
l-69 3q-63 0 -108.5 7.5t-75.5 21.5q-26 14 -40 42q-14 33 -14 71q0 131 142 306t249 175h36q6 -1 12.5 -1.5t12.5 -1.5h-1q36 -11 36 -50v-34z" />
    <glyph glyph-name="arabicalef" unicode="&#x627;" horiz-adv-x="463" 
d="M310 190q0 -53 -13 -92q-3 -22 -18 -61v1q-8 -19 -15.5 -39t-15.5 -39l-2 48l-2 57v37l-4 26q-2 17 -4.5 37t-4.5 37q-8 69 -16 141t-16 141q-5 51 -10.5 103t-10.5 103q-5 53 -11 104t-14 92l-1 11q0 17 2 23l9 30q7 20 17 43t25 48q14 23 28.5 47t28.5 47q2 -2 1 -2.5
t0 -7.5q1 -5 2 -10.5t2 -10.5q1 -14 2 -30t2 -30q1 -19 1.5 -43t1.5 -44l3 -84l2 -85l3 -72q3 -42 6 -84.5t6 -84.5l3 -74l3 -61l3 -145l1 -43z" />
    <glyph glyph-name="beh" unicode="&#x628;" horiz-adv-x="1276" 
d="M741 -286q-19 -29 -35 -55t-34 -55q-40 24 -78.5 46.5t-79.5 46.5l34.5 57.5t34.5 56.5zM1257 201l-4 -25q-1 -6 -2 -12.5t-2 -12.5q-2 -8 -3.5 -16t-3.5 -15l-16 -67l-6 -30q-2 -5 -3.5 -11t-3.5 -12h-876q-150 0 -232 70q-42 37 -65 78q-22 48 -22 94q0 29 15 72t42 97
q25 49 45 77.5t34 33.5q-2 -10 -3.5 -16.5t-3.5 -15.5q-23 -51 -36 -88t-13 -51q0 -98 57 -155q11 -11 27 -21t36 -20q43 -15 87 -15h877q0 28 -9 69l-12 42q-2 6 -3.5 11.5t-4.5 9.5q-2 3 -3 7t-3 7q-5 14 -11.5 27.5t-17.5 33.5q-11 18 -21.5 35t-21.5 35q19 35 39 73
t38 73q8 -12 22 -43q9 -19 18 -38.5t18 -39.5v1q5 -13 9 -26t9 -26q4 -14 8.5 -28.5t8.5 -28.5q12 -51 12 -94v-39z" />
    <glyph glyph-name="tehmarbuta" unicode="&#x629;" horiz-adv-x="539" 
d="M408 194q0 21 -6 39l-6 17q-2 2 -4.5 7t-4.5 7l-14 22l-21 20q-10 9 -38 29q-4 0 -6 2t-3.5 2.5t-3.5 2.5l-23 16l-46 -49q-21 -24 -33 -45q-27 -47 -27 -68q0 -12 9 -25l8 -10l21 -14q6 -1 13 -2.5t13 -2.5l22 -3l46 3q17 2 24 5l14 6l14 6h-1q52 20 53 35zM443 814
q-20 -29 -37 -56t-37 -56l-30 25l-41 30l-36 23l-25 -36q-6 -11 -13 -22.5t-13 -22.5h1q-4 -5 -6.5 -11t-6.5 -12q-32 23 -61 45.5t-60 45.5q18 28 34.5 54t34.5 54l14 -13q4 -3 12 -8.5t13 -8.5q39 -30 72 -51l44 66q6 9 11 18t11 18zM462 274q0 -85 -27 -148
q-11 -26 -30.5 -49t-50.5 -40q-61 -35 -132 -35q-84 0 -109 40v-1q-2 4 -3.5 9t-3.5 8q-1 3 -2.5 8t-2.5 8v11l-2 20q0 49 21.5 109t73.5 146q81 142 98 142q36 0 100 -70q70 -76 70 -158z" />
    <glyph glyph-name="teh" unicode="&#x62a;" horiz-adv-x="1276" 
d="M855 635q-17 -29 -32.5 -55t-32.5 -54l-164 95q-13 -21 -25.5 -44t-25.5 -45q-43 25 -84 48.5t-83 49.5q17 29 33.5 55.5t33.5 55.5l163 -98q12 21 26.5 45t26.5 45zM1257 201l-4 -25q-1 -6 -2 -12.5t-2 -12.5q-2 -8 -3.5 -16t-3.5 -15l-16 -67l-6 -30q-2 -5 -3.5 -11
t-3.5 -12h-876q-150 0 -232 70q-42 37 -65 78q-22 48 -22 94q0 29 15 72t42 97q25 49 45 77.5t34 33.5q-2 -10 -3.5 -16.5t-3.5 -15.5q-23 -51 -36 -88t-13 -51q0 -98 57 -155q11 -11 27 -21t36 -20q43 -15 87 -15h877q0 28 -9 69l-12 42q-2 6 -3.5 11.5t-4.5 9.5q-2 3 -3 7
t-3 7q-5 14 -11.5 27.5t-17.5 33.5q-11 18 -21.5 35t-21.5 35q19 35 39 73t38 73q8 -12 22 -43q9 -19 18 -38.5t18 -39.5v1q5 -13 9 -26t9 -26q4 -14 8.5 -28.5t8.5 -28.5q12 -51 12 -94v-39z" />
    <glyph glyph-name="theh" unicode="&#x62b;" horiz-adv-x="1276" 
d="M597 856q-17 -29 -32.5 -55.5t-33.5 -55.5q-41 24 -79.5 48t-79.5 48q17 29 34 55.5t34 55.5zM820 613q-17 -29 -32.5 -54.5t-32.5 -53.5l-162 96q-12 -21 -27 -45t-28 -45q-42 25 -82 48t-82 48q17 30 32.5 57t32.5 56l164 -98q12 21 26.5 45t26.5 45zM1257 201l-4 -25
q-1 -6 -2 -12.5t-2 -11.5q-2 -8 -3.5 -16t-3.5 -16l-16 -67l-6 -30q-2 -5 -3.5 -11t-3.5 -12h-876q-150 0 -232 70q-42 37 -65 78q-22 48 -22 94q0 29 15 72t42 97q25 49 45 77.5t34 33.5q-2 -10 -3.5 -16.5t-3.5 -15.5q-23 -51 -36 -88t-13 -51q0 -98 57 -155
q11 -11 27 -21t36 -20q43 -15 87 -15h877q0 28 -9 69l-12 42q-2 6 -3.5 11.5t-4.5 9.5q-2 3 -3 7t-3 7q-5 14 -11.5 27.5t-17.5 33.5q-11 18 -21.5 35t-21.5 35q19 35 39 73t38 73q8 -12 22 -43q9 -19 18 -38.5t18 -39.5v1q5 -13 9 -26t9 -26q4 -14 8.5 -28.5t8.5 -28.5
q12 -51 12 -94v-39z" />
    <glyph glyph-name="jeem" unicode="&#x62c;" horiz-adv-x="815" 
d="M634 -101q-18 -32 -33.5 -61t-33.5 -61q-42 25 -81.5 48t-81.5 48q15 29 30.5 57.5t30.5 57.5zM854 -573q-28 -21 -59 -39v1l-42 -21q-10 -5 -20 -9t-20 -9h1q-17 -7 -46.5 -13.5t-66.5 -14.5q-15 -2 -30.5 -4t-30.5 -4l-67 -3q-246 0 -379 106q-131 104 -131 277
q0 117 31 214q21 78 53 137q16 30 37 60t47 62q4 4 8 9l8 10q5 5 10 10.5t10 10.5q11 11 26 25t27 25l105 85l-32 9l-26 7l-45 9q-62 12 -126 12q-32 0 -64.5 -5t-61.5 -13q-2 0 -7.5 -2.5t-8.5 -4.5q2 15 4.5 26t4.5 25q49 130 145 130q86 0 210 -25q126 -24 251 -24h192
q-17 -38 -31.5 -71.5t-31.5 -70.5q-28 0 -62.5 -5.5t-71.5 -14.5l-50 -10l-46 -12q-92 -29 -173.5 -85t-147.5 -134q-58 -69 -89.5 -131.5t-31.5 -111.5q0 -288 319 -373l86 -20l57 -7l60 -3l103 -3z" />
    <glyph glyph-name="hah" unicode="&#x62d;" horiz-adv-x="856" 
d="M897 -573q-13 -9 -29 -19t-33 -20v1q-12 -5 -25 -12t-25 -12h1q-10 -4 -21 -8t-21 -8q-12 -3 -24 -7t-24 -7q-16 -3 -31.5 -6t-30.5 -6q-17 -2 -34 -4.5t-34 -4.5h1q-16 -1 -35.5 -1.5t-36.5 -1.5q-125 2 -226.5 28t-170.5 78q-65 48 -101.5 120.5t-36.5 156.5
q0 54 8.5 108t25.5 106q21 66 57 131.5t86 128.5v-1q18 21 41 43.5t52 46.5q17 17 44.5 37.5t65.5 46.5q-33 12 -59 18q-12 2 -24.5 4t-24.5 4q-32 6 -66 9t-66 3q-14 -1 -30.5 -1.5t-30.5 -1.5q-5 0 -13 -1t-14 -3q-7 -2 -13.5 -3.5t-13.5 -3.5h1q-18 -3 -22 -5
q-3 -2 -6 -3.5t-6 -3.5l4 26q2 13 4 25q29 63 68 97t86 34q45 0 100 -6t123 -19q133 -24 261 -24h196q-18 -38 -34 -71.5t-34 -70.5h-19l-30 -3l-36 -6q-12 -2 -25 -5.5t-25 -5.5l-35 -7l-64 -15q-94 -29 -178.5 -83.5t-159.5 -135.5q-125 -140 -125 -243q0 -67 23 -125
t66.5 -105t105.5 -83t140 -60q19 -5 47 -11t50 -9q10 -2 25 -3.5t31.5 -3t33 -2.5t30.5 -1l107 -3z" />
    <glyph glyph-name="khah" unicode="&#x62e;" horiz-adv-x="815" 
d="M412 906q-18 -32 -33.5 -61.5t-33.5 -61.5q-42 26 -81.5 49t-81.5 48q15 29 30.5 57.5t30.5 57.5zM854 -573q-28 -21 -59 -39v1l-42 -21q-10 -5 -20 -9t-20 -9h1q-17 -7 -46.5 -13.5t-66.5 -14.5q-15 -2 -30.5 -4t-30.5 -4l-67 -3q-246 0 -379 106q-131 104 -131 277
q0 117 31 214q21 78 53 137q16 30 37 60t47 62q4 4 8 9l8 10q5 5 10 10.5t10 10.5q11 11 26 25t27 25l105 85l-32 9l-26 7l-45 9q-62 12 -126 12q-32 0 -64.5 -5t-61.5 -13q-2 0 -7.5 -2.5t-8.5 -4.5q2 15 4.5 26t4.5 25q49 130 145 130q86 0 210 -25q126 -24 251 -24h192
q-17 -38 -31.5 -71.5t-31.5 -70.5q-28 0 -62.5 -5.5t-71.5 -14.5l-50 -10l-46 -12q-92 -29 -173.5 -85t-147.5 -134q-58 -69 -89.5 -131.5t-31.5 -111.5q0 -288 319 -373l86 -20l57 -7l60 -3l103 -3z" />
    <glyph glyph-name="dal" unicode="&#x62f;" horiz-adv-x="721" 
d="M650 159q-7 -37 -14 -76t-15 -76q-8 -5 -43.5 -12.5t-92.5 -18.5l-40 -5l-75 -9l-62 -2l-46 -3h-59q-5 0 -14.5 0.5t-14.5 0.5l-34 3q-49 0 -70 6q11 38 21 75.5t21 76.5l71 -8l87 -4q74 0 200 12l25 1h20q3 1 6.5 2t7.5 2l53 8l4 34l-1 26q0 14 -7 29v-1l-10 32
q-5 8 -8.5 16.5t-8.5 16.5l-14 25l-22 33q-8 14 -18 27.5t-21 24.5l-29 31q-5 5 -10 9.5t-10 9.5q-8 10 -23 21t-35 26l1 39q0 3 0.5 7.5t0.5 7.5l6 29l10 50l10 50q35 -24 72.5 -63.5t72.5 -88.5q40 -62 68.5 -136t39.5 -143l2 -33v-36z" />
    <glyph glyph-name="thal" unicode="&#x630;" horiz-adv-x="721" 
d="M340 921q-18 -29 -34 -56t-34 -56q-41 25 -79.5 48t-78.5 48q18 29 34 56.5t34 56.5zM650 159q-7 -37 -14 -76t-15 -76q-8 -5 -43.5 -12.5t-92.5 -18.5l-40 -5l-75 -9l-62 -2l-46 -3h-59q-5 0 -14.5 0.5t-14.5 0.5l-34 3q-49 0 -70 6q11 38 21 75.5t21 76.5l71 -8l87 -4
q74 0 200 12l25 1h20q4 1 7.5 2t7.5 2h-1l53 8l4 34l-1 26q0 14 -7 29v-1l-10 32q-5 8 -8.5 16.5t-8.5 16.5l-14 25l-22 33q-8 14 -18 27.5t-21 24.5l-29 31q-5 5 -10 9.5t-10 9.5q-8 10 -23 21t-35 26l1 39q0 3 0.5 7.5t0.5 7.5l6 29l10 50l10 50q35 -24 72.5 -63.5
t72.5 -88.5q40 -62 68.5 -136t39.5 -143l2 -33v-36z" />
    <glyph glyph-name="reh" unicode="&#x631;" horiz-adv-x="791" 
d="M706 69q0 -80 -32.5 -161t-95.5 -174q-5 -6 -10 -14t-9 -13v1l-22 -26q-4 -5 -16.5 -16.5t-32.5 -29.5h1q-82 -64 -148 -64q-63 0 -216 57q-150 55 -150 92q0 3 8 11l128 -50l54 -16q27 -6 47 -6q58 0 128.5 40.5t151.5 118.5q38 37 69.5 76t52.5 72q21 36 31 65.5
t10 58.5q0 67 -105 162q-20 16 -44.5 33.5t-44.5 32.5q9 42 18.5 84t18.5 85q62 -48 103.5 -95t61.5 -97v1q4 -12 8.5 -24.5t8.5 -24.5q2 -5 3.5 -11.5t3.5 -11.5l7 -35q3 -12 5 -27t4 -29z" />
    <glyph glyph-name="zain" unicode="&#x632;" horiz-adv-x="791" 
d="M517 809q-17 -30 -33.5 -57t-33.5 -56q-42 25 -80 48t-79 48q18 29 34 55.5t34 55.5zM706 69q-2 -79 -33.5 -160.5t-94.5 -174.5q-5 -6 -10 -14t-9 -13v1l-22 -26q-4 -5 -16.5 -16.5t-32.5 -29.5h1q-82 -64 -148 -64q-63 0 -216 57q-150 55 -150 92q0 3 8 11l128 -50
l54 -16q27 -6 47 -6q58 0 128.5 40.5t151.5 118.5q38 37 69.5 76t52.5 72q21 36 31 65.5t10 58.5q0 67 -105 162q-20 16 -44.5 33.5t-44.5 32.5q9 42 18.5 84t18.5 85q62 -48 103.5 -95t61.5 -97v1q4 -12 8.5 -24.5t8.5 -24.5q2 -5 3.5 -11.5t3.5 -11.5l7 -35q3 -12 5 -27
t4 -29z" />
    <glyph glyph-name="seen" unicode="&#x633;" horiz-adv-x="1536" 
d="M1499 233q0 -9 -1.5 -20.5t-3.5 -25.5q-5 -28 -6 -32q0 -1 -0.5 -2t-0.5 -2q-2 -8 -4 -17t-9 -37.5t-16 -47.5q-4 -9 -7.5 -18t-7.5 -19q-5 -1 -9 -2t-9 -2q-13 -2 -26.5 -3.5t-26.5 -3.5q-13 -1 -27.5 -1.5t-28.5 -1.5h-48q-3 0 -7.5 1t-8.5 1l-45 12q-5 2 -11.5 4
t-11.5 4l-30 15q-3 1 -10 5t-17 10q-53 -64 -181 -56q-16 0 -34 7q0 -14 -7 -40t-20 -63q-2 -5 -4.5 -12.5l-4.5 -13.5l-13 -32q-4 -12 -8 -20t-8 -13q-26 -42 -70 -80t-101 -69q-71 -36 -156.5 -55t-183.5 -19q-71 0 -131 21h1l-27 11q-18 7 -24 11q-10 7 -23 17.5
t-29 24.5q-74 79 -74 189q0 107 61 262q28 69 51 107t40 45q-3 -16 -5.5 -30.5t-5.5 -29.5l-57 -146q-21 -60 -21 -84q0 -140 98 -208q81 -55 210 -55q40 0 98 12.5t140 39.5q198 69 198 162q0 45 -12.5 96t-41.5 104q-16 28 -32.5 55t-32.5 55q18 38 36 77t35 77l47 -83h-1
l33 -79q4 -10 9 -21t9 -21q11 -26 42 -55l55 -6h21q13 0 92 10q25 3 29 37v73q2 24 33 58.5t98 90.5l-57 -228q0 -11 28 -23l21 -4l39 -5l46 -3h91l-15 104q-7 24 -14 47l71 90q8 11 17 23t17 23v-192z" />
    <glyph glyph-name="sheen" unicode="&#x634;" horiz-adv-x="1562" 
d="M1158 971l-32 -58l-32 -58q-41 24 -80 45.5t-81 45.5q16 28 32 55t31 55zM1329 714q-15 -29 -31.5 -56t-31.5 -56l-164 96q-12 -21 -24.5 -44t-24.5 -45q-42 25 -83.5 48.5t-83.5 47.5q17 29 34 58.5t34 59.5l175 -110q11 21 24.5 45.5t24.5 46.5zM1499 233
q0 -9 -1.5 -20.5t-3.5 -25.5q-5 -28 -6 -32q0 -1 -0.5 -2t-0.5 -2q-2 -8 -4 -17t-9 -37.5t-16 -47.5q-4 -9 -7.5 -18t-7.5 -19q-5 -1 -9 -2t-9 -2q-13 -2 -26.5 -3.5t-26.5 -3.5q-13 -1 -27.5 -1.5t-28.5 -1.5h-48q-3 0 -7.5 1t-8.5 1l-45 12q-5 2 -11.5 4t-11.5 4l-30 15
q-3 1 -10 5t-17 10q-53 -64 -181 -56q-16 0 -34 7q0 -14 -7 -40t-20 -63q-2 -5 -4.5 -12.5l-4.5 -13.5l-13 -32q-4 -12 -8 -20t-8 -13q-26 -42 -70 -80t-101 -69q-71 -36 -156.5 -55t-183.5 -19q-71 0 -131 21h1l-27 11q-18 7 -24 11q-10 7 -23 17.5t-29 24.5
q-74 79 -74 189q0 107 61 262q28 69 51 107t40 45q-3 -16 -5.5 -30.5t-5.5 -29.5l-57 -146q-21 -60 -21 -84q0 -140 98 -208q81 -55 210 -55q40 0 98 12.5t140 39.5q198 69 198 162q0 45 -12.5 96t-41.5 104q-16 28 -32.5 55t-32.5 55q18 38 36 77t35 77l47 -83h-1l33 -79
q4 -10 9 -21t9 -21q11 -26 42 -55l55 -6h21q13 0 92 10q25 3 29 37v73q2 24 33 58.5t98 90.5l-57 -228q0 -11 28 -23l21 -4l39 -5l46 -3h91l-15 104q-7 24 -14 47l71 90q8 11 17 23t17 23v-192z" />
    <glyph glyph-name="sad" unicode="&#x635;" horiz-adv-x="1916" 
d="M1720 301q-17 12 -38 21.5t-47 17.5q-50 15 -79 15h-25l-8 -2q-46 0 -158 -75q-32 -23 -66 -45.5t-66 -45.5l-92 -57l61 -2l39 -1h153q35 1 75 1.5t74 1.5l49 1l81 9l81 8q58 9 58 43q0 21 -21 45v-1q-5 7 -11.5 14.5t-13.5 13.5zM1912 246q0 -19 -46 -104l-21 -42
q-5 -10 -7.5 -15.5t-5.5 -8.5q-16 -23 -28 -34q-14 -8 -60.5 -16t-115.5 -16l-73 -3l-87 -2q-50 -1 -99.5 -2.5t-98.5 -2.5h-382q-2 -8 -3.5 -18.5t-3.5 -18.5l-9 -29q-2 -11 -5.5 -19.5t-7.5 -16.5q-23 -71 -36 -87q-27 -44 -71.5 -83t-101.5 -70q-71 -36 -156.5 -55
t-183.5 -19q-71 0 -131 21h1l-26 11q-19 6 -25 11q-10 7 -23 17.5t-29 24.5q-74 79 -74 189q0 107 61 262q55 138 92 152q-3 -16 -6 -30.5t-6 -29.5l-57 -146q-21 -60 -21 -84q0 -141 99 -208q79 -55 209 -55q40 0 98 12.5t140 39.5q198 69 198 162q0 45 -12.5 96t-41.5 104
q-16 28 -32 55t-32 55l12 34l12 34v-1q7 14 13.5 29t13.5 29h-1q5 8 9 16t9 16q6 -11 11.5 -19.5t11.5 -19.5t12.5 -23.5t12.5 -23.5v1l17 -39l15 -40l12 -33l9 -16q31 -47 66 -47l21 -2q19 0 25 -2h12q18 0 26 5l-1 -1q22 7 46 17t50 25v-1q11 5 26 14.5t32 20.5l71 47
l110 77q26 19 55.5 39.5t55.5 39.5q116 75 193 75q67 0 167 -85q96 -81 96 -163z" />
    </font>
</defs>
</svg>
